<?xml version="1.0" encoding="UTF-8" standalone="no"?>
<!-- Created with Inkscape (http://www.inkscape.org/) -->

<svg
   version="1.1"
   id="svg2"
   width="817.77332"
   height="658.22668"
   viewBox="0 0 817.77332 658.22668"
   sodipodi:docname="reshot-illustration-ambulance-XJTU9HE5Y3.eps"
   xmlns:inkscape="http://www.inkscape.org/namespaces/inkscape"
   xmlns:sodipodi="http://sodipodi.sourceforge.net/DTD/sodipodi-0.dtd"
   xmlns="http://www.w3.org/2000/svg"
   xmlns:svg="http://www.w3.org/2000/svg">
  <defs
     id="defs6" />
  <sodipodi:namedview
     id="namedview4"
     pagecolor="#ffffff"
     bordercolor="#000000"
     borderopacity="0.25"
     inkscape:showpageshadow="2"
     inkscape:pageopacity="0.0"
     inkscape:pagecheckerboard="0"
     inkscape:deskcolor="#d1d1d1" />
  <g
     id="g8"
     inkscape:groupmode="layer"
     inkscape:label="ink_ext_XXXXXX"
     transform="matrix(1.3333333,0,0,-1.3333333,0,658.22667)">
    <g
       id="g10"
       transform="scale(0.1)">
      <path
         d="m 5742.9,1166.7 c 533.9,456.1 322.6,810 -252.5,1320.9 -224.27,199.23 -698.21,-21.66 -1199.76,-242.56 C 3506.05,1899.48 2653.9,1553.93 2584.3,2816.7 2470.2,4886.7 847.301,2966.7 754.801,2869.9 162.402,2249.6 34,1208.2 722.301,567.5 985.898,322.102 1303.5,159.699 1533.7,60.6016 L 5407.6,198.801 c 65.6,175.699 -198.7,511.801 335.3,967.899"
         style="fill:#d3ecfa;fill-opacity:1;fill-rule:nonzero;stroke:none"
         id="path12" />
      <path
         d="m 5684.5,3358.9 v 244.7 h -76.1 v 625 H 5332.8 V 3358.9 H 5214 V 1427 h 598.8 v 1931.9 h -128.3"
         style="fill:#e0f1fb;fill-opacity:1;fill-rule:nonzero;stroke:none"
         id="path14" />
      <path
         d="M 4705.5,3377.9 H 4553.4 V 3625 h -47.6 v 351.7 h -47.5 V 3625 3553.7 3377.9 h -114 v -104.6 h -114.1 v 280.4 h 66.5 v 736.7 h -66.5 v 394.4 h -147.3 v 128.3 h -152.1 v 123.6 h -408.7 v -123.6 h -47.5 V 4684.8 H 3360.5 V 3444.4 h -294.7 v 278 h -95 V 1709.8 h 76 V 1427 h 1768 v 1846.3 h -109.3 v 104.6"
         style="fill:#e0f1fb;fill-opacity:1;fill-rule:nonzero;stroke:none"
         id="path16" />
      <path
         d="m 5818.1,850.902 c 117.4,370.998 295,432.198 313.6,645.098 37.8,431.1 -620.9,966.8 -1469.1,1090 -554,80 -1260,-4.8 -1667.2,-311.4 C 2428.7,1848 2713,1198.4 2318.6,1117.9 c -138.35,-28.26 -255.62,34.88 -389.19,98.02 C 1803.46,1275.45 1663,1334.98 1476.7,1317.9 1078,1281.5 679.801,913.699 766.699,650.5 906.699,228.602 2279.4,118.5 2995.2,61 3656.5,8 4610.3,-9.59766 5768.4,172.309 c -36.89,226.961 -19.87,459.421 49.7,678.593"
         style="fill:#d3ecfa;fill-opacity:1;fill-rule:nonzero;stroke:none"
         id="path18" />
      <path
         d="M 5960,25.1016 H 3974.61 C 4451.23,28.0508 5000.96,60.8203 5610.31,148.512 5832.99,112.012 5960,69.9023 5960,25.1016 m -2128.94,0 H 447.301 c 0,69.3086 302.5,132.0004 792.649,177.6404 105.4,-57.32 205.94,-104.3397 293.75,-142.1404 L 2568.17,97.5 C 2723.9,82.7891 2869.68,71.082 2995.2,61 3236.33,41.6719 3516.43,27.0508 3831.06,25.1016"
         style="fill:#9d8eb8;fill-opacity:1;fill-rule:nonzero;stroke:none"
         id="path20" />
      <path
         d="m 1533.7,60.6016 c -87.81,37.8007 -188.35,84.8204 -293.75,142.1404 112.15,10.438 233.99,19.977 364.42,28.52 307.81,-63.66 655.38,-104.61 963.8,-133.762 L 1533.7,60.6016"
         style="fill:#988db8;fill-opacity:1;fill-rule:nonzero;stroke:none"
         id="path22" />
      <path
         d="M 3974.61,25.1016 H 3831.06 C 3516.43,27.0508 3236.33,41.6719 2995.2,61 c -125.52,10.082 -271.3,21.7891 -427.03,36.5 -308.42,29.152 -655.99,70.102 -963.8,133.762 450.98,29.5 1003.1,46.84 1599.33,46.84 1034.04,0 1935,-52.27 2406.61,-129.59 C 5000.96,60.8203 4451.23,28.0508 3974.61,25.1016"
         style="fill:#988db8;fill-opacity:1;fill-rule:nonzero;stroke:none"
         id="path24" />
      <path
         d="m 2531.3,2480.3 c 0,0 -93,39.4 -95,185.5 -2,146.1 108.4,205.9 138.5,141 30.1,-64.9 207.7,-24.3 152.9,130 -54.8,154.3 -49.4,310 114.2,260 163.6,-50 209.1,79.3 200.9,157.8 -8.2,78.5 409.1,178.8 300,-53 -109.1,-231.8 -227.2,-138.5 -78.8,-251.9 148.4,-113.4 205.8,-303.9 50.5,-268.5 -155.3,35.4 -292.2,160 -270,57 22.2,-103 406.5,-146.3 229.1,-221.5 -177.4,-75.2 -280,53.4 -348.4,78.9 -68.4,25.5 30,-152.4 -4.7,-195.8 -34.7,-43.4 -211.5,-86.7 -336,-27.8 l -53.2,8.3"
         style="fill:#73b2e0;fill-opacity:1;fill-rule:nonzero;stroke:none"
         id="path26" />
      <path
         d="m 2150,2338.7 c 0,0 -282.8,-32.5 -334.7,136.6 -51.9,169.1 161.7,112.4 161.7,112.4 0,0 -193.5,220.9 -328.9,217.8 -135.4,-3.1 -240.8,234.1 -52.7,240 188.1,5.9 197.1,-15.9 197.1,-15.9 0,0 -322.5,86 -232.5,271.3 90,185.3 226,130 280.9,14.4 35.85,-78.73 63.76,-160.83 83.3,-245.1 0,0 -28.8,91.3 83.1,228.3 111.9,137 213.4,-41.9 183.3,-160.9 -30.1,-119 -60,-172.9 -60,-172.9 0,0 151,228.5 217.8,112.9 66.8,-115.6 -51.9,-194.8 -51.9,-194.8 0,0 104.7,102.9 167.9,84.2 63.2,-18.7 132.8,-208.4 42.9,-262.8 -89.9,-54.4 -127.3,-93.1 -127.3,-93.1 0,0 202.6,-100.5 150,-159.3 -52.6,-58.8 -380,-113.1 -380,-113.1"
         style="fill:#73b2e0;fill-opacity:1;fill-rule:nonzero;stroke:none"
         id="path28" />
      <path
         d="m 1487.7,2309.2 c 0,0 -63.6,172 91,244.2 154.6,72.2 370,91 434.9,20 0,0 -294.7,-57.8 -296.2,-190.7 -1.5,-132.9 -171.9,-222.3 -229.7,-73.5"
         style="fill:#a9d7f3;fill-opacity:1;fill-rule:nonzero;stroke:none"
         id="path30" />
      <path
         d="m 1544.9,2674.6 c 0,0 -364.9,-134.4 -404.9,155.2 -40,289.6 144,262.6 152.8,172.5 8.8,-90.1 111.6,-333.6 252.1,-327.7"
         style="fill:#a9d7f3;fill-opacity:1;fill-rule:nonzero;stroke:none"
         id="path32" />
      <path
         d="m 2434.8,3743.2 c 0,0 -75.7,-181.2 0,-312.6 75.7,-131.4 10.7,-366.7 10.7,-366.7 0,0 147.4,193.7 133.2,384.6 -14.2,190.9 -78.7,419.2 -143.9,294.7"
         style="fill:#a9d7f3;fill-opacity:1;fill-rule:nonzero;stroke:none"
         id="path34" />
      <path
         d="M 0,273.102 H 6133.3 V 0 H 0 v 273.102"
         style="fill:#9ab6e3;fill-opacity:1;fill-rule:nonzero;stroke:none"
         id="path36" />
      <path
         d="M 1639,686.199 C 1631.6,674.801 1624.7,663 1618.4,650.902 1592.98,602.391 1576.58,549.672 1570,495.301 H 902.996 V 686.199 H 1639"
         style="fill:#363c49;fill-opacity:1;fill-rule:nonzero;stroke:none"
         id="path38" />
      <path
         d="m 4735.8,686.199 c -37.29,-57.558 -61.02,-122.828 -69.4,-190.898 H 2474.7 c -8.41,68.078 -32.18,133.351 -69.5,190.898 h 2330.6"
         style="fill:#363c49;fill-opacity:1;fill-rule:nonzero;stroke:none"
         id="path40" />
      <path
         d="M 5832.1,686.199 V 495.301 h -260.6 c -8.41,68.078 -32.17,133.351 -69.5,190.898 h 330.1"
         style="fill:#363c49;fill-opacity:1;fill-rule:nonzero;stroke:none"
         id="path42" />
      <path
         d="M 4028.8,2443.6 V 650.902 h -1603 c -6.3,12.098 -13.2,23.899 -20.6,35.297 -136.69,211.582 -419.03,272.289 -630.61,135.59 -54.3,-35.078 -100.51,-81.297 -135.59,-135.59 -7.4,-11.398 -14.3,-23.199 -20.6,-35.297 H 998.398 V 2443.6 H 4028.8"
         style="fill:#5173c1;fill-opacity:1;fill-rule:nonzero;stroke:none"
         id="path44" />
      <path
         d="m 2022.1,231.199 c -271.7,4.5 -273.8,409.5 0,414.903 273.8,-5.403 271.7,-410.5 0,-414.903 z m 383,264.102 C 2359.9,842.5 1884.2,946.102 1698.2,650.801 1528.2,405.402 1721.2,43 2022.1,51.5 c 234.1,-2 418.8,212.801 383,443.801"
         style="fill:#363c49;fill-opacity:1;fill-rule:nonzero;stroke:none"
         id="path46" />
      <path
         d="m 2021.7,272.602 c -217.6,3.5 -219.3,327.8 0,332.199 219.7,-4.399 218.3,-328.699 0.4,-332.199 z m 200,222.699 c -64.4,228.301 -407.4,181.101 -407.1,-56.602 11.8,-311.097 480.7,-245.597 407.1,56.602"
         style="fill:#344385;fill-opacity:1;fill-rule:nonzero;stroke:none"
         id="path48" />
      <path
         d="m 2188.2,438.699 c -11.3,-257.398 -399.3,-189.097 -322.3,56.602 61.4,172.398 323.2,126.898 322.3,-56.602"
         style="fill:#f8f8f8;fill-opacity:1;fill-rule:nonzero;stroke:none"
         id="path50" />
      <path
         d="M 5747.2,1213.1 V 650.902 h -224.6 c -154.1,320 -653.3,320 -807.4,0 H 4095.9 V 2270.3 c 0,0 620.6,-3.5 698.4,0 77.8,3.5 198.9,-81.3 198.9,-81.3 v -228.9 c 185.3,-186.7 566.8,-565.7 754,-747"
         style="fill:#5173c1;fill-opacity:1;fill-rule:nonzero;stroke:none"
         id="path52" />
      <path
         d="m 4255.1,2335.6 h 407.8 v -66.7 h -407.8 v 66.7"
         style="fill:#f8a16f;fill-opacity:1;fill-rule:nonzero;stroke:none"
         id="path54" />
      <path
         d="m 4591.9,2355.6 c -2.08,78.12 -67.09,139.77 -145.21,137.69 -75.2,-2 -135.69,-62.49 -137.69,-137.69 0,-6.69 0.47,-13.37 1.4,-20 h 280 c 0.96,6.63 1.46,13.31 1.5,20"
         style="fill:#f14574;fill-opacity:1;fill-rule:nonzero;stroke:none"
         id="path56" />
      <path
         d="m 4528.5,1916.7 c 0,35.14 -28.46,63.64 -63.6,63.7 h -146.2 c -35.15,-0.06 -63.6,-28.56 -63.6,-63.7 v -397.9 l 273.4,273.5 v 124.4"
         style="fill:#d3ecfa;fill-opacity:1;fill-rule:nonzero;stroke:none"
         id="path58" />
      <path
         d="m 4528.5,1792.3 -273.4,-273.5 v -59.4 c 0.02,-11.4 3.08,-22.59 8.9,-32.4 l 264.5,264.5 v 100.8"
         style="fill:#f8f8f8;fill-opacity:1;fill-rule:nonzero;stroke:none"
         id="path60" />
      <path
         d="m 4264,1426.7 c 11.43,-19.35 32.23,-31.21 54.7,-31.2 h 146.2 c 35.13,0 63.6,28.48 63.6,63.6 v 232.4 L 4264,1426.7"
         style="fill:#d3ecfa;fill-opacity:1;fill-rule:nonzero;stroke:none"
         id="path62" />
      <path
         d="m 5148.2,1804.4 -394.5,-394.5 h 49.5 l 369.7,369.7 -24.7,24.8"
         style="fill:#f8f8f8;fill-opacity:1;fill-rule:nonzero;stroke:none"
         id="path64" />
      <path
         d="m 5172.9,1779.6 -369.7,-369.7 h 224 l 257.4,257.4 -111.7,112.3"
         style="fill:#d3ecfa;fill-opacity:1;fill-rule:nonzero;stroke:none"
         id="path66" />
      <path
         d="m 5284.6,1667.3 -257.4,-257.4 h 259.3 l 127.4,127.4 -129.3,130"
         style="fill:#f8f8f8;fill-opacity:1;fill-rule:nonzero;stroke:none"
         id="path68" />
      <path
         d="m 5413.9,1537.3 -127.4,-127.4 h 254.2 z"
         style="fill:#d3ecfa;fill-opacity:1;fill-rule:nonzero;stroke:none"
         id="path70" />
      <path
         d="m 4591.9,1935 v -79.4 l 79.3,79.4 z"
         style="fill:#51a0b4;fill-opacity:1;fill-rule:nonzero;stroke:none"
         id="path72" />
      <path
         d="m 4671.2,1935 -79.3,-79.4 V 1754.9 L 4772,1935 h -100.8"
         style="fill:#f8f8f8;fill-opacity:1;fill-rule:nonzero;stroke:none"
         id="path74" />
      <path
         d="M 5018.2,1935 H 4772 l -180.1,-180.1 v -345 h 161.8 l 394.5,394.5 -130,130.6"
         style="fill:#d3ecfa;fill-opacity:1;fill-rule:nonzero;stroke:none"
         id="path76" />
      <path
         d="m 5667.8,1290.9 -85,-113.2 V 1038 h 164.5 v 175.1 l -79.5,77.8"
         style="fill:#f8a16f;fill-opacity:1;fill-rule:nonzero;stroke:none"
         id="path78" />
      <path
         d="m 3017.5,646.102 h 747.3 V 495.199 h -747.3 v 150.903"
         style="fill:#363c49;fill-opacity:1;fill-rule:nonzero;stroke:none"
         id="path80" />
      <path
         d="m 2144,2168.3 c 251.23,0 454.9,-203.67 454.9,-454.9 0,-251.23 -203.67,-454.9 -454.9,-454.9 -251.24,0 -454.9,203.67 -454.9,454.9 0,251.23 203.66,454.9 454.9,454.9"
         style="fill:#f3608d;fill-opacity:1;fill-rule:nonzero;stroke:none"
         id="path82" />
      <path
         d="M 2375.2,1783.9 H 2229 v 143.9 H 2059 V 1783.9 H 1912.8 V 1643 H 2059 v -143.9 h 170 V 1643 h 146.2 v 140.9"
         style="fill:#f8f8f8;fill-opacity:1;fill-rule:nonzero;stroke:none"
         id="path84" />
      <path
         d="m 5118.9,231.199 c -271.7,4.5 -273.7,409.5 0,414.903 273.8,-5.403 271.7,-410.5 0,-414.903 z M 5502,495.301 C 5456.8,842.5 4980.9,946.199 4795,650.801 4625,405.402 4818.1,43 5118.9,51.5 5353,49.5 5537.8,264.301 5502,495.301"
         style="fill:#363c49;fill-opacity:1;fill-rule:nonzero;stroke:none"
         id="path86" />
      <path
         d="m 5118.5,273.102 c -216.9,3.5 -218.6,326.8 0,331.199 219,-4.399 217.3,-327.602 0.4,-331.199 z m 200,222.199 c -64.3,228.301 -407.3,181 -407,-56.602 11.7,-311.097 480.6,-245.699 407,56.602"
         style="fill:#344385;fill-opacity:1;fill-rule:nonzero;stroke:none"
         id="path88" />
      <path
         d="m 5284.5,438.699 c -11.2,-256.801 -398.5,-188.398 -321.2,56.602 61.4,171.398 322.1,126.301 321.2,-56.602"
         style="fill:#f8f8f8;fill-opacity:1;fill-rule:nonzero;stroke:none"
         id="path90" />
      <path
         d="m 3017.5,2097.9 h 747.3 V 650.902 H 3017.5 V 2097.9"
         style="fill:#fcfcf6;fill-opacity:1;fill-rule:nonzero;stroke:none"
         id="path92" />
      <path
         d="M 3078.6,1374.4 H 3185 c 10.33,0 18.7,-8.37 18.7,-18.7 v -3.8 c 0,-10.33 -8.37,-18.7 -18.7,-18.7 h -106.4 c -10.33,0 -18.7,8.37 -18.7,18.7 v 3.8 c 0,10.33 8.37,18.7 18.7,18.7"
         style="fill:#363c49;fill-opacity:1;fill-rule:nonzero;stroke:none"
         id="path94" />
      <path
         d="M 3450.6,2022.7 C 3329,1896.4 3212.9,1764.6 3097,1632.7 v -47.2 l 436.7,436.7 -83.1,0.5"
         style="fill:#f8f8f8;fill-opacity:1;fill-rule:nonzero;stroke:none"
         id="path96" />
      <path
         d="M 3661,2022.7 H 3533.7 L 3097,1586 v -125.4 h 55 c 168.7,126 340.8,238.8 509,355.2 v 206.9"
         style="fill:#d3ecfa;fill-opacity:1;fill-rule:nonzero;stroke:none"
         id="path98" />
      <path
         d="m 3661,1671.7 c -10,-3.6 -20,-7.2 -29.3,-10 -127.3,-45.2 -254.6,-107.4 -351,-200.7 h 380 l 0.3,210.7"
         style="fill:#d3ecfa;fill-opacity:1;fill-rule:nonzero;stroke:none"
         id="path100" />
      <path
         d="m 3661,1671.7 v 144.1 c -168.2,-116.4 -340,-229.2 -509,-355.2 h 128.7 c 96.4,93.3 223.7,155.5 351,200.7 9.8,3.2 19.6,6.8 29.3,10.4"
         style="fill:#f8f8f8;fill-opacity:1;fill-rule:nonzero;stroke:none"
         id="path102" />
      <path
         d="m 3097,2022.7 v -390 c 115.9,131.4 232,263.2 353.6,390 H 3097"
         style="fill:#d3ecfa;fill-opacity:1;fill-rule:nonzero;stroke:none"
         id="path104" />
      <path
         d="m 988.699,1007.9 h 54.801 c 16.13,0 29.2,-13.08 29.2,-29.201 V 855.102 c 0,-16.122 -13.07,-29.2 -29.2,-29.2 h -54.801 c -16.125,0 -29.195,13.078 -29.195,29.2 v 123.597 c 0,16.121 13.07,29.201 29.195,29.201"
         style="fill:#26315d;fill-opacity:1;fill-rule:nonzero;stroke:none"
         id="path106" />
      <path
         d="m 1032.9,2484.2 h 40 v -182 H 960 v 108.6 c 0,40.34 32.559,73.13 72.9,73.4"
         style="fill:#26315d;fill-opacity:1;fill-rule:nonzero;stroke:none"
         id="path108" />
      <path
         d="M 274.504,2578.7 H 1201.2 c 0,0 89.1,-79.1 -32.1,-68.5 -121.2,10.6 -894.596,68.5 -894.596,68.5"
         style="fill:#ffffff;fill-opacity:1;fill-rule:nonzero;stroke:none"
         id="path110" />
      <path
         d="m 0,2317.8 c 0,0 826.898,47.3 787.699,-15.6 C 748.5,2239.3 0,2317.8 0,2317.8"
         style="fill:#ffffff;fill-opacity:1;fill-rule:nonzero;stroke:none"
         id="path112" />
      <path
         d="m 3160,4184.7 c -0.04,124.93 -101.35,226.17 -226.27,226.13 -62.14,-0.03 -121.52,-25.6 -164.23,-70.73 -39.56,60.5 -115.42,86.01 -183.5,61.7 -8.62,103.58 -99.58,180.56 -203.16,171.94 -103.59,-8.63 -180.56,-99.58 -171.94,-203.17 1,-12.1 3.18,-24.09 6.5,-35.77 -103.83,-4.79 -184.12,-92.85 -179.32,-196.67 4.63,-100.47 87.44,-179.54 188.02,-179.53 h 741.6 v 2.5 c 110.53,16.79 192.23,111.79 192.3,223.6"
         style="fill:#d3ecfa;fill-opacity:1;fill-rule:nonzero;stroke:none"
         id="path114" />
    </g>
  </g>
</svg>
