<svg xmlns="http://www.w3.org/2000/svg" width="2000" height="2000"><defs><clipPath id="a"><path fill="none" d="M1366.96 1537.177h215.11l-28.871 55.215a88.755 88.755 0 0 1-78.66 47.645h-.049a88.754 88.754 0 0 1-78.659-47.645c-14.072-26.91-28.871-55.215-28.871-55.215Z"/></clipPath><clipPath id="b"><path fill="none" d="M1198.193 281c-165.544 0-299.754 134.209-299.754 299.734 0 165.431 134.322 299.753 299.754 299.753 165.412 0 299.734-134.322 299.734-299.753a299.741 299.741 0 0 0-164.7-267.593l-135.034 267.593Z"/></clipPath><clipPath id="c"><path fill="none" d="M1198.193 281c-165.544 0-299.754 134.209-299.754 299.734 0 165.431 134.322 299.753 299.754 299.753a299.833 299.833 0 0 0 175.014-56.407l-175.014-243.346Z"/></clipPath><clipPath id="d"><path fill="none" d="M346.335 1565.578c2.632 58.982-47.809 74.107-21.592 90.95 29.778 19.136 186.925 40.179 200.294 23.859 29.276-35.725-65.1-45.516-80.573-64.964-11.03-13.868 3.58-43.712-12.218-51.73-16.364-8.316-87.162-26.245-85.911 1.885Z"/></clipPath><clipPath id="e"><path fill="none" d="M337.768 964.1c-42.6 141.1 44.364 159.318 96.591 298.778 23.927 63.9-121.65 233.8-116.759 288.279 4.518 50.168 112.224 75.862 146.127 38.592 45.45-49.974 123.184-232.521 126.615-338.443 2.666-82.1-59.888-249.05-101.988-296.917-33.209-37.77-136.038-38.446-150.586 9.711Z"/></clipPath><clipPath id="f"><path fill="none" d="M712.691 1558.828c32.054 49.582-3.847 88.107 27.287 89.407 35.366 1.481 181.633-59.7 184.933-80.542 7.231-45.619-79.177-6.415-102.35-15.39-16.523-6.4-18.982-39.537-36.666-38.481-18.324 1.084-88.487 21.357-73.204 45.006Z"/></clipPath><clipPath id="g"><path fill="none" d="M327.468 974.58c12.112 45.67 106.96 26.157 140.439 42.98 100.407 50.42 135.67 7.2 99.52-52.254-24.421-40.18-34.986-70.022-44.941-107.591-10.2-38.5-12.486-94.612-16.261-123.38-5.9-45.119-68.456-52.766-110.933 9.244-28.975 42.29-79.927 185.341-67.824 231.001Z"/></clipPath></defs><path fill="#f6f6f6" fill-rule="evenodd" d="M471.519 1622.3c-340.692-2.214-272.807 95.989 220.114 96.695 196.778.287 333.923-13.082 487.51-20.87 144.781-7.341 127.306-35.438 434.023-25.844 180.253 5.635 288.3-52.895-230.73-49.981-190.566 1.067-739.83 1.107-910.917 0Z"/><ellipse cx="568.654" cy="1669.487" fill-opacity=".2" rx="247.622" ry="28.633"/><ellipse cx="1385.216" cy="1638.16" fill-opacity=".2" rx="118.282" ry="11.648"/><path fill="#f6f6f6" fill-rule="evenodd" d="M284.214 1307.7c-77.553 89.172-213.055 345.886 225.1 191.787 113.544-39.935 314.181-145.2 464.841-174.5 143.672-27.95 370.209 346.527 439.089-1.32 84.885-428.633 359.5 14.556 382.676-47.809s-142.876-311.818-243.608-326.384-248.82 259.03-360.788 238.945-159.815-379.355-311.037-359.477-465.028 327.87-596.273 478.758Z"/><path fill="#319991" d="M1511.168 1606.84a101.82 101.82 0 0 1-8.595-11.665c-8.484-12.858-13.625-26.208-17.572-42.7a213.881 213.881 0 0 1-4.078-91.651c.425 2.577.526 5.059.843 7.78.1 3.793 2.032 6.208 3.859 8.766 1.4 2.079 1.819 5.181 3.538 7.619 2.9 3.491 8.078 2.932 10.891-1.045 3.769 1.56 8.407.665 11.866-2.857 2.7-3.047 4.223-7.147 5.419-11.343.219-1.073.437-2.146.547-3.076 2.26 1.723 5.06 2.732 7.654.353 4.753-3.924 5.635-11.629 4.68-17.691a32.039 32.039 0 0 0-1.922-7.139l.216-.023c4.748-1.825 3.8-9.462 1.866-13.189a37.062 37.062 0 0 0-5.582-9.1 4.086 4.086 0 0 0 .33-2.791c-.524-5.847-5.15-9.676-9.351-11.19-5.169-2.065-12.177-1.7-15.62-4.477a11.548 11.548 0 0 1-3.006-4.923c-.215-.239-.214-.5-.321-.883a30.8 30.8 0 0 0 1.194-3.409c7.162-18.353 14.319-34.606 24.492-49.874a38.647 38.647 0 0 1 .417 5.465c-.12 4.867-.781 10.448 2.445 13.773 3.762 4.447 10.339 4.13 13.266-2.353 1.734-3.6 1.853-7.94 3.8-11.561a22 22 0 0 1 1.948-3.1c1.177 3.677-.024 9.448-1.221 13.644-3.047 11.349-11.8 18.985-15.279 30.643-.983 4.961 2.031 7 5.051 6.407-.549 3.864-1.2 7.608-.676 11.355 1.808 9.644 9.019 14.243 16.788 11.567.207 3.388.414 6.777 1.593 9.667 2.355 6.567 8.6 11.4 14.855 8.889a15.583 15.583 0 0 0 6.05-5.114c3.537 7.882 4.584 20.1 13.637 21.221 2.8.747 5.823-.367 8.093-2.842a22.373 22.373 0 0 0 4.954 1.826c3.342.294 6.58-1.367 9.389-3.77 9.4-8.494 8.685-23.5 5.155-34.272 0-.262-.107-.382-.107-.644.324-.166.648-.07.971-.236 11.658-5.721 3.612-20.987-2.627-26.347l-.753-.837c6.916-6.257 1.442-15.767-5.445-20.8-1.291-.91-2.366-2.105-3.658-3.015a11 11 0 0 0 3.249-5.861c1.2-5.508-2.562-9.693-6.115-11.539a42.427 42.427 0 0 0-6.894-2.4 5.1 5.1 0 0 0-.309-5.607c-2.578-3.395-7-4.1-10.879-3.678-1.4.282-2.7.685-4.207 1.11-1.289-1.96-5.493-1.9-7.758-1.523-6.039.653-10.681 2.86-15.419.748-4.2-2.038-6.128-6.552-8.164-11.449a48.879 48.879 0 0 1-1.817-6.231c9.842-12.215 20-23.546 30.6-34.661a40.382 40.382 0 0 1 1.158 11.026c-.128 7.754-2.537 22.707 6.844 21.824a8.968 8.968 0 0 0 3.994-2.137c1.175 4.2 2.674 8.5 5.361 11.49 4.406 5.689 15.183 6.886 18.118-2.483a20.287 20.287 0 0 0-2.869-16.35c-2.47-3.8-8.387-8.539-5.9-11.3.432-.571 1.51-.425 3.342-.23a17.045 17.045 0 0 0 2.8.485 51.506 51.506 0 0 0 7.505 16.242c6.66 9.251 14.511 16.929 22.036 25.037 4.409 4.639 10.642 12.1 17.234 6.271a8.036 8.036 0 0 0 2.275-4.575c3.659 2.49 7.426 5.1 11.846 5.016 6.36.231 8.753-8.161 8.339-14.675a3.4 3.4 0 0 1 0-1.05c4.2 2.038 8.724 2.861 12.3-2.379 6.173-11.03 3.312-30.53-5.837-36.232-.646-.455-1.4-.767-2.046-1.222a6.857 6.857 0 0 0 1.194-2.884c1.2-5.77-2.345-10.766-6.22-12.971-2.476-1.175-5.172-1.015-7.867-1.117a4.132 4.132 0 0 0-1.287-2.485c-2.8-2.584-6.461-2.975-9.909-3.652 5.068-.679 9.386-2.719 12.2-6.7a15.158 15.158 0 0 0 1.953-4.934c5.068-.416 10.353-1.381 14.675-5 4.536-3.114 7.248-9.835 5.105-14.851a18.377 18.377 0 0 0 7.234-4.324c8-8.211 6.409-18.927-2.2-24.556a20.271 20.271 0 0 0-5.383-2.567c7.343-4.991 15.659-10.744 17.305-21.81 1.2-5.246-.3-10.594-3.631-13.513-7.64-5.6-17.564-3.481-26.52-.283a16.957 16.957 0 0 0 1.85-6.89c.451-7.658-6.759-12.782-12.584-11.627a21.235 21.235 0 0 0-9.389 4.032l-.108.143c.021-8.4-6.234-7.46-12.609-1.917-6.157 4.732-11.026 11.686-14.926 19.192-1.824-3.345-5.276-2.71-8.195.623l-.541.714c1.629-4.767 1.533-9.348-3.636-11.413a5.726 5.726 0 0 0-2.048-.435c2.6-5.791 4.99-12.084 3.712-18.243-1.493-6.135-7.962-5.961-12.067-2.631a.618.618 0 0 1-.432.309c.332-3.578 1.1-7.2-.081-10.355-2.57-7.068-10.435-8.973-15.839-3.667a12.983 12.983 0 0 0-1.622 1.881c-8.509-2.885-15.548 9.289-17.405 18.8-2.042-2.272-4.411-3.59-7.326-1.832-6.371 3.968-8.658 13.267-9.217 21.068a31.235 31.235 0 0 0-.014 5.511 6.959 6.959 0 0 0-4.648 4.832c-3.27 13.734 5.538 26.425 9.717 36.337a66.546 66.546 0 0 1 2.889 8.74 14.344 14.344 0 0 0-8.51-2.885 6.8 6.8 0 0 0-6.59 5.566 9.541 9.541 0 0 0 1.172 5.514 28.135 28.135 0 0 0 3.648 6.69c1.934 2.415 3.761 4.972 5.911 7.364a4.818 4.818 0 0 0-2.052 1.14c-3.352 3.9.084 9.567 1.908 12.912a22.449 22.449 0 0 0 3.977 4.424c-.442 4.246 6.439 11.636 8.483 13.382a31.776 31.776 0 0 0 3.443 2.777c-10.377 10.567-20.323 21.612-29.947 33.015a16.933 16.933 0 0 1-1.838 2.167 18.1 18.1 0 0 0-2.8-1.272 15.867 15.867 0 0 1-3.875-2.205c-4.736-3.161-8.277-9.469-5.134-16.237 1.3-3.026 5.085-6.977 6.712-10.957a8.093 8.093 0 0 0-.845-6.731c2.06-4.551 7.029-8.5 8.552-13.649a5.486 5.486 0 0 0-1.819-5.444c.758-1.525 1.625-3.193 2.384-4.718 3.465-6.147 4.785-16.522-3.3-15.517-.431.047-.755.213-1.186.26 1.428-10.518 6.748-25.13-4.888-28.071a8.565 8.565 0 0 0-2.587.018c1.522-5.15 3.477-10.609 2.2-15.98-1.38-8.64-10.437-7.924-15.838-3.929a18.283 18.283 0 0 0-3.242 2.974c-1.274-7.734-4.166-14.9-11.174-14.535-13.157 1.685-19.235 17.559-20.673 31.751-.109.668-.111 1.193-.22 1.861a2.528 2.528 0 0 0-1.078-.146c-3.772-.511-7.661 2.8-10.15 6.344-5.629 9-3.718 20.867-.831 29.869.107.382.322.621.429 1-3.239 1.924-4.653 6.931-4.016 10.8a16.686 16.686 0 0 0 3.216 7 13.252 13.252 0 0 0 4.626 3.829c-.437 2.146.744 3.986 1.927 5.3 2.9 3.229 7.64 5.34 10.221 7.947a47.959 47.959 0 0 1 3.974 6c-4.753 3.662-8 9.786-5.648 16.353 3.742 12.058 14.719 19.792 25.611 18.484 5.392-.583 10.794-5.1 14.892-5.808 1.725-.186 3.447.94 4.629 2.78.644.98.965 1.863 1.394 2.6-9.842 12.477-19.362 25.575-26.623 40.4-2.6 5-4.986 10.247-7.371 15.49-5.183 3.183-9.925 2.646-13.8-1.133-3.87-4.567-2.449-12.2-3.185-19.334a19.5 19.5 0 0 0-3.535-8.932c-2.044-1.747-5.06-2.732-7.65-1.4a10.766 10.766 0 0 0-3.436-5.663c-3.443-2.777-8.188-2-10.139 2.145-2.365-2.63-5.055-4.57-8.5-4.722-5.388-.729-9.711 3.411-10.157 9.231a12.422 12.422 0 0 0-7.552 2.129c-7.02 4.825-10.5 17.27-5.345 24.322l.215.239c-4.43 4.021-6.713 11.483.4 12.813a17.429 17.429 0 0 0 8.519-1.052 20.2 20.2 0 0 0-1.532 8.824 6.8 6.8 0 0 0 4.943 6.55c2.047.434 4.312-.2 6.362-.819a8.552 8.552 0 0 0 1.3-.665c-.022 8.4 7.087 11.041 15.293 5.956a14.532 14.532 0 0 0 2.053-1.665 11.811 11.811 0 0 0 9.275-1.527c2.052-1.4 3.46-4.047 4.652-6.406 2.71-5.672 2.406-13.379 7.256-12.722a12.686 12.686 0 0 1 6.248 1.686c1.4.5 2.69 2.2 4.2 1.514-.868 2.192-1.845 4.528-2.605 6.84a1.638 1.638 0 0 0-.649.6c-1.851 7.153-8.433 9.57-13.406 15.092a32.067 32.067 0 0 0-6.714 11.483 10.935 10.935 0 0 0-.544 2.027c-3.676 4.07-7.679 9.881-5.535 14.635a8.32 8.32 0 0 0 1.827 2.3 29.824 29.824 0 0 0-.782 10.71c.2 4.439.839 9.093 2.772 11.77-4.855 1.443-8.6-10.353-16.576-10.278a6.869 6.869 0 0 0-5.718 1.8c-7.218-1.975-12.752 12.135-7.058 19.785a9.091 9.091 0 0 0 4.844 2.756 5.781 5.781 0 0 0 .316 2.983c2.041 2.8 5.6 2.018 8.516.523 1.717 2.962 5.705 3.187 8.512 1.572 2.592-1.854 4.218-5.31 6.274-8.024.757-1.263 2.7-2.785 3.025-2.689l2.266-.638a218.351 218.351 0 0 0-2.037 37.477c.605 16.726 3.582 32.934 7.423 48.523 3.838 16.639 10.267 32.212 19.29 45.142a174.129 174.129 0 0 0 8.166 10.662 1.989 1.989 0 0 0 2.37.793c4.085.337 4.085-1.763 2.153-3.39Zm82.332-366.64a33.347 33.347 0 0 1 6.624-18.688 13.041 13.041 0 0 1 1.73-2.024c-.773 7.3-1.115 14.551-1.564 21.684-.223 2.91-.339 5.94-.562 8.85-.865.881-1.837 1.642-2.593 2.379a1.267 1.267 0 0 1-.43-.74 25.8 25.8 0 0 1-3.205-11.461Zm9.959 26.342a18.963 18.963 0 0 1-5.376-5.716 21.522 21.522 0 0 1-1.287-2.485c.323.1.863-.093 1.186 0 1.833-.329 2.48-.4 4.422-.609a60.448 60.448 0 0 1 11.536-.328c6.036.4 15.3 3.069 24.568 4.691l-1.941.21c-7.12 1.556-15.107 5.306-21.253 5.839-4.746-.01-8.197.362-11.857-1.603Z"/><path fill="#98ded9" d="M1467.537 1477.211c3.657-4.757 7.56-8.311 11.32-13.631.111-.153.22-.442.33-.6 10.19-6.607 22.289-14.161 32.33-22.947 15.841-13.971 29.474-31.49 41.734-49.922 15.7-22.472 27.618-48.14 36-75.25 3.2-11.841 13.756-37.736 6.249-47.021-7.321-4.776-26.118 8.361-33.39 13.472a238.045 238.045 0 0 0-69.607 82.431c-10.951 22.376-14.367 48.812-10.92 72.8.428 5.438 1.1 12.217-.055 17.458a30.2 30.2 0 0 1-3.716 8.063 2.954 2.954 0 0 0-.558.488 1.3 1.3 0 0 0-.214.717 81.661 81.661 0 0 1-7.108 8.249c-.666.778-1.33 1.692-2 2.47.263-4.707.526-9.415.673-14.245.01-20.2-2.124-39.973-4.031-59.776-.85-10.465-1.815-21.052-3-31.472 7.447-8.295 15.244-15.951 22-24.977a376.154 376.154 0 0 0 37.046-59.865c13.447-28.9 29.834-57.922 34.168-90.529.227-6.9.831-18.389-5.1-21.156-1.364-.364-2.823.384-4.169 1.117l-8.747 4.9a84.276 84.276 0 0 0-21.807 15.883c-25.933 26.611-45.524 67.339-51.785 106.665-2.539 17.8-1.907 35.712-3.653 53.539v.137c-.377-2.285-.754-4.57-1.241-6.7-3.692-18.186-9.3-35.7-12.989-53.886-1.961-9.215-3.811-18.583-5.772-27.8v-.137c.046-4.129-.007-7.42.955-10.848 1.83-5.746 6.824-11.784 10.569-18.064 8.481-14.208 14.217-30.241 20.87-45.574 10.554-25.894 20.307-52.367 25.509-80.282a155.513 155.513 0 0 0 2.724-20.3c.866-9.324-5.669-7.611-10.7-3.9a118.652 118.652 0 0 0-26.524 25.043c-6.641 9.148-10.985 20.32-15.22 31.2-6.186 16.232-12.136 32.981-14.456 50.335a126.982 126.982 0 0 0 .491 30.027c.705 8.561 3.1 16.344 5.149 24.309.472 1.173.39 3.108.975 4.265a20.886 20.886 0 0 0-1.507 4.739l-.3 2.515c-1.462-6.4-2.923-12.657-4.609-18.887-4.306-14.254-9.609-27.138-14.02-40.829-4.151-11.665-9.088-22.949-13.463-34.446a3.669 3.669 0 0 1 .328-.732 30.969 30.969 0 0 1 1.538-2.82c3.427-5 7.659-9.148 11.316-13.906 4.879-6.16 9.987-12.076 14.406-18.723a218.728 218.728 0 0 0 12.525-23c8.881-17.422 14.338-36.715 18.206-56.2 1.359-6.918 1.926-13.728 2.844-19.9.407-2.8.812-5.745.993-8.518-.02-1.234-.047-2.879-1.075-3.426-1.368-.639-2.585 1.039-3.588 2q-3.841 3.82-7.69 7.23c-6.925 5.613-14.43 10.344-20.654 17.236a101.823 101.823 0 0 0-24.395 44.541c-2.839 13.3-2.052 26.8-2.063 39.993-.1 7.709-.086 15.539-1.444 22.458-.622 3.519-1.584 6.948-2.432 10.5a223.152 223.152 0 0 1-7.044-22.54 33.262 33.262 0 0 1-.756-4.707 4.394 4.394 0 0 0 .538-1.722 22.646 22.646 0 0 1 .953-3.977c2.029-7.422 4.512-14.767 5.633-22.34.791-6.978-.113-13.863-.451-20.688a272.69 272.69 0 0 0-5.136-37.365c-7.166-29.943-16.554-57.386-27.755-84.995-1.165-2.04-2.907-11.7-5.466-9.013-2.733 5.869-4.207 12.664-6.256 18.852-8.673 30.173-7.355 62.423.014 90.966a222.08 222.08 0 0 0 8.1 24.732c3.414 8.055 7.945 15.272 12.026 22.687 3.85 7.034 8.035 13.885 13.33 19.349a14.265 14.265 0 0 0 2.068 1.917 130.176 130.176 0 0 0 5.965 25.71c-12.955-17.2-20.945-42.223-39.238-53.615-8.237-5.476-17.565-8.467-27.1-10.057a64.347 64.347 0 0 0-21.97-1c-3.608.766-7.461.465-10.821 2.571-4.556 5.154 1.68 12.826 4.566 16.281 5.534 6.256 12.285 10.834 18.808 15.307 5.837 4.015 11.451 8.2 17.617 11.62-1.815 13.576-3.852 27.457-1.365 41.135 4.634 27.4 18.733 52.28 39.627 63.593 6.392 3.391 13.533 4.068 20.456 5.326a26.45 26.45 0 0 1 11.279 4.65c6.307 5.051 12.837 9.935 20.02 13.218a9.208 9.208 0 0 0 1.709.729c2.471 12.718 4.718 25.6 7.415 38.292 3.913 17.881 8.838 35.35 11.4 53.827.519 4.051 1.038 8.1 1.441 12.033-8.826-20.785-15.306-43.4-26.816-62.174a244.345 244.345 0 0 0-26.023-34.387c-6.559-6.666-13.358-14.124-21.893-17.086-14.335-4.647-30-1-44.37-.563-3.934 1.635-.658 8.2.179 10.969 5.8 15.427 15.833 27.116 25.75 38.41 9.806 11.446 19.056 23.517 29.857 33.591 8.057 8.249 17.764 13.662 27.575 18.511 7.077 3.71 13.715 8.3 20.465 12.745a81.654 81.654 0 0 0 16.093 8.393c.822 8.82 1.53 17.518 2.24 26.353 1.522 16.97 2.907 32.447 3.186 49.586.04 9.338-.375 18.6-1.015 27.895-7.215-5.2-10.666-15.589-14.673-25.35-5.77-13.781-12.994-26.54-20.44-38.994-7.559-12.439-16-23.246-23.541-34.862-10.341-16.458-21.239-32.428-33.691-46.537-5.762-6.362-12.524-11.626-20.263-14.284-5.363-2.706-5.851 2.032-5.084 7.425 4.836 25.863 6.417 53.4 16.307 76.932a203.063 203.063 0 0 0 13.687 27.408c3.61 6.242 7.335 12.607 12.169 17.583 12.311 12.342 27.5 20.583 43.081 25.61 5.465 2.005 11.237 2.045 17.009 2.084a41.689 41.689 0 0 0 8.251-.572l.565-.077a24.332 24.332 0 0 0 3.917 4.277 17.438 17.438 0 0 0 2.52 1.856 380.969 380.969 0 0 1-7.757 51.623 61.716 61.716 0 0 0-4.98-13.889 30.342 30.342 0 0 0-10.361-10.821c-9.929-5.108-20.125-5.783-29.717-11.075-8.328-4.089-14.645-9.826-21.882-16.4-4.6-4.185-9.2-8.781-14.889-10.893-9.561-3.372-20.207 3.023-28.349 10.314-3.008 2.882-6.129 5.78-8.907 8.906-2.546 3.506-.562 7.222 1.626 9.535 4.6 4.733 10.417 7.241 16.333 9.184a216.571 216.571 0 0 1 20.5 7.931c7.986 4 16.2 8.24 25.544 5.047 5.406-1.56 10.223-4.551 15.074-5.485 10.28-1.123 18.812 8.572 26.866 16.683a22.643 22.643 0 0 0 8.8 5.4 6.937 6.937 0 0 0 3.4.362c-2.954 13.181-5.679 26.468-9.543 39.36-.429 1.433-.433 1.159-.973 2.744v.274c0 .137 0 .137-.108.29v.137c-.1.563.131 1.081.585 1.157a7.925 7.925 0 0 0 3.834-.8c1.6.745 3.395-6.92 3.831-7.94 2.47-8.169 4.6-16.565 6.724-24.825a19.055 19.055 0 0 0 7.1-1.653 24.521 24.521 0 0 0 5.589-4.195c.235.518 1.026.41 1.7.181 3.609-.765 7.35-.313 11.42-.591a122.641 122.641 0 0 0 14-2.041c11.386-2.647 22.276-7.975 32.807-14.492a144.463 144.463 0 0 0 46.055-41.715c4.307-6.494 8.951-13.172 10.858-21.126.312-1.691.956-3.841-.083-5.073s-2.836-.439-4.2-.666a44.614 44.614 0 0 1-7.59-.48c-9.193-1.635-18.5-3.119-28.074-.58-19.613 4.728-45.6 28.049-56.343 49.3-5.055 9.207-8.277 19.813-13.921 27.589a62.149 62.149 0 0 1-10.577 10.645 14.927 14.927 0 0 1-7.766 2.567l-.226.031c.849-3.413 1.7-6.964 2.546-10.377a481.046 481.046 0 0 0 9.159-64.172Zm-48.07-220.332a1.373 1.373 0 0 0-.458-.35c.092-1.25-.951-2.757-.973-4.128-1.135-7.128-2.159-14.41-4.755-20.927-5.208-13.995-12.313-26.358-19.2-39.026-6.541-12.44-14.42-23.736-21.742-35.52q-1.743-2.855-3.488-5.709c2.62 1.018 5.126 2.051 7.745 3.069 7.748 3.207 15.391 6.977 23.677 8.461.228.107.453.076.682.182s.345.365.573.472l.226-.031c2.5 7.356 5.329 14.529 7.824 21.747 3.785 10.066 6.534 19.036 9.645 29.332 3.341 10.538 6.657 19.569 9.324 30.474 1.578 6.519 2.932 13.205 4.17 19.77a84.009 84.009 0 0 1-13.25-7.816Z"/><path fill="#42c2b9" d="M1508.459 1489.414c3.152-.17 5.95.351 9.35-.022.1-.009.248-.083.346-.092 6.314 2.6 13.7 5.812 20.768 7.319 11.19 2.327 22.86 1.791 34.349.073 14.294-1.677 28.34-6.929 41.584-14.8 5.61-3.695 19.224-9.806 19.829-18.255-1-6.263-13-10.614-17.652-12.283a93.162 93.162 0 0 0-56.98-.5c-12.458 4.266-23.569 14.583-31.173 27.574-1.857 2.75-4.118 6.255-6.5 8.034a11.862 11.862 0 0 1-4.4 1.665 1.2 1.2 0 0 0-.393-.084.556.556 0 0 0-.347.212 31.738 31.738 0 0 1-5.756-.129c-.541-.01-1.132.044-1.674.034 1.848-2.029 3.7-4.057 5.545-6.206 7.506-9.326 14.041-19.641 20.672-29.845 3.565-5.3 7.131-10.729 10.55-16.2 5.9.295 11.7 1.08 17.609.655a143.2 143.2 0 0 0 36.265-7.119c15.826-5.895 32.812-10.218 46.563-22.877 2.649-3.062 7.144-8.033 5.925-12.6a3.8 3.8 0 0 0-1.994-1.8l-5.132-2.585a37.7 37.7 0 0 0-14.159-4.75c-19.706-2.081-42.253 5.872-59.229 20.567-7.571 6.813-13.985 15.438-21.266 22.7l-.05.064c.706-1.264 1.411-2.528 2.019-3.783 5.355-10.446 9.736-21.642 15.091-32.088 2.68-5.343 5.457-10.695 8.136-16.038l.051-.065a20.4 20.4 0 0 1 4.39-4.481c2.827-1.639 6.961-1.661 10.712-2.486 8.489-1.862 16.616-6.088 24.83-9.483 13.614-6.111 27.14-12.933 39.477-22.943a74.919 74.919 0 0 0 8.569-7.865c3.791-3.826.679-6.657-2.6-7.734a48.55 48.55 0 0 0-19.347-3.133c-5.913.545-11.707 3.3-17.353 5.976-8.371 4.068-16.845 8.507-24.168 15.237a70.551 70.551 0 0 0-10.966 14.141c-2.912 4.345-4.9 9.264-7.077 14.082-.256.8-1.006 1.651-1.214 2.51a8.725 8.725 0 0 0-2.331 1.354l-1.047 1c1.822-3.765 3.594-7.466 5.268-11.278 3.663-8.971 6.438-17.86 9.852-26.628 2.76-7.689 5.08-15.637 7.693-23.372a1.422 1.422 0 0 1 .395-.157 11.8 11.8 0 0 1 1.63-.45c3.155-.41 6.3.02 9.451-.151a107.571 107.571 0 0 0 12.41-.664 83.741 83.741 0 0 0 13.287-3.683c9.834-3.124 19.066-9.011 27.769-15.869 3.084-2.442 5.828-5.273 8.467-7.615 1.2-1.069 2.441-2.2 3.539-3.384a2.817 2.817 0 0 0 .866-2.178c-.281-1.053-1.365-.953-2.1-1.065q-2.874-.364-5.6-.923c-4.708-1.245-9.307-3.22-14.225-3.486a39.524 39.524 0 0 0-25.782 7.053c-6.015 4.571-10.73 11.241-15.633 17.328-2.9 3.5-5.8 7.13-8.887 9.573-1.543 1.281-3.181 2.331-4.82 3.5 1.634-4.468 3.474-9.674 5.7-14.315a21.329 21.329 0 0 1 1.462-2.593 1.856 1.856 0 0 0 .843-.5 10.022 10.022 0 0 1 1.839-1.308c3.524-2.3 7.193-4.32 10.43-7.2 2.891-2.784 5.105-6.466 7.512-9.805a170.462 170.462 0 0 0 11.93-20.105 431.443 431.443 0 0 0 21.051-54.641c.316-1.588 3.243-7.014 1.277-7.192-3.215 1.2-6.3 3.518-9.371 5.24-14.491 9.13-25.968 24.756-33.777 42.024a163.928 163.928 0 0 0-6.116 15.912c-1.7 5.612-2.662 11.457-3.87 17.144a80.071 80.071 0 0 0-2.136 16.324 13.9 13.9 0 0 0 .071 2.032 88.731 88.731 0 0 0-7.288 15.181c1.48-15.125 7.746-31.111 5.047-46.51a66.155 66.155 0 0 0-6.53-19.664 52.727 52.727 0 0 0-7.951-12.637c-1.652-1.646-3-3.92-5.054-4.81-3.64-.144-4.127 6.855-4.317 10.05-.227 5.957.63 11.814 1.441 17.5.719 5.089 1.292 10.133 2.357 15.131-5.729 5.264-11.655 10.547-15.793 18.243-8.421 15.225-12.319 34.53-8.605 51.335 1.162 5.109 3.615 9.379 5.771 13.8a25.689 25.689 0 0 1 2.545 8.4 98.624 98.624 0 0 0 2.675 17.2 9.183 9.183 0 0 0 .377 1.284c-3.787 7.244-7.721 14.441-11.412 21.8-5.158 10.428-9.78 21.226-15.67 31.182-1.308 2.159-2.616 4.318-3.923 6.357 4.376-14.493 10.32-28.531 12.932-43.58a225.635 225.635 0 0 0 2.912-30.306c-.009-6.714.186-13.927-1.948-20.025-3.7-10.091-10.993-17.094-16.6-24.851-2.1-1.425-3.294 3.421-4.006 5.165-3.533 10.339-4.072 21.3-4.51 32.013-.536 10.721-1.515 21.423-1.164 32.063-.012 8.275 1.655 16.155 3.57 23.833 1.3 5.635 2.112 11.436 3.019 17.228a81.292 81.292 0 0 0 2.98 12.8c-2.964 4.53-5.926 8.94-8.938 13.414-5.726 8.682-10.949 16.6-17.208 24.669-3.453 4.335-7.05 8.384-10.744 12.321-.8-6.4 1.749-13.111 3.856-19.84a258.649 258.649 0 0 0 6.739-29.34c1.756-9.934 2.573-19.6 4.029-29.15a326.187 326.187 0 0 0 4.52-40.166 49.709 49.709 0 0 0-2.371-17.828c-1.027-4.222-2.972-2.3-4.684.611-7.772 14.626-17.4 28.224-22.393 44.572a168.262 168.262 0 0 0-4.993 20.245 79.991 79.991 0 0 0-1.92 14.866 106.092 106.092 0 0 0 6.808 35.7 42.831 42.831 0 0 0 5.669 10.39 31.384 31.384 0 0 0 3.338 4.309l.243.277a23.377 23.377 0 0 0-.105 4.147 17.3 17.3 0 0 0 .266 2.254 180.731 180.731 0 0 1-22.11 19.544 46.641 46.641 0 0 0 3.272-9.175 29.169 29.169 0 0 0 .093-10.74c-1.864-7.863-5.475-13.825-7.144-21.585-1.636-6.505-1.9-12.656-2.2-19.7-.187-4.479-.223-9.152-1.6-13.283-2.37-6.856-8.777-9.8-14.569-10.948a63.376 63.376 0 0 0-6.682-.823c-2.266.209-2.894 3.024-2.925 5.306a38.374 38.374 0 0 0 2.776 13.293c1.755 4.935 3.412 9.879 4.82 15.025 1.541 6.273 3.078 12.786 7.8 16.488 2.627 2.276 5.563 3.564 7.748 5.821 4.311 5.179 3.942 14.386 3.981 22.6a22.551 22.551 0 0 0 1.329 7.372 5.894 5.894 0 0 0 1.154 2.052c-6.014 4.451-11.981 9.078-18.232 12.892-.695.424-.6.294-1.388.727l-.1.129c-.05.065-.05.065-.149.074l-.05.065a.722.722 0 0 0-.208.858 5.3 5.3 0 0 0 1.748 1.758c.328 1.228 3.856-1.315 4.4-1.545 3.969-2.4 7.893-5.1 11.767-7.739a12.381 12.381 0 0 0 3.3 3.173 10.843 10.843 0 0 0 3.675 1.16c-.1.369.236.757.577 1.026 1.651 1.646 2.9 3.929 4.545 6.056a86.677 86.677 0 0 0 6.061 6.816 60.264 60.264 0 0 0 17.81 11.489c10.218 4.994 21.455 7.5 32.937 6.258 4.044-.613 8.283-1.123 11.959-3.74.746-.609 1.788-1.244 1.853-2.389s-.912-1.775-1.343-2.635a37.031 37.031 0 0 1-2.7-4.428c-2.875-5.85-5.849-11.692-10.419-15.827-9.186-8.686-27.69-12.317-39.651-8.457-5.334 1.451-10.493 4.565-15.519 5.027a24.889 24.889 0 0 1-7.96-.945 8.831 8.831 0 0 1-3.895-3.118l-.1-.111c1.589-1.106 3.229-2.276 4.818-3.382a229.816 229.816 0 0 0 27.307-24.591ZM1572.074 1361a1.351 1.351 0 0 0-.044-.416c.5-.525.664-1.8 1.165-2.445 2.217-3.922 4.533-7.853 5.97-12.3 3.225-9.35 5.125-19 7.222-28.664 2.142-9.371 3.352-18.955 4.955-28.456l.8-4.57c.614 1.922 1.18 3.788 1.794 5.71 1.744 5.775 3.239 11.752 5.826 17.03.047.175.144.286.191.462s-.005.36.042.536l.1.111c-1.786 4.781-3.376 9.664-5.112 14.38-2.3 6.748-4.594 12.415-7.239 18.894-2.649 6.719-4.746 12.728-7.786 19.243-1.823 3.886-3.793 7.724-5.762 11.443a84.091 84.091 0 0 1-2.122-10.958Z"/><path fill="#b2b7f0" fill-rule="evenodd" d="M1366.96 1537.177h215.11l-28.871 55.215a88.755 88.755 0 0 1-78.66 47.645h-.049a88.754 88.754 0 0 1-78.659-47.645c-14.072-26.91-28.871-55.215-28.871-55.215Z"/><g clip-path="url(#a)"><path fill-opacity=".2" fill-rule="evenodd" d="M1558.271 1537.173c-36.105-1.342-162.661-6.13-192.869 0-12.615 2.568 11.605 36.826 11.605 36.826s174.837-22.638 205.044-28.775c8.2-1.665-15.414-7.736-23.78-8.051Z"/></g><path fill="#1a2283" fill-rule="evenodd" d="M1590.685 1513.66h-232.342v.032a31.528 31.528 0 0 0 31.529 31.529h169.277a31.533 31.533 0 0 0 31.536-31.529Z"/><path fill="#b2b7f0" fill-rule="evenodd" d="M631.466 348.962c5.509-10.1 16.526-10.1 22.036-5.045s5.509 15.136 0 25.234c-3.855 7.564-13.773 15.136-22.036 20.189-8.264-5.053-18.174-12.625-22.028-20.189-5.509-10.1-5.509-20.189 0-25.234s16.519-5.053 22.028 5.045Z"/><path fill="#1a2283" fill-rule="evenodd" d="M1736.427 839.787c0-11.812 13.828-21.4 30.862-21.4s30.853 9.592 30.853 21.4c0 6.98-4.909 13.527-13.151 17.527l3.9 14.579-13.611-11.428a44.127 44.127 0 0 1-7.991.726c-17.034 0-30.862-9.591-30.862-21.404Z"/><path fill="#e7e7e7" fill-rule="evenodd" d="M1561.628 429.738a13.1 13.1 0 00-13.088 13.087v115.356a13.088 13.088 0 0026.176 0V442.825a13.092 13.092 0 00-13.088-13.087zM1619.042 454.358a13.1 13.1 0 00-13.088 13.092v90.727a13.088 13.088 0 0026.176 0V467.45a13.1 13.1 0 00-13.088-13.092zM1672.366 429.778a13.1 13.1 0 00-13.088 13.087v117.454a13.088 13.088 0 0026.176 0V442.865a13.093 13.093 0 00-13.088-13.087zM1725.434 360.858a13.1 13.1 0 00-13.088 13.09v186.288a13.088 13.088 0 1026.176 0V373.948a13.1 13.1 0 00-13.088-13.09zM1775.133 406.905A13.1 13.1 0 001762.045 420v140.3a13.088 13.088 0 0026.176 0V420a13.1 13.1 0 00-13.088-13.095zM869.728 940.571a13.1 13.1 0 00-13.089 13.087v115.356a13.089 13.089 0 0026.177 0V953.658a13.091 13.091 0 00-13.088-13.087zM927.142 882.669a13.1 13.1 0 00-13.089 13.1v173.243a13.089 13.089 0 0026.177 0V895.764a13.1 13.1 0 00-13.088-13.095zM980.466 911.965a13.1 13.1 0 00-13.088 13.091v146.049a13.088 13.088 0 1026.176 0V925.056a13.1 13.1 0 00-13.088-13.091zM1033.533 1003.628a13.1 13.1 0 00-13.088 13.091v54.389a13.089 13.089 0 0026.177 0v-54.389a13.1 13.1 0 00-13.089-13.091zM1083.232 982.392a13.1 13.1 0 00-13.088 13.089v75.63a13.089 13.089 0 1026.177 0v-75.63a13.093 13.093 0 00-13.089-13.089zM1721.837 831.407a4.924 4.924 0 00-4.922-4.921h-60.922a4.921 4.921 0 100 9.842h60.922a4.922 4.922 0 004.922-4.921zM1709.52 852.991a4.924 4.924 0 00-4.92-4.921h-48.611a4.921 4.921 0 000 9.842h48.611a4.923 4.923 0 004.92-4.921zM668.159 350.108a4.925 4.925 0 014.922-4.92H717.4a4.921 4.921 0 010 9.841h-44.319a4.923 4.923 0 01-4.922-4.921zM677.585 371.692a4.926 4.926 0 014.923-4.921H717.4a4.921 4.921 0 110 9.842h-34.892a4.924 4.924 0 01-4.923-4.921z"/><path fill="#1a2283" fill-rule="evenodd" d="M1198.193 281c-165.544 0-299.754 134.209-299.754 299.734 0 165.431 134.322 299.753 299.754 299.753 165.412 0 299.734-134.322 299.734-299.753a299.741 299.741 0 0 0-164.7-267.593l-135.034 267.593Z"/><g clip-path="url(#b)"><path fill-opacity=".41" fill-rule="evenodd" d="m1200.053 581.7 231.232 190.934s-6.1 87.423-39.249 92.823c-34.3 5.569-134.526-12.114-166.537-59.407-31.991-47.296-25.446-224.35-25.446-224.35Z"/></g><path fill="#b2b7f0" fill-rule="evenodd" d="M1198.193 281c-165.544 0-299.754 134.209-299.754 299.734 0 165.431 134.322 299.753 299.754 299.753a299.833 299.833 0 0 0 175.014-56.407l-175.014-243.346Z"/><g clip-path="url(#c)"><path fill-opacity=".49" fill-rule="evenodd" d="m903 400.326 295.17 180.423s83.2-299.043 28.984-354.746-300.235-8.534-354.262 20.519C826.889 271.26 903 400.326 903 400.326Z"/></g><g fill="#b2b7f0" fill-rule="evenodd"><path d="M755 378.765a17.742 17.742 0 1 0-17.966-17.5 17.747 17.747 0 0 0 17.966 17.5Zm-.157-11.826a5.914 5.914 0 1 1 5.834-5.993 5.925 5.925 0 0 1-5.834 5.993Z"/><path d="m904.218 415.132-37.489-58.69a5.935 5.935 0 0 0-5.066-2.729s-58.266.768-95.154 1.241a5.914 5.914 0 1 0 .157 11.827l91.863-1.2 35.726 55.92a5.912 5.912 0 1 0 9.963-6.366Z"/></g><g fill="#1a2283" fill-rule="evenodd"><path d="M1618.536 823.371a17.742 17.742 0 1 0 17.967 17.5 17.747 17.747 0 0 0-17.967-17.5Zm.158 11.827a5.913 5.913 0 1 1-5.834 5.992 5.924 5.924 0 0 1 5.834-5.992Z"/><path d="m1469.315 787.005 37.49 58.689a5.935 5.935 0 0 0 5.066 2.729s58.265-.768 95.154-1.241a5.914 5.914 0 1 0-.158-11.827l-91.862 1.2-35.726-55.92a5.912 5.912 0 1 0-9.964 6.367Z"/></g><path fill="#98ded9" fill-rule="evenodd" d="M346.335 1565.578c2.632 58.982-47.809 74.107-21.592 90.95 29.778 19.136 186.925 40.179 200.294 23.859 29.276-35.725-65.1-45.516-80.573-64.964-11.03-13.868 3.58-43.712-12.218-51.73-16.364-8.316-87.162-26.245-85.911 1.885Z"/><g clip-path="url(#d)"><path fill-opacity=".23" fill-rule="evenodd" d="M464.291 1601.336c.65 17.651-60.414 1.922-93.913 22.815-23.091 14.409-68.741-5.43-69.392-23.081s38.259-82.874 65.479-82.835 97.175 65.45 97.826 83.101Z"/></g><path fill="#151c6c" fill-rule="evenodd" d="M337.768 964.1c-42.6 141.1 44.364 159.318 96.591 298.778 23.927 63.9-121.65 233.8-116.759 288.279 4.518 50.168 112.224 75.862 146.127 38.592 45.45-49.974 123.184-232.521 126.615-338.443 2.666-82.1-59.888-249.05-101.988-296.917-33.209-37.77-136.038-38.446-150.586 9.711Z"/><g clip-path="url(#e)"><path fill-opacity=".2" fill-rule="evenodd" d="M338.8 1152.912c25.339 35.962 75.561 45.591 109.888 73.1 35.283 28.275 75.907 57.575 101.777 96.514 26.964 40.6 41.57 160.131 60.059 147.1s54.629-164.152 50.864-225.246c-3.262-52.973-41.008-99.284-73.463-141.277-41.087-53.161-119.989-155.785-173.07-177.694-47.021-19.415-132.763 8.269-145.447 46.183s39.508 138.908 69.392 181.32Z"/></g><path fill-rule="evenodd" d="M496.25 1631.959a4.894 4.894 0 0 1-.175.618 22.1 22.1 0 0 1-.936 2.141c-2.131 4.487-4.855 8.653-7.286 12.974a18.745 18.745 0 0 0-2.041 4.149 4.054 4.054 0 0 0 1.134 4.181 5.507 5.507 0 0 0 4.619 1.013 28.079 28.079 0 0 0 6.666-2.57c5.608-2.795 9.721-4.281 12.764-4.876 2.306-.443 3.8-.4 4.78.109a2.994 2.994 0 0 1 1.331 2.228 7 7 0 0 0 .919 2.192 3.283 3.283 0 0 0 1.885 1.26 3.334 3.334 0 0 0 2.27-.259 2.959 2.959 0 0 0 .561-4.976 9.028 9.028 0 0 0-3.435-5.211 10.192 10.192 0 0 0-6.582-1.509c-3.6.2-9 1.695-17.139 5.754-.353.176-1.3.545-2.3.929 2.427-4.272 5.09-8.414 7.195-12.854.637-1.337 2.131-4.823 1.789-7.051a4.393 4.393 0 0 0-3.692-3.908 14.245 14.245 0 0 0-5.966.209c-2.576.577-5.214 1.624-7.244 2.28-8.636 2.8-16.9 6.6-25.343 9.9-1.344.521-5.055 2.371-8.23 3a9.9 9.9 0 0 1-1.88.116c.027-.086.075-.181.1-.277a6.482 6.482 0 0 1 .531-1.377 27.318 27.318 0 0 1 2.411-3.769c4.356-6.115 15.218-16.736 22.427-19.613a2.958 2.958 0 0 0-2.192-5.494c-8.02 3.2-20.205 14.877-25.049 21.671-1.122 1.57-3.233 4.535-3.878 7.168a6.551 6.551 0 0 0 .493 4.815c1.123 2.012 3.309 3 6.174 2.837 3.9-.229 9.445-2.871 11.24-3.569 8.332-3.26 16.492-7.021 25.016-9.778 1.591-.518 3.581-1.3 5.6-1.856a12.962 12.962 0 0 1 3.463-.597Zm23.551 17.749-.04.016Zm.124-.048Z"/><path fill="#98ded9" fill-rule="evenodd" d="M712.691 1558.828c32.054 49.582-3.847 88.107 27.287 89.407 35.366 1.481 181.633-59.7 184.933-80.542 7.231-45.619-79.177-6.415-102.35-15.39-16.523-6.4-18.982-39.537-36.666-38.481-18.324 1.084-88.487 21.357-73.204 45.006Z"/><g clip-path="url(#f)"><path fill-opacity=".23" fill-rule="evenodd" d="M833.406 1539.481c7.922 15.787-54.159 26.839-75.955 59.758-15.022 22.7-64.788 23.61-72.71 7.823s.384-91.278 25.162-102.547 115.58 19.185 123.503 34.966Z"/></g><path fill="#1a2283" fill-rule="evenodd" d="M397.659 1053.735c14.075 104.662 122.05 111.6 240.245 202.191 54.155 41.512 20.731 262.736 53.75 306.347 30.417 40.151 132.776 4.318 144.373-44.709 15.961-67.457 4.63-268.45-48.591-360.095-41.25-71.046-202.255-174.485-267.219-191.768-48.601-12.941-133.555 6.226-122.558 88.034Z"/><path fill-rule="evenodd" d="M875.61 1540.428a4.811 4.811 0 0 1 .161.621 22.26 22.26 0 0 1 .273 2.321c.427 4.949.179 9.921.262 14.878a18.757 18.757 0 0 0 .334 4.612 4.052 4.052 0 0 0 3.09 3.035 5.507 5.507 0 0 0 4.5-1.457 28.117 28.117 0 0 0 4.456-5.584c3.429-5.245 6.229-8.605 8.555-10.654 1.767-1.547 3.077-2.259 4.181-2.32a3 3 0 0 1 2.275 1.252 6.983 6.983 0 0 0 1.9 1.427 3.278 3.278 0 0 0 2.263.136 3.333 3.333 0 0 0 1.829-1.369 2.96 2.96 0 0 0-2.028-4.579 9.029 9.029 0 0 0-5.6-2.763 10.2 10.2 0 0 0-6.443 2.021c-3.008 1.988-6.914 6.008-11.888 13.621-.215.329-.844 1.125-1.517 1.963-.062-4.913.145-9.832-.279-14.728-.127-1.476-.6-5.239-2.017-6.99a4.395 4.395 0 0 0-5.16-1.509 14.256 14.256 0 0 0-5.045 3.193c-1.931 1.8-3.68 4.035-5.1 5.626-6.043 6.775-11.255 14.228-16.878 21.34-.9 1.128-3.167 4.6-5.588 6.746a9.913 9.913 0 0 1-1.565 1.05c-.02-.088-.026-.195-.05-.292a6.612 6.612 0 0 1-.237-1.456 27.361 27.361 0 0 1 .178-4.471c.673-7.478 4.686-22.13 9.455-28.253a2.958 2.958 0 0 0-4.666-3.636c-5.307 6.812-9.928 23.044-10.679 31.353-.176 1.922-.5 5.547.273 8.146a6.545 6.545 0 0 0 2.856 3.907c1.985 1.17 4.372.921 6.762-.668 3.251-2.167 6.7-7.248 7.9-8.757 5.546-7.021 10.691-14.387 16.656-21.071 1.111-1.251 2.436-2.928 3.9-4.43a12.935 12.935 0 0 1 2.681-2.261Zm29.29 3.427-.026.035Zm.083-.1Z"/><path fill="#624a4a" fill-rule="evenodd" d="M465.739 699.338c49.671 6.54 62.115 157.611 107.33 179.311s133.841-41.015 163.952-49.1c4.029-1.082 4.622-18.462 11.023-27.506 5.962-8.411 11.162-1.728 6.4 18.507-1.186 5.056 9.754-12.684 15.633-16.447 15.875-10.179 31.581 28.079-22.314 59.356-33.836 19.639-138.794 96.749-193.325 88.911s-117.817-94.278-133.852-135.989c-22.339-58.081 16.679-120.797 45.153-117.043Z"/><path fill="#15141f" fill-rule="evenodd" d="M502.726 641.812c6.16 4.947-17.2 22.273-14.536 34.444 3.37 15.434 35.765 38.979 34.76 58.157s-25.5 58.463-40.772 56.886-45.72-42.25-50.873-66.367 8-64.523 19.907-78.38c11.235-13.078 45.345-9.688 51.514-4.74Z"/><path fill="#98ded9" fill-rule="evenodd" d="M327.468 974.58c12.112 45.67 106.96 26.157 140.439 42.98 100.407 50.42 135.67 7.2 99.52-52.254-24.421-40.18-34.986-70.022-44.941-107.591-10.2-38.5-12.486-94.612-16.261-123.38-5.9-45.119-68.456-52.766-110.933 9.244-28.975 42.29-79.927 185.341-67.824 231.001Z"/><g fill-rule="evenodd" clip-path="url(#g)"><path fill="#30958e" d="M551.025 874.482v56.559c0 5.886 2.133 11.415 5.73 14.868s8.226 4.429 12.453 2.613l40.656-17.481-40.656 17.481c-4.227 1.816-7.541 6.2-8.918 11.8a23.41 23.41 0 0 0 1.975 16.483l25.126 45.76-25.126-45.765c-2.613-4.754-6.793-7.58-11.24-7.58s-8.619 2.826-11.233 7.58l-25.134 45.76 25.134-45.76a23.366 23.366 0 0 0 1.968-16.483c-1.37-5.6-4.684-9.98-8.918-11.8l-40.657-17.481 40.657 17.481c4.234 1.816 8.863.841 12.46-2.613s5.723-8.982 5.723-14.868Z"/><path fill-opacity=".2" d="M463.5 767.715c-18.578-2.878-13.719 59.7-5.756 88 16.045 57.023 59.852 74.428 66.426 102.822 5.46 23.623-26.974 50.568-27.044 67.519-.049 14.448 12.665 37.746 26.66 34.179 26.274-6.682 123.409-43.1 130.978-74.3S600.335 908.5 569.2 872.971c-31.881-36.371-87.121-102.378-105.7-105.256Z"/><path fill="#30958e" d="M349.413 879.944v49.711c0 5.174 1.875 10.033 5.037 13.068a9.835 9.835 0 0 0 10.945 2.3l35.734-15.364-35.729 15.36c-3.715 1.6-6.628 5.451-7.839 10.368a20.577 20.577 0 0 0 1.737 14.488l22.084 40.22-22.084-40.22c-2.3-4.179-5.971-6.662-9.88-6.662s-7.576 2.483-9.873 6.662l-22.09 40.22 22.09-40.22a20.538 20.538 0 0 0 1.73-14.488c-1.2-4.917-4.116-8.771-7.839-10.368L297.7 929.655l35.734 15.364a9.844 9.844 0 0 0 10.952-2.3c3.162-3.035 5.03-7.894 5.03-13.068Z"/><path fill="#30958e" d="M384.2 802.47v49.711c0 5.174 1.875 10.033 5.036 13.068a9.839 9.839 0 0 0 10.946 2.3l35.734-15.365-35.734 15.365c-3.716 1.6-6.628 5.45-7.839 10.368a20.579 20.579 0 0 0 1.736 14.487l22.084 40.22-22.081-40.224c-2.3-4.178-5.97-6.662-9.879-6.662s-7.576 2.484-9.873 6.662l-22.091 40.22 22.091-40.22a20.54 20.54 0 0 0 1.73-14.487c-1.2-4.918-4.117-8.772-7.839-10.368l-35.734-15.365 35.734 15.365a9.846 9.846 0 0 0 10.952-2.3c3.162-3.035 5.03-7.894 5.03-13.068Z"/><path fill="#30958e" d="M420.479 855.773v69.578c0 7.242 2.625 14.042 7.05 18.291s10.119 5.449 15.319 3.214l50.015-21.5-50.015 21.5c-5.2 2.235-9.277 7.628-10.971 14.511a28.806 28.806 0 0 0 2.43 20.278l30.91 56.294-30.91-56.294c-3.214-5.849-8.356-9.325-13.828-9.325s-10.6 3.476-13.818 9.325l-30.919 56.294 30.919-56.294a28.751 28.751 0 0 0 2.421-20.278c-1.685-6.883-5.762-12.276-10.971-14.511l-50.016-21.5 50.016 21.5c5.209 2.235 10.9 1.035 15.328-3.214s7.04-11.049 7.04-18.291Z"/><path fill="#30958e" d="M452.905 822.643v49.711c0 5.174 1.875 10.032 5.037 13.068a9.837 9.837 0 0 0 10.945 2.3l35.734-15.364-35.734 15.364c-3.716 1.6-6.628 5.45-7.839 10.368a20.577 20.577 0 0 0 1.737 14.488l22.084 40.219-22.084-40.219c-2.3-4.179-5.971-6.663-9.88-6.663s-7.576 2.484-9.873 6.663l-22.09 40.219 22.09-40.219a20.538 20.538 0 0 0 1.73-14.488c-1.2-4.918-4.117-8.771-7.839-10.368l-35.734-15.364 35.734 15.364a9.846 9.846 0 0 0 10.952-2.3c3.162-3.036 5.03-7.894 5.03-13.068Z"/><path fill="#30958e" d="M429.11 785.7v36.711a13.47 13.47 0 0 0 3.72 9.65 7.264 7.264 0 0 0 8.083 1.7l26.387-11.348-26.388 11.346c-2.744 1.179-4.9 4.025-5.789 7.656a15.2 15.2 0 0 0 1.282 10.7l16.309 29.7-16.309-29.7c-1.7-3.086-4.409-4.92-7.3-4.92s-5.594 1.834-7.291 4.92l-16.313 29.7 16.313-29.7a15.164 15.164 0 0 0 1.278-10.7c-.889-3.631-3.04-6.477-5.789-7.656l-26.389-11.346 26.389 11.346a7.27 7.27 0 0 0 8.088-1.7 13.466 13.466 0 0 0 3.714-9.65ZM482.842 926.193V962.9a13.469 13.469 0 0 0 3.72 9.65 7.263 7.263 0 0 0 8.082 1.7l26.389-11.35-26.389 11.35c-2.743 1.179-4.894 4.025-5.788 7.657a15.194 15.194 0 0 0 1.282 10.7l16.309 29.7-16.309-29.7c-1.7-3.085-4.409-4.92-7.3-4.92s-5.594 1.835-7.291 4.92l-16.313 29.7 16.313-29.7a15.162 15.162 0 0 0 1.278-10.7c-.889-3.632-3.04-6.478-5.789-7.657l-26.385-11.35 26.389 11.35a7.27 7.27 0 0 0 8.088-1.7 13.465 13.465 0 0 0 3.714-9.65Z"/><path fill="#30958e" d="M444.556 688.831v49.984c0 5.2 1.885 10.088 5.064 13.14a9.893 9.893 0 0 0 11.006 2.309l35.93-15.449-35.93 15.449c-3.736 1.605-6.665 5.48-7.882 10.425a20.684 20.684 0 0 0 1.746 14.567L476.7 819.7l-22.2-40.441c-2.31-4.2-6-6.7-9.934-6.7s-7.617 2.5-9.927 6.7L412.417 819.7l22.212-40.441a20.65 20.65 0 0 0 1.739-14.567c-1.21-4.945-4.139-8.82-7.882-10.425l-35.93-15.449 35.93 15.449a9.9 9.9 0 0 0 11.012-2.309c3.18-3.052 5.058-7.938 5.058-13.14Z"/><path fill="#30958e" d="M382.01 703.243v65.345c0 6.8 2.464 13.188 6.621 17.178s9.5 5.118 14.387 3.019l46.973-20.2-46.973 20.2c-4.884 2.1-8.713 7.164-10.3 13.629A27.047 27.047 0 0 0 395 821.458l29.029 52.869L395 821.458c-3.02-5.493-7.849-8.758-12.987-8.758s-9.959 3.265-12.978 8.758l-29.039 52.869 29.039-52.869a27 27 0 0 0 2.274-19.044c-1.583-6.465-5.412-11.53-10.3-13.629l-46.973-20.2 46.964 20.2c4.892 2.1 10.24.972 14.4-3.019s6.612-10.377 6.612-17.178Z"/></g><g fill-rule="evenodd"><path fill="#192280" d="M1020.918 481.456c61.266 50.446 69.165 142.222 17.624 204.819s-143.132 72.464-204.4 22.018-69.161-142.227-17.619-204.824 143.129-72.458 204.395-22.013Zm-23.347 28.355c45.947 37.832 51.873 106.668 13.219 153.613s-107.352 54.346-153.3 16.514-51.872-106.668-13.213-153.618 107.342-54.345 153.294-16.509Z"/><path fill="#192280" d="M871.665 697.93a.041.041 0 0 0 .01-.032.049.049 0 0 0-.015-.028l-17.269-14.22a22.346 22.346 0 0 0-31.46 3.048L721.062 810.419a22.35 22.35 0 0 0 3.046 31.46l13.811 11.371a4.519 4.519 0 0 0 6.369-.621Z"/><path fill="#b2b7f0" d="M818.2 779.434c.008-.01.016-.019.01-.032a.047.047 0 0 0-.016-.03L792.8 758.46a32.888 32.888 0 0 0-46.293 4.485l-88.472 107.446a32.892 32.892 0 0 0 4.479 46.3l21.942 18.067a4.524 4.524 0 0 0 6.368-.623Z"/></g><path fill="#806060" fill-rule="evenodd" d="M490.644 715.56c50.1-.611 83.958 147.141 131.806 162.171s126.623-59.685 155.272-71.984c3.835-1.646 1.942-18.932 6.988-28.8 4.7-9.175 10.8-3.3 8.978 17.405-.453 5.174 7.845-13.945 13.128-18.508 14.26-12.339 35.263 23.288-13.62 61.931-30.69 24.264-123.578 115.555-178.669 115.575s-130.062-76.506-151.882-115.504c-30.395-54.303-.72-121.941 27.999-122.286ZM432.359 619.282c3.006 23.88 50.42 56.1 66.041 50.736 33.6-11.511 14.084-88.324 3.509-104.684s-55.329-2.445-66.919 6.544-4.809 30.029-2.631 47.404Z"/><path fill="#27253a" fill-rule="evenodd" d="M472.421 609.23c2.71-9.117 9.935-16.843 17.612-22.441 10.654-7.766 41.146-11.413 46.31-24.146S532.933 521.5 521 510.37s-44.359-22.106-56.244-14.488-6.2 49.573-15.06 60.227c-8.14 9.806-34.789-8.633-38.061 3.7-4.681 17.651 26.392 96.524 9.944 102.26S370.831 586.7 312.94 594.19c-94.553 12.221-94.523 107.641-84.263 137.188 16.4 47.188 73.186 78.272 110.1 76.527s89.083-53.86 111.366-86.964c21.184-31.508 15.636-89.359 22.278-111.711Z"/></svg>