<svg version="1.0" xmlns="http://www.w3.org/2000/svg"
 width="64.000000pt" height="64.000000pt" viewBox="0 0 64.000000 64.000000"
 preserveAspectRatio="xMidYMid meet">

<g transform="translate(0.000000,64.000000) scale(0.100000,-0.100000)"
fill="#000000" stroke="none">
<path d="M43 630 c-37 -15 -43 -42 -43 -203 0 -148 1 -154 23 -175 21 -20 34
-22 130 -22 l107 0 0 -37 c-1 -37 -18 -73 -35 -73 -5 0 -19 9 -31 21 l-22 21
-11 -21 c-6 -11 -13 -47 -15 -81 l-3 -60 148 0 c93 0 149 4 149 10 0 6 -13 10
-30 10 l-30 0 0 105 0 105 108 0 c154 0 152 -2 152 202 0 138 -2 158 -19 179
l-19 24 -269 2 c-147 1 -278 -2 -290 -7z m555 -26 c21 -15 22 -21 22 -173 0
-109 -4 -161 -12 -169 -17 -17 -559 -17 -576 0 -8 8 -12 60 -12 169 0 152 1
158 22 173 33 24 523 24 556 0z m-240 -481 c3 -97 2 -103 -17 -103 -14 0 -19
5 -15 15 4 9 3 45 -1 81 -6 58 -9 64 -26 59 -15 -5 -19 -1 -19 18 0 32 9 39
45 35 l30 -3 3 -102z m-52 4 c11 -46 1 -102 -20 -105 -16 -3 -18 0 -12 22 4
15 2 26 -4 26 -5 0 -10 -9 -10 -19 0 -30 -19 -35 -26 -7 -6 25 6 57 34 89 20
23 30 22 38 -6z m-105 -13 c7 -9 14 -34 14 -55 1 -31 -3 -39 -17 -39 -25 0
-40 34 -32 75 7 39 15 43 35 19z"/>
<path d="M100 530 c0 -5 5 -10 10 -10 6 0 10 -16 10 -35 0 -19 5 -35 10 -35 6
0 10 16 10 35 0 25 4 35 16 35 8 0 12 5 9 10 -3 6 -19 10 -36 10 -16 0 -29 -4
-29 -10z"/>
<path d="M192 495 c0 -27 2 -42 5 -32 6 21 43 23 43 1 0 -8 5 -12 10 -9 6 3
10 21 10 40 0 19 -4 37 -10 40 -5 3 -10 -3 -10 -14 0 -28 -28 -27 -40 2 -7 17
-9 11 -8 -28z"/>
<path d="M294 505 c-20 -48 -19 -50 21 -50 19 0 35 4 35 8 0 14 -29 77 -35 77
-3 0 -13 -16 -21 -35z"/>
<path d="M382 495 c0 -27 3 -40 5 -27 5 27 14 28 31 2 20 -32 32 -23 32 25 0
25 -4 45 -10 45 -5 0 -10 -12 -10 -27 l0 -28 -25 30 -24 30 1 -50z"/>
<path d="M478 534 c-11 -10 -10 -84 1 -84 5 0 12 10 15 23 l7 22 11 -22 c6
-13 15 -23 20 -23 11 0 10 7 -3 32 -8 14 -8 23 0 31 19 19 12 31 -7 14 -23
-21 -30 -21 -34 -1 -2 9 -6 12 -10 8z"/>
<path d="M200 391 c0 -6 5 -13 10 -16 6 -3 10 -17 10 -30 0 -13 5 -27 10 -30
6 -3 10 3 10 15 0 11 7 32 16 45 17 26 7 34 -15 13 -11 -10 -14 -10 -18 0 -5
14 -23 16 -23 3z"/>
<path d="M286 384 c-17 -43 11 -82 48 -68 22 8 31 51 16 69 -16 20 -56 19 -64
-1z m52 -27 c-2 -11 -9 -22 -15 -25 -16 -4 -27 22 -19 43 8 22 38 6 34 -18z"/>
<path d="M380 362 c0 -41 16 -57 45 -46 10 4 15 19 14 48 l-2 41 -6 -34 c-8
-45 -31 -54 -31 -12 0 16 -4 33 -10 36 -6 4 -10 -10 -10 -33z"/>
<path d="M470 375 c0 -14 5 -25 10 -25 6 0 10 11 10 25 0 14 -4 25 -10 25 -5
0 -10 -11 -10 -25z"/>
<path d="M475 320 c3 -5 8 -10 11 -10 2 0 4 5 4 10 0 6 -5 10 -11 10 -5 0 -7
-4 -4 -10z"/>
</g>
</svg>
