<?xml version="1.0" encoding="utf-8"?>
<!-- Generator: Adobe Illustrator 26.0.2, SVG Export Plug-In . SVG Version: 6.00 Build 0)  -->
<svg version="1.1" xmlns="http://www.w3.org/2000/svg" xmlns:xlink="http://www.w3.org/1999/xlink" x="0px" y="0px"
	 viewBox="0 0 425.2 252.7" style="enable-background:new 0 0 425.2 252.7;" xml:space="preserve">
<style type="text/css">
	.st0{display:none;}
	.st1{display:inline;}
	.st2{display:inline;fill:#231F20;}
	.st3{clip-path:url(#SVGID_00000171709339014197891350000008666901621714145421_);}
	.st4{clip-path:url(#SVGID_00000083773756067042256210000007850221881942308756_);}
	.st5{clip-path:url(#SVGID_00000139972583363140056450000008449969432658039993_);}
	.st6{clip-path:url(#SVGID_00000062913791328443049690000011497463927437214850_);}
	.st7{clip-path:url(#SVGID_00000142866442806809931920000004969325175125095568_);}
	.st8{clip-path:url(#SVGID_00000046324672259979189780000006323903969489548478_);}
	.st9{clip-path:url(#SVGID_00000114777036799698760560000016468459932956156054_);}
	.st10{clip-path:url(#SVGID_00000146499462654280267430000000138159629796841400_);}
	.st11{clip-path:url(#SVGID_00000143599493274056055280000011147692306069305230_);}
	.st12{clip-path:url(#SVGID_00000007393183349786714980000017137214763447476885_);}
	.st13{clip-path:url(#SVGID_00000083048268280748565440000011426463223450699407_);}
	.st14{clip-path:url(#SVGID_00000085945728291035118000000015850042980456017063_);}
	.st15{clip-path:url(#SVGID_00000060718081725033181210000015351458609125078162_);}
	.st16{clip-path:url(#SVGID_00000147186312180271181130000008361924598963002504_);}
	.st17{clip-path:url(#SVGID_00000181056090402361195630000013621925740547917961_);}
	.st18{clip-path:url(#SVGID_00000129172338664296338010000013303631033978600866_);}
	.st19{clip-path:url(#SVGID_00000015353466472808491860000003474868773351377289_);}
	.st20{clip-path:url(#SVGID_00000013152944329400484160000002792769512047611060_);}
	.st21{clip-path:url(#SVGID_00000080174540474040995450000017031787157153092236_);}
	.st22{clip-path:url(#SVGID_00000127739871149901737220000015459010693444385951_);}
	.st23{clip-path:url(#SVGID_00000130646259925363453460000014616089717943391925_);}
	.st24{clip-path:url(#SVGID_00000059283399692640125150000000408622673756723338_);}
	.st25{clip-path:url(#SVGID_00000075857150938370239410000011019758402420694442_);}
	.st26{clip-path:url(#SVGID_00000052790941099326692220000018152498457213723575_);}
	.st27{clip-path:url(#SVGID_00000031887787391502933120000014087227725547044537_);}
	.st28{clip-path:url(#SVGID_00000170246646507153298610000012430191682038943386_);}
	.st29{clip-path:url(#SVGID_00000133490487438529215830000015546632791395110314_);}
	.st30{clip-path:url(#SVGID_00000044892687244793351350000016188689970308637598_);}
	.st31{clip-path:url(#SVGID_00000087374637340624848850000016188538266618045883_);}
	.st32{clip-path:url(#SVGID_00000021805967962168197350000000943647945501742225_);}
	.st33{clip-path:url(#SVGID_00000015337763336697759970000003107460073486549898_);}
	.st34{clip-path:url(#SVGID_00000024717794230257824430000007343379696891887002_);}
	.st35{clip-path:url(#SVGID_00000178190321852339754200000009629757606421571234_);}
	.st36{clip-path:url(#SVGID_00000088824400642201439000000014452785515543673764_);}
	.st37{clip-path:url(#SVGID_00000116937242511757715060000013684972955757441959_);}
	.st38{clip-path:url(#SVGID_00000011027791995652169720000003568256170342598073_);}
	.st39{clip-path:url(#SVGID_00000171685161012613129390000013946421237886331835_);}
	.st40{clip-path:url(#SVGID_00000034061266496506006050000017091758057840695988_);}
	.st41{clip-path:url(#SVGID_00000088116283312628273910000010254453917421790599_);}
	.st42{clip-path:url(#SVGID_00000019678025234699359550000012728455334194736295_);}
</style>
<g id="Layer_1" class="st0">
	<path class="st1" d="M252.2,49.7c-0.5,0-0.9-0.1-1.3-0.3l-1,2.1v8.9h5.4v-8.9l-1.1-2c-0.5,0.2-1.1,0.3-1.6,0.3L252.2,49.7z"/>
	<path class="st1" d="M254.5,47.8L253.2,28c0-0.6-0.4-1-1-1s-1,0.4-1,1l-0.7,19.7c0,0.2,0.2,0.5,0.6,0.7c0.3,0.2,0.6,0.3,1,0.3h0.7
		C253.9,48.7,254.5,48.1,254.5,47.8z"/>
	<path class="st1" d="M252.2,48.8h0.2c0.1,0,0.2,0,0.3,0h-0.7C252.1,48.8,252.2,48.8,252.2,48.8z"/>
	<path class="st1" d="M173.2,49.7c0.5,0,0.9-0.1,1.3-0.3l1,2v9h-5.4v-8.9l1.1-2c0.5,0.2,1.1,0.3,1.6,0.3L173.2,49.7z"/>
	<path class="st1" d="M170.9,47.8l1.3-19.8c0-0.6,0.4-1,1-1s1,0.4,1,1l0.7,19.7c0,0.2-0.2,0.5-0.6,0.7c-0.3,0.2-0.6,0.3-1,0.3h-0.7
		C171.5,48.7,170.9,48.1,170.9,47.8z"/>
	<path class="st1" d="M173.2,48.8h-0.3c-0.1,0-0.2,0-0.3,0h0.7H173.2z"/>
	<rect y="62.6" class="st1" width="168.5" height="130"/>
	<rect x="256.7" y="62.6" class="st1" width="168.5" height="130"/>
	<path class="st1" d="M179.8,127c0,0,0.5-4,4.5-4.1s4.5,4.1,4.5,4.1v13.4h12.4V127c0,0,0.5-4,4.5-4.1s4.5,4.1,4.5,4.1v13.4h4.7V127
		c0,0,0.5-4,4.5-4.1s4.5,4.1,4.5,4.1v13.4h12.1V127c0,0,0.5-4,4.5-4.1s4.5,4.1,4.5,4.1v13.4h10V107h-84.3v33.4h9.4V127z M240,112.3
		l8.4,5.2l0,0l-0.5,0.8l-7.9-4.9l-7.4,4.9l-0.5-0.8L240,112.3z M212,111.5l15.4,6l0,0l-0.3,0.9l-15.1-5.9l-14.1,5.8l-0.4-0.9
		L212,111.5z M184.1,112.3l8.4,5.2l0,0l-0.5,0.8l-7.9-4.9l-7.4,4.9l-0.5-0.8L184.1,112.3z"/>
	<path class="st1" d="M179.9,89.5h8.9v16.5h12.4V89.5h8.9v16.5h4.7V89.6h8.9v16.5h12.1V89.6h8.9v16.5h10V62.6h-84.2v43.5h9.4
		L179.9,89.5z M240.2,79.3c3.5,0,6.7,1.9,8.4,5l-0.8,0.4c-2.2-4.1-7.4-5.7-11.5-3.5c-1.5,0.8-2.7,2-3.5,3.5l0,0l-0.8-0.4
		C233.6,81.3,236.8,79.4,240.2,79.3z M212,78.2l15.4,5.9l0,0l-0.3,0.9L212,79.2L197.9,85l-0.4-0.9L212,78.2z M176.8,84.8l-0.8-0.5
		c2.4-4.6,8.1-6.4,12.7-3.9c1.7,0.9,3,2.2,3.9,3.9l-0.8,0.4c-2.2-4.1-7.4-5.7-11.5-3.5C178.9,82.1,177.6,83.3,176.8,84.8L176.8,84.8
		z"/>
	<path class="st1" d="M170.5,192.5h31.4v-27.7c0,0,1.2-7.6,10.6-7.7s10.5,7.7,10.5,7.7v27.7h31.7V149h-84.2V192.5z M235.8,162.3
		c0.3-2.3,2.2-4,4.5-4c3.9-0.1,4.5,4,4.5,4v15.4h-8.9L235.8,162.3z M184.3,158.3c3.9-0.1,4.5,4,4.5,4v15.4h-8.9v-15.4
		C180.1,160,182,158.3,184.3,158.3L184.3,158.3z"/>
	<rect x="170.5" y="141.3" class="st1" width="84.3" height="6.8"/>
	<rect x="170.5" y="106.1" class="st1" width="9.4" height="0"/>
	<rect x="244.7" y="106.1" class="st1" width="10" height="0"/>
	<rect x="223.8" y="106.1" class="st1" width="12.1" height="0"/>
	<rect x="210.1" y="106.1" class="st1" width="4.7" height="0"/>
	<rect x="188.8" y="106.1" class="st1" width="12.4" height="0"/>
	<polygon class="st1" points="232.8,84.8 232.8,84.8 232.7,84.8 	"/>
	<polygon class="st1" points="194.6,0 197.3,8.2 228.1,8.2 230.9,0 	"/>
	<path class="st1" d="M228.1,9.3h-30.8c-14.6,6.6-23.3,21.8-21.6,37.7h22.2l5.1-14.3l-1.7-1.7v-2.8c0,0,3.3-3.8,11.8-3.9
		c7.4-0.1,11.2,4,11.2,4V31l-1.6,1.6l5,14.4h22.1C251.9,30.9,241.6,15,228.1,9.3z"/>
	<path class="st1" d="M250,48.9c-0.2-0.2-0.4-0.6-0.5-0.9h-22v12.4h21.3v-9.1L250,48.9z"/>
	<path class="st1" d="M175.4,48.9c0.2-0.2,0.4-0.6,0.5-0.9h22v12.4h-21.3v-9.1L175.4,48.9z"/>
	<path class="st1" d="M221.4,32.5l1.8-2v-1.8c0,0-3.4-3.4-10.5-3.4c-7.2,0.1-10.6,3.4-10.6,3.4v1.9l1.8,1.9l-5.2,14.8v13.1h27.8
		V47.3L221.4,32.5z M220.2,30.7c-1.4-1.3-4.2-2.3-7.5-2.3s-6,1-7.4,2.3l-0.6-0.6c1.6-1.5,4.6-2.5,7.9-2.5s6.5,1,8.1,2.5L220.2,30.7z
		"/>
	<path class="st1" d="M12.5,239.7c5.3,0,8.5-1.8,8.5-7.3v-23.3h2.9v23.2c0,7.3-4,10-11.4,10c-7,0-11.1-2.7-11.1-10v-23.2h2.9v23.2
		C4.3,237.9,7.5,239.7,12.5,239.7z"/>
	<path class="st1" d="M32.1,242.1v-23.6h2.8v1.8c2.4-1.3,5-2,7.6-2.2c6.5,0,7.9,3,7.9,11.7v12.3h-2.8v-12.3c0-6.9-0.8-9.2-5.5-9.2
		c-2.5,0.1-5,0.8-7.3,2v19.5H32.1z"/>
	<path class="st1" d="M58.6,209.1h2.8v3.5h-2.8V209.1z M58.6,218.5h2.8v23.6h-2.8V218.5z"/>
	<path class="st1" d="M69.7,218.5l6.1,21.1h1.8l6.2-21.1h2.9l-7,23.6h-6.1l-6.9-23.6H69.7z"/>
	<path class="st1" d="M108.7,239.6l0.1,2.4c0,0-5.3,0.7-9,0.7c-7,0-9.2-4.3-9.2-12.2c0-9.1,4-12.3,9.7-12.3c6.1,0,9.3,3.2,9.3,11.1
		l-0.1,2.3h-16c0,5.6,1.6,8.5,6.6,8.5C103.5,240,108.7,239.6,108.7,239.6z M106.8,229.1c0-6.2-2-8.5-6.5-8.5s-6.8,2.4-6.8,8.5H106.8
		z"/>
	<path class="st1" d="M116.3,218.5h2.8v3.4c2.6-1.9,5.5-3.2,8.6-3.8v2.9c-3.1,0.7-6,1.9-8.6,3.6v17.6h-2.8V218.5z"/>
	<path class="st1" d="M148,221.4c-2.7-0.4-5.4-0.7-8.2-0.8c-3,0-5.6,0.8-5.6,4c0,2.4,1.2,3.2,6.1,4c6.2,1,8.5,2.1,8.5,6.6
		c0,5.5-3.4,7.3-9.1,7.3c-2.7-0.1-5.4-0.4-8.1-0.9l0.2-2.5c2.5,0.4,5.1,0.7,7.7,0.8c4.1,0,6.5-0.9,6.5-4.6c0-2.8-1.4-3.4-6.5-4.2
		c-5.7-0.9-8.2-1.9-8.2-6.5c0-5.1,4.2-6.6,8.3-6.6c2.8,0.1,5.6,0.3,8.4,0.8L148,221.4z"/>
	<path class="st1" d="M155.6,209.1h2.8v3.5h-2.8V209.1z M155.6,218.5h2.8v23.6h-2.8V218.5z"/>
	<path class="st1" d="M170.1,221.1v11.5c0,5.9,0.4,7.4,3.7,7.4c1.3,0,4.4-0.3,4.4-0.3l0.1,2.5c-1.6,0.2-3.2,0.4-4.8,0.5
		c-4.6,0-6.3-1.7-6.3-8.5v-13h-3.5v-2.6h3.5v-7.4h2.8v7.4h7.9v2.6L170.1,221.1z"/>
	<path class="st1" d="M183.8,218.5l6.3,20.9h1.7l6.3-20.9h2.9l-10.2,34.2H188l3.1-10.6h-3.2l-6.9-23.6L183.8,218.5z"/>
	<path class="st1" d="M235.7,230c0,8.4-1.9,12.6-9.8,12.6s-10-3.7-10-12.6c0-8.3,2.6-11.8,10-11.8
		C232.7,218.1,235.7,221.7,235.7,230z M232.8,230c0-6.8-2.1-9.3-6.9-9.3c-5.4,0-7.1,2.3-7.1,9.3s1,10.1,7.1,10.1
		S232.8,236.7,232.8,230z"/>
	<path class="st1" d="M245.5,242.1h-2.8v-21h-3.1v-2.6h3.1v-2.4c0-6.8,1.7-8.5,6.2-8.5c1.6,0,4.6,0.3,4.6,0.3v2.4
		c0,0-2.8-0.1-4.1-0.1c-2.8,0-3.8,1.2-3.8,6v2.4h7.2v2.6h-7.2L245.5,242.1z"/>
	<path class="st1" d="M269.4,209.2h5.3l10.3,28.6l10.3-28.6h5.2v32.9h-2.9v-29.6H297L286.6,241h-3.4L273,212.5h-0.7v29.6h-2.9
		L269.4,209.2z"/>
	<path class="st1" d="M325.1,238.2c0.1,1.4,1.5,1.9,3.1,2.1l-0.1,2.3c-2.3,0-4-0.5-5.3-1.9c-2.8,1.2-5.8,1.8-8.9,1.9
		c-4.1,0-6.5-2.4-6.5-7.1c0-4.3,2.2-6.4,6.9-6.9l8-0.8v-2.1c0-3.5-1.6-4.9-4.6-4.9c-3.4,0-8.9,0.7-8.9,0.7l-0.1-2.4
		c3.1-0.5,6.1-0.8,9.2-0.9c4.9,0,7.2,2.4,7.2,7.5V238.2z M314.7,230.8c-3.2,0.3-4.3,1.8-4.3,4.6c0,3,1.3,4.7,3.9,4.7
		c2.8-0.1,5.5-0.7,8.1-1.6V230L314.7,230.8z"/>
	<path class="st1" d="M333.9,218.5h2.8v3.4c2.6-1.9,5.5-3.2,8.6-3.8v2.9c-3.1,0.7-6,1.9-8.6,3.6v17.6h-2.8V218.5z"/>
	<path class="st1" d="M350.2,209.1h2.8v3.5h-2.8V209.1z M350.2,218.5h2.8v23.6h-2.8V218.5z"/>
	<path class="st1" d="M379.9,229.9c0,9.1-2.4,12.7-11,12.7c-3,0-7.6-0.5-7.6-0.5v-34h2.8v11.7c2.3-1,4.8-1.6,7.4-1.6
		C378,218.1,379.9,221.5,379.9,229.9z M377,229.9c0-6.5-1.1-9.2-5.7-9.2c-2.5,0.1-4.9,0.6-7.2,1.5v17.5c0,0,3.3,0.3,4.7,0.3
		C375.9,240,377,236.8,377,229.9L377,229.9z"/>
	<path class="st1" d="M404.8,230c0,8.4-1.9,12.6-9.8,12.6s-10-3.7-10-12.6c0-8.3,2.6-11.8,10-11.8
		C401.8,218.1,404.8,221.7,404.8,230z M401.8,230c0-6.8-2.1-9.3-6.9-9.3c-5.4,0-7.1,2.3-7.1,9.3s1,10.1,7.1,10.1
		S401.9,236.7,401.8,230L401.8,230z"/>
	<path class="st1" d="M411.6,218.5h2.8v3.4c2.6-1.9,5.5-3.2,8.6-3.8v2.9c-3.1,0.7-6,1.9-8.6,3.6v17.6h-2.8V218.5z"/>
</g>
<g id="Layer_2" class="st0">
	<path class="st2" d="M127.7,95.9v83.7H1.3V95.9H127.7 M129,94.7H0v86.2h129V94.7z"/>
	<polygon class="st2" points="61.7,113.5 64.5,111.5 67.2,113.5 66.2,110.2 68.9,108.3 65.5,108.3 64.5,105 63.4,108.3 60,108.3 
		62.8,110.2 	"/>
	<polygon class="st2" points="47.6,117.3 50.4,115.3 53.1,117.3 52.1,114 54.8,112.1 51.4,112.1 50.4,108.8 49.3,112.1 45.9,112.1 
		48.7,114 	"/>
	<polygon class="st2" points="40,119.1 39,122.4 35.6,122.4 38.4,124.4 37.3,127.6 40,125.6 42.8,127.6 41.7,124.4 44.5,122.4 
		41.1,122.4 	"/>
	<polygon class="st2" points="36.3,139.8 39,141.7 37.9,138.5 40.7,136.5 37.3,136.5 36.3,133.3 35.2,136.5 31.8,136.5 34.6,138.5 
		33.5,141.7 	"/>
	<polygon class="st2" points="41.1,150.7 40,147.4 39,150.7 35.6,150.7 38.4,152.7 37.3,155.9 40,153.9 42.8,155.9 41.7,152.7 
		44.5,150.7 	"/>
	<polygon class="st2" points="51.4,161 50.4,157.8 49.4,161.1 45.9,161 48.7,163 47.7,166.3 50.4,164.3 53.1,166.3 52.1,163 
		54.8,161 	"/>
	<polygon class="st2" points="65.5,164.8 64.5,161.5 63.4,164.8 60,164.8 62.8,166.8 61.7,170 64.5,168 67.2,170 66.2,166.8 
		68.9,164.8 	"/>
	<polygon class="st2" points="79.6,161 78.5,157.8 77.5,161.1 74.1,161 76.9,163 75.8,166.3 78.5,164.3 81.3,166.3 80.2,163 83,161 
			"/>
	<polygon class="st2" points="89.9,150.7 88.9,147.4 87.8,150.7 84.4,150.7 87.2,152.7 86.2,155.9 88.9,153.9 91.6,155.9 
		90.6,152.7 93.3,150.7 	"/>
	<polygon class="st2" points="97.1,136.5 93.6,136.5 92.6,133.2 91.6,136.5 88.2,136.5 90.9,138.5 89.9,141.7 92.6,139.7 
		95.3,141.7 94.3,138.5 	"/>
	<polygon class="st2" points="86.2,127.6 88.9,125.6 91.6,127.6 90.6,124.4 93.3,122.4 89.9,122.4 88.9,119.1 87.8,122.4 
		84.4,122.4 87.2,124.4 	"/>
	<polygon class="st2" points="78.6,108.8 77.5,112.1 74.1,112.1 76.9,114 75.9,117.3 78.6,115.3 81.3,117.3 80.3,114 83,112.1 
		79.6,112.1 	"/>
	<path class="st2" d="M113.9,34.8c10.9,18.8,13.3,39.3,6.5,55h-17.6c6.5-7.8,8.1-19.4,4.5-32.3c-2.4-8.3-6.4-16-11.7-22.8h18.2
		 M57.1,34.7c-2,6.7-0.2,14,4.7,18.9l35.9,36h-45l10.9-10.9l0.9-0.9l-0.9-0.9L51,64.4l-0.9-0.9l-0.9,0.9L24.3,89.7l0,0H1.3V41
		c2.5-2.5,5.4-4.5,8.6-6.1h47.3 M12.6,79.9l0.9-0.9l25.1-25.2l0.9-0.9L38.6,52c-7.4-7.5-19.5-7.5-26.9-0.1s-7.5,19.5-0.1,27l0.9,0.9
		 M114.5,33.6H93.1c6,7.1,10.4,15.4,13.1,24.3c3.6,12.9,1.9,25-5.8,32.7L62.7,52.9c-5-5.1-6.6-12.7-3.8-19.3H9.5
		c-3.5,1.7-6.7,4-9.5,6.8v0.1v50.7h25.6l-0.5-0.5l25.1-25.1L63,78.2l-13.2,13h71.5C128.6,74.8,126.1,53.1,114.5,33.6L114.5,33.6z
		 M12.5,78.1c-6.9-6.9-6.9-18.2,0-25.1s18.2-6.9,25.1,0L12.5,78.1z"/>
	<path class="st2" d="M127.2,185.8c0.8,9.7-2.6,19.2-9.2,26.2H93.4L69,187.5l-0.9-0.9l-0.8,0.9l-12.6,12.7l-0.9,0.9l0.9,0.9
		l10.1,10.1H21.3l26.2-26.2h41.3l16.1,16.1l0.9,0.9l0.9-0.9c4.2-4.2,6.2-10.2,5.4-16.1h15.2 M128.3,184.7h-18
		c1.4,5.9-0.4,12.2-4.7,16.5l-16.5-16.5H47l-28.7,28.8h49.4l-12.2-12.3l12.5-12.6l24.8,24.8h25.7c7.4-7.6,11-18.2,9.9-28.8H128.3z"
		/>
	<path class="st2" d="M333.4,176.1c-0.1,0.5-0.4,1-0.8,1.5c-0.3,0.4-0.8,0.7-1.3,0.9c-0.6,0.2-1.3,0.3-1.9,0.3H328v-9.3h1.4
		c0.7,0,1.4,0.1,2,0.3c0.5,0.2,0.9,0.5,1.3,1c0.3,0.4,0.6,0.9,0.7,1.4c0.2,0.6,0.2,1.2,0.2,1.8C333.7,174.7,333.6,175.4,333.4,176.1
		 M336,171c-0.6-1.6-1.8-2.8-3.4-3.3c-1-0.3-2-0.5-3.1-0.4H326c-0.2,0-0.4,0.1-0.6,0.2c-0.2,0.2-0.3,0.4-0.2,0.7V180
		c-0.1,0.4,0.2,0.8,0.6,0.9c0.1,0,0.1,0,0.2,0h3.3c1,0,2.1-0.1,3.1-0.4c0.8-0.2,1.6-0.7,2.2-1.2c0.6-0.6,1.1-1.4,1.4-2.2
		c0.3-1,0.5-2.1,0.5-3.2C336.5,172.9,336.4,171.9,336,171 M315.8,175.7h-3.9l1.9-5.8l0,0L315.8,175.7z M315.8,167.8
		c0-0.1-0.1-0.2-0.2-0.3c-0.1-0.1-0.2-0.1-0.3-0.2h-0.6h-1.8h-0.5c-0.1,0-0.2,0.1-0.3,0.2c-0.1,0.1-0.1,0.2-0.1,0.3l-4.1,12.2
		c-0.1,0.2-0.1,0.4-0.2,0.6c-0.1,0.1-0.1,0.2,0,0.4c0.1,0.1,0.2,0.2,0.4,0.2h1.5h0.4l0.2-0.2c0-0.1,0-0.2,0-0.3l0.9-2.7h5.1l0.9,2.7
		c0,0.1,0,0.2,0,0.2h0.2h0.5h1.6c0.1,0,0.3-0.1,0.4-0.2c0.1-0.1,0.1-0.2,0-0.3c0.1-0.2,0.3-0.3,0.4-0.5L315.8,167.8z M304,179.2
		c0-0.1,0-0.2,0-0.4c0-0.1-0.1-0.1-0.2-0.2c-0.1,0-0.1,0-0.2,0h-4.3v-11c0-0.1,0-0.1,0-0.2c0,0,0,0-0.2-0.2h-0.4h-1.3H297
		c-0.1,0-0.2,0.1-0.2,0.2c0,0.1,0,0.1,0,0.2v12.4c0,0.2,0.1,0.5,0.2,0.7c0.2,0.1,0.4,0.2,0.6,0.2h6.2h0.2l0.2-0.2v-0.4
		c0-0.2,0-0.3,0-0.5c0-0.2,0-0.4,0-0.5 M291.5,180.4l-0.3-0.6l-4.1-6.1l3.7-4.9c0.1-0.2,0.3-0.4,0.4-0.6c0-0.1,0-0.2,0-0.4
		c0-0.1,0-0.1,0-0.2c-0.1-0.1-0.1-0.1-0.2-0.1h-0.4h-1.4h-0.5l-0.3,0.2c-0.1,0.1-0.1,0.1-0.2,0.2l-4,5.8v-5.8c0-0.1,0-0.1,0-0.2
		c-0.1-0.1-0.1-0.1-0.2-0.2h-0.4h-1.4h-0.4c-0.1,0-0.2,0.1-0.2,0.2c0,0.1,0,0.1,0,0.2v12.8c0,0.1,0,0.1,0,0.2
		c0.1,0.1,0.1,0.1,0.2,0.2c0.1,0,0.3,0,0.4,0h1.3h0.4c0.1,0,0.2-0.1,0.2-0.2c0-0.1,0-0.1,0-0.2v-6.6l4.1,6.5
		c0.1,0.1,0.1,0.2,0.2,0.3l0.4,0.2h1h0.7c0.1,0,0.3,0,0.4,0c0.1,0,0.2-0.1,0.2-0.2c0-0.1,0-0.1,0-0.2c0-0.1,0-0.2,0-0.2
		 M275.9,175.5c-0.1-0.4-0.4-0.7-0.7-1c-0.3-0.3-0.6-0.6-0.9-0.8c-0.3-0.2-0.7-0.4-1.1-0.6l-1.1-0.5l-1-0.5
		c-0.2-0.2-0.5-0.4-0.7-0.6c-0.2-0.2-0.2-0.5-0.2-0.8c0-0.2,0-0.4,0-0.6c0.1-0.2,0.2-0.4,0.3-0.5c0.2-0.1,0.4-0.2,0.6-0.3
		c0.3,0,0.5,0,0.8,0c0.4,0,0.7,0,1.1,0c0.3,0.1,0.6,0.2,0.9,0.3c0.2,0.1,0.4,0.2,0.6,0.3h0.4h0.2c0-0.1,0.1-0.1,0.1-0.2
		c0,0,0-0.2,0-0.4v-1c0-0.1,0-0.2,0-0.3c0-0.1,0-0.1,0-0.2l-0.2-0.2c-0.1-0.1-0.3-0.2-0.4-0.3l-0.7-0.3l-0.9-0.2c-0.3,0-0.6,0-1,0
		c-0.6,0-1.2,0.1-1.8,0.2c-0.5,0.2-1,0.4-1.4,0.7c-0.4,0.3-0.8,0.8-1,1.2c-0.3,0.5-0.4,1.1-0.4,1.7c0,0.5,0.1,1,0.3,1.4
		c0.1,0.4,0.4,0.8,0.7,1.1c0.3,0.3,0.6,0.6,0.9,0.8c0.3,0.2,0.7,0.4,1.1,0.6l1.1,0.5c0.3,0.1,0.6,0.3,0.9,0.5
		c0.3,0.2,0.5,0.4,0.7,0.6c0.2,0.2,0.3,0.5,0.3,0.8c0,0.3,0,0.5-0.2,0.7c-0.1,0.2-0.2,0.4-0.4,0.6c-0.2,0.1-0.4,0.3-0.7,0.3
		c-0.3,0.1-0.6,0.1-0.9,0.1c-0.5,0-0.9,0-1.3-0.2l-1-0.4l-0.7-0.4c-0.1-0.1-0.3-0.2-0.4-0.2h-0.2c-0.1,0.1-0.1,0.1-0.1,0.2
		c0,0.1,0,0.2,0,0.4v0.5c0,0.3,0,0.5,0,0.8c0,0.1,0.1,0.3,0.2,0.4c0.1,0.1,0.3,0.2,0.4,0.3c0.3,0.1,0.5,0.2,0.8,0.3
		c0.3,0.1,0.7,0.2,1.1,0.3c1.1,0.2,2.2,0.2,3.3-0.2c0.6-0.2,1.1-0.4,1.6-0.8c0.5-0.4,0.8-0.8,1.1-1.3c0.3-0.6,0.4-1.2,0.4-1.9
		C276.1,176.4,276,175.9,275.9,175.5 M253.8,167.7c0-0.1,0-0.1,0-0.2c-0.1-0.1-0.1-0.1-0.2-0.2h-0.4h-1.2h-0.4
		c-0.1,0-0.2,0.1-0.2,0.2c0,0.1,0,0.1,0,0.2v12.9c0,0.1,0,0.1,0,0.2c0.1,0.1,0.1,0.1,0.2,0.1h0.4h1.3c0.1,0,0.3,0,0.4,0
		c0.1,0,0.2-0.1,0.2-0.1c0-0.1,0-0.1,0-0.2L253.8,167.7z M244.8,167.7c0-0.1,0-0.1,0-0.2c0-0.1-0.1-0.1-0.2-0.2c-0.1,0-0.2,0-0.4,0
		h-1.2c-0.1,0-0.3,0-0.4,0c-0.1,0-0.2,0.1-0.2,0.2c0,0.1,0,0.1,0,0.2v6.4c0,0.5,0,1,0,1.5s0,1,0,1.5l0,0l-0.4-0.8
		c0-0.3-0.3-0.6-0.4-0.9l-0.4-0.9l-0.5-0.9l-2.7-5.1c-0.1-0.2-0.2-0.5-0.4-0.7c-0.1-0.2-0.3-0.3-0.4-0.4c-0.2-0.1-0.3-0.2-0.5-0.2
		c-0.2,0-0.4,0-0.7,0h-1.5c-0.3,0-0.5,0.1-0.7,0.3c-0.2,0.2-0.3,0.5-0.3,0.7v12.2c0,0.1,0,0.1,0,0.2c0,0.1,0.1,0.1,0.2,0.2h0.4h1.2
		h0.4c0.1,0,0.2-0.1,0.2-0.2c0-0.1,0-0.1,0-0.2v-7.1c0-0.5,0-1,0-1.5s0-1,0-1.5l0,0c0.2,0.4,0.3,0.8,0.5,1.3s0.4,0.8,0.6,1.2
		l3.4,6.4l0.5,0.9c0.1,0.2,0.3,0.4,0.4,0.5c0.1,0.1,0.3,0.2,0.5,0.3c0.2,0,0.4,0,0.6,0h1.2h0.4c0.1,0,0.2-0.1,0.3-0.2
		c0.1-0.1,0.2-0.2,0.2-0.3c0-0.1,0-0.3,0-0.4L244.8,167.7z M228.8,179.2c0-0.1,0-0.2,0-0.4c0,0,0-0.2,0-0.2c-0.1,0-0.1,0-0.2,0h-4.2
		v-11c0-0.1,0-0.1,0-0.2c-0.1-0.1-0.1-0.1-0.2-0.2h-0.4h-1.3h-0.4c-0.1,0-0.2,0.1-0.2,0.2c0,0.1,0,0.1,0,0.2v12.4
		c0,0.2,0.1,0.5,0.2,0.7c0.2,0.1,0.4,0.2,0.6,0.2h6.2h0.2c0-0.1,0-0.1,0-0.2v-0.4c0-0.2,0-0.3,0-0.5c0-0.2,0-0.4,0-0.5 M212,175.8
		h-3.9l1.9-5.8l0,0L212,175.8z M212,168c0-0.1-0.1-0.2-0.2-0.3c-0.1-0.1-0.2-0.1-0.3-0.2H211h-1.8h-0.5c-0.1,0-0.2,0.1-0.3,0.2
		l-0.2,0.3l-4,12c-0.1,0.2-0.1,0.4-0.2,0.6c0,0.1,0,0.2,0,0.4c0.1,0.1,0.2,0.1,0.4,0.2h1.5h0.4l0.2-0.2c0-0.1,0-0.2,0-0.3l0.9-2.7
		h5.1l0.9,2.7v0.2h0.2h0.5h1.6c0.1,0,0.3-0.1,0.4-0.2c0.1-0.1,0.1-0.2,0-0.3c0.1-0.1,0.3-0.3,0.4-0.5L212,168z M198.9,167.8
		c0-0.1,0-0.1,0-0.2c-0.1-0.1-0.1-0.1-0.2-0.2h-0.4h-1.3h-0.4c-0.1,0-0.2,0.1-0.2,0.2c0,0.1,0,0.1,0,0.2v12.9c0,0.1,0,0.1,0,0.2
		c0.1,0.1,0.1,0.1,0.2,0.1c0.1,0,0.3,0,0.4,0h1.3h0.4c0.1,0,0.2-0.1,0.2-0.1c0-0.1,0-0.1,0-0.2V167.8z M190.9,178.4
		c0-0.1,0-0.2,0-0.4c0,0,0-0.1,0-0.2c-0.1,0-0.1,0-0.2,0c-0.1,0-0.3,0.1-0.4,0.2l-0.6,0.4c-0.3,0.2-0.6,0.3-0.9,0.4
		c-0.4,0.1-0.8,0.2-1.3,0.2c-0.5,0-1-0.1-1.5-0.3c-0.4-0.2-0.8-0.5-1.1-0.8c-0.3-0.4-0.5-0.9-0.7-1.4c-0.2-0.7-0.3-1.4-0.3-2.1
		c0-0.7,0.1-1.3,0.2-2c0.1-0.5,0.4-1,0.7-1.5c0.3-0.5,0.7-0.8,1.2-1.1c0.4-0.2,0.9-0.3,1.4-0.3c0.8,0,1.5,0.2,2.2,0.6
		c0.2,0.1,0.4,0.3,0.6,0.4c0.1,0.1,0.3,0.2,0.4,0.2h0.2c0-0.1,0.1-0.1,0.1-0.2v-0.4c0-0.2,0-0.3,0-0.5c0-0.2,0-0.4,0-0.5
		s0-0.3,0-0.4c0-0.1,0-0.2,0-0.2l-0.2-0.3c-0.2-0.1-0.3-0.2-0.5-0.3l-0.8-0.4l-1-0.3c-0.4,0-0.7,0-1.1,0c-0.9,0-1.7,0.1-2.5,0.5
		c-0.8,0.3-1.4,0.8-2,1.4c-0.6,0.7-1,1.4-1.3,2.3c-0.6,2-0.6,4.1,0,6.1c0.2,0.8,0.7,1.5,1.2,2.1c0.5,0.6,1.2,1,1.9,1.3
		c0.8,0.3,1.7,0.4,2.5,0.4c0.4,0,0.9,0,1.3-0.1c0.4-0.1,0.7-0.2,1.1-0.3c0.3-0.1,0.6-0.2,0.8-0.4c0.2-0.1,0.3-0.2,0.5-0.3l0.2-0.2
		v-0.2c0,0,0-0.2,0-0.3V179c0-0.2,0-0.4,0-0.6 M173.2,176.1c-0.1,0.5-0.3,1.1-0.6,1.5c-0.3,0.4-0.7,0.8-1.1,1
		c-0.5,0.3-1.1,0.4-1.7,0.4c-0.6,0-1.2-0.1-1.7-0.3c-0.4-0.2-0.8-0.5-1.1-1c-0.3-0.5-0.5-1-0.6-1.5c-0.1-0.7-0.2-1.3-0.2-2
		c0-0.6,0-1.2,0.2-1.8c0.1-0.5,0.3-1,0.6-1.5c0.3-0.4,0.7-0.8,1.1-1c0.5-0.3,1.1-0.4,1.7-0.4c0.6,0,1.1,0.1,1.7,0.4
		c0.4,0.2,0.8,0.6,1.1,1c0.3,0.5,0.5,1,0.6,1.5c0.1,0.6,0.2,1.3,0.2,2C173.4,174.9,173.3,175.5,173.2,176.1 M175.9,171.1
		c-0.2-0.8-0.6-1.5-1.2-2.2c-0.5-0.6-1.2-1-2-1.3c-0.9-0.3-1.8-0.4-2.7-0.4c-1,0-1.9,0.1-2.9,0.5c-0.8,0.3-1.5,0.8-2,1.4
		c-0.6,0.7-1,1.4-1.2,2.3c-0.3,1-0.4,2-0.4,3c0,1.1,0.1,2.1,0.4,3.1c0.2,0.8,0.6,1.5,1.2,2.2c0.5,0.6,1.2,1,2,1.3
		c0.9,0.3,1.8,0.4,2.8,0.4c1,0,1.9-0.2,2.8-0.5c0.8-0.3,1.5-0.8,2-1.4c0.6-0.7,1-1.4,1.2-2.3c0.3-1,0.4-2,0.4-3
		C176.3,173.1,176.2,172.1,175.9,171.1 M158.3,175.4c-0.1-0.4-0.4-0.7-0.6-1c-0.3-0.3-0.6-0.6-1-0.8c-0.3-0.2-0.7-0.4-1.1-0.6
		l-1.1-0.5c-0.4-0.2-0.7-0.3-0.9-0.5c-0.3-0.2-0.5-0.4-0.7-0.6c-0.2-0.2-0.3-0.5-0.3-0.8c0-0.4,0.2-0.7,0.5-0.9
		c0.2-0.1,0.4-0.2,0.6-0.3c0.3,0,0.5,0,0.8,0c0.4,0,0.7,0,1.1,0c0.3,0.1,0.6,0.2,0.8,0.3c0.2,0.1,0.4,0.2,0.6,0.3c0.1,0,0.2,0,0.4,0
		h0.2v-0.2c0,0,0-0.2,0-0.4v-1c0,0,0-0.2,0-0.3v-0.2l-0.2-0.2c-0.1-0.1-0.3-0.2-0.4-0.3l-0.7-0.3l-0.9-0.2c-0.3,0-0.6,0-1,0
		c-0.6,0-1.2,0.1-1.8,0.2c-0.5,0.2-1,0.4-1.4,0.7c-0.4,0.3-0.8,0.8-1,1.2c-0.2,0.5-0.4,1.1-0.4,1.7c0,0.5,0.1,1,0.3,1.4
		c0.2,0.4,0.4,0.7,0.7,1.1c0.3,0.3,0.6,0.6,0.9,0.8c0.3,0.2,0.7,0.4,1.1,0.6l1.1,0.5c0.3,0.1,0.6,0.3,0.9,0.5
		c0.3,0.1,0.5,0.3,0.7,0.6c0.2,0.2,0.3,0.5,0.3,0.8c0,0.3,0,0.5-0.2,0.7c-0.1,0.2-0.2,0.4-0.4,0.6c-0.2,0.1-0.4,0.3-0.7,0.3
		c-0.3,0.1-0.6,0.1-0.9,0.1c-0.5,0-0.9,0-1.3-0.2l-1-0.4l-0.7-0.4c-0.1-0.1-0.3-0.2-0.4-0.2H150c-0.1,0.1-0.1,0.1-0.1,0.2
		c0,0.1,0,0.2,0,0.4c0,0.2,0,0.4,0,0.5c0,0.3,0,0.5,0,0.8c0,0.1,0.1,0.3,0.2,0.4c0.1,0.1,0.3,0.2,0.4,0.3c0.3,0.1,0.5,0.2,0.8,0.3
		c0.3,0.1,0.7,0.2,1.1,0.3c1.1,0.2,2.2,0.2,3.3-0.2c0.6-0.2,1.1-0.4,1.6-0.8c0.5-0.4,0.8-0.8,1.1-1.3c0.3-0.6,0.4-1.2,0.4-1.9
		C158.7,176.4,158.6,175.9,158.3,175.4"/>
	<path class="st2" d="M258.9,142.5c0-0.1,0-0.1,0-0.2c-0.1-0.1-0.1-0.1-0.2-0.2h-0.4H257h-0.4c0,0-0.2,0-0.2,0.2c0,0.1,0,0.1,0,0.2
		v12.9c0,0.1,0,0.1,0,0.2c0.1,0,0.2,0,0.2,0c0.1,0,0.3,0,0.4,0h0.7h0.7c0.1,0,0.3,0,0.4,0c0.1,0,0.2,0,0.2,0c0-0.1,0-0.1,0-0.2
		L258.9,142.5z M251,155.2c-0.1-0.2-0.2-0.4-0.3-0.6l-4.1-6.1l3.7-4.9c0.2-0.3,0.3-0.5,0.4-0.6c0-0.1,0-0.3,0-0.4c0-0.1,0-0.1,0-0.2
		l-0.2-0.2h-0.4h-1.4h-0.4l-0.3,0.2c-0.1,0.1-0.1,0.1-0.2,0.2l-4,5.8v-5.8c0-0.1,0-0.1,0-0.2c0,0,0,0-0.2-0.2h-0.4h-1.4h-0.4
		c-0.1,0-0.2,0.1-0.2,0.2c0,0.1,0,0.1,0,0.2v12.8c0,0.1,0,0.1,0,0.2l0.2,0.2c0.1,0,0.3,0,0.4,0h0.7h0.7c0.1,0,0.3,0,0.4,0
		c0.1,0,0.2-0.1,0.2-0.2c0-0.1,0-0.1,0-0.2V149l4.1,6.4c0,0.1,0.1,0.2,0.2,0.3c0.1,0.1,0.3,0.1,0.4,0.2h1h0.7c0.2,0,0.3,0,0.5,0
		l0.2-0.2c0-0.1,0-0.1,0-0.2c0-0.1,0-0.2,0-0.2 M235.4,150.5c-0.2-0.4-0.4-0.7-0.7-1.1c-0.3-0.3-0.6-0.5-0.9-0.8
		c-0.3-0.2-0.7-0.4-1.1-0.6l-1.1-0.5c-0.3-0.1-0.6-0.3-0.9-0.5c-0.3-0.1-0.5-0.3-0.7-0.6c-0.2-0.2-0.3-0.5-0.3-0.8
		c0-0.2,0-0.4,0-0.6c0.1-0.2,0.2-0.3,0.4-0.5c0.2-0.1,0.4-0.2,0.6-0.3c0.3,0,0.5,0,0.8,0c0.4,0,0.7,0,1.1,0.1
		c0.3,0.1,0.6,0.2,0.8,0.3l0.6,0.3c0.1,0.1,0.2,0.1,0.4,0.2h0.2c0-0.1,0-0.1,0-0.2c0-0.1,0-0.2,0-0.4c0-0.1,0-0.3,0-0.5
		c0-0.2,0-0.3,0-0.5c0-0.1,0-0.2,0-0.3v-0.2l-0.1-0.2c-0.1-0.1-0.3-0.2-0.4-0.3c-0.2-0.1-0.5-0.2-0.8-0.3l-0.9-0.2h-1
		c-0.6,0-1.2,0.1-1.8,0.2c-1.1,0.3-2,1-2.5,2c-0.2,0.5-0.4,1.1-0.4,1.7c0,0.5,0.1,1,0.3,1.5c0.2,0.4,0.4,0.7,0.7,1.1
		c0.3,0.3,0.6,0.5,0.9,0.8c0.3,0.2,0.7,0.4,1.1,0.6l1.1,0.5c0.3,0.1,0.6,0.3,0.9,0.5c0.2,0.2,0.5,0.4,0.7,0.6
		c0.2,0.2,0.2,0.5,0.2,0.8c0,0.3,0,0.5-0.1,0.7c-0.1,0.2-0.2,0.4-0.4,0.5c-0.2,0.2-0.4,0.3-0.7,0.4c-0.3,0.1-0.6,0.1-0.9,0.1
		c-0.5,0-0.9-0.1-1.3-0.2l-1-0.4l-0.7-0.4c-0.1-0.1-0.3-0.2-0.4-0.2c-0.1,0-0.1,0-0.2,0c0,0,0,0,0,0.2c0,0.1,0,0.2,0,0.4
		c0,0.2,0,0.4,0,0.5c0,0.3,0,0.5,0,0.8c0,0.1,0.1,0.3,0.2,0.4c0.1,0.1,0.3,0.2,0.5,0.3c0.2,0.1,0.5,0.2,0.8,0.3
		c0.3,0.1,0.7,0.2,1.1,0.3c1.1,0.2,2.2,0.2,3.3-0.2c0.6-0.2,1.1-0.4,1.6-0.8c0.5-0.4,0.8-0.8,1.1-1.4c0.3-0.6,0.4-1.2,0.4-1.9
		c0-0.5-0.1-1-0.3-1.4 M219.1,147.8c-0.1,0.3-0.2,0.5-0.4,0.8c-0.2,0.2-0.5,0.4-0.7,0.5c-0.3,0.1-0.7,0.2-1.1,0.2h-1.2v-4.8h1.2
		c0.3,0,0.6,0,0.8,0c0.3,0,0.5,0.1,0.8,0.3c0.3,0.2,0.5,0.4,0.6,0.7c0.2,0.4,0.3,0.8,0.3,1.2c0,0.3,0,0.7-0.2,1 M221.9,144.9
		c-0.1-0.4-0.4-0.8-0.7-1.2c-0.3-0.3-0.7-0.6-1.1-0.8c-0.4-0.2-0.8-0.3-1.2-0.4c-0.3-0.1-0.7-0.1-1.1-0.2H217h-3
		c-0.2,0-0.5,0.1-0.7,0.3c-0.2,0.2-0.3,0.5-0.3,0.7v12.2c0,0.1,0,0.1,0,0.2c0.1,0,0.2,0,0.2,0c0.1,0,0.3,0,0.4,0h0.7h0.7
		c0.1,0,0.3,0,0.4,0c0.1,0,0.2,0,0.2,0c0-0.1,0-0.1,0-0.2v-4.3h1.1c0.8,0,1.6-0.1,2.4-0.3c0.6-0.2,1.2-0.5,1.7-0.9
		c0.5-0.4,0.8-0.9,1-1.5c0.2-0.6,0.4-1.3,0.4-2C222.2,145.9,222.2,145.4,221.9,144.9 M204.3,150.9c-0.1,0.5-0.3,1.1-0.6,1.5
		c-0.3,0.4-0.6,0.8-1.1,1c-0.5,0.3-1.1,0.4-1.7,0.4c-0.6,0-1.2-0.1-1.7-0.3c-0.4-0.2-0.8-0.5-1.1-1c-0.3-0.5-0.5-1-0.6-1.5
		c-0.1-0.7-0.2-1.3-0.2-2c0-0.6,0.1-1.2,0.2-1.8c0.1-0.5,0.3-1,0.6-1.5c0.3-0.4,0.6-0.8,1.1-1c0.5-0.3,1.1-0.4,1.7-0.4
		c0.6,0,1.2,0.1,1.7,0.4c0.4,0.2,0.8,0.5,1.1,1c0.3,0.5,0.5,1,0.6,1.5c0.1,0.6,0.2,1.3,0.2,2C204.5,149.7,204.4,150.3,204.3,150.9
		 M206.8,145.8c-0.2-0.8-0.6-1.5-1.2-2.1c-0.5-0.6-1.2-1-2-1.3c-0.7-0.3-1.5-0.5-2.3-0.6c-1,0-1.9,0.1-2.8,0.5
		c-0.8,0.3-1.5,0.8-2,1.4c-0.6,0.7-1,1.4-1.3,2.3c-0.3,1-0.4,2-0.4,3c0,1.1,0.1,2.1,0.4,3.1c0.2,0.8,0.6,1.5,1.2,2.2
		c0.5,0.6,1.2,1,2,1.3c0.9,0.3,1.8,0.4,2.8,0.4c1,0,1.9-0.2,2.8-0.5c0.8-0.3,1.5-0.8,2-1.4c0.6-0.7,1-1.4,1.3-2.3
		c0.5-2,0.5-4.1,0-6.1 M186.7,146.9c-0.1,0.2-0.2,0.5-0.4,0.6c-0.2,0.2-0.5,0.3-0.7,0.4c-0.3,0.1-0.7,0.2-1,0.2h-1.4v-3.7h2h0.5
		c0.4,0.1,0.7,0.3,1,0.7c0.2,0.3,0.3,0.7,0.3,1.1C186.8,146.5,186.8,146.8,186.7,146.9 M190.3,155.2c-0.1-0.2-0.1-0.4-0.2-0.6
		l-1.1-2.7c-0.1-0.3-0.2-0.6-0.4-0.9c-0.1-0.2-0.3-0.5-0.5-0.7c-0.1-0.2-0.3-0.4-0.5-0.5c-0.2-0.1-0.4-0.3-0.6-0.4
		c0.4-0.1,0.8-0.3,1.1-0.5c0.3-0.2,0.6-0.5,0.8-0.8c0.2-0.3,0.4-0.6,0.5-1c0.1-0.4,0.2-0.8,0.2-1.3c0-0.5-0.1-1-0.3-1.4
		c-0.1-0.4-0.4-0.8-0.7-1.1c-0.3-0.3-0.7-0.6-1.1-0.7c-0.5-0.2-1-0.3-1.5-0.4h-0.6h-4.4c-0.4,0-0.8,0.3-0.8,0.7c0,0.1,0,0.1,0,0.2
		v12.4c0,0.1,0,0.1,0,0.2c0.1,0,0.2,0,0.2,0c0.1,0,0.3,0,0.4,0h0.7h0.7c0.1,0,0.3,0,0.4,0c0.1,0,0.2,0,0.2,0c0-0.1,0-0.1,0-0.2v-5.1
		h0.9c0.3-0.1,0.5-0.1,0.8,0c0.2,0.1,0.4,0.2,0.6,0.4c0.2,0.2,0.3,0.4,0.5,0.7c0.2,0.3,0.3,0.6,0.4,0.9l1.2,3c0,0.1,0.1,0.2,0.1,0.2
		c0.1,0.1,0.1,0.1,0.2,0.2h0.4h1.5h0.5c0.1,0,0.2-0.1,0.2-0.1c0-0.1,0-0.1,0-0.2c0-0.1,0-0.2,0-0.3 M175,143.3
		c0.1-0.2,0.1-0.4,0.2-0.6c0-0.1,0-0.2,0-0.3c-0.1-0.1-0.2-0.1-0.4-0.2h-1.5c-0.1,0-0.3,0-0.4,0c-0.1,0-0.2,0.1-0.2,0.2
		c0,0.1,0,0.2,0,0.3l-3.2,10.4l0,0l-3.3-10.5c0-0.1-0.1-0.2-0.1-0.3c0,0,0-0.1-0.2-0.2h-0.4h-1.6c-0.1,0-0.3,0-0.5,0
		c-0.1,0.1-0.1,0.2,0,0.3c0,0.2,0.1,0.4,0.2,0.6l4,12.1v0.2l0.2,0.2h0.2h0.4h2.1c0.2,0,0.3,0,0.5,0c0.1,0,0.2-0.1,0.3-0.2l0.2-0.3
		L175,143.3z M158.5,154.3c0-0.1,0-0.2,0-0.3c0-0.1-0.1-0.1-0.1-0.2c-0.1,0-0.1,0-0.2,0h-4.9v-3.9h4.1c0.1,0,0.1,0,0.2,0
		c0.1,0,0.1-0.1,0.1-0.2c0-0.1,0-0.2,0-0.3c0-0.2,0-0.3,0-0.5c0-0.2,0-0.3,0-0.5c0-0.1,0-0.2,0-0.3c0-0.1-0.1-0.1-0.1-0.2h-0.2h-4.1
		v-3.5h4.9h0.2c0-0.1,0-0.1,0-0.2c0-0.1,0-0.2,0-0.3c0.1-0.3,0.1-0.7,0-1c0-0.1,0-0.2,0-0.3c0-0.1,0-0.1,0-0.2h-0.2h-6.8
		c-0.2,0-0.4,0.1-0.6,0.2c-0.2,0.2-0.3,0.4-0.2,0.7v11.9c0,0.2,0.1,0.5,0.2,0.7c0.2,0.1,0.4,0.2,0.6,0.2h6.8h0.2
		c0.1,0,0.1-0.1,0.1-0.2c0-0.1,0-0.2,0-0.3c0-0.2,0-0.4,0-0.5c0-0.2,0-0.3,0-0.5"/>
	<path class="st2" d="M419,123.2h-5.4l2.7-8.2l0,0L419,123.2z M419.2,112.1c0-0.2-0.1-0.3-0.2-0.5c-0.1-0.1-0.3-0.2-0.4-0.3
		c-0.3,0-0.5,0-0.8,0h-2.5h-0.7c-0.1,0.1-0.3,0.1-0.4,0.3c-0.1,0.1-0.2,0.3-0.2,0.4l-6,17.1c-0.1,0.3-0.2,0.6-0.2,0.8
		c-0.1,0.2-0.1,0.3,0,0.5c0.1,0.1,0.3,0.2,0.5,0.2h1.1h1c0.2,0,0.4,0,0.6,0c0.1,0,0.2-0.1,0.3-0.2c0.1-0.1,0.1-0.2,0.2-0.4l1.2-3.8
		h7.2l1.3,3.9c0,0.1,0.1,0.2,0.1,0.3c0.1,0.1,0.2,0.1,0.3,0.2c0.2,0,0.4,0,0.6,0h1.2h1.1c0.2,0,0.4-0.1,0.6-0.2
		c0.1-0.1,0.1-0.3,0-0.5c0-0.3-0.1-0.6-0.2-0.8L419.2,112.1z M401.5,111.9c0-0.1,0-0.2,0-0.3c-0.1-0.1-0.2-0.2-0.3-0.2h-0.6h-0.9
		h-0.9h-0.6c-0.1,0-0.2,0.1-0.3,0.2c0,0.1,0,0.2,0,0.3v13.2c0,0.4,0,0.8,0,1.2c-0.1,0.3-0.2,0.5-0.3,0.7c-0.1,0.2-0.3,0.3-0.5,0.4
		c-0.2,0-0.5,0-0.7,0c-0.2,0-0.5,0-0.7,0c-0.2,0-0.4-0.1-0.5-0.2l-0.4-0.2c-0.1,0-0.2,0-0.3,0c-0.1,0-0.2,0-0.2,0
		c-0.1,0.1-0.1,0.2-0.2,0.3c0,0.2,0,0.4,0,0.6c0,0.3,0,0.6,0,0.8v0.7c0,0.2,0,0.3,0,0.4c0,0.1,0,0.2,0,0.3c0,0.1,0.1,0.2,0.2,0.2
		c0.1,0.1,0.2,0.2,0.4,0.2c0.2,0.1,0.4,0.2,0.6,0.2l0.8,0.2c0.3,0,0.6,0,0.9,0c0.8,0,1.6-0.1,2.4-0.4c0.6-0.2,1.1-0.6,1.5-1.1
		c0.4-0.5,0.7-1.1,0.8-1.8c0.2-0.8,0.3-1.6,0.3-2.4L401.5,111.9z M386.8,111.9c0-0.1,0-0.2,0-0.3c-0.1-0.1-0.2-0.1-0.3-0.2l-0.6-0.1
		h-1H384c-0.2,0-0.4,0.1-0.6,0.1c-0.1,0-0.2,0.1-0.3,0.2c0,0.1,0,0.2,0,0.3v18.2c0,0.1,0,0.2,0,0.3c0.1,0.1,0.2,0.2,0.3,0.2
		c0.2,0.1,0.4,0.1,0.6,0.1h0.9h1l0.6-0.1c0.1,0,0.2-0.1,0.3-0.2c0-0.1,0-0.2,0-0.3V111.9z M374.2,111.9c0-0.1,0-0.2,0-0.3
		c-0.1-0.1-0.2-0.2-0.3-0.2h-0.5h-1.7c-0.2,0-0.4,0-0.6,0c-0.1,0-0.2,0.1-0.3,0.2c0,0.1,0,0.2,0,0.3v11.2c0,0.8,0,1.5,0,2.2l0,0
		c-0.2-0.4-0.4-0.8-0.6-1.2l-0.6-1.2l-0.6-1.2l-0.7-1.3l-3.7-7c-0.2-0.3-0.4-0.7-0.6-1c-0.2-0.2-0.4-0.5-0.6-0.6
		c-0.2-0.2-0.4-0.3-0.7-0.3c-0.3,0-0.6,0-0.9,0h-2.1c-0.4,0-0.7,0.1-1,0.4c-0.3,0.3-0.4,0.7-0.4,1v17.3c0,0.1,0,0.2,0,0.3
		c0.1,0.1,0.2,0.2,0.3,0.2c0.2,0.1,0.3,0.1,0.5,0.1h0.9h0.9c0.2,0,0.4-0.1,0.6-0.1c0.1,0,0.2-0.1,0.3-0.2c0-0.1,0-0.2,0-0.3v-10.1
		c0-0.8,0-1.5,0-2.2s0-1.4,0-2.1l0,0c0.2,0.6,0.5,1.2,0.8,1.8s0.6,1.2,0.9,1.7l4.8,9c0.2,0.4,0.4,0.8,0.7,1.2
		c0.2,0.3,0.4,0.5,0.6,0.7c0.2,0.2,0.4,0.3,0.7,0.4c0.3,0,0.6,0,0.9,0h1.6c0.2,0,0.4,0,0.6,0c0.2-0.1,0.3-0.1,0.5-0.3
		c0.1-0.1,0.2-0.3,0.3-0.5c0-0.2,0-0.4,0-0.6L374.2,111.9z M349.7,111.9c0-0.1,0-0.2,0-0.3c-0.1-0.1-0.2-0.2-0.3-0.2l-0.6-0.1h-0.9
		h-0.9c-0.2,0-0.4,0.1-0.6,0.1c-0.1,0-0.2,0.1-0.3,0.2c0,0.1,0,0.2,0,0.3v11.6c0,0.6-0.1,1.2-0.3,1.8c-0.2,0.5-0.4,0.9-0.8,1.3
		c-0.3,0.4-0.8,0.7-1.2,0.8c-0.5,0.2-1.1,0.3-1.6,0.3c-0.6,0-1.1-0.1-1.6-0.3c-0.5-0.2-0.9-0.4-1.2-0.8c-0.4-0.4-0.6-0.9-0.8-1.4
		c-0.2-0.6-0.3-1.3-0.3-2v-11.4c0-0.1,0-0.2,0-0.3c-0.1-0.1-0.2-0.1-0.3-0.2c-0.2-0.1-0.4-0.1-0.6-0.1h-0.9h-1
		c-0.2,0-0.4,0.1-0.6,0.1c-0.1,0-0.2,0.1-0.3,0.2c0,0.1,0,0.2,0,0.3v11.7c0,1.1,0.2,2.2,0.5,3.2c0.7,1.8,2.1,3.1,3.9,3.7
		c2.2,0.6,4.5,0.6,6.7,0c0.9-0.3,1.8-0.8,2.5-1.5c0.7-0.7,1.2-1.5,1.5-2.4c0.4-1,0.5-2.1,0.5-3.1L349.7,111.9z M309.2,123.2h-5.4
		l2.7-8.2l0,0L309.2,123.2z M309.4,112.1c0-0.2-0.1-0.3-0.2-0.5c-0.1-0.1-0.3-0.2-0.4-0.3c-0.3,0-0.5,0-0.8,0h-2.5h-0.7
		c-0.1,0.1-0.3,0.1-0.4,0.3c-0.1,0.1-0.2,0.3-0.2,0.4l-6,17.1c-0.1,0.3-0.2,0.6-0.2,0.8c-0.1,0.2-0.1,0.3,0,0.5
		c0.1,0.1,0.3,0.2,0.5,0.2h1.1h1c0.2,0,0.4,0,0.6,0c0.1,0,0.2-0.1,0.3-0.2c0.1-0.1,0.1-0.2,0.2-0.4l1.2-3.8h7.3l1.3,3.9
		c0,0.1,0.1,0.2,0.2,0.3c0.1,0.1,0.2,0.1,0.3,0.2c0.2,0,0.4,0,0.6,0h1.2h1.1c0.2,0,0.4-0.1,0.6-0.2c0.1-0.1,0.1-0.3,0-0.5
		c-0.1-0.3-0.1-0.6-0.3-0.9L309.4,112.1z M292.4,129.7c-0.1-0.3-0.2-0.6-0.4-0.8l-5.7-8.7l5.3-6.9c0.3-0.4,0.4-0.7,0.5-0.8
		c0-0.2,0-0.3,0-0.5c0-0.1,0-0.2,0-0.3c-0.1-0.1-0.2-0.2-0.3-0.2c-0.2-0.1-0.4-0.1-0.6-0.1h-1h-1c-0.2,0-0.4,0-0.6,0
		c-0.2,0-0.3,0.1-0.4,0.2c-0.1,0.1-0.2,0.2-0.3,0.3l-5.7,8.3V112c0-0.1,0-0.2,0-0.3c-0.1-0.1-0.2-0.1-0.3-0.2
		c-0.2-0.1-0.4-0.1-0.6-0.1h-0.9h-1c-0.2,0-0.4,0.1-0.6,0.1c-0.1,0-0.2,0.1-0.3,0.2c0,0.1,0,0.2,0,0.3v18.1c0,0.1,0,0.2,0,0.3
		c0.1,0.1,0.2,0.2,0.3,0.2c0.2,0.1,0.4,0.1,0.6,0.1h1h0.9c0.2,0,0.4-0.1,0.6-0.1c0.1,0,0.2-0.1,0.3-0.2c0-0.1,0-0.2,0-0.3v-9.1
		l5.8,9.1c0.1,0.1,0.2,0.3,0.3,0.4c0.2,0.1,0.4,0.2,0.6,0.2c0.5,0,0.9,0,1.4,0h1c0.2,0,0.4-0.1,0.6-0.1c0.1,0,0.2-0.1,0.3-0.2
		c0-0.1,0-0.2,0-0.3C292.3,129.9,292.3,129.8,292.4,129.7 M270.5,122.8c-0.2-0.5-0.5-1-0.9-1.5c-0.4-0.4-0.8-0.8-1.3-1.1
		c-0.5-0.3-1-0.6-1.5-0.8l-1.5-0.7c-0.5-0.2-0.9-0.4-1.3-0.7c-0.4-0.2-0.7-0.5-0.9-0.8c-0.2-0.3-0.3-0.7-0.3-1.1
		c0-0.3,0.1-0.6,0.2-0.8c0.1-0.3,0.3-0.5,0.5-0.7c0.2-0.2,0.5-0.4,0.8-0.4c0.4-0.1,0.7-0.2,1.1-0.2c0.5,0,1,0.1,1.5,0.2
		c0.4,0.1,0.8,0.3,1.2,0.5c0.3,0.1,0.6,0.3,0.9,0.5c0.2,0.1,0.3,0.2,0.5,0.2c0.1,0,0.2,0,0.3,0c0.1-0.1,0.1-0.2,0.1-0.3
		c0-0.2,0-0.3,0-0.5c0-0.2,0-0.5,0-0.7v-0.6c0-0.2,0-0.3,0-0.4c0-0.1,0-0.2,0-0.3c0-0.1-0.1-0.2-0.2-0.3c-0.2-0.2-0.4-0.3-0.6-0.4
		c-0.3-0.2-0.7-0.3-1-0.4c-0.4-0.1-0.9-0.2-1.3-0.3c-0.5,0-0.9,0-1.4,0c-0.9,0-1.7,0.1-2.5,0.4c-0.7,0.2-1.4,0.6-2,1
		c-0.6,0.5-1.1,1.1-1.4,1.7c-0.4,0.8-0.5,1.7-0.5,2.5c0,0.7,0.1,1.4,0.4,2.1c0.2,0.5,0.5,1.1,0.9,1.5c0.4,0.4,0.8,0.8,1.3,1.1
		c0.5,0.3,1,0.6,1.5,0.8l1.5,0.7c0.5,0.2,0.9,0.4,1.3,0.7c0.4,0.2,0.7,0.5,0.9,0.8c0.2,0.3,0.4,0.7,0.4,1.1c0,0.3-0.1,0.7-0.2,1
		c-0.1,0.3-0.3,0.6-0.6,0.8c-0.3,0.2-0.6,0.4-1,0.5c-0.4,0.1-0.9,0.2-1.3,0.2c-0.6,0-1.3-0.1-1.9-0.2c-0.5-0.1-1-0.3-1.4-0.6l-1-0.5
		c-0.2-0.1-0.4-0.2-0.6-0.3c-0.1,0-0.2,0-0.3,0c-0.1,0.1-0.1,0.2-0.2,0.3c0,0,0,0.3,0,0.5s0,0.5,0,0.8c0,0.3,0,0.7,0,1
		c0,0.2,0.1,0.4,0.3,0.6c0.2,0.2,0.4,0.3,0.6,0.5c0.4,0.2,0.7,0.3,1.1,0.5c0.5,0.2,1,0.3,1.5,0.4c0.6,0.1,1.2,0.2,1.8,0.2
		c0.9,0,1.9-0.1,2.8-0.4c0.8-0.2,1.6-0.6,2.3-1.1c0.6-0.5,1.2-1.2,1.5-1.9c0.4-0.8,0.6-1.7,0.6-2.5c0-0.7-0.1-1.4-0.4-2
		 M247.8,119.2c-0.2,0.8-0.9,1.5-1.6,1.8c-0.5,0.2-1,0.3-1.6,0.3h-1.7v-6.5h1.5c0.4,0,0.8,0,1.2,0c0.4,0,0.8,0.2,1.1,0.4
		c0.4,0.2,0.7,0.6,0.9,1c0.3,0.5,0.4,1.1,0.4,1.6c0,0.5-0.1,0.9-0.2,1.4 M251.6,115.4c-0.2-0.6-0.5-1.2-0.9-1.6
		c-0.4-0.5-0.9-0.9-1.5-1.2c-0.5-0.3-1.1-0.5-1.7-0.6c-0.5-0.1-1-0.2-1.5-0.2h-1.3h-4.5c-0.3,0-0.7,0.1-0.9,0.4
		c-0.3,0.3-0.4,0.7-0.4,1v17.3c0,0.1,0,0.2,0,0.3c0.1,0.1,0.2,0.2,0.3,0.2c0.2,0.1,0.4,0.1,0.6,0.1h0.9h0.9c0.2,0,0.4-0.1,0.6-0.1
		c0.1,0,0.2-0.1,0.3-0.2c0-0.1,0-0.2,0-0.3v-6.1h1.8c1.1,0,2.2-0.1,3.3-0.5c0.9-0.2,1.7-0.7,2.4-1.3c0.7-0.6,1.2-1.3,1.5-2.1
		c0.4-0.9,0.5-1.9,0.5-2.9C252,116.8,251.9,116.1,251.6,115.4 M226.6,123.6c-0.1,0.8-0.4,1.5-0.8,2.2c-0.4,0.6-0.9,1.1-1.5,1.4
		c-0.8,0.4-1.7,0.6-2.5,0.5c-0.8,0-1.6-0.1-2.4-0.5c-0.6-0.3-1.2-0.8-1.5-1.4c-0.4-0.6-0.7-1.4-0.8-2.1c-0.2-0.9-0.2-1.9-0.2-2.8
		c0-0.9,0.1-1.7,0.2-2.5c0.2-0.8,0.4-1.5,0.9-2.1c0.4-0.6,0.9-1.1,1.5-1.4c0.7-0.4,1.6-0.6,2.4-0.5c0.8,0,1.6,0.1,2.4,0.5
		c0.6,0.3,1.1,0.8,1.5,1.4c0.4,0.7,0.7,1.4,0.8,2.1c0.2,0.9,0.2,1.8,0.2,2.7c0,0.9-0.1,1.7-0.3,2.5 M230.3,116.4
		c-0.3-1.1-0.9-2.2-1.7-3c-0.8-0.8-1.7-1.4-2.8-1.8c-1.2-0.4-2.5-0.6-3.8-0.6c-1.4,0-2.7,0.2-4,0.7c-1.1,0.4-2.1,1.1-2.9,2
		c-0.8,0.9-1.4,2-1.8,3.2c-0.4,1.4-0.6,2.8-0.6,4.2c0,1.5,0.2,3,0.6,4.4c0.3,1.1,0.9,2.2,1.7,3.1c0.8,0.8,1.7,1.4,2.8,1.8
		c1.3,0.4,2.6,0.6,3.9,0.6c1.4,0,2.7-0.2,4-0.7c1.1-0.4,2.1-1.1,2.9-2c0.8-0.9,1.4-2,1.7-3.2c0.4-1.4,0.6-2.8,0.6-4.3
		C230.9,119.3,230.7,117.8,230.3,116.4 M201.2,118.1c-0.1,0.3-0.3,0.6-0.6,0.9c-0.3,0.3-0.7,0.5-1,0.6c-0.5,0.1-1,0.2-1.5,0.2h-1.8
		v-5.5h2.8l0.7,0.1c0.6,0.1,1.1,0.5,1.4,0.9c0.3,0.5,0.4,1.1,0.4,1.6c0,0.4-0.1,0.8-0.2,1.1 M206.4,129.6c-0.1-0.3-0.2-0.5-0.3-0.8
		l-1.6-3.8c-0.2-0.5-0.4-0.9-0.6-1.2c-0.2-0.3-0.4-0.7-0.6-1c-0.2-0.3-0.4-0.5-0.7-0.7c-0.3-0.2-0.5-0.4-0.8-0.5
		c0.6-0.2,1.1-0.4,1.6-0.7c0.4-0.3,0.8-0.7,1.2-1.1c0.3-0.4,0.6-0.9,0.7-1.4c0.2-0.6,0.3-1.2,0.3-1.7c0-0.7-0.1-1.4-0.3-2
		c-0.2-0.6-0.6-1.1-1-1.5c-0.5-0.4-1-0.8-1.6-1c-0.7-0.3-1.4-0.5-2.1-0.6h-0.9h-6.2c-0.3,0-0.6,0.1-0.8,0.3
		c-0.2,0.2-0.4,0.6-0.3,0.9v17.5c0,0.1,0,0.2,0,0.3c0.1,0.1,0.2,0.1,0.3,0.2l0.6,0.1h1h0.9c0.2,0,0.4-0.1,0.6-0.1
		c0.1,0,0.2-0.1,0.3-0.2c0-0.1,0-0.2,0-0.3v-7.3h1.2c0.4,0,0.7,0.1,1.1,0.2c0.3,0.1,0.6,0.3,0.9,0.6c0.3,0.3,0.5,0.6,0.7,0.9
		l0.6,1.3l1.7,4.3c0,0.1,0.1,0.2,0.1,0.3c0.1,0.1,0.2,0.2,0.3,0.2c0.2,0,0.4,0,0.6,0h1h1.2c0.2,0,0.4,0,0.7,0c0.1,0,0.2-0.1,0.3-0.2
		c0-0.1,0-0.2,0-0.3c0-0.1,0-0.3,0-0.4 M184.9,112.9c0.1-0.3,0.2-0.5,0.2-0.8c0.1-0.2,0.1-0.3,0-0.5c-0.1-0.2-0.3-0.2-0.5-0.2h-1.1
		h-1.1c-0.2,0-0.4,0-0.6,0c-0.1,0.1-0.2,0.1-0.3,0.3c-0.1,0.1-0.1,0.3-0.2,0.4l-4.6,14.8l0,0l-4.7-14.8l-0.2-0.4
		c-0.1-0.1-0.2-0.2-0.3-0.2c-0.2,0-0.4,0-0.6,0H170h-1.2c-0.2,0-0.4,0.1-0.6,0.2c-0.1,0.1-0.2,0.3-0.2,0.5c0,0.3,0.1,0.6,0.2,0.8
		l5.7,17c0,0.1,0,0.2,0,0.3c0,0.1,0.1,0.2,0.2,0.2c0.1,0.1,0.2,0.1,0.3,0.2h0.5h2.9c0.2,0,0.5,0,0.7,0c0.2,0,0.3-0.1,0.4-0.3
		c0.1-0.1,0.2-0.3,0.2-0.4L184.9,112.9z M161.6,128.4c0-0.2,0-0.3,0-0.5c0-0.1-0.1-0.2-0.2-0.3c-0.1,0-0.2,0-0.2,0h-6.9v-5.4h5.8
		c0.1,0,0.2,0,0.2,0c0.1-0.1,0.2-0.2,0.2-0.3c0-0.2,0-0.3,0-0.5c0-0.2,0-0.5,0-0.7c0-0.2,0-0.5,0-0.7c0-0.2,0-0.3,0-0.5
		c0-0.1-0.1-0.2-0.2-0.3h-0.2h-5.8v-4.7h6.9c0.1,0,0.2,0,0.3,0c0.1-0.1,0.1-0.2,0.2-0.3c0-0.2,0-0.3,0-0.5c0-0.5,0-1,0-1.4
		c0-0.2,0-0.3,0-0.5c0-0.1-0.1-0.2-0.2-0.3c-0.1,0-0.2,0-0.3,0h-9.6c-0.3,0-0.6,0.1-0.8,0.3c-0.2,0.2-0.4,0.6-0.3,0.9v16.8
		c0,0.4,0.1,0.7,0.3,1c0.2,0.2,0.5,0.3,0.8,0.3h9.6c0.1,0,0.2,0,0.2,0c0.1-0.1,0.2-0.2,0.2-0.3c0-0.1,0-0.3,0-0.5c0-0.2,0-0.5,0-0.7
		c0-0.2,0-0.5,0-0.7"/>
</g>
<g id="Layer_3" class="st0">
	<path class="st1" d="M42.3,93.7c-3.3-1.7-6.8-3-10.5-4c-3.5-0.9-7.1-1.3-10.7-1.3c-3.7,0-7.3,0.4-10.9,1.3c-3.5,1-6.9,2.3-10.2,3.8
		L1.6,117c0.2,2.9,0.8,5.7,1.8,8.5c1.1,2.6,2.5,5,4.2,7.1c1.7,2.1,3.7,4,6,5.6c2.3,1.6,4.9,2.7,7.6,3.3c2.7-0.8,5.4-2,7.8-3.6
		c2.3-1.5,4.3-3.4,6-5.6c1.8-2.1,3.1-4.5,4-7.1c1-2.6,1.6-5.4,1.8-8.2L42.3,93.7z M21.1,107.2l4.2,8.7l2.9-4l7.1,9.6
		c-0.2,1-0.6,1.9-1.3,2.7c-1,0.7-2.2,1-3.3,0.9c-0.5,0-0.9,0-1.3-0.2c-0.4-0.2-0.7-0.2-1.1-0.4c-0.4-0.2-0.7-0.2-1.1-0.4
		c0-0.2-0.4-0.2-1.1-0.2c-0.5-0.1-1.1,0-1.6,0.2c-0.4,0.2-0.7,0.2-1.1,0.4c-0.4,0.2-0.7,0.2-0.9,0.4c-0.4,0.2-0.9,0.3-1.3,0.2
		c-0.7,0-1.1,0-1.3-0.2c-0.2-0.2-0.7-0.2-1.1-0.4c-0.4-0.2-0.7-0.2-1.1-0.4s-0.7-0.2-1.3-0.2c-0.5-0.1-1.1,0-1.6,0.2
		c-0.4,0.2-0.7,0.2-1.1,0.4c-0.4,0.2-0.7,0.2-1.1,0.4c-0.4,0.2-0.7,0.2-1.3,0.2c-1.2,0.1-2.4-0.2-3.3-0.9c-0.7-0.7-1.2-1.7-1.3-2.7
		l7.1-9.6l3.1,4L21.1,107.2z M24.7,127.3c-0.4,0.2-0.7,0.2-1.1,0.4c-0.3,0.3-0.7,0.4-1.1,0.4c-0.4,0.2-0.9,0.3-1.3,0.2
		c-0.7,0-1.1,0-1.3-0.2s-0.7-0.2-1.1-0.4c-0.4-0.2-0.7-0.4-1.1-0.4c-0.4-0.2-0.9-0.3-1.3-0.2c-0.7,0-1.1,0-1.3,0.2
		c-0.2,0.2-0.7,0.2-0.9,0.4c-0.2,0.2-0.7,0.2-0.9,0.4c-0.5,0.2-1,0.3-1.6,0.2c-0.6,0-1.2-0.1-1.8-0.4c-0.2-0.2-0.4-0.7-0.7-0.9
		s-0.2-0.7-0.4-0.9c0.4,0.2,0.9,0.4,1.3,0.4c0.5,0.2,1,0.3,1.6,0.2c0.7,0,1.1,0,1.3-0.2c0.2-0.2,0.7-0.2,1.1-0.4s0.7-0.2,1.1-0.4
		c0.4-0.2,0.9-0.3,1.3-0.2c0.7,0,1.1,0,1.3,0.2c0.2,0.2,0.7,0.2,1.1,0.4c0.4,0.2,0.7,0.2,0.9,0.4c0.5,0.2,1,0.3,1.6,0.2
		c0.7,0,1.1,0,1.3-0.2c0.2-0.2,0.7-0.2,1.1-0.4s0.7-0.2,1.1-0.4c0.4-0.2,0.9-0.3,1.3-0.2c0.7,0,1.1,0,1.3,0.2
		c0.2,0.2,0.7,0.2,1.1,0.4c0.4,0.2,0.7,0.2,1.1,0.4c0.5,0.2,1,0.3,1.6,0.2c0.5,0,1.1,0,1.6-0.2c0.4-0.2,0.9-0.2,1.3-0.4
		c-0.2,0.4-0.4,0.7-0.4,0.9s-0.2,0.4-0.4,0.9c-0.2,0-0.4,0.2-0.9,0.2s-0.7,0.2-0.9,0.2c-0.5,0.1-1.1,0-1.6-0.2
		c-0.4-0.2-0.7-0.2-1.1-0.4c-0.3-0.3-0.7-0.4-1.1-0.4c-0.4-0.2-0.9-0.3-1.3-0.2C25.4,127,24.9,127,24.7,127.3 M21.1,137
		c-2-0.6-3.9-1.6-5.6-2.9c-1.7-1.1-3.2-2.4-4.5-4c0.6,0,1.2,0,1.8-0.2c0.4-0.2,0.7-0.2,1.1-0.4c0.4-0.2,0.7-0.2,0.9-0.4
		c0.2-0.2,0.7-0.2,1.3-0.2c0.5,0,0.9,0,1.3,0.2c0.2,0.2,0.7,0.2,1.1,0.4s0.7,0.2,1.1,0.4c0.5,0.2,1,0.3,1.6,0.2
		c0.5,0.1,1.1,0,1.6-0.2c0.4-0.2,0.7-0.2,1.1-0.4s0.7-0.2,0.9-0.4c0.2-0.2,0.7-0.2,1.3-0.2c0.7,0,1.1,0,1.3,0.2
		c0.2,0.2,0.7,0.2,0.9,0.4s0.7,0.2,1.1,0.4c0.5,0.2,1,0.3,1.6,0.2C28.5,133.3,25.1,135.7,21.1,137 M39.4,117.2
		c-0.1,2.7-0.7,5.3-1.8,7.8c-0.9,2.4-2.2,4.7-3.8,6.7c-1.6,2-3.5,3.7-5.6,5.1c-2.1,1.4-4.5,2.5-6.9,3.3c-2.5-0.7-5-1.8-7.1-3.3
		c-4.3-2.9-7.5-7-9.3-11.8c-0.9-2.4-1.5-5-1.8-7.6L1.6,94.8c0.2,0,0.4-0.2,0.7-0.2c0.2,0,0.4-0.2,0.7-0.2l1.6,22.9
		c0.2,2.5,0.7,5,1.6,7.3c0.8,2.3,2,4.4,3.6,6.2c1.5,1.9,3.2,3.5,5.1,4.9c2,1.3,4.2,2.4,6.5,3.1c2.4-0.8,4.6-2,6.7-3.3
		c1.9-1.4,3.6-3,5.1-4.9c1.5-1.9,2.6-4,3.3-6.2c0.8-2.2,1.4-4.5,1.6-6.9l1.6-23.1c0.2,0,0.4,0.2,0.7,0.2c0.2,0,0.4,0.2,0.7,0.2
		L39.4,117.2z M21.1,98.8l0.7,1.8l1.8-0.2l-1.1,1.6l1.1,1.6l-1.8-0.2l-0.7,1.8l-0.7-1.8l-2,0.2l1.1-1.6l-1.1-1.6l1.8,0.2L21.1,98.8z
		 M16,91.9l0.7,1.8l1.8-0.2l-1.1,1.3l1.1,1.6l-1.8-0.2L16,97.9l-0.7-1.8l-2,0.2l1.1-1.6l-1.1-1.3l1.8,0.2L16,91.9z M26.3,91.9
		l0.7,1.8l1.8-0.2l-0.9,1.3l1.1,1.6l-1.8-0.2l-0.7,1.8l-0.7-1.8l-2,0.2l1.1-1.6l-1.1-1.6l1.8,0.2L26.3,91.9z"/>
	<path class="st1" d="M86.6,106.6h-1.8v-16h5.1c0.8,0,1.6,0,2.4,0.2c0.5,0.2,1.1,0.4,1.6,0.7c0.4,0.4,0.7,0.8,0.9,1.3
		c0.2,0.7,0.3,1.3,0.2,2c0.1,1.1-0.2,2.2-0.9,3.1c-0.6,0.7-1.5,1.2-2.4,1.3l3.8,7.1h-2l-3.6-6.9h-3.6v7.1L86.6,106.6z M86.6,98.1
		h3.3c0.5,0.1,1.1,0,1.6-0.2c0.4,0,0.8-0.2,1.1-0.4c0.3-0.3,0.5-0.6,0.7-0.9c0.2-0.5,0.3-1,0.2-1.6c0.1-0.5,0-1.1-0.2-1.6
		c-0.2-0.3-0.4-0.6-0.7-0.9c-0.3-0.3-0.7-0.4-1.1-0.4c-0.4,0-1.1-0.2-1.6-0.2h-3.3V98.1z"/>
	<path class="st1" d="M98.8,106.6v-16h9.6v1.3h-7.8v5.8h6.9v1.6h-6.9v5.8h7.8v1.3h-9.6V106.6z"/>
	<path class="st1" d="M113.3,106.6h-1.8v-16h4.9c0.8,0,1.6,0,2.4,0.2c0.5,0.2,1.1,0.4,1.6,0.7c0.4,0.4,0.7,0.8,0.9,1.3
		c0.2,0.7,0.3,1.5,0.2,2.2c0.1,1.4-0.4,2.8-1.3,3.8c-1.2,0.8-2.6,1.2-4,1.1h-3.3v6.7H113.3z M113.3,98.5h3.1c0.5,0.1,1.1,0,1.6-0.2
		c0.4,0,0.8-0.2,1.1-0.4c0.2-0.2,0.4-0.7,0.7-0.9c0.2-0.6,0.3-1.2,0.2-1.8c0.1-0.5,0-1.1-0.2-1.6c-0.2-0.3-0.4-0.6-0.7-0.9
		c-0.3-0.3-0.7-0.4-1.1-0.4c-0.4,0-1.1-0.2-1.6-0.2h-3.1V98.5z"/>
	<path class="st1" d="M135.3,101c0,0.9-0.2,1.8-0.4,2.7c-0.5,1.4-1.5,2.4-2.9,2.9c-0.8,0.2-1.6,0.3-2.4,0.2c-1.5,0.1-2.9-0.4-4-1.3
		c-1-1.2-1.5-2.7-1.3-4.2V90.5h1.8V101c-0.1,1.2,0.2,2.4,0.9,3.3c0.8,0.7,1.8,1,2.9,0.9c1.1,0.2,2.2-0.3,2.9-1.1
		c0.7-1,1-2.2,0.9-3.3V90.3h1.8L135.3,101L135.3,101z"/>
	<path class="st1" d="M149.7,102.1c0.1,1.3-0.4,2.5-1.3,3.3c-1.2,0.8-2.6,1.2-4,1.1h-5.1v-16h5.1c1.4-0.1,2.7,0.3,3.8,1.1
		c0.9,0.8,1.3,2,1.1,3.1c0.2,1.5-0.6,3-2,3.6l0,0c0.7,0.2,1.3,0.7,1.8,1.3C149.6,100.4,149.8,101.2,149.7,102.1z M147.7,94.8
		c0.1-0.8-0.2-1.7-0.9-2.2c-0.7-0.5-1.4-0.7-2.2-0.7h-3.6v5.6h3.6c0.8,0.1,1.6-0.2,2.2-0.7C147.5,96.3,147.8,95.5,147.7,94.8z
		 M148,102.1c0.1-0.8-0.2-1.7-0.9-2.2c-0.7-0.5-1.6-0.8-2.4-0.7h-3.8v6h3.8c0.9,0.1,1.7-0.2,2.4-0.7C147.7,103.9,148,103,148,102.1z
		"/>
	<path class="st1" d="M153.1,106.6v-16h1.8V105h7.3v1.3h-9.1V106.6z"/>
	<path class="st1" d="M164.9,106.6v-16h1.8v16H164.9z"/>
	<path class="st1" d="M171.1,90.5h1.8v7.1h1.6l5.1-7.1h2l-5.8,7.8l5.8,8.2h-2l-5.3-7.6h-1.3v7.6h-1.8L171.1,90.5z"/>
	<path class="st1" d="M192.5,102.6h-6.7l-1.3,4h-1.8l5.3-16h2.2l5.3,16h-2L192.5,102.6z M186,101.2h5.8l-2.7-9.1l0,0L186,101.2z"/>
	<path class="st1" d="M212,102.3c0.1,0.7,0,1.4-0.2,2c-0.1,0.5-0.4,1-0.9,1.3c-0.4,0.4-1,0.7-1.6,0.7c-0.8,0.2-1.6,0.3-2.4,0.2
		c-0.7,0-1.5,0-2.2-0.2c-0.7-0.2-1.3-0.2-2-0.4l0.4-1.3c0.6,0.3,1.3,0.4,2,0.4c0.7,0.2,1.5,0.3,2.2,0.2c0.5,0.1,1.1,0,1.6-0.2
		c0.4,0,0.7-0.2,1.1-0.4c0.3-0.3,0.5-0.6,0.7-0.9c0.2-0.4,0.3-0.9,0.2-1.3c0.1-0.4,0-0.8-0.2-1.1c-0.1-0.3-0.2-0.6-0.4-0.9
		c-0.3-0.3-0.7-0.5-1.1-0.7c-0.5-0.3-1-0.5-1.6-0.7l-2-0.7c-0.4-0.2-1.1-0.4-1.3-0.9c-0.4-0.3-0.7-0.8-0.9-1.3
		c-0.2-0.6-0.3-1.2-0.2-1.8c0-1.1,0.4-2.3,1.1-3.1c1.1-0.8,2.4-1.2,3.8-1.1c0.7,0,1.4,0,2,0.2c0.7,0.2,1.3,0.2,2,0.4l-0.2,1.3
		c-0.6-0.3-1.2-0.4-1.8-0.4c-0.6-0.2-1.3-0.3-2-0.2c-0.9-0.1-1.7,0.2-2.4,0.7c-0.5,0.6-0.7,1.3-0.7,2c-0.1,0.4,0,0.8,0.2,1.1
		c0.2,0.2,0.2,0.7,0.7,0.9c0.4,0.2,0.7,0.4,0.9,0.7c0.2,0.2,0.9,0.2,1.3,0.4c0.8,0.2,1.5,0.5,2.2,0.9c0.5,0.2,1,0.5,1.3,0.9
		c0.4,0.3,0.7,0.8,0.7,1.3C212.1,101,212,101.7,212,102.3z"/>
	<path class="st1" d="M215.2,106.6v-16h1.8V105h7.3v1.3h-9.1L215.2,106.6z"/>
	<path class="st1" d="M231.6,106.8c-0.9,0-1.8-0.2-2.7-0.4c-0.8-0.3-1.4-0.7-2-1.3c-0.5-0.7-0.9-1.6-1.1-2.4
		c-0.3-1.2-0.4-2.5-0.4-3.8c0-1.3,0.2-2.7,0.4-4c0.1-0.9,0.5-1.7,1.1-2.4c0.5-0.7,1.2-1.2,2-1.3c0.9-0.3,1.8-0.4,2.7-0.4
		c0.9,0,1.8,0.2,2.7,0.4c0.8,0.3,1.4,0.7,2,1.3c0.5,0.7,0.9,1.6,1.1,2.4c0.3,1.2,0.4,2.5,0.4,3.8c0,1.3-0.2,2.7-0.4,4
		c-0.1,0.9-0.5,1.7-1.1,2.4c-0.5,0.7-1.2,1.2-2,1.3C233.4,106.6,232.5,106.8,231.6,106.8z M231.6,105.2c0.7,0,1.4-0.1,2-0.4
		c0.5-0.3,0.9-0.7,1.3-1.1c0.4-0.6,0.7-1.3,0.7-2c0.2-1,0.3-2.1,0.2-3.1c0.1-1,0-2.1-0.2-3.1c-0.2-0.7-0.4-1.4-0.7-2
		c-0.3-0.5-0.8-0.9-1.3-1.1c-0.6-0.3-1.3-0.4-2-0.4c-0.7,0-1.4,0.1-2,0.4c-0.5,0.2-1,0.6-1.3,1.1c-0.4,0.6-0.6,1.3-0.7,2
		c-0.2,1-0.3,2.1-0.2,3.1c-0.1,1,0,2.1,0.2,3.1c0.2,0.7,0.4,1.4,0.7,2c0.3,0.5,0.8,0.9,1.3,1.1C230.1,105.2,230.7,105.2,231.6,105.2
		z"/>
	<path class="st1" d="M239.2,90.5h1.8l4.2,14.2l0,0l4.2-14.2h1.6l-4.7,16h-2.4L239.2,90.5z"/>
	<path class="st1" d="M253.4,106.6v-16h9.6v1.3h-7.8v5.8h6.9v1.6h-6.9v5.8h7.8v1.3h-9.6L253.4,106.6z"/>
	<path class="st1" d="M268.1,92.3L268.1,92.3v14.2h-1.6v-16h2.4l7.1,14l0,0v-14h1.6v16h-2.4L268.1,92.3z"/>
	<path class="st1" d="M282.1,106.6v-16h1.8v16H282.1z"/>
	<path class="st1" d="M290.4,90.5v14.7c0,0.7,0,1.4-0.2,2c-0.2,0.5-0.4,1.1-0.7,1.6c-0.3,0.5-0.6,0.9-1.1,1.1
		c-0.6,0.4-1.3,0.7-2,0.9l-0.4-1.3c0.4-0.2,0.9-0.2,1.3-0.4c0.4-0.2,0.7-0.5,0.9-0.9c0.3-0.3,0.4-0.7,0.4-1.1c0-0.4,0.2-0.9,0.2-1.3
		V90.8h1.6V90.5z"/>
	<path class="st1" d="M302.2,102.6h-6.7l-1.3,4h-1.8l5.3-16h2.2l5.3,16h-1.8L302.2,102.6z M295.9,101.2h5.8l-2.9-9.1l0,0
		L295.9,101.2z"/>
	<path class="st1" d="M87.9,114.8l3.3,7.1l0,0l3.1-7.1h3.6v16H95V119l0,0l-2.7,6.2h-2.7L87,119l0,0v11.8h-2.7v-16H87.9z"/>
	<path class="st1" d="M101.5,130.6v-15.8h3.1v16h-3.1V130.6z"/>
	<path class="st1" d="M110.8,118.8L110.8,118.8v12h-2.7v-16h4l5.3,12.2l0,0v-12.2h2.7v16h-4.2L110.8,118.8z"/>
	<path class="st1" d="M123.7,130.6v-15.8h3.1v16h-3.1V130.6z"/>
	<path class="st1" d="M140,126.1c0,0.7,0,1.5-0.2,2.2c-0.2,0.6-0.6,1.1-1.1,1.6c-0.5,0.4-1.1,0.7-1.8,0.9c-0.9,0.2-1.8,0.3-2.7,0.2
		c-0.8,0-1.6,0-2.4-0.2c-0.7-0.2-1.6-0.2-2-0.4l0.4-2.7c0.6,0.3,1.3,0.4,2,0.4c0.7,0.2,1.5,0.3,2.2,0.2h1.1c0.2,0,0.7-0.2,0.9-0.2
		c0.2,0,0.4-0.4,0.4-0.7c0.2-0.3,0.3-0.7,0.2-1.1c0-0.3,0-0.6-0.2-0.9c0-0.2-0.2-0.4-0.4-0.7c-0.2-0.2-0.4-0.2-0.9-0.4
		c-0.4-0.2-0.9-0.3-1.3-0.4l-2-0.7c-0.5-0.1-1-0.4-1.3-0.9c-0.4-0.4-0.7-0.8-0.9-1.3c-0.2-0.6-0.3-1.3-0.2-2
		c-0.2-1.3,0.3-2.7,1.3-3.6c1.2-0.8,2.6-1.2,4-1.1c0.7,0,1.5,0,2.2,0.2l2,0.7l-0.4,2.7c-0.6-0.3-1.2-0.4-1.8-0.4
		c-0.7-0.2-1.3-0.3-2-0.2h-0.9c-0.2,0-0.4,0.2-0.7,0.2c-0.2,0-0.4,0.2-0.4,0.4c0,0.2-0.2,0.4-0.2,0.9s0,0.7,0.2,0.9
		c0.2,0.2,0.2,0.4,0.4,0.7c0.2,0.2,0.4,0.2,0.9,0.4c0.4,0.2,0.9,0.3,1.3,0.4c0.7,0.2,1.4,0.4,2,0.7c0.5,0.1,1,0.4,1.3,0.9
		c0.4,0.3,0.7,0.8,0.7,1.3C139.9,124.8,140,125.5,140,126.1z"/>
	<path class="st1" d="M148,117.5v13.4h-3.1v-13.4h-4.2v-2.7H152v2.7H148z"/>
	<path class="st1" d="M165.5,119.5c0,1-0.2,2-0.7,2.9c-0.5,0.8-1.2,1.4-2,1.8l3.6,6.7h-3.6l-3.1-6.2h-2.4v6.2h-3.1v-16h5.6
		c0.9-0.1,1.8,0,2.7,0.2c0.7,0.2,1.3,0.5,1.8,0.9c0.4,0.4,0.7,1,0.9,1.6C165.3,118.1,165.5,118.8,165.5,119.5z M162.2,119.7
		c0.1-0.7-0.2-1.3-0.7-1.8c-0.6-0.3-1.3-0.5-2-0.4h-2.2v4.5h2.2c0.5,0,0.9,0,1.3-0.2c0.3,0,0.7-0.2,0.9-0.4c0.2-0.2,0.4-0.4,0.4-0.7
		L162.2,119.7z"/>
	<path class="st1" d="M178.4,126.1c0,0.7,0,1.5-0.2,2.2c-0.2,0.6-0.6,1.1-1.1,1.6c-0.5,0.4-1.1,0.7-1.8,0.9
		c-0.9,0.2-1.8,0.3-2.7,0.2c-0.8,0-1.6,0-2.4-0.2c-0.7-0.2-1.6-0.2-2-0.4l0.4-2.7c0.6,0.3,1.3,0.4,2,0.4c0.7,0.2,1.5,0.3,2.2,0.2
		h1.1c0.2,0,0.7-0.2,0.9-0.2c0.2,0,0.4-0.4,0.4-0.7c0.2-0.3,0.3-0.7,0.2-1.1c0-0.3,0-0.6-0.2-0.9c0-0.2-0.2-0.4-0.4-0.7
		c-0.2-0.2-0.4-0.2-0.9-0.4c-0.4-0.2-0.9-0.3-1.3-0.4l-2-0.7c-0.5-0.1-1-0.4-1.3-0.9c-0.4-0.4-0.7-0.8-0.9-1.3
		c-0.2-0.6-0.3-1.3-0.2-2c-0.2-1.3,0.3-2.7,1.3-3.6c1.2-0.8,2.6-1.2,4-1.1c0.7,0,1.5,0,2.2,0.2l2,0.7l-0.4,2.7
		c-0.6-0.3-1.2-0.4-1.8-0.4c-0.7-0.2-1.3-0.3-2-0.2h-0.9c-0.2,0-0.4,0.2-0.7,0.2s-0.4,0.2-0.4,0.4c0,0.2-0.2,0.4-0.2,0.9
		s0,0.7,0.2,0.9c0.2,0.2,0.2,0.4,0.4,0.7c0.2,0.2,0.4,0.2,0.9,0.4c0.4,0.2,0.9,0.3,1.3,0.4c0.7,0.2,1.4,0.4,2,0.7
		c0.5,0.1,1,0.4,1.3,0.9c0.4,0.3,0.7,0.8,0.7,1.3C178.2,124.8,178.4,125.2,178.4,126.1z"/>
	<path class="st1" d="M186.5,117.5v13.4h-3.1v-13.4h-4.2v-2.7h11.3v2.7H186.5z"/>
	<path class="st1" d="M200.5,130.6h-4.7l-4.2-16h3.3l3.3,13.4l0,0l3.3-13.4h3.1L200.5,130.6z"/>
	<path class="st1" d="M212.3,131c-1,0-2-0.2-2.9-0.4c-0.8-0.2-1.5-0.7-2-1.3c-0.5-0.7-0.9-1.6-1.1-2.4c-0.6-2.6-0.6-5.4,0-8
		c0.1-0.9,0.5-1.7,1.1-2.4c0.5-0.7,1.2-1.2,2-1.3c1.9-0.6,3.9-0.6,5.8,0c0.8,0.2,1.5,0.7,2,1.3c0.5,0.7,0.9,1.6,1.1,2.4
		c0.6,2.6,0.6,5.4,0,8c-0.1,0.9-0.5,1.7-1.1,2.4c-0.5,0.7-1.2,1.2-2,1.3C214.2,130.9,213.2,131,212.3,131z M212.3,128.4
		c0.5,0.1,1.1,0,1.6-0.2c0.4-0.2,0.8-0.5,1.1-0.9c0.3-0.6,0.4-1.2,0.4-1.8c0-0.7,0.2-1.6,0.2-2.7c0.1-0.9,0-1.8-0.2-2.7
		c0-0.6-0.2-1.2-0.4-1.8c-0.3-0.4-0.7-0.7-1.1-0.9c-1-0.3-2.1-0.3-3.1,0c-0.4,0.2-0.7,0.5-0.9,0.9c-0.3,0.5-0.5,1.2-0.4,1.8
		c0,0.7-0.2,1.6-0.2,2.7c-0.1,0.9,0,1.8,0.2,2.7c0,0.6,0.2,1.2,0.4,1.8c0.2,0.4,0.7,0.7,0.9,0.9
		C210.9,128.4,211.6,128.4,212.3,128.4z"/>
	<path class="st1" d="M225.6,130.6v-2.7l7.1-10.7h-6.9v-2.4h10.2v2.7l-6.9,10.7h7.3v2.7h-10.9V130.6z"/>
	<path class="st1" d="M247.2,127.3h-5.3l-0.9,3.3h-3.3l4.9-16h4.2l4.9,16h-3.3L247.2,127.3z M242.3,124.8h4l-2-7.1h-0.2L242.3,124.8
		z"/>
	<path class="st1" d="M258.1,130.6v-15.8h3.1v16h-3.1V130.6z"/>
	<path class="st1" d="M263.9,130.6v-2.7l7.1-10.7h-6.9v-2.4h10.2v2.7l-7.1,10.7h7.3v2.7h-10.7V130.6z"/>
	<path class="st1" d="M282.6,131c-1,0-2-0.2-2.9-0.4c-0.8-0.2-1.5-0.7-2-1.3c-0.5-0.7-0.9-1.6-1.1-2.4c-0.6-2.6-0.6-5.4,0-8
		c0.1-0.9,0.5-1.7,1.1-2.4c0.5-0.7,1.2-1.2,2-1.3c1.9-0.6,3.9-0.6,5.8,0c0.8,0.2,1.5,0.7,2,1.3c0.5,0.7,0.9,1.6,1.1,2.4
		c0.6,2.6,0.6,5.4,0,8c-0.1,0.9-0.5,1.7-1.1,2.4c-0.5,0.7-1.2,1.2-2,1.3C284.5,130.9,283.6,131,282.6,131z M282.6,128.4
		c0.5,0.1,1.1,0,1.6-0.2c0.4-0.2,0.8-0.5,1.1-0.9c0.3-0.6,0.4-1.2,0.4-1.8c0-0.7,0.2-1.6,0.2-2.7c0.1-0.9,0-1.8-0.2-2.7
		c0-0.6-0.2-1.2-0.4-1.8c-0.3-0.4-0.7-0.7-1.1-0.9c-1-0.3-2.1-0.3-3.1,0c-0.4,0.2-0.7,0.5-0.9,0.9c-0.3,0.5-0.5,1.2-0.4,1.8
		c0,0.7-0.2,1.6-0.2,2.7c-0.1,0.9,0,1.8,0.2,2.7c0,0.6,0.2,1.2,0.4,1.8c0.2,0.4,0.7,0.7,0.9,0.9
		C281.2,128.4,281.9,128.4,282.6,128.4z"/>
	<path class="st1" d="M303.3,126.4c0.1,1.3-0.4,2.5-1.3,3.3c-1.3,0.8-2.7,1.2-4.2,1.1h-5.8v-16h5.6c0.8,0,1.6,0,2.4,0.2
		c0.6,0.2,1.2,0.4,1.8,0.7c0.5,0.3,0.8,0.8,0.9,1.3c0.2,0.6,0.3,1.2,0.2,1.8c0,0.7,0,1.1-0.2,1.3c-0.2,0.2-0.2,0.7-0.4,1.1l-0.7,0.7
		c-0.2,0.2-0.4,0.2-0.9,0.4v0.2c0.2,0.2,0.7,0.2,0.9,0.4l0.7,0.7c0.3,0.3,0.4,0.7,0.4,1.1C303.3,125.2,303.3,125.7,303.3,126.4z
		 M299.7,119.2c0-0.5-0.1-1-0.4-1.3c-0.5-0.3-1.2-0.5-1.8-0.4h-2.7v3.8h2.2c0.7,0.1,1.4-0.1,2-0.4
		C299.5,120.4,299.7,119.8,299.7,119.2z M300.2,125.9c0-0.4,0-0.7-0.2-0.9c-0.2-0.2-0.2-0.4-0.4-0.7c-0.2-0.2-0.4-0.2-0.9-0.4
		c-0.4-0.2-0.9-0.2-1.3-0.2h-2.4v4h2.9c0.6,0,1.2-0.1,1.8-0.4C299.9,127.3,300.2,126.6,300.2,125.9z"/>
	<path class="st1" d="M317.1,119.5c0,1-0.2,2-0.7,2.9c-0.5,0.8-1.2,1.4-2,1.8l3.6,6.7h-3.6l-3.1-6.2h-2.4v6.2h-3.1v-16h5.6
		c0.9-0.1,1.8,0,2.7,0.2c0.7,0.2,1.3,0.5,1.8,0.9c0.4,0.4,0.7,1,0.9,1.6C317,118.1,317.1,118.8,317.1,119.5z M313.9,119.7
		c0.1-0.7-0.2-1.3-0.7-1.8c-0.6-0.3-1.3-0.5-2-0.4h-2.2v4.5h2.2c0.5,0,0.9,0,1.3-0.2c0.3,0,0.7-0.2,0.9-0.4c0.2-0.2,0.4-0.4,0.4-0.7
		V119.7z"/>
	<path class="st1" d="M328.2,127.3h-5.3l-0.9,3.3h-3.3l4.9-16h4.2l4.9,16h-3.3L328.2,127.3z M323.5,124.8h4l-2-7.1h-0.2L323.5,124.8
		z"/>
	<path class="st1" d="M333.5,130.6v-2.7l7.1-10.7h-6.9v-2.4H344v2.7l-7.1,10.7h7.3v2.7h-10.7V130.6z M336.2,109.7l2.9,1.8l3.1-1.8
		l1.1,1.8l-4.2,2.4l-4-2.2L336.2,109.7z"/>
	<path class="st1" d="M346.9,130.6v-15.8h10.2v2.7H350v4h6.2v2.7H350v4h7.1v2.7h-10.2V130.6z"/>
	<path class="st1" d="M367.1,130.6h-4.7l-4.2-15.8h3.3l3.3,13.4l0,0l3.3-13.4h3.1L367.1,130.6z"/>
	<path class="st1" d="M380.5,127.3h-5.3l-0.9,3.3h-3.3l4.9-16h4.2l4.9,16h-3.3L380.5,127.3z M375.8,124.8h4l-2-7.1h-0.2L375.8,124.8
		z"/>
	<path class="st1" d="M389.6,118.8L389.6,118.8v12h-2.7v-16h4l5.3,12.2l0,0v-12.2h2.7v16h-4.2L389.6,118.8z"/>
	<path class="st1" d="M400.3,132.8c0.4-0.2,0.9-0.4,1.3-0.4c0.3-0.2,0.6-0.4,0.9-0.7c0.2-0.2,0.4-0.6,0.4-0.9c0-0.4,0.2-0.9,0.2-1.3
		v-14.7h3.1V129c0,0.8,0,1.6-0.2,2.4c-0.2,0.7-0.5,1.3-0.9,1.8c-0.5,0.5-1,0.9-1.6,1.3c-0.7,0.5-1.6,0.8-2.4,0.9L400.3,132.8z"/>
	<path class="st1" d="M409.4,130.6v-15.8h10.2v2.7h-7.1v4h6.2v2.7h-6.2v4h7.1v2.7h-10.2V130.6z"/>
	<path class="st1" d="M424.1,134.1l-2-0.4l0.7-2.7l-0.9-0.2v-3.1h3.3v2.7L424.1,134.1z"/>
	<path class="st1" d="M83.4,157.3v-2.7l7.1-10.7h-6.9v-2.4h10.2v2.7L87,154.8h7.3v2.7H83.4V157.3z"/>
	<path class="st1" d="M99.7,145.5L99.7,145.5v12H97v-16h4l5.3,12.2l0,0v-12.2h2.7v16h-4.2L99.7,145.5z"/>
	<path class="st1" d="M120.6,154h-5.3l-0.9,3.3H111l4.9-16h4.2l4.9,16h-3.3L120.6,154z M115.9,151.5h4l-2-7.3l0,0L115.9,151.5z"/>
	<path class="st1" d="M129.7,145.5L129.7,145.5v12h-2.9v-16h4l5.3,12.2l0,0v-12.2h2.7v16h-4.2L129.7,145.5z"/>
	<path class="st1" d="M148.4,157.7c-1,0-2-0.2-2.9-0.4c-0.8-0.2-1.5-0.7-2-1.3c-0.5-0.7-0.9-1.6-1.1-2.4c-0.6-2.6-0.6-5.4,0-8
		c0.1-0.9,0.5-1.7,1.1-2.4c0.5-0.7,1.2-1.2,2-1.3c1.9-0.6,3.9-0.6,5.8,0c0.8,0.2,1.5,0.7,2,1.3c0.5,0.7,0.9,1.6,1.1,2.4
		c0.6,2.6,0.6,5.4,0,8c-0.1,0.9-0.5,1.7-1.1,2.4c-0.5,0.7-1.2,1.2-2,1.3C150.4,157.6,149.4,157.7,148.4,157.7z M148.4,155.1
		c0.5,0.1,1.1,0,1.6-0.2c0.4-0.2,0.8-0.5,1.1-0.9c0.3-0.6,0.4-1.2,0.4-1.8c0-0.7,0.2-1.6,0.2-2.7c0.1-0.9,0-1.8-0.2-2.7
		c0-0.6-0.2-1.2-0.4-1.8c-0.3-0.4-0.7-0.7-1.1-0.9c-1-0.3-2.1-0.3-3.1,0c-0.4,0.2-0.7,0.5-0.9,0.9c-0.3,0.5-0.5,1.2-0.4,1.8
		c0,0.7-0.2,1.6-0.2,2.7c-0.1,0.9,0,1.8,0.2,2.7c0,0.6,0.2,1.2,0.4,1.8c0.2,0.4,0.7,0.7,0.9,0.9C147.4,154.9,147.9,155,148.4,155.1z
		"/>
	<path class="st1" d="M167.3,152.8c0,0.7,0,1.5-0.2,2.2c-0.2,0.6-0.6,1.1-1.1,1.6c-0.5,0.4-1.1,0.7-1.8,0.9
		c-0.9,0.2-1.8,0.3-2.7,0.2c-0.8,0-1.6,0-2.4-0.2c-0.7-0.2-1.6-0.2-2-0.4l0.4-2.7c0.6,0.3,1.3,0.4,2,0.4c0.7,0.2,1.5,0.3,2.2,0.2
		h1.1c0.2,0,0.7-0.2,0.9-0.2c0.2,0,0.4-0.4,0.4-0.7c0.2-0.3,0.3-0.7,0.2-1.1c0-0.3,0-0.6-0.2-0.9c0-0.2-0.2-0.4-0.4-0.7
		c-0.2-0.2-0.4-0.2-0.9-0.4c-0.4-0.2-0.9-0.3-1.3-0.4l-2-0.7c-0.5-0.1-1-0.4-1.3-0.9c-0.4-0.4-0.7-0.8-0.9-1.3
		c-0.2-0.6-0.3-1.3-0.2-2c-0.2-1.3,0.3-2.7,1.3-3.6c1.2-0.8,2.6-1.2,4-1.1c0.7,0,1.5,0,2.2,0.2l2,0.7l-0.4,2.7
		c-0.6-0.3-1.2-0.4-1.8-0.4c-0.7-0.2-1.3-0.3-2-0.2h-0.9c-0.2,0-0.4,0.2-0.7,0.2s-0.4,0.2-0.4,0.4c-0.2,0.3-0.3,0.6-0.2,0.9
		c0,0.4,0,0.7,0.2,0.9c0.2,0.2,0.2,0.4,0.4,0.7c0.2,0.2,0.4,0.2,0.9,0.4c0.4,0.2,0.9,0.3,1.3,0.4c0.7,0.2,1.4,0.4,2,0.7
		c0.5,0.1,1,0.4,1.3,0.9c0.4,0.3,0.7,0.8,0.7,1.3C167.3,151.5,167.4,152.2,167.3,152.8z"/>
	<path class="st1" d="M175.6,144.2v13.4h-3.1v-13.4h-4.2v-2.7h11.3v2.7H175.6z"/>
	<path class="st1" d="M186.7,157.3v-15.8h3.1v16h-3.1V157.3z"/>
	<path class="st1" d="M196,145.5L196,145.5v12h-2.7v-16h4l5.3,12.2l0,0v-12.2h2.7v16h-4.2L196,145.5z"/>
	<path class="st1" d="M223.6,152.8c0,0.7,0,1.5-0.2,2.2c-0.2,0.6-0.6,1.1-1.1,1.6c-0.5,0.4-1.1,0.7-1.8,0.9
		c-0.9,0.2-1.8,0.3-2.7,0.2c-0.8,0-1.6,0-2.4-0.2c-0.7-0.2-1.6-0.2-2-0.4l0.4-2.7c0.6,0.3,1.3,0.4,2,0.4c0.7,0.2,1.5,0.3,2.2,0.2
		h1.1c0.2,0,0.7-0.2,0.9-0.2c0.2,0,0.4-0.4,0.4-0.7c0.2-0.3,0.3-0.7,0.2-1.1c0-0.3,0-0.6-0.2-0.9c0-0.2-0.2-0.4-0.4-0.7
		c-0.2-0.2-0.4-0.2-0.9-0.4c-0.4-0.2-0.9-0.3-1.3-0.4l-2-0.7c-0.5-0.1-1-0.4-1.3-0.9c-0.4-0.4-0.7-0.8-0.9-1.3
		c-0.2-0.6-0.3-1.3-0.2-2c-0.2-1.3,0.3-2.7,1.3-3.6c1.2-0.8,2.6-1.2,4-1.1c0.7,0,1.5,0,2.2,0.2l2,0.7l-0.4,2.7
		c-0.6-0.3-1.2-0.4-1.8-0.4c-0.7-0.2-1.3-0.3-2-0.2h-0.9c-0.2,0-0.4,0.2-0.7,0.2s-0.4,0.2-0.4,0.4s-0.2,0.4-0.2,0.9
		c0,0.4,0,0.7,0.2,0.9c0.2,0.2,0.2,0.4,0.4,0.7c0.2,0.2,0.4,0.2,0.9,0.4c0.4,0.2,0.9,0.3,1.3,0.4c0.7,0.2,1.4,0.4,2,0.7
		c0.5,0.1,1,0.4,1.3,0.9c0.4,0.3,0.7,0.8,0.7,1.3C223.4,151.5,223.6,151.9,223.6,152.8z M215.4,136.4l2.9,1.8l3.1-1.8l1.1,1.8
		l-4.2,2.4l-4-2.2L215.4,136.4z"/>
	<path class="st1" d="M237,146.4c0,0.7,0,1.5-0.2,2.2c-0.2,0.6-0.5,1.1-0.9,1.6c-0.5,0.4-1.1,0.7-1.8,0.9c-0.9,0.2-1.8,0.3-2.7,0.2
		H229v6h-3.1v-15.8h5.6c0.9-0.1,1.8,0,2.7,0.2c0.7,0.2,1.3,0.5,1.8,0.9c0.4,0.4,0.7,1,0.9,1.6C236.9,144.9,237,145.6,237,146.4z
		 M233.8,146.4c0.1-0.4,0-0.8-0.2-1.1c0-0.2-0.2-0.4-0.4-0.7c-0.2-0.2-0.4-0.2-0.9-0.4h-3.6v4.7h2.2c0.5,0,0.9,0,1.3-0.2
		c0.3,0,0.7-0.2,0.9-0.4c0.2-0.2,0.4-0.4,0.4-0.7C233.8,147.2,233.9,146.8,233.8,146.4z"/>
	<path class="st1" d="M245,157.7c-1,0-2-0.2-2.9-0.4c-0.8-0.2-1.5-0.7-2-1.3c-0.5-0.7-0.9-1.6-1.1-2.4c-0.6-2.6-0.6-5.4,0-8
		c0.1-0.9,0.5-1.7,1.1-2.4c0.5-0.7,1.2-1.2,2-1.3c1.9-0.6,3.9-0.6,5.8,0c0.8,0.2,1.5,0.7,2,1.3c0.5,0.7,0.9,1.6,1.1,2.4
		c0.6,2.6,0.6,5.4,0,8c-0.1,0.9-0.5,1.7-1.1,2.4c-0.5,0.7-1.2,1.2-2,1.3C246.9,157.6,246,157.7,245,157.7z M245,155.1
		c0.5,0.1,1.1,0,1.6-0.2c0.4-0.2,0.8-0.5,1.1-0.9c0.3-0.6,0.4-1.2,0.4-1.8c0-0.7,0.2-1.6,0.2-2.7c0.1-0.9,0-1.8-0.2-2.7
		c0-0.6-0.2-1.2-0.4-1.8c-0.3-0.4-0.7-0.7-1.1-0.9c-1-0.3-2.1-0.3-3.1,0c-0.4,0.2-0.7,0.5-0.9,0.9c-0.3,0.5-0.5,1.2-0.4,1.8
		c0,0.7-0.2,1.6-0.2,2.7c-0.1,0.9,0,1.8,0.2,2.7c0,0.6,0.2,1.2,0.4,1.8c0.2,0.4,0.7,0.7,0.9,0.9S244.3,155.1,245,155.1z"/>
	<path class="st1" d="M265.4,146.2c0,1-0.2,2-0.7,2.9c-0.5,0.8-1.2,1.4-2,1.8l3.6,6.7h-3.6l-3.1-6.2h-2.4v6.2h-3.1v-16h5.6
		c0.9-0.1,1.8,0,2.7,0.2c0.7,0.2,1.3,0.5,1.8,0.9c0.4,0.4,0.7,1,0.9,1.6C265.3,144.8,265.4,145.5,265.4,146.2z M262.1,146.4
		c0.1-0.7-0.2-1.3-0.7-1.8c-0.6-0.3-1.3-0.5-2-0.4h-2.2v4.5h2.2c0.5,0,0.9,0,1.3-0.2c0.3,0,0.7-0.2,0.9-0.4c0.2-0.2,0.4-0.4,0.4-0.7
		V146.4z"/>
	<path class="st1" d="M274.1,144.2v13.4H271v-13.4h-4v-2.7h11.3v2.7H274.1z"/>
</g>
<g id="Layer_4" class="st0">
	<g class="st1">
		<defs>
			<rect id="SVGID_1_" y="39.1" width="425.2" height="174.5"/>
		</defs>
		<clipPath id="SVGID_00000075841627656629351120000002654737667357031823_">
			<use xlink:href="#SVGID_1_"  style="overflow:visible;"/>
		</clipPath>
		<g style="clip-path:url(#SVGID_00000075841627656629351120000002654737667357031823_);">
			<g>
				<defs>
					<rect id="SVGID_00000074419520163981672470000014612766006248228507_" y="39.1" width="425.2" height="174.5"/>
				</defs>
				<clipPath id="SVGID_00000124121745436236995820000006324561718372357522_">
					<use xlink:href="#SVGID_00000074419520163981672470000014612766006248228507_"  style="overflow:visible;"/>
				</clipPath>
				<g style="clip-path:url(#SVGID_00000124121745436236995820000006324561718372357522_);">
					<path d="M224.9,163.2c-1.2-13.4-1.6-28.7-1.6-44.9c0-24,1.3-46.1,4-63.1c1.5-9,5.2-15.9,8.4-15.4s4.8,8.5,3.4,17.8
						c-0.2,1.5-0.5,2.9-0.9,4.4c-5.2,21-9.4,57.3-9.4,98.7c0,5.5,0,10.9,0.2,16.2c0,2.2,0.1,4.6,0.1,6.9c0.2,9.4-0.7,18.7-2.5,27.9
						c0-1.4,0-2.7,0-4C226.6,191.7,226.1,176.6,224.9,163.2"/>
				</g>
			</g>
			<g>
				<defs>
					<rect id="SVGID_00000176745210611687520530000008572749601905738398_" y="39.1" width="425.2" height="174.5"/>
				</defs>
				<clipPath id="SVGID_00000029765699526847415580000002362615921610138778_">
					<use xlink:href="#SVGID_00000176745210611687520530000008572749601905738398_"  style="overflow:visible;"/>
				</clipPath>
				<g style="clip-path:url(#SVGID_00000029765699526847415580000002362615921610138778_);">
					<path d="M425.2,90.6c0.6,7.2-11.8,15.6-27.7,18.9c-15.8,3.3-29.1,0.1-29.7-7.1c-0.5-7.2,11.8-15.6,27.7-18.9
						S424.6,83.4,425.2,90.6"/>
				</g>
			</g>
			<g>
				<defs>
					<rect id="SVGID_00000119082865027735085170000003132437331110806452_" y="39.1" width="425.2" height="174.5"/>
				</defs>
				<clipPath id="SVGID_00000044882309073851140180000013407257819738225024_">
					<use xlink:href="#SVGID_00000119082865027735085170000003132437331110806452_"  style="overflow:visible;"/>
				</clipPath>
				<g style="clip-path:url(#SVGID_00000044882309073851140180000013407257819738225024_);">
					<path d="M290.8,103c-13.1,16.1-19.1,34.1-15.2,51.3c8.9,39.6,66.9,59.5,128.3,45.7l2-0.5c5.3-1.3,9-5.1,8.2-8.5
						c-0.8-3.4-5.8-5.2-11.1-3.9c-1.5,0.3-2.9,0.6-4.4,0.9c-59,11.2-111.9-6.3-118.1-39c-6.2-32.7,36.3-67,94.5-79.3
						c3.6-0.7,6-4.3,5.3-7.9c-0.6-3.2-3.4-5.4-6.7-5.4c-0.5,0-0.9,0.1-1.4,0.2c-0.7,0.1-8.2,1.7-11.2,2.6l-0.4,0.1
						c-59.3,18.1-104.8,53.5-122.1,90.1l-0.2,1.2C250.6,133.5,268.7,117,290.8,103"/>
				</g>
			</g>
			<g>
				<defs>
					<rect id="SVGID_00000135691175885935958760000004097864616350603158_" y="39.1" width="425.2" height="174.5"/>
				</defs>
				<clipPath id="SVGID_00000179646187031338652750000011427307007158239637_">
					<use xlink:href="#SVGID_00000135691175885935958760000004097864616350603158_"  style="overflow:visible;"/>
				</clipPath>
				<g style="clip-path:url(#SVGID_00000179646187031338652750000011427307007158239637_);">
					<path d="M15.5,68.5h-3v-3.5C10.2,67.8,8.3,69,5.7,69c-1.9,0.1-3.8-0.9-4.8-2.5c-0.7-2-1-4.2-0.9-6.4V46.7h3v13.4
						c0,1.1,0,2.2,0.1,3.3c0,1.7,1.4,3.1,3.1,3.2c2.1,0,3.5-0.9,6.3-3.9v-16h3V68.5z"/>
				</g>
			</g>
			<g>
				<defs>
					<rect id="SVGID_00000098208160471316132890000007966989096186574508_" y="39.1" width="425.2" height="174.5"/>
				</defs>
				<clipPath id="SVGID_00000129189891597304675030000012333091642148318610_">
					<use xlink:href="#SVGID_00000098208160471316132890000007966989096186574508_"  style="overflow:visible;"/>
				</clipPath>
				<g style="clip-path:url(#SVGID_00000129189891597304675030000012333091642148318610_);">
					<path d="M24.3,48.2v1.9c1.7-2.3,4.3-3.7,7.1-3.9c1.8,0,3.6,0.9,4.6,2.5c0.7,1.2,0.9,2.4,0.9,5.4v14.3h-3V54.2
						c0.1-1.1,0-2.2-0.2-3.3c-0.4-1.3-1.6-2.2-3-2.2c-1.9,0-3.6,1-6.3,3.7v16.1h-3V46.7h3V48.2z"/>
				</g>
			</g>
			<g>
				<defs>
					<rect id="SVGID_00000037682898966277037200000018258813558620776367_" y="39.1" width="425.2" height="174.5"/>
				</defs>
				<clipPath id="SVGID_00000031172483106828966500000004947490875567572925_">
					<use xlink:href="#SVGID_00000037682898966277037200000018258813558620776367_"  style="overflow:visible;"/>
				</clipPath>
				<g style="clip-path:url(#SVGID_00000031172483106828966500000004947490875567572925_);">
					<path d="M45.7,68.5h-3V46.7h3V68.5z M45.7,42.5h-3v-3.3h3V42.5z"/>
				</g>
			</g>
			<g>
				<defs>
					<rect id="SVGID_00000094616938927105265320000002472729979460440975_" y="39.1" width="425.2" height="174.5"/>
				</defs>
				<clipPath id="SVGID_00000142164880824928272870000018381880074758633615_">
					<use xlink:href="#SVGID_00000094616938927105265320000002472729979460440975_"  style="overflow:visible;"/>
				</clipPath>
				<g style="clip-path:url(#SVGID_00000142164880824928272870000018381880074758633615_);">
					<path d="M59.6,68.5h-4.4l-6.6-21.8h3.1l5,17l0.2,0.8l0.4,1.3l0.2,0.9c0.3-1.2,0.3-1.8,0.7-3L63,46.7h2.9L59.6,68.5z"/>
				</g>
			</g>
			<g>
				<defs>
					<rect id="SVGID_00000097478208760179404040000009355259621250999484_" y="39.1" width="425.2" height="174.5"/>
				</defs>
				<clipPath id="SVGID_00000066497868696107256510000007418912791009099940_">
					<use xlink:href="#SVGID_00000097478208760179404040000009355259621250999484_"  style="overflow:visible;"/>
				</clipPath>
				<g style="clip-path:url(#SVGID_00000066497868696107256510000007418912791009099940_);">
					<path d="M80.2,55.5L80.2,55.5c0-4.1-1.9-6.8-4.8-6.8c-1.9,0-3.7,1.2-4.5,2.9c-0.6,1.2-0.9,2.5-0.9,3.9L80.2,55.5z M83.8,63.7
						c-1.4,3.2-4.5,5.2-8,5.3c-5.5,0-8.9-4.5-8.9-11.5c0-6.8,3.4-11.2,8.5-11.2c5.1,0,7.9,4.1,8,11.8H69.9c0,5.2,2.3,8.5,6,8.5
						c2.4,0,3.8-1.1,5.7-4.2L83.8,63.7z"/>
				</g>
			</g>
			<g>
				<defs>
					<rect id="SVGID_00000079466640291805419890000004930206319435262381_" y="39.1" width="425.2" height="174.5"/>
				</defs>
				<clipPath id="SVGID_00000154420457203255880540000006582165365170536097_">
					<use xlink:href="#SVGID_00000079466640291805419890000004930206319435262381_"  style="overflow:visible;"/>
				</clipPath>
				<g style="clip-path:url(#SVGID_00000154420457203255880540000006582165365170536097_);">
					<path d="M98.4,49.2c-3.5,0.1-5.5,2.1-7.3,7.1v12.2h-3V46.7h3v5.7c0.5-1.9,1.6-3.5,3.1-4.7c1-0.9,2.3-1.3,3.7-1.3h0.5V49.2z"/>
				</g>
			</g>
			<g>
				<defs>
					<rect id="SVGID_00000029021080436118742290000007285157471900176317_" y="39.1" width="425.2" height="174.5"/>
				</defs>
				<clipPath id="SVGID_00000063620323199404502650000014832308147609683895_">
					<use xlink:href="#SVGID_00000029021080436118742290000007285157471900176317_"  style="overflow:visible;"/>
				</clipPath>
				<g style="clip-path:url(#SVGID_00000063620323199404502650000014832308147609683895_);">
					<polygon points="115.3,46.7 115.3,48.5 103.7,66 115.3,66 115.3,68.5 100.1,68.5 100.1,66.6 111.5,49.2 100.8,49.2 100.8,46.7 
											"/>
				</g>
			</g>
			<g>
				<defs>
					<rect id="SVGID_00000079469986408982574120000012626866511000258707_" y="39.1" width="425.2" height="174.5"/>
				</defs>
				<clipPath id="SVGID_00000125578150211230499370000006661600064029125775_">
					<use xlink:href="#SVGID_00000079469986408982574120000012626866511000258707_"  style="overflow:visible;"/>
				</clipPath>
				<g style="clip-path:url(#SVGID_00000125578150211230499370000006661600064029125775_);">
					<path d="M122.3,68.5h-3V46.7h3V68.5z M122.3,42.5h-3v-3.3h3V42.5z"/>
				</g>
			</g>
			<g>
				<defs>
					<rect id="SVGID_00000062175586232752760330000011580239792192099241_" y="39.1" width="425.2" height="174.5"/>
				</defs>
				<clipPath id="SVGID_00000124136484068142475980000010719714193058183089_">
					<use xlink:href="#SVGID_00000062175586232752760330000011580239792192099241_"  style="overflow:visible;"/>
				</clipPath>
				<g style="clip-path:url(#SVGID_00000124136484068142475980000010719714193058183089_);">
					<path d="M131.8,46.7h4.6v2.5h-4.6v13.6c0,0.9,0.2,1.8,0.4,2.7c0.4,0.8,1.2,1.2,2.1,1.1c0.7,0,1.5-0.1,2.2-0.3v2.3
						c-1,0.3-2.1,0.5-3.1,0.5c-1.6,0.2-3.1-0.6-4-1.9c-0.4-0.8-0.5-0.9-0.5-4.9v-13h-3.3v-2.5h3.3v-7.3h3V46.7z"/>
				</g>
			</g>
			<g>
				<defs>
					<rect id="SVGID_00000173120522985839995490000006242364193233674935_" y="39.1" width="425.2" height="174.5"/>
				</defs>
				<clipPath id="SVGID_00000180346915605686102460000000491826442689946261_">
					<use xlink:href="#SVGID_00000173120522985839995490000006242364193233674935_"  style="overflow:visible;"/>
				</clipPath>
				<g style="clip-path:url(#SVGID_00000180346915605686102460000000491826442689946261_);">
					<path d="M150.8,55.5L150.8,55.5c0-4.1-1.9-6.8-4.8-6.8c-1.9,0-3.7,1.2-4.5,2.9c-0.6,1.2-0.9,2.5-0.9,3.9H150.8z M154.4,63.7
						c-1.4,3.2-4.5,5.2-7.9,5.3c-5.5,0-9-4.5-9-11.5c0-6.8,3.4-11.2,8.6-11.2c5.2,0,7.9,4.1,7.9,11.8h-13.4c0,5.2,2.3,8.5,6,8.5
						c2.4,0,3.8-1.1,5.7-4.2L154.4,63.7z"/>
				</g>
			</g>
			<g>
				<defs>
					<rect id="SVGID_00000129904602537129317210000012552858918859182738_" y="39.1" width="425.2" height="174.5"/>
				</defs>
				<clipPath id="SVGID_00000142142733607095134140000003493827463993379510_">
					<use xlink:href="#SVGID_00000129904602537129317210000012552858918859182738_"  style="overflow:visible;"/>
				</clipPath>
				<g style="clip-path:url(#SVGID_00000142142733607095134140000003493827463993379510_);">
					<path d="M162.4,46.7h4.6v2.5h-4.6v13.6c0,0.9,0.2,1.8,0.4,2.7c0.4,0.8,1.2,1.2,2.1,1.1c0.7,0,1.5-0.1,2.2-0.3v2.3
						c-1,0.3-2.1,0.5-3.1,0.5c-1.6,0.2-3.1-0.6-4-1.9c-0.4-0.8-0.5-0.9-0.5-4.9v-13h-3.3v-2.5h3.3v-7.3h3V46.7z"/>
				</g>
			</g>
			<g>
				<defs>
					<rect id="SVGID_00000007424196135639490110000003005864943797469624_" y="39.1" width="425.2" height="174.5"/>
				</defs>
				<clipPath id="SVGID_00000116220453926461854450000017815027570804673948_">
					<use xlink:href="#SVGID_00000007424196135639490110000003005864943797469624_"  style="overflow:visible;"/>
				</clipPath>
				<g style="clip-path:url(#SVGID_00000116220453926461854450000017815027570804673948_);">
					<path d="M173,48.2v1.9c1.7-2.3,4.3-3.7,7.1-3.9c1.8,0,3.6,0.9,4.5,2.5c0.7,1.2,0.9,2.4,0.9,5.4v14.3h-3V54.2
						c0.1-1.1,0-2.2-0.2-3.3c-0.4-1.3-1.6-2.2-3-2.2c-1.9,0-3.6,1-6.3,3.7v16.1h-3V46.7h3C173,46.7,173,48.2,173,48.2z"/>
				</g>
			</g>
			<g>
				<defs>
					<rect id="SVGID_00000043415119443576034530000004591998532130761372_" y="39.1" width="425.2" height="174.5"/>
				</defs>
				<clipPath id="SVGID_00000030459343591978377220000015240378309050532999_">
					<use xlink:href="#SVGID_00000043415119443576034530000004591998532130761372_"  style="overflow:visible;"/>
				</clipPath>
				<g style="clip-path:url(#SVGID_00000030459343591978377220000015240378309050532999_);">
					<path d="M194.5,68.5h-3V46.7h3V68.5z M194.5,42.5h-3v-3.3h3V42.5z"/>
				</g>
			</g>
			<g>
				<defs>
					<rect id="SVGID_00000042710891092004821230000011795051492015755692_" y="39.1" width="425.2" height="174.5"/>
				</defs>
				<clipPath id="SVGID_00000087409501585040840360000013907293582689739425_">
					<use xlink:href="#SVGID_00000042710891092004821230000011795051492015755692_"  style="overflow:visible;"/>
				</clipPath>
				<g style="clip-path:url(#SVGID_00000087409501585040840360000013907293582689739425_);">
					<polygon points="87.6,104.3 96.1,93.1 99.3,93.1 93.4,100.7 100.1,114.9 97,114.9 91.5,103 87.6,107.9 87.6,114.9 84.6,114.9 
						84.6,84.2 87.6,84.2 					"/>
				</g>
			</g>
			<g>
				<defs>
					<rect id="SVGID_00000175283831623265811590000013598201545819858823_" y="39.1" width="425.2" height="174.5"/>
				</defs>
				<clipPath id="SVGID_00000021110059356694920000000003534116910663159447_">
					<use xlink:href="#SVGID_00000175283831623265811590000013598201545819858823_"  style="overflow:visible;"/>
				</clipPath>
				<g style="clip-path:url(#SVGID_00000021110059356694920000000003534116910663159447_);">
					<rect x="103.4" y="84.2" width="3" height="30.7"/>
				</g>
			</g>
			<g>
				<defs>
					<rect id="SVGID_00000108291481623894067900000001616607218043132808_" y="39.1" width="425.2" height="174.5"/>
				</defs>
				<clipPath id="SVGID_00000149372855736928261920000008097817796595674271_">
					<use xlink:href="#SVGID_00000108291481623894067900000001616607218043132808_"  style="overflow:visible;"/>
				</clipPath>
				<g style="clip-path:url(#SVGID_00000149372855736928261920000008097817796595674271_);">
					<path d="M115.2,114.9h-3V93.1h3V114.9z M115.2,88.8h-3v-3.3h3V88.8z"/>
				</g>
			</g>
			<g>
				<defs>
					<rect id="SVGID_00000061447642140656697600000000807801060977782968_" y="39.1" width="425.2" height="174.5"/>
				</defs>
				<clipPath id="SVGID_00000093891522609335468690000017954920190219421830_">
					<use xlink:href="#SVGID_00000061447642140656697600000000807801060977782968_"  style="overflow:visible;"/>
				</clipPath>
				<g style="clip-path:url(#SVGID_00000093891522609335468690000017954920190219421830_);">
					<path d="M124,94.6v1.9c1.7-2.3,4.3-3.7,7.1-3.9c1.8,0,3.6,0.9,4.5,2.5c0.7,1.2,0.9,2.4,0.9,5.4v14.3h-3v-14.3
						c0.1-1.1,0-2.2-0.2-3.3c-0.4-1.3-1.6-2.2-3-2.2c-1.9,0-3.6,1-6.3,3.7v16.1h-3V93.1h3V94.6z"/>
				</g>
			</g>
			<g>
				<defs>
					<rect id="SVGID_00000062900295333015842240000011843217544741741444_" y="39.1" width="425.2" height="174.5"/>
				</defs>
				<clipPath id="SVGID_00000036221004403080899310000017385473750929628322_">
					<use xlink:href="#SVGID_00000062900295333015842240000011843217544741741444_"  style="overflow:visible;"/>
				</clipPath>
				<g style="clip-path:url(#SVGID_00000036221004403080899310000017385473750929628322_);">
					<path d="M145.4,114.9h-3V93.1h3V114.9z M145.4,88.8h-3v-3.3h3V88.8z"/>
				</g>
			</g>
			<g>
				<defs>
					<rect id="SVGID_00000173125312914906259280000007268352771749257904_" y="39.1" width="425.2" height="174.5"/>
				</defs>
				<clipPath id="SVGID_00000013190883411751548210000016672911003791520166_">
					<use xlink:href="#SVGID_00000173125312914906259280000007268352771749257904_"  style="overflow:visible;"/>
				</clipPath>
				<g style="clip-path:url(#SVGID_00000013190883411751548210000016672911003791520166_);">
					<path d="M156.3,84.8L156.3,84.8l2.2,3.5l2.3-3.5h3l-3.8,5.5H157l-3.7-5.5H156.3z M165.9,109.6c-1.5,3.8-4,5.7-7.5,5.7
						c-5.2,0-8.6-4.5-8.6-11.2s3.5-11.5,8.7-11.5c3.4,0,5.8,1.9,7.2,5.9l-2.7,0.9c-0.7-2.7-2.4-4.3-4.6-4.3c-3.5,0-5.7,3.4-5.7,9.1
						c-0.1,2,0.3,4.1,1.2,5.9c0.9,1.6,2.5,2.7,4.4,2.8c2.3,0,4-1.5,5.1-4.3L165.9,109.6z"/>
				</g>
			</g>
			<g>
				<defs>
					<rect id="SVGID_00000136394473713898137600000015191428786114239664_" y="39.1" width="425.2" height="174.5"/>
				</defs>
				<clipPath id="SVGID_00000113353772303550230310000011321672628528547715_">
					<use xlink:href="#SVGID_00000136394473713898137600000015191428786114239664_"  style="overflow:visible;"/>
				</clipPath>
				<g style="clip-path:url(#SVGID_00000113353772303550230310000011321672628528547715_);">
					<path d="M173,94.6v1.9c1.7-2.3,4.3-3.7,7.1-3.9c1.8,0,3.6,0.9,4.5,2.5c0.7,1.2,0.9,2.4,0.9,5.4v14.3h-3v-14.3
						c0.1-1.1,0-2.2-0.2-3.3c-0.4-1.3-1.6-2.2-3-2.2c-1.9,0-3.6,1-6.3,3.7v16.1h-3V93.1h3V94.6z"/>
				</g>
			</g>
			<g>
				<defs>
					<rect id="SVGID_00000142856740263278641590000001986892171874020278_" y="39.1" width="425.2" height="174.5"/>
				</defs>
				<clipPath id="SVGID_00000048475350457655360100000017723751029505135031_">
					<use xlink:href="#SVGID_00000142856740263278641590000001986892171874020278_"  style="overflow:visible;"/>
				</clipPath>
				<g style="clip-path:url(#SVGID_00000048475350457655360100000017723751029505135031_);">
					<path d="M194.5,114.9h-3V93.1h3V114.9z M194.5,88.8h-3v-3.3h3V88.8z"/>
				</g>
			</g>
			<g>
				<defs>
					<rect id="SVGID_00000013895241455275082790000013474651589841906584_" y="39.1" width="425.2" height="174.5"/>
				</defs>
				<clipPath id="SVGID_00000042737654875419111860000008070972907822727576_">
					<use xlink:href="#SVGID_00000013895241455275082790000013474651589841906584_"  style="overflow:visible;"/>
				</clipPath>
				<g style="clip-path:url(#SVGID_00000042737654875419111860000008070972907822727576_);">
					<path d="M110.8,155.4c-1.5,3.8-4,5.7-7.5,5.7c-5.2,0-8.6-4.5-8.6-11.2s3.5-11.5,8.7-11.5c3.4,0,5.8,1.9,7.2,5.9l-2.7,0.9
						c-0.7-2.7-2.4-4.3-4.6-4.3c-3.5,0-5.7,3.4-5.7,9.1c-0.1,2,0.3,4.1,1.2,5.9c0.9,1.6,2.5,2.7,4.4,2.8c2.2,0,4-1.5,5.1-4.3
						L110.8,155.4z"/>
				</g>
			</g>
			<g>
				<defs>
					<rect id="SVGID_00000023273310062388804650000001026988802845978540_" y="39.1" width="425.2" height="174.5"/>
				</defs>
				<clipPath id="SVGID_00000137839768230510498280000003680797970282327173_">
					<use xlink:href="#SVGID_00000023273310062388804650000001026988802845978540_"  style="overflow:visible;"/>
				</clipPath>
				<g style="clip-path:url(#SVGID_00000137839768230510498280000003680797970282327173_);">
					<path d="M126.8,147.6L126.8,147.6c0-4.1-1.9-6.8-4.8-6.8c-1.9,0-3.7,1.2-4.4,2.9c-0.6,1.2-0.9,2.5-0.9,3.9H126.8z M130.3,155.8
						c-1.4,3.2-4.5,5.2-7.9,5.3c-5.5,0-9-4.5-9-11.5c0-6.8,3.4-11.2,8.6-11.2s7.9,4.2,7.9,11.8h-13.4c0,5.2,2.3,8.5,6,8.5
						c2.4,0,3.8-1.1,5.7-4.2L130.3,155.8z"/>
				</g>
			</g>
			<g>
				<defs>
					<rect id="SVGID_00000170237132668925900750000010232335990126177943_" y="39.1" width="425.2" height="174.5"/>
				</defs>
				<clipPath id="SVGID_00000090281780085482834860000016516058102813952132_">
					<use xlink:href="#SVGID_00000170237132668925900750000010232335990126177943_"  style="overflow:visible;"/>
				</clipPath>
				<g style="clip-path:url(#SVGID_00000090281780085482834860000016516058102813952132_);">
					<path d="M137.7,140.3v1.9c1.6-2.3,4.3-3.7,7.1-3.9c1.8,0,3.6,0.9,4.5,2.5c0.7,1.2,0.9,2.3,0.9,5.4v14.3h-3v-14.3
						c0.1-1.1,0-2.2-0.2-3.3c-0.4-1.3-1.6-2.2-3-2.2c-1.9,0-3.6,1-6.3,3.7v16.1h-3v-21.8h3L137.7,140.3L137.7,140.3z"/>
				</g>
			</g>
			<g>
				<defs>
					<rect id="SVGID_00000079445174501813539080000014227464948057809046_" y="39.1" width="425.2" height="174.5"/>
				</defs>
				<clipPath id="SVGID_00000111913922494420112080000002775866151652297089_">
					<use xlink:href="#SVGID_00000079445174501813539080000014227464948057809046_"  style="overflow:visible;"/>
				</clipPath>
				<g style="clip-path:url(#SVGID_00000111913922494420112080000002775866151652297089_);">
					<path d="M159.7,138.8h4.6v2.5h-4.6v13.6c0,0.9,0.2,1.8,0.4,2.7c0.4,0.8,1.2,1.2,2.1,1.1c0.8,0,1.5-0.1,2.2-0.3v2.2
						c-1,0.3-2.1,0.5-3.1,0.5c-1.6,0.2-3.1-0.6-4-1.9c-0.4-0.8-0.5-0.9-0.5-4.9v-12.9h-3.3v-2.5h3.3v-7.4h3L159.7,138.8z"/>
				</g>
			</g>
			<g>
				<defs>
					<rect id="SVGID_00000098905179767145621090000009743623323533441964_" y="39.1" width="425.2" height="174.5"/>
				</defs>
				<clipPath id="SVGID_00000004516851888820443300000005284360810101402520_">
					<use xlink:href="#SVGID_00000098905179767145621090000009743623323533441964_"  style="overflow:visible;"/>
				</clipPath>
				<g style="clip-path:url(#SVGID_00000004516851888820443300000005284360810101402520_);">
					<path d="M178.7,147.6L178.7,147.6c0-4.1-1.9-6.8-4.8-6.8c-1.9,0-3.7,1.2-4.4,2.9c-0.6,1.2-0.9,2.5-0.9,3.9H178.7z M182.3,155.8
						c-1.4,3.2-4.5,5.2-7.9,5.3c-5.5,0-9-4.5-9-11.5c0-6.8,3.4-11.2,8.6-11.2c5.1,0,7.9,4.2,7.9,11.8h-13.4c0,5.2,2.3,8.5,6,8.5
						c2.4,0,3.8-1.1,5.6-4.2L182.3,155.8z"/>
				</g>
			</g>
			<g>
				<defs>
					<rect id="SVGID_00000174579290172223483050000013491505213751153596_" y="39.1" width="425.2" height="174.5"/>
				</defs>
				<clipPath id="SVGID_00000097482863850391165450000005806734485886384792_">
					<use xlink:href="#SVGID_00000174579290172223483050000013491505213751153596_"  style="overflow:visible;"/>
				</clipPath>
				<g style="clip-path:url(#SVGID_00000097482863850391165450000005806734485886384792_);">
					<path d="M196.9,141.3c-3.5,0.1-5.5,2.1-7.3,7.1v12.2h-3v-21.8h3v5.7c0.5-1.9,1.6-3.5,3.1-4.7c1-0.9,2.3-1.4,3.7-1.3h0.5
						L196.9,141.3L196.9,141.3z"/>
				</g>
			</g>
			<g>
				<defs>
					<rect id="SVGID_00000057870943561427577390000004300455939635051151_" y="39.1" width="425.2" height="174.5"/>
				</defs>
				<clipPath id="SVGID_00000150803889088071072060000013161447417024233621_">
					<use xlink:href="#SVGID_00000057870943561427577390000004300455939635051151_"  style="overflow:visible;"/>
				</clipPath>
				<g style="clip-path:url(#SVGID_00000150803889088071072060000013161447417024233621_);">
					<rect x="61.1" y="175.5" width="3" height="30.7"/>
				</g>
			</g>
			<g>
				<defs>
					<rect id="SVGID_00000144337286902445046290000017669267746636309635_" y="39.1" width="425.2" height="174.5"/>
				</defs>
				<clipPath id="SVGID_00000062884905273805256200000016376862508411247240_">
					<use xlink:href="#SVGID_00000144337286902445046290000017669267746636309635_"  style="overflow:visible;"/>
				</clipPath>
				<g style="clip-path:url(#SVGID_00000062884905273805256200000016376862508411247240_);">
					<path d="M73.1,180.1h-3v-3.3h3V180.1z M73.1,207.7c0.2,1.4-0.1,2.9-0.8,4.2c-0.9,1.1-2.3,1.7-3.8,1.6c-0.5,0-1-0.1-1.5-0.1
						v-2.5c0.4,0.1,0.8,0.1,1.2,0.1c1.2,0,1.6-0.6,1.8-2c0-0.3,0.1-1.6,0.1-2.3v-22.5h3C73.1,184.3,73.1,207.7,73.1,207.7z"/>
				</g>
			</g>
			<g>
				<defs>
					<rect id="SVGID_00000119808185797163262890000000329981513688067738_" y="39.1" width="425.2" height="174.5"/>
				</defs>
				<clipPath id="SVGID_00000169535635524089691990000004598436336604157073_">
					<use xlink:href="#SVGID_00000119808185797163262890000000329981513688067738_"  style="overflow:visible;"/>
				</clipPath>
				<g style="clip-path:url(#SVGID_00000169535635524089691990000004598436336604157073_);">
					<path d="M94.3,206.2h-3v-3.4c-2.3,2.8-4.3,3.9-6.8,3.9c-1.9,0.1-3.8-0.8-4.8-2.5c-0.7-2-1-4.2-0.9-6.4v-13.4h3v13.4
						c0,1.1,0,2.1,0.1,3.2c0,1.7,1.4,3.1,3.1,3.2c2.1,0,3.5-0.9,6.3-3.9v-16h3V206.2z"/>
				</g>
			</g>
			<g>
				<defs>
					<rect id="SVGID_00000086668468403067339670000010874358852954670251_" y="39.1" width="425.2" height="174.5"/>
				</defs>
				<clipPath id="SVGID_00000098940115211241695540000003915707876024807080_">
					<use xlink:href="#SVGID_00000086668468403067339670000010874358852954670251_"  style="overflow:visible;"/>
				</clipPath>
				<g style="clip-path:url(#SVGID_00000098940115211241695540000003915707876024807080_);">
					<path d="M103.2,201.2L103.2,201.2c2,2.2,3.3,3,4.9,3c3.8,0,5.9-3.4,5.9-9.3c0-5.3-2-8.5-5.5-8.5c-1.9,0-2.9,0.7-5.1,2.9
						l-0.3,0.3L103.2,201.2z M103.2,186.9c2.4-3.2,7-3.9,10.2-1.5c1.3,1,2.3,2.4,2.7,4.1c0.6,1.8,0.9,3.6,0.8,5.5
						c0,7-3.3,11.7-8.3,11.7c-2.3,0-3.7-0.8-5.8-3l-0.6,2.5h-2.2v-30.7h3V186.9z"/>
				</g>
			</g>
			<g>
				<defs>
					<rect id="SVGID_00000070824932312953776330000007208888442823611318_" y="39.1" width="425.2" height="174.5"/>
				</defs>
				<clipPath id="SVGID_00000027573765699173696990000004132768068886867890_">
					<use xlink:href="#SVGID_00000070824932312953776330000007208888442823611318_"  style="overflow:visible;"/>
				</clipPath>
				<g style="clip-path:url(#SVGID_00000027573765699173696990000004132768068886867890_);">
					<rect x="121.3" y="175.5" width="3" height="30.7"/>
				</g>
			</g>
			<g>
				<defs>
					<rect id="SVGID_00000150079305130167006710000000304036489922331044_" y="39.1" width="425.2" height="174.5"/>
				</defs>
				<clipPath id="SVGID_00000107572993857017820770000009367759297755233460_">
					<use xlink:href="#SVGID_00000150079305130167006710000000304036489922331044_"  style="overflow:visible;"/>
				</clipPath>
				<g style="clip-path:url(#SVGID_00000107572993857017820770000009367759297755233460_);">
					<path d="M133.3,180.1h-3v-3.3h3L133.3,180.1z M133.3,207.7c0.2,1.4-0.1,2.9-0.8,4.2c-0.9,1.1-2.3,1.7-3.8,1.6
						c-0.5,0-1-0.1-1.5-0.1v-2.5c0.4,0.1,0.8,0.1,1.2,0.1c1.2,0,1.6-0.6,1.8-2c0-0.3,0-1.6,0-2.3v-22.5h3L133.3,207.7L133.3,207.7z"
						/>
				</g>
			</g>
			<g>
				<defs>
					<rect id="SVGID_00000053543858810675023610000005097682139672808093_" y="39.1" width="425.2" height="174.5"/>
				</defs>
				<clipPath id="SVGID_00000098900300623462738860000010647973240837769635_">
					<use xlink:href="#SVGID_00000053543858810675023610000005097682139672808093_"  style="overflow:visible;"/>
				</clipPath>
				<g style="clip-path:url(#SVGID_00000098900300623462738860000010647973240837769635_);">
					<path d="M150.4,193.9L150.4,193.9c-2.2,0.5-4.3,1.2-6.4,2.1c-2.5,1.1-3.5,2.3-3.5,4.3c-0.2,1.9,1.3,3.7,3.2,3.8
						c0.1,0,0.2,0,0.2,0c2.2,0,4.3-1.4,6.4-4.4V193.9z M138.2,188.3c1.5-2.8,4.5-4.5,7.7-4.4c2-0.1,4,0.6,5.6,1.9
						c1.4,1.3,1.9,2.9,1.9,6v8.7c0,1.9,0.2,3.9,0.6,5.8h-3.3c-0.1-1-0.2-1.4-0.3-3.5c-2.5,3-4,4-6.7,4c-3.2,0.1-5.9-2.3-6-5.5
						c0-0.2,0-0.5,0-0.7c0-3.6,1.9-5.8,6.7-7.3c1.8-0.6,2.7-0.8,6.1-1.6c0.1-1-0.1-1.9-0.4-2.9c-0.8-1.5-2.3-2.3-4-2.2
						c-2.3,0-4.5,1.3-5.4,3.5L138.2,188.3z"/>
				</g>
			</g>
			<g>
				<defs>
					<rect id="SVGID_00000034060015145101727300000007239299321521264525_" y="39.1" width="425.2" height="174.5"/>
				</defs>
				<clipPath id="SVGID_00000070828942625631196050000006525274791845153727_">
					<use xlink:href="#SVGID_00000034060015145101727300000007239299321521264525_"  style="overflow:visible;"/>
				</clipPath>
				<g style="clip-path:url(#SVGID_00000070828942625631196050000006525274791845153727_);">
					<path d="M162.2,185.9v1.9c1.7-2.3,4.3-3.7,7.1-3.9c1.8,0,3.6,0.9,4.5,2.5c0.7,1.2,0.9,2.3,0.9,5.4v14.3h-3v-14.3
						c0.1-1.1,0-2.2-0.2-3.3c-0.4-1.3-1.6-2.2-3-2.2c-1.9,0-3.6,1-6.3,3.7v16.1h-3v-21.8h3L162.2,185.9L162.2,185.9z"/>
				</g>
			</g>
			<g>
				<defs>
					<rect id="SVGID_00000157279184126502108980000009399410438433153183_" y="39.1" width="425.2" height="174.5"/>
				</defs>
				<clipPath id="SVGID_00000129202513406967256650000010080838404142651784_">
					<use xlink:href="#SVGID_00000157279184126502108980000009399410438433153183_"  style="overflow:visible;"/>
				</clipPath>
				<g style="clip-path:url(#SVGID_00000129202513406967256650000010080838404142651784_);">
					<path d="M192,193.9L192,193.9c-2.2,0.5-4.3,1.2-6.4,2.1c-2.5,1.1-3.5,2.3-3.5,4.3c-0.2,1.9,1.3,3.7,3.2,3.8c0.1,0,0.2,0,0.2,0
						c2.2,0,4.3-1.4,6.4-4.4V193.9z M179.7,188.3c1.5-2.8,4.5-4.5,7.7-4.4c2-0.1,4,0.6,5.6,1.9c1.4,1.3,1.9,2.9,1.9,6v8.7
						c0,1.9,0.2,3.9,0.6,5.8h-3.3c-0.1-1-0.2-1.4-0.3-3.5c-2.5,3-4,4-6.8,4c-3.2,0.2-5.9-2.3-6-5.5c0-0.2,0-0.5,0-0.7
						c0-3.6,1.9-5.8,6.7-7.3c2-0.7,4-1.2,6.1-1.6c0-1-0.1-1.9-0.5-2.9c-0.8-1.5-2.3-2.3-4-2.2c-2.3,0-4.5,1.3-5.4,3.5L179.7,188.3z"
						/>
				</g>
			</g>
		</g>
	</g>
</g>
<g id="Layer_5" class="st0">
	<g class="st1">
		<path d="M306.8,122.5c-0.2-1.1-0.4-2.2-0.7-3.2c-2.1-8.8-6.8-15.9-13.8-21.6c-6.9-5.6-14.8-9-23.6-10.4c-8.6-1.3-16.9-0.5-25,2.9
			c-4.6,1.9-8.7,4.8-12.5,8c-3,2.6-5.9,5.4-8.7,8.1c-0.1,0.1-0.2,0.3-0.4,0.6c-0.7-1.8-2-2.9-3.1-4.1c-4.7-5-10.1-8.9-16.4-11.4
			c-4.5-1.8-9.1-2.9-13.9-3.3c-3.7-0.3-7.5-0.4-11.2,0c-6.9,0.7-13.2,3-19,6.8c-9.2,6.2-15.2,14.7-17.8,25.5
			c-1.5,6.3-1.4,12.6,0,18.9c2.1,9.5,6.6,17.7,12.9,25.1c4.6,5.5,9.9,10.3,15.5,14.8c7.3,5.9,14.6,11.8,21.8,17.8
			c5.3,4.4,10.5,8.9,15.5,13.7c3.5,3.4,6.9,6.8,10.1,10.5c0.2,0.2,0.4,0.4,0.1,0.7c-1.9,2.3-3.8,4.8-5.5,7.3c-1-1.2-1.9-2.5-2.9-3.7
			c-6.4-8.1-13.6-15.5-21.2-22.4c-6.6-6.1-13.6-11.8-20.5-17.4c-7.5-6.1-15.1-12.1-22.4-18.4c-6.4-5.5-12.3-11.4-17.3-18.3
			c-5.7-7.9-9.7-16.6-11.4-26.3c-2.4-14,0.8-26.8,9.5-38c6.8-8.8,15.8-14.5,26.6-17.3c3.7-0.9,7.4-1.4,11.2-1.5
			c6.1-0.2,12.1,0.4,18,1.9c8.8,2.3,16.4,6.7,23,12.9c1.7,1.6,3.3,3.3,4.8,5.1c0.4,0.5,0.8,1,1,1.8c0.6-0.6,1.1-1.1,1.7-1.6
			c4.1-3.9,8.1-7.9,12.7-11.3c6.6-5,13.9-8.1,22.1-9.4c11.6-1.8,22.7-0.1,33.3,4.9c7.8,3.6,14.3,8.8,19.4,15.7
			c4.3,5.9,7,12.4,8.2,19.6c0.8,4.6,1,9.2,0.6,13.9C307.2,120.5,307,121.5,306.8,122.5C306.9,122.5,306.9,122.5,306.8,122.5z"/>
		<path d="M209.4,82.1c-0.3-1.3-1.2-2.2-2-3.2c-3.9-4.8-8.4-8.9-13.7-12.1c-4.6-2.8-9.6-4.6-14.8-5.6c-5.1-1-10.2-1.2-15.3-0.8
			c-6,0.5-11.7,2.3-17,5.2c-0.1,0.1-0.2,0.2-0.4,0.1c0.7-0.8,1.4-1.6,2.1-2.4c7.9-9,15.8-18.1,23.6-27.1c0.5-0.5,0.9-1,1.4-1.6
			c0.3-0.4,0.5-0.4,0.8,0c1.7,2,3.5,4,5.2,6c2.5,2.9,5,5.7,7.5,8.6c0.3,0.3,0.4,0.3,0.6,0c6.6-7.6,13.3-15.2,19.9-22.8
			c0.8-1,1.7-1.9,2.5-2.9c0.3-0.4,0.4-0.3,0.7,0c4.8,5.5,9.6,11.1,14.5,16.6c2.9,3.3,5.8,6.6,8.6,9.9c0.3,0.4,0.5,0.4,0.8,0
			c4.4-5.1,8.8-10.1,13.2-15.2c0.6-0.7,0.5-0.7,1.1,0c7.4,8.5,14.8,17,22.2,25.5c1.5,1.7,3,3.5,4.5,5.2c-0.2,0.2-0.3,0-0.4-0.1
			c-5.5-3.1-11.4-5.2-17.7-6c-12.7-1.6-24.3,1.2-34.4,9.3c-4.1,3.3-7.7,7-11.3,10.8C211,80.4,210.2,81.2,209.4,82.1z"/>
		<path d="M271.1,160.8c-3.8,0-7.5,0-11.2,0c-0.4,0-0.5-0.2-0.6-0.5c-1.8-3.3-3.5-6.6-5.3-9.8c-0.2-0.4-0.4-0.7-0.7-1.1
			c-0.9-1.5-2.2-2.1-3.9-2.2c-0.5,0-0.7,0.1-0.7,0.7c0,4.1,0,8.1,0,12.2c0,0.6-0.2,0.7-0.7,0.7c-3,0-6,0-9,0c-0.5,0-0.7-0.1-0.7-0.6
			c0-10.7,0-21.4,0-32.1c0-0.4,0-0.6,0.5-0.6c6.2,0,12.5,0,18.7,0.1c1.6,0,3.2,0.2,4.7,0.6c3.4,0.9,5.8,3.8,6,7.3
			c0.2,2.6-0.2,5-1.9,7.1c-1.3,1.6-2.9,2.6-4.9,3.2c-0.3,0.1-0.6,0.2-1,0.3c0.1,0.1,0.1,0.1,0.1,0.1c2.5,0.7,4,2.6,5.2,4.7
			c1.8,3.2,3.4,6.5,5,9.7C271,160.6,271.1,160.7,271.1,160.8z M248.7,137.5c0,1,0,2,0,3c0,0.3,0,0.5,0.4,0.5
			c1.9-0.1,3.8,0.2,5.6-0.2c0.9-0.2,1.9-0.3,2.6-1.1c0.8-1,0.9-2.2,0.5-3.4c-0.5-1.3-1.6-1.7-2.8-1.8c-2-0.2-3.9-0.1-5.9-0.1
			c-0.4,0-0.4,0.2-0.4,0.5C248.8,135.6,248.7,136.6,248.7,137.5z"/>
		<path d="M172.2,161.4c-2.6,0-4.8-0.2-7-0.7c-4.3-1-6.8-3.9-8.1-8c-0.2-0.8-0.3-1.6-0.5-2.3c-0.1-0.4,0-0.5,0.4-0.6
			c2.4-0.1,4.7-0.3,7.1-0.4c0.6,0,1.1-0.1,1.7-0.1c0.4,0,0.6,0,0.6,0.5c0.2,1.4,0.6,2.7,1.7,3.7c1.7,1.6,4.9,2,6.9,0.8
			c2.2-1.4,2.2-4.1,0-5.4c-0.9-0.5-1.9-0.8-2.9-1.1c-2.4-0.6-4.7-1.1-7-2c-2-0.8-3.9-1.8-5.3-3.4c-3.3-3.9-2.4-9.8,1.9-12.8
			c1.7-1.2,3.6-1.9,5.6-2.1c3.5-0.5,6.9-0.6,10.3,0.3c4.7,1.2,7.3,4,8,8.8c0.1,0.4-0.1,0.5-0.5,0.5c-2.9,0.2-5.7,0.3-8.6,0.5
			c-0.4,0-0.6-0.1-0.7-0.5c-0.8-3.1-3.7-4.6-6.7-3.5c-0.4,0.2-0.8,0.4-1.1,0.7c-1,1.1-0.8,2.5,0.5,3.3c1,0.5,2,0.7,3.1,1
			c2.9,0.7,5.8,1.3,8.6,2.5c2.6,1.1,4.7,2.6,5.8,5.3c2,4.7,0,10.5-4.6,13.1c-2,1.2-4.2,1.7-6.5,2
			C173.9,161.4,172.9,161.4,172.2,161.4z"/>
		<path d="M288.1,161.4c-2.6,0-4.9-0.2-7.1-0.8c-4.2-1.1-6.6-3.9-7.8-7.9c-0.2-0.8-0.4-1.6-0.5-2.4c-0.1-0.3-0.1-0.5,0.4-0.5
			c3-0.2,6-0.4,9-0.6c0.3,0,0.4,0.1,0.5,0.4c0.3,1.6,0.7,3.1,2.1,4.1c2,1.4,4.1,1.5,6.2,0.6c1.2-0.5,1.9-1.5,1.9-2.8
			c0-1.3-0.7-2.2-1.8-2.9c-1.2-0.7-2.5-1-3.8-1.3c-2.7-0.6-5.4-1.3-8-2.6c-2.4-1.3-4.3-3-5.1-5.8c-1-3.9,0.7-7.8,4.1-9.9
			c1.9-1.1,3.9-1.7,6.1-1.9c3.2-0.3,6.4-0.3,9.5,0.4c4.8,1.2,7.1,4.1,7.9,8.8c0.1,0.4-0.1,0.5-0.4,0.5c-2.9,0.2-5.8,0.3-8.7,0.5
			c-0.4,0-0.6-0.1-0.7-0.5c-0.8-3.2-3.7-4.7-6.8-3.5c-0.4,0.2-0.8,0.4-1.1,0.7c-1,1.1-0.8,2.5,0.5,3.3c1,0.6,2.1,0.8,3.1,1
			c2.9,0.7,5.8,1.3,8.5,2.5c2.3,1,4.3,2.3,5.5,4.5c2.4,4.5,0.8,10.5-3.6,13.5c-2.2,1.5-4.6,2.1-7.1,2.4
			C289.9,161.4,288.9,161.4,288.1,161.4z"/>
		<path d="M219.5,136.2c2.8,0,5.6,0.4,8,1.9c4,2.4,5.8,6.1,5.8,10.8c0,3.9-1.4,7.2-4.5,9.7c-1.9,1.5-4,2.3-6.3,2.6
			c-3,0.4-6.1,0.3-9-0.8c-4.7-1.7-8.2-6.2-7.8-12.2c0.3-5.1,2.8-8.8,7.6-10.8C215,136.5,217,136.2,219.5,136.2z M214.9,148.7
			c0,1,0.1,2,0.4,3.1c0.6,2,2.2,3.2,4.2,3.2c1.9,0,3.5-1.2,4-3.3c0.6-1.9,0.6-3.9,0-5.9c-0.5-2-2.2-3.4-4-3.4
			c-2.1,0-3.7,1.2-4.3,3.3C215,146.7,214.9,147.7,214.9,148.7z"/>
		<path d="M200.9,144.2c0,5.3,0,10.6,0,15.9c0,0.5-0.1,0.7-0.7,0.7c-2.7,0-5.4,0-8.1,0c-0.4,0-0.6-0.1-0.6-0.5c0-10.7,0-21.5,0-32.2
			c0-0.4,0.1-0.5,0.5-0.5c2.7,0,5.5,0,8.2,0c0.5,0,0.6,0.1,0.6,0.6C200.9,133.5,200.9,138.8,200.9,144.2z"/>
	</g>
</g>
<g id="Layer_6">
	<g>
		<path d="M231.5,87.4c0.9,0.9,1.7,1.8,2.6,2.8c4.5,5.1,4.4,12.2-0.3,16.8c-4.6,4.4-11.6,4.5-16.6,0c-0.9-0.8-1.9-1.7-2.8-2.6
			c-0.6-1-1.5-1.8-2.5-2.4c-3.8-4.2-7.8-8.2-12-12.1c-0.6-1-1.4-1.8-2.4-2.4c-5.9-6-11.8-12-17.7-18c-6.3-6.4-6.4-12.7-0.1-19
			c5.9-5.9,11.9-11.7,17.8-17.5c5.8,5.3,11.5,10.8,16.9,16.5c-8.8,6.8-6.9,16.7,0,21.3c0.6,1,1.5,1.8,2.5,2.4
			c3.8,4.1,7.8,8,12.1,11.7C229.8,85.8,230.6,86.6,231.5,87.4z"/>
		<path d="M294.9,128.4c14.6,0,25.5,4.4,33.8,14.4c1.2,1.4,2.2,2.9,2.8,4.5c0.8,2.1,0.3,3.7-1.6,4.9c-1.9,1.1-3.6,1.1-5.1-0.6
			c-0.4-0.5-0.9-0.9-1.2-1.5c-11.5-16.8-39.1-17.5-53.1-2c-14.3,15.9-6.1,42.3,15.3,48c13.6,3.6,28.2,0.9,37.9-12.3
			c0.9-1.3,1.9-2.5,3-3.7c1.3-1.5,2.8-2.1,4.8-1.1c2,1,2.5,2.7,2.2,4.8c-0.4,2-1.4,3.7-2.7,5.3c-10.9,14.2-25.6,18.5-42.7,16.7
			c-15.2-1.6-29.5-14.1-33.2-28.9c-5.2-21,7.6-41.8,29.3-47.2C288.4,128.9,292.5,128.3,294.9,128.4z"/>
		<path d="M189.1,166.9c0-11.1,0-22.2,0-33.3c0-4.1,1.2-5.6,4.3-5.7c3.3-0.1,5,1.8,5,5.8c0.1,6.1,0,12.3,0,18.4
			c0.1,8.2,6.9,12,14.2,7.9c1.3-0.7,2.4-1.7,3.5-2.7c8.7-8.1,17.4-16.3,26.2-24.5c0.8-0.8,1.7-1.6,2.7-2.1c1.3-0.6,2.7-0.4,3.7,0.8
			c1,1.2,1,2.5,0.1,3.8c-0.7,0.9-1.5,1.8-2.4,2.5c-6.5,5.7-12.9,11.6-18.9,17.8c-5.7,5.9-5.9,9.6-0.8,16c6,7.5,12.2,14.8,18.4,22.2
			c0.9,1.1,1.9,2.2,2.8,3.4c2,2.8,1.8,5-0.6,6.9c-2.3,1.8-4.5,1.5-6.6-1.1c-2.2-2.6-4.2-5.3-6.4-7.9c-5.1-6.2-10.2-12.4-15.4-18.5
			c-2.5-2.9-5.4-5-9.6-4.6c-6.5,0.6-10.3,4.7-10.6,12c-0.2,5.4-0.1,10.8-0.1,16.2c0,2.7-0.9,4.7-3.8,5.3c-3.6,0.7-5.6-0.7-5.6-4.4
			C189.1,189.8,189.1,178.3,189.1,166.9z"/>
		<path d="M172.7,155c-0.3,7.3,0.6,15.4-0.5,23.4c-2.1,14.5-10,23-24.3,25.9c-9.7,2-19.4,1.5-28.8-1.6
			c-12.8-4.3-20.4-14.7-20.6-28.5c-0.2-13.5-0.1-27-0.1-40.6c0-2.1,0.4-4,2.5-5.1c3.6-1.9,6.9,0.2,7,4.6c0.1,11.1,0,22.2,0,33.3
			c0,3.4-0.2,6.8,0.3,10.1c1.4,9.6,7.4,15.4,16.5,18c8.5,2.4,17.2,2.2,25.7-0.1c9.7-2.6,15.1-9.5,15.3-19.6
			c0.2-13.2,0.1-26.4,0.1-39.6c0-1.7,0-3.4,0.5-5c0.4-1.6,1.5-2.2,3-2.3c1.6-0.1,2.5,0.8,3,2.3c0.5,1.3,0.4,2.7,0.4,4.1
			C172.7,140.8,172.7,147.6,172.7,155z"/>
		<path d="M216.9,73.3c-1-0.6-1.9-1.4-2.5-2.4c7.8-8.2,7.8-14.4,0-21.3c-5.4-5.7-11.1-11.2-16.9-16.5c-3.4-3.1-6.4-6.5-6.2-11.6
			c0.3-4.7,2.5-8.2,6.8-10.3c4.4-2.1,8.6-1.5,12.5,1.5c1.3,1,2.5,2.3,3.7,3.4c5.4,5.8,10.9,11.4,16.8,16.7
			c6.1,6.1,12.1,12.3,18.2,18.4c5.8,5.9,5.8,12.4,0,18.3c-5.9,6-11.9,11.9-17.8,17.9c-0.8-0.8-1.7-1.6-2.5-2.4
			c5.8-5.8,11.7-11.6,17.5-17.5c5.1-5.1,5.1-9.3-0.1-14.4c-11.9-11.9-23.8-23.8-35.7-35.7c-1-1-2-1.9-3.1-2.7
			c-4.8-3-11.3-0.4-12.6,5.1c-0.8,3.5,0.4,6.4,3,8.9c6.9,6.6,13.7,13.2,20.5,19.9c6.9,6.8,6.9,15.9,0.2,22.8
			C218,72,217.5,72.7,216.9,73.3z"/>
		<path d="M132.9,230.3c0,4,0,8,0,12.1c0,0.9,0.2,2.2-1.1,2.3c-1.5,0.1-1.5-1.3-1.6-2.3c-0.1-5.5-0.1-11-0.1-16.5
			c0-1.4,0.3-3-1.5-3.3c-1.6-0.3-2,1.2-2.6,2.3c-2.4,5.2-4.7,10.4-7.1,15.5c-0.5,1.2-1.1,2.4-2.6,2.5c-1.5,0.1-2.2-1.1-2.8-2.3
			c-2.5-5.2-5-10.5-7.5-15.7c-0.5-1.1-0.9-2.7-2.5-2.3c-1.7,0.4-1.3,2-1.3,3.2c0,5.2,0,10.4-0.1,15.5c0,1.5,0.1,3.3-2,3.3
			c-2.2,0-1.8-2-1.8-3.4c0-7.6,0-15.2,0-22.8c0-2.1,0.5-4.2,2.8-4.8c2.5-0.7,4.1,0.8,5,2.9c2.7,5.5,5.2,11.1,7.8,16.6
			c0.5,1.1,0.8,2.6,2.5,2.5c1.6,0,2-1.4,2.5-2.5c2.5-5.5,5-10.9,7.5-16.4c0.8-1.6,1.5-3.5,3.8-3.1c2.3,0.4,2.4,2.5,2.4,4.3
			C133,222.1,133,226.2,132.9,230.3C133,230.3,133,230.3,132.9,230.3z"/>
		<path d="M230.6,229.4c0-3.8-0.1-7.6,0-11.4c0.1-3.2,1.3-4.4,4.5-4.4c4.4,0,8.9,0,13.3,0c3.3,0,6.1,1.2,7.7,4.2
			c1.6,3,1.3,6-0.8,8.6c-1,1.2-0.7,1.9,0.3,2.9c2.9,2.8,3.6,6.2,2.1,9.9c-1.6,3.7-4.7,5.4-8.6,5.4c-4.9,0.1-9.7,0-14.6,0.1
			c-2.7,0.1-3.9-1.3-3.9-3.8C230.5,237,230.6,233.2,230.6,229.4z M243.8,240.8C243.8,240.9,243.8,240.9,243.8,240.8
			c2.2,0,4.4,0.1,6.6-0.3c2.1-0.3,3.8-1.4,4.1-3.8c0.4-2.5-0.3-4.6-2.6-6c-1.6-1-3.3-1.4-5.1-1.4c-2.2,0-4.4,0-6.6,0
			c-4.1,0-5.9,1.8-5.9,6c0,3.9,1.5,5.3,5.7,5.4C241.2,240.8,242.5,240.8,243.8,240.8z M243.6,226.7c0-0.1,0-0.1,0-0.2
			c1.8,0,3.6,0.1,5.4,0c2.3-0.2,4.3-1.1,4.9-3.7c0.9-3.4-0.7-5.9-4.7-6.4c-3.7-0.4-7.6-0.2-11.3-0.3c-1.3,0-2.2,0.7-2.8,1.8
			c-2.4,4.4,0,8.6,5,8.7C241.3,226.7,242.5,226.7,243.6,226.7z"/>
		<path d="M190.8,213.7c2.4,0,4.9-0.2,7.3,0c3.7,0.4,6.8,2,7.9,5.9c1,3.6,0.2,6.9-3.1,9.3c-1.6,1.1-2,2.6-1.3,4.4
			c1,2.5,1.9,5.1,2.8,7.7c0.4,1.1,1.4,2.5-0.4,3.2c-1.8,0.7-2.8-0.4-3.4-2c-1-2.7-2.1-5.3-3-8c-0.9-2.6-2.6-3.7-5.3-3.6
			c-1.4,0.1-2.8,0-4.1,0c-3,0.2-4.6,1.8-4.8,4.8c-0.1,2.1,0,4.2-0.1,6.3c0,1.3-0.5,2.4-2,2.3c-1.3-0.1-1.7-1.1-1.7-2.2
			c0-8.1-0.1-16.3,0-24.4c0-2.5,1.7-3.8,4.1-3.9C186.2,213.5,188.5,213.6,190.8,213.7C190.8,213.6,190.8,213.6,190.8,213.7z
			 M192.7,228.1c1.9-0.1,4.4,0.2,6.7-0.5c2.8-0.9,4.5-2.7,4.3-5.8c-0.2-3-2-4.4-4.7-5.1c-3-0.7-6.1-0.4-9.1-0.4
			c-4.7,0-6.5,1.8-6.4,6.1c0,4.5,1.3,5.7,6.2,5.7C190.5,228.1,191.4,228.1,192.7,228.1z"/>
		<path d="M307.2,229.4c0-3.7,0-7.4,0-11.1c0-3.2,1.4-4.7,4.6-4.7c4.3-0.1,8.7-0.1,13,0.1c3.8,0.2,7,1.6,8.5,5.5
			c1.4,3.5,0.4,6.7-3.1,9.8c-1.3,1.2-1.8,2.5-1.2,4.2c1,2.6,1.9,5.1,2.8,7.7c0.4,1.2,1.6,2.7-0.5,3.4c-1.8,0.6-2.7-0.6-3.3-2.2
			c-1-2.7-2.1-5.3-3-8c-0.8-2.5-2.5-3.5-5-3.4c-1.4,0-2.7,0-4.1,0c-3.2,0.1-4.8,1.8-4.9,5c-0.1,2,0,4-0.1,6c0,1.3-0.4,2.4-1.9,2.4
			c-1.6,0-1.9-1.1-1.9-2.4C307.2,237.6,307.2,233.5,307.2,229.4z M320,228.1c2.1-0.1,4.5,0.2,6.9-0.5c2.8-0.9,4.5-2.7,4.4-5.7
			c-0.1-3-1.9-4.5-4.7-5.2c-3.7-0.9-7.5-0.5-11.3-0.3c-1.9,0.1-3.3,1.3-4,3.1c-1.9,5,0.5,8.6,5.8,8.6
			C318,228.1,318.8,228.1,320,228.1z"/>
		<path d="M231.1,32.8c-5.8-5.3-11.4-11-16.8-16.7c3.1-3.7,6.7-6.5,11.9-6c4.8,0.5,8.3,3,10,7.5c1.8,4.5,0.9,8.7-2.2,12.3
			C233.1,31,232.1,31.9,231.1,32.8z"/>
		<path d="M172.6,242.4c0.1,1.2-0.4,1.8-1.1,2.1c-0.8,0.3-1.5,0.1-2-0.6c-0.8-1.2-1.5-2.5-2.1-3.9c-1.1-2.5-3-3.6-5.7-3.6
			c-3.1,0.1-6.1,0.1-9.2,0c-3.3-0.2-5.4,1-6.7,4.1c-0.7,1.6-1.2,4.8-3.8,3.6c-2.7-1.3-0.3-3.6,0.4-5.1c3.4-7.3,7-14.4,10.5-21.6
			c0.8-1.7,1.7-3.7,4-3.6c2.1,0.1,2.7,2.1,3.5,3.7c3.7,7.5,7.5,15.1,11.2,22.7C172,241,172.3,241.9,172.6,242.4z M157,232.8
			c1.1,0,2.1,0,3.2,0c3-0.1,3.9-1.3,2.8-4c-1-2.4-2.2-4.8-3.5-7.1c-1.5-2.7-2.9-2.7-4.5,0c-0.8,1.4-1.4,2.8-2.1,4.2
			C149.6,232.8,149.6,232.8,157,232.8z"/>
		<path d="M298.9,229.1c0.1,8.5-7.5,15.4-16.7,15.4c-9,0-16.2-6.7-16.2-15.1c-0.1-8.6,6.9-15.2,16-15.3
			C291.3,214,298.8,220.6,298.9,229.1z M282.2,242c7.8,0,14.1-5.8,14-12.9c-0.1-7-6.3-12.6-14-12.6c-7.7,0-13.7,5.6-13.6,12.8
			C268.8,236.5,274.7,242,282.2,242z"/>
		<path d="M212,102c1,0.6,1.9,1.4,2.5,2.4c-2.5,2.5-4.9,5-8.6,5.7c-5,1-9.9-1.2-12.5-5.5c-2.7-4.4-2.3-9.9,1.1-13.9
			c0.9-1.1,2.1-2.1,3.1-3.2c1,0.6,1.8,1.3,2.4,2.4c-0.9,0.9-1.8,1.8-2.6,2.7c-3.1,3.5-3.1,8.1-0.1,11.4c3.1,3.4,7.8,3.9,11.6,1
			C209.9,104.2,210.9,103.1,212,102z"/>
		<path d="M215.7,228.8c0-4.1,0-8.2,0-12.4c0-1.4-0.2-3,1.9-3c1.7,0,1.9,1.5,1.9,2.8c0,8.6,0,17.1,0,25.7c0,1.3-0.3,2.7-2,2.7
			c-1.8,0-1.8-1.5-1.8-2.8C215.7,237.5,215.7,233.1,215.7,228.8z"/>
	</g>
</g>
</svg>
