<svg id="visual" viewBox="0 0 900 600" width="900" height="600" xmlns="http://www.w3.org/2000/svg" xmlns:xlink="http://www.w3.org/1999/xlink" version="1.1"><rect x="0" y="0" width="900" height="600" fill="#fafdff"></rect><path d="M0 194L25 183C50 172 100 150 150 141.5C200 133 250 138 300 146.5C350 155 400 167 450 176.8C500 186.7 550 194.3 600 184.5C650 174.7 700 147.3 750 150.5C800 153.7 850 187.3 875 204.2L900 221L900 0L875 0C850 0 800 0 750 0C700 0 650 0 600 0C550 0 500 0 450 0C400 0 350 0 300 0C250 0 200 0 150 0C100 0 50 0 25 0L0 0Z" fill="#cbc5f3"></path><path d="M0 156L25 151.7C50 147.3 100 138.7 150 134.7C200 130.7 250 131.3 300 130.5C350 129.7 400 127.3 450 124.7C500 122 550 119 600 123.3C650 127.7 700 139.3 750 133.8C800 128.3 850 105.7 875 94.3L900 83L900 0L875 0C850 0 800 0 750 0C700 0 650 0 600 0C550 0 500 0 450 0C400 0 350 0 300 0C250 0 200 0 150 0C100 0 50 0 25 0L0 0Z" fill="#d2c9ef"></path><path d="M0 90L25 87.7C50 85.3 100 80.7 150 77.2C200 73.7 250 71.3 300 72.3C350 73.3 400 77.7 450 80C500 82.3 550 82.7 600 80.2C650 77.7 700 72.3 750 75.2C800 78 850 89 875 94.5L900 100L900 0L875 0C850 0 800 0 750 0C700 0 650 0 600 0C550 0 500 0 450 0C400 0 350 0 300 0C250 0 200 0 150 0C100 0 50 0 25 0L0 0Z" fill="#d8ceeb"></path><path d="M0 107L25 95.8C50 84.7 100 62.3 150 61.5C200 60.7 250 81.3 300 85.7C350 90 400 78 450 72.7C500 67.3 550 68.7 600 72.3C650 76 700 82 750 77.7C800 73.3 850 58.7 875 51.3L900 44L900 0L875 0C850 0 800 0 750 0C700 0 650 0 600 0C550 0 500 0 450 0C400 0 350 0 300 0C250 0 200 0 150 0C100 0 50 0 25 0L0 0Z" fill="#dcd3e7"></path><path d="M0 28L25 25.3C50 22.7 100 17.3 150 16.7C200 16 250 20 300 24C350 28 400 32 450 34.3C500 36.7 550 37.3 600 39.3C650 41.3 700 44.7 750 43.5C800 42.3 850 36.7 875 33.8L900 31L900 0L875 0C850 0 800 0 750 0C700 0 650 0 600 0C550 0 500 0 450 0C400 0 350 0 300 0C250 0 200 0 150 0C100 0 50 0 25 0L0 0Z" fill="#dfd9e4"></path></svg>