<svg xmlns="http://www.w3.org/2000/svg" version="1.1" xmlns:xlink="http://www.w3.org/1999/xlink" xmlns:svgjs="http://svgjs.com/svgjs" preserveAspectRatio="none" viewBox="0 0 1440 560">
    <g mask="url(&quot;#SvgjsMask1021&quot;)" fill="none">
        <rect width="1440" height="560" x="0" y="0" fill="rgba(223, 217, 228, 1)"></rect>
        <path d="M0,528.948C97.692,519.11,176.041,455.236,261.551,406.981C352.797,355.489,458.914,323.069,518.067,236.593C581.964,143.182,617.972,25.446,598.839,-86.1C579.878,-196.643,491.836,-277.85,415.7,-360.206C341.831,-440.111,263.682,-514.388,163.54,-556.966C54.481,-603.335,-73.656,-665.529,-180.153,-613.545C-288.112,-560.847,-297.747,-412.278,-352.227,-305.207C-392.635,-225.792,-437.118,-152.394,-458.777,-65.962C-482.608,29.138,-512.647,127.291,-484.11,221.086C-453.845,320.562,-385.487,407.508,-297.748,463.305C-210.215,518.971,-103.212,539.342,0,528.948" fill="#d4ccdb"></path>
        <path d="M1440 1094.471C1555.541 1097.219 1680.302 1147.56 1779.647 1088.501 1879.375 1029.214 1925.8600000000001 906.002 1948.454 792.203 1968.484 691.321 1916.537 595.302 1897.643 494.201 1879.717 398.28 1887.693 298.455 1840.245 213.185 1785.949 115.608 1718.487 7.828999999999951 1610.723-21.42999999999995 1503.136-50.64099999999996 1396.846 20.462999999999965 1294.671 65.055 1204.128 104.57100000000003 1105.7939999999999 140.716 1050.939 222.877 998.3489999999999 301.645 1010.6800000000001 402.994 1005.8910000000001 497.584 1001.539 583.533 1008.842 665.196 1024.257 749.863 1044.616 861.684 1023.073 1000.056 1110.579 1072.589 1197.057 1144.27 1327.708 1091.8 1440 1094.471" fill="#eae6ed"></path>
    </g>
    <defs>
        <mask id="SvgjsMask1021">
            <rect width="1440" height="560" fill="#ffffff"></rect>
        </mask>
    </defs>
</svg>