<svg xmlns="http://www.w3.org/2000/svg" version="1.1" xmlns:xlink="http://www.w3.org/1999/xlink" xmlns:svgjs="http://svgjs.com/svgjs" preserveAspectRatio="none" viewBox="0 0 1440 560">
    <g mask="url(&quot;#SvgjsMask1010&quot;)" fill="none">
        <rect width="1440" height="560" x="0" y="0" fill="rgba(84, 72, 137, 1)"></rect>
        <path d="M1440 0L1282.34 0L1440 26.56z" fill="rgba(255, 255, 255, .1)"></path>
        <path d="M1282.34 0L1440 26.56L1440 272.46L1205 0z" fill="rgba(255, 255, 255, .075)"></path>
        <path d="M1205 0L1440 272.46L1440 283.29999999999995L818.9300000000001 0z" fill="rgba(255, 255, 255, .05)"></path>
        <path d="M818.9300000000001 0L1440 283.29999999999995L1440 342.9L322.71000000000004 0z" fill="rgba(255, 255, 255, .025)"></path>
        <path d="M0 560L580.89 560L0 412.15z" fill="rgba(0, 0, 0, .1)"></path>
        <path d="M0 412.15L580.89 560L622.35 560L0 238.68999999999997z" fill="rgba(0, 0, 0, .075)"></path>
        <path d="M0 238.69L622.35 560L916.51 560L0 133.66z" fill="rgba(0, 0, 0, .05)"></path>
        <path d="M0 133.65999999999997L916.51 560L945.18 560L0 62.77999999999997z" fill="rgba(0, 0, 0, .025)"></path>
    </g>
    <defs>
        <mask id="SvgjsMask1010">
            <rect width="1440" height="560" fill="#ffffff"></rect>
        </mask>
    </defs>
</svg>