<svg id="visual" viewBox="0 0 900 600"  xmlns="http://www.w3.org/2000/svg" xmlns:xlink="http://www.w3.org/1999/xlink" version="1.1"><rect x="0" y="0" width="900" height="600" fill="#fafdff"></rect><path d="M0 182L30 208C60 234 120 286 180 332.2C240 378.3 300 418.7 360 420.5C420 422.3 480 385.7 540 354.3C600 323 660 297 720 297.2C780 297.3 840 323.7 870 336.8L900 350L900 601L870 601C840 601 780 601 720 601C660 601 600 601 540 601C480 601 420 601 360 601C300 601 240 601 180 601C120 601 60 601 30 601L0 601Z" fill="#cbc5f3" stroke-linecap="round" stroke-linejoin="miter"></path></svg>