<?xml version="1.0" encoding="utf-8"?>
<!-- Generator: Adobe Illustrator 26.0.2, SVG Export Plug-In . SVG Version: 6.00 Build 0)  -->
<svg version="1.1" xmlns="http://www.w3.org/2000/svg" xmlns:xlink="http://www.w3.org/1999/xlink" x="0px" y="0px"
	 viewBox="0 0 425.2 252.7" xml:space="preserve">

<g id="Layer_2">
	<path  d="M127.7,95.9v83.7H1.3V95.9H127.7 M129,94.7H0v86.2h129V94.7z"/>
	<polygon  points="61.7,113.5 64.5,111.5 67.2,113.5 66.2,110.2 68.9,108.3 65.5,108.3 64.5,105 63.4,108.3 60,108.3 
		62.8,110.2 	"/>
	<polygon  points="47.6,117.3 50.4,115.3 53.1,117.3 52.1,114 54.8,112.1 51.4,112.1 50.4,108.8 49.3,112.1 45.9,112.1 
		48.7,114 	"/>
	<polygon  points="40,119.1 39,122.4 35.6,122.4 38.4,124.4 37.3,127.6 40,125.6 42.8,127.6 41.7,124.4 44.5,122.4 
		41.1,122.4 	"/>
	<polygon  points="36.3,139.8 39,141.7 37.9,138.5 40.7,136.5 37.3,136.5 36.3,133.3 35.2,136.5 31.8,136.5 34.6,138.5 
		33.5,141.7 	"/>
	<polygon  points="41.1,150.7 40,147.4 39,150.7 35.6,150.7 38.4,152.7 37.3,155.9 40,153.9 42.8,155.9 41.7,152.7 
		44.5,150.7 	"/>
	<polygon  points="51.4,161 50.4,157.8 49.4,161.1 45.9,161 48.7,163 47.7,166.3 50.4,164.3 53.1,166.3 52.1,163 
		54.8,161 	"/>
	<polygon  points="65.5,164.8 64.5,161.5 63.4,164.8 60,164.8 62.8,166.8 61.7,170 64.5,168 67.2,170 66.2,166.8 
		68.9,164.8 	"/>
	<polygon  points="79.6,161 78.5,157.8 77.5,161.1 74.1,161 76.9,163 75.8,166.3 78.5,164.3 81.3,166.3 80.2,163 83,161 
			"/>
	<polygon  points="89.9,150.7 88.9,147.4 87.8,150.7 84.4,150.7 87.2,152.7 86.2,155.9 88.9,153.9 91.6,155.9 
		90.6,152.7 93.3,150.7 	"/>
	<polygon  points="97.1,136.5 93.6,136.5 92.6,133.2 91.6,136.5 88.2,136.5 90.9,138.5 89.9,141.7 92.6,139.7 
		95.3,141.7 94.3,138.5 	"/>
	<polygon  points="86.2,127.6 88.9,125.6 91.6,127.6 90.6,124.4 93.3,122.4 89.9,122.4 88.9,119.1 87.8,122.4 
		84.4,122.4 87.2,124.4 	"/>
	<polygon  points="78.6,108.8 77.5,112.1 74.1,112.1 76.9,114 75.9,117.3 78.6,115.3 81.3,117.3 80.3,114 83,112.1 
		79.6,112.1 	"/>
	<path  d="M113.9,34.8c10.9,18.8,13.3,39.3,6.5,55h-17.6c6.5-7.8,8.1-19.4,4.5-32.3c-2.4-8.3-6.4-16-11.7-22.8h18.2
		 M57.1,34.7c-2,6.7-0.2,14,4.7,18.9l35.9,36h-45l10.9-10.9l0.9-0.9l-0.9-0.9L51,64.4l-0.9-0.9l-0.9,0.9L24.3,89.7l0,0H1.3V41
		c2.5-2.5,5.4-4.5,8.6-6.1h47.3 M12.6,79.9l0.9-0.9l25.1-25.2l0.9-0.9L38.6,52c-7.4-7.5-19.5-7.5-26.9-0.1s-7.5,19.5-0.1,27l0.9,0.9
		 M114.5,33.6H93.1c6,7.1,10.4,15.4,13.1,24.3c3.6,12.9,1.9,25-5.8,32.7L62.7,52.9c-5-5.1-6.6-12.7-3.8-19.3H9.5
		c-3.5,1.7-6.7,4-9.5,6.8v0.1v50.7h25.6l-0.5-0.5l25.1-25.1L63,78.2l-13.2,13h71.5C128.6,74.8,126.1,53.1,114.5,33.6L114.5,33.6z
		 M12.5,78.1c-6.9-6.9-6.9-18.2,0-25.1s18.2-6.9,25.1,0L12.5,78.1z"/>
	<path  d="M127.2,185.8c0.8,9.7-2.6,19.2-9.2,26.2H93.4L69,187.5l-0.9-0.9l-0.8,0.9l-12.6,12.7l-0.9,0.9l0.9,0.9
		l10.1,10.1H21.3l26.2-26.2h41.3l16.1,16.1l0.9,0.9l0.9-0.9c4.2-4.2,6.2-10.2,5.4-16.1h15.2 M128.3,184.7h-18
		c1.4,5.9-0.4,12.2-4.7,16.5l-16.5-16.5H47l-28.7,28.8h49.4l-12.2-12.3l12.5-12.6l24.8,24.8h25.7c7.4-7.6,11-18.2,9.9-28.8H128.3z"
		/>
	<path  d="M333.4,176.1c-0.1,0.5-0.4,1-0.8,1.5c-0.3,0.4-0.8,0.7-1.3,0.9c-0.6,0.2-1.3,0.3-1.9,0.3H328v-9.3h1.4
		c0.7,0,1.4,0.1,2,0.3c0.5,0.2,0.9,0.5,1.3,1c0.3,0.4,0.6,0.9,0.7,1.4c0.2,0.6,0.2,1.2,0.2,1.8C333.7,174.7,333.6,175.4,333.4,176.1
		 M336,171c-0.6-1.6-1.8-2.8-3.4-3.3c-1-0.3-2-0.5-3.1-0.4H326c-0.2,0-0.4,0.1-0.6,0.2c-0.2,0.2-0.3,0.4-0.2,0.7V180
		c-0.1,0.4,0.2,0.8,0.6,0.9c0.1,0,0.1,0,0.2,0h3.3c1,0,2.1-0.1,3.1-0.4c0.8-0.2,1.6-0.7,2.2-1.2c0.6-0.6,1.1-1.4,1.4-2.2
		c0.3-1,0.5-2.1,0.5-3.2C336.5,172.9,336.4,171.9,336,171 M315.8,175.7h-3.9l1.9-5.8l0,0L315.8,175.7z M315.8,167.8
		c0-0.1-0.1-0.2-0.2-0.3c-0.1-0.1-0.2-0.1-0.3-0.2h-0.6h-1.8h-0.5c-0.1,0-0.2,0.1-0.3,0.2c-0.1,0.1-0.1,0.2-0.1,0.3l-4.1,12.2
		c-0.1,0.2-0.1,0.4-0.2,0.6c-0.1,0.1-0.1,0.2,0,0.4c0.1,0.1,0.2,0.2,0.4,0.2h1.5h0.4l0.2-0.2c0-0.1,0-0.2,0-0.3l0.9-2.7h5.1l0.9,2.7
		c0,0.1,0,0.2,0,0.2h0.2h0.5h1.6c0.1,0,0.3-0.1,0.4-0.2c0.1-0.1,0.1-0.2,0-0.3c0.1-0.2,0.3-0.3,0.4-0.5L315.8,167.8z M304,179.2
		c0-0.1,0-0.2,0-0.4c0-0.1-0.1-0.1-0.2-0.2c-0.1,0-0.1,0-0.2,0h-4.3v-11c0-0.1,0-0.1,0-0.2c0,0,0,0-0.2-0.2h-0.4h-1.3H297
		c-0.1,0-0.2,0.1-0.2,0.2c0,0.1,0,0.1,0,0.2v12.4c0,0.2,0.1,0.5,0.2,0.7c0.2,0.1,0.4,0.2,0.6,0.2h6.2h0.2l0.2-0.2v-0.4
		c0-0.2,0-0.3,0-0.5c0-0.2,0-0.4,0-0.5 M291.5,180.4l-0.3-0.6l-4.1-6.1l3.7-4.9c0.1-0.2,0.3-0.4,0.4-0.6c0-0.1,0-0.2,0-0.4
		c0-0.1,0-0.1,0-0.2c-0.1-0.1-0.1-0.1-0.2-0.1h-0.4h-1.4h-0.5l-0.3,0.2c-0.1,0.1-0.1,0.1-0.2,0.2l-4,5.8v-5.8c0-0.1,0-0.1,0-0.2
		c-0.1-0.1-0.1-0.1-0.2-0.2h-0.4h-1.4h-0.4c-0.1,0-0.2,0.1-0.2,0.2c0,0.1,0,0.1,0,0.2v12.8c0,0.1,0,0.1,0,0.2
		c0.1,0.1,0.1,0.1,0.2,0.2c0.1,0,0.3,0,0.4,0h1.3h0.4c0.1,0,0.2-0.1,0.2-0.2c0-0.1,0-0.1,0-0.2v-6.6l4.1,6.5
		c0.1,0.1,0.1,0.2,0.2,0.3l0.4,0.2h1h0.7c0.1,0,0.3,0,0.4,0c0.1,0,0.2-0.1,0.2-0.2c0-0.1,0-0.1,0-0.2c0-0.1,0-0.2,0-0.2
		 M275.9,175.5c-0.1-0.4-0.4-0.7-0.7-1c-0.3-0.3-0.6-0.6-0.9-0.8c-0.3-0.2-0.7-0.4-1.1-0.6l-1.1-0.5l-1-0.5
		c-0.2-0.2-0.5-0.4-0.7-0.6c-0.2-0.2-0.2-0.5-0.2-0.8c0-0.2,0-0.4,0-0.6c0.1-0.2,0.2-0.4,0.3-0.5c0.2-0.1,0.4-0.2,0.6-0.3
		c0.3,0,0.5,0,0.8,0c0.4,0,0.7,0,1.1,0c0.3,0.1,0.6,0.2,0.9,0.3c0.2,0.1,0.4,0.2,0.6,0.3h0.4h0.2c0-0.1,0.1-0.1,0.1-0.2
		c0,0,0-0.2,0-0.4v-1c0-0.1,0-0.2,0-0.3c0-0.1,0-0.1,0-0.2l-0.2-0.2c-0.1-0.1-0.3-0.2-0.4-0.3l-0.7-0.3l-0.9-0.2c-0.3,0-0.6,0-1,0
		c-0.6,0-1.2,0.1-1.8,0.2c-0.5,0.2-1,0.4-1.4,0.7c-0.4,0.3-0.8,0.8-1,1.2c-0.3,0.5-0.4,1.1-0.4,1.7c0,0.5,0.1,1,0.3,1.4
		c0.1,0.4,0.4,0.8,0.7,1.1c0.3,0.3,0.6,0.6,0.9,0.8c0.3,0.2,0.7,0.4,1.1,0.6l1.1,0.5c0.3,0.1,0.6,0.3,0.9,0.5
		c0.3,0.2,0.5,0.4,0.7,0.6c0.2,0.2,0.3,0.5,0.3,0.8c0,0.3,0,0.5-0.2,0.7c-0.1,0.2-0.2,0.4-0.4,0.6c-0.2,0.1-0.4,0.3-0.7,0.3
		c-0.3,0.1-0.6,0.1-0.9,0.1c-0.5,0-0.9,0-1.3-0.2l-1-0.4l-0.7-0.4c-0.1-0.1-0.3-0.2-0.4-0.2h-0.2c-0.1,0.1-0.1,0.1-0.1,0.2
		c0,0.1,0,0.2,0,0.4v0.5c0,0.3,0,0.5,0,0.8c0,0.1,0.1,0.3,0.2,0.4c0.1,0.1,0.3,0.2,0.4,0.3c0.3,0.1,0.5,0.2,0.8,0.3
		c0.3,0.1,0.7,0.2,1.1,0.3c1.1,0.2,2.2,0.2,3.3-0.2c0.6-0.2,1.1-0.4,1.6-0.8c0.5-0.4,0.8-0.8,1.1-1.3c0.3-0.6,0.4-1.2,0.4-1.9
		C276.1,176.4,276,175.9,275.9,175.5 M253.8,167.7c0-0.1,0-0.1,0-0.2c-0.1-0.1-0.1-0.1-0.2-0.2h-0.4h-1.2h-0.4
		c-0.1,0-0.2,0.1-0.2,0.2c0,0.1,0,0.1,0,0.2v12.9c0,0.1,0,0.1,0,0.2c0.1,0.1,0.1,0.1,0.2,0.1h0.4h1.3c0.1,0,0.3,0,0.4,0
		c0.1,0,0.2-0.1,0.2-0.1c0-0.1,0-0.1,0-0.2L253.8,167.7z M244.8,167.7c0-0.1,0-0.1,0-0.2c0-0.1-0.1-0.1-0.2-0.2c-0.1,0-0.2,0-0.4,0
		h-1.2c-0.1,0-0.3,0-0.4,0c-0.1,0-0.2,0.1-0.2,0.2c0,0.1,0,0.1,0,0.2v6.4c0,0.5,0,1,0,1.5s0,1,0,1.5l0,0l-0.4-0.8
		c0-0.3-0.3-0.6-0.4-0.9l-0.4-0.9l-0.5-0.9l-2.7-5.1c-0.1-0.2-0.2-0.5-0.4-0.7c-0.1-0.2-0.3-0.3-0.4-0.4c-0.2-0.1-0.3-0.2-0.5-0.2
		c-0.2,0-0.4,0-0.7,0h-1.5c-0.3,0-0.5,0.1-0.7,0.3c-0.2,0.2-0.3,0.5-0.3,0.7v12.2c0,0.1,0,0.1,0,0.2c0,0.1,0.1,0.1,0.2,0.2h0.4h1.2
		h0.4c0.1,0,0.2-0.1,0.2-0.2c0-0.1,0-0.1,0-0.2v-7.1c0-0.5,0-1,0-1.5s0-1,0-1.5l0,0c0.2,0.4,0.3,0.8,0.5,1.3s0.4,0.8,0.6,1.2
		l3.4,6.4l0.5,0.9c0.1,0.2,0.3,0.4,0.4,0.5c0.1,0.1,0.3,0.2,0.5,0.3c0.2,0,0.4,0,0.6,0h1.2h0.4c0.1,0,0.2-0.1,0.3-0.2
		c0.1-0.1,0.2-0.2,0.2-0.3c0-0.1,0-0.3,0-0.4L244.8,167.7z M228.8,179.2c0-0.1,0-0.2,0-0.4c0,0,0-0.2,0-0.2c-0.1,0-0.1,0-0.2,0h-4.2
		v-11c0-0.1,0-0.1,0-0.2c-0.1-0.1-0.1-0.1-0.2-0.2h-0.4h-1.3h-0.4c-0.1,0-0.2,0.1-0.2,0.2c0,0.1,0,0.1,0,0.2v12.4
		c0,0.2,0.1,0.5,0.2,0.7c0.2,0.1,0.4,0.2,0.6,0.2h6.2h0.2c0-0.1,0-0.1,0-0.2v-0.4c0-0.2,0-0.3,0-0.5c0-0.2,0-0.4,0-0.5 M212,175.8
		h-3.9l1.9-5.8l0,0L212,175.8z M212,168c0-0.1-0.1-0.2-0.2-0.3c-0.1-0.1-0.2-0.1-0.3-0.2H211h-1.8h-0.5c-0.1,0-0.2,0.1-0.3,0.2
		l-0.2,0.3l-4,12c-0.1,0.2-0.1,0.4-0.2,0.6c0,0.1,0,0.2,0,0.4c0.1,0.1,0.2,0.1,0.4,0.2h1.5h0.4l0.2-0.2c0-0.1,0-0.2,0-0.3l0.9-2.7
		h5.1l0.9,2.7v0.2h0.2h0.5h1.6c0.1,0,0.3-0.1,0.4-0.2c0.1-0.1,0.1-0.2,0-0.3c0.1-0.1,0.3-0.3,0.4-0.5L212,168z M198.9,167.8
		c0-0.1,0-0.1,0-0.2c-0.1-0.1-0.1-0.1-0.2-0.2h-0.4h-1.3h-0.4c-0.1,0-0.2,0.1-0.2,0.2c0,0.1,0,0.1,0,0.2v12.9c0,0.1,0,0.1,0,0.2
		c0.1,0.1,0.1,0.1,0.2,0.1c0.1,0,0.3,0,0.4,0h1.3h0.4c0.1,0,0.2-0.1,0.2-0.1c0-0.1,0-0.1,0-0.2V167.8z M190.9,178.4
		c0-0.1,0-0.2,0-0.4c0,0,0-0.1,0-0.2c-0.1,0-0.1,0-0.2,0c-0.1,0-0.3,0.1-0.4,0.2l-0.6,0.4c-0.3,0.2-0.6,0.3-0.9,0.4
		c-0.4,0.1-0.8,0.2-1.3,0.2c-0.5,0-1-0.1-1.5-0.3c-0.4-0.2-0.8-0.5-1.1-0.8c-0.3-0.4-0.5-0.9-0.7-1.4c-0.2-0.7-0.3-1.4-0.3-2.1
		c0-0.7,0.1-1.3,0.2-2c0.1-0.5,0.4-1,0.7-1.5c0.3-0.5,0.7-0.8,1.2-1.1c0.4-0.2,0.9-0.3,1.4-0.3c0.8,0,1.5,0.2,2.2,0.6
		c0.2,0.1,0.4,0.3,0.6,0.4c0.1,0.1,0.3,0.2,0.4,0.2h0.2c0-0.1,0.1-0.1,0.1-0.2v-0.4c0-0.2,0-0.3,0-0.5c0-0.2,0-0.4,0-0.5
		s0-0.3,0-0.4c0-0.1,0-0.2,0-0.2l-0.2-0.3c-0.2-0.1-0.3-0.2-0.5-0.3l-0.8-0.4l-1-0.3c-0.4,0-0.7,0-1.1,0c-0.9,0-1.7,0.1-2.5,0.5
		c-0.8,0.3-1.4,0.8-2,1.4c-0.6,0.7-1,1.4-1.3,2.3c-0.6,2-0.6,4.1,0,6.1c0.2,0.8,0.7,1.5,1.2,2.1c0.5,0.6,1.2,1,1.9,1.3
		c0.8,0.3,1.7,0.4,2.5,0.4c0.4,0,0.9,0,1.3-0.1c0.4-0.1,0.7-0.2,1.1-0.3c0.3-0.1,0.6-0.2,0.8-0.4c0.2-0.1,0.3-0.2,0.5-0.3l0.2-0.2
		v-0.2c0,0,0-0.2,0-0.3V179c0-0.2,0-0.4,0-0.6 M173.2,176.1c-0.1,0.5-0.3,1.1-0.6,1.5c-0.3,0.4-0.7,0.8-1.1,1
		c-0.5,0.3-1.1,0.4-1.7,0.4c-0.6,0-1.2-0.1-1.7-0.3c-0.4-0.2-0.8-0.5-1.1-1c-0.3-0.5-0.5-1-0.6-1.5c-0.1-0.7-0.2-1.3-0.2-2
		c0-0.6,0-1.2,0.2-1.8c0.1-0.5,0.3-1,0.6-1.5c0.3-0.4,0.7-0.8,1.1-1c0.5-0.3,1.1-0.4,1.7-0.4c0.6,0,1.1,0.1,1.7,0.4
		c0.4,0.2,0.8,0.6,1.1,1c0.3,0.5,0.5,1,0.6,1.5c0.1,0.6,0.2,1.3,0.2,2C173.4,174.9,173.3,175.5,173.2,176.1 M175.9,171.1
		c-0.2-0.8-0.6-1.5-1.2-2.2c-0.5-0.6-1.2-1-2-1.3c-0.9-0.3-1.8-0.4-2.7-0.4c-1,0-1.9,0.1-2.9,0.5c-0.8,0.3-1.5,0.8-2,1.4
		c-0.6,0.7-1,1.4-1.2,2.3c-0.3,1-0.4,2-0.4,3c0,1.1,0.1,2.1,0.4,3.1c0.2,0.8,0.6,1.5,1.2,2.2c0.5,0.6,1.2,1,2,1.3
		c0.9,0.3,1.8,0.4,2.8,0.4c1,0,1.9-0.2,2.8-0.5c0.8-0.3,1.5-0.8,2-1.4c0.6-0.7,1-1.4,1.2-2.3c0.3-1,0.4-2,0.4-3
		C176.3,173.1,176.2,172.1,175.9,171.1 M158.3,175.4c-0.1-0.4-0.4-0.7-0.6-1c-0.3-0.3-0.6-0.6-1-0.8c-0.3-0.2-0.7-0.4-1.1-0.6
		l-1.1-0.5c-0.4-0.2-0.7-0.3-0.9-0.5c-0.3-0.2-0.5-0.4-0.7-0.6c-0.2-0.2-0.3-0.5-0.3-0.8c0-0.4,0.2-0.7,0.5-0.9
		c0.2-0.1,0.4-0.2,0.6-0.3c0.3,0,0.5,0,0.8,0c0.4,0,0.7,0,1.1,0c0.3,0.1,0.6,0.2,0.8,0.3c0.2,0.1,0.4,0.2,0.6,0.3c0.1,0,0.2,0,0.4,0
		h0.2v-0.2c0,0,0-0.2,0-0.4v-1c0,0,0-0.2,0-0.3v-0.2l-0.2-0.2c-0.1-0.1-0.3-0.2-0.4-0.3l-0.7-0.3l-0.9-0.2c-0.3,0-0.6,0-1,0
		c-0.6,0-1.2,0.1-1.8,0.2c-0.5,0.2-1,0.4-1.4,0.7c-0.4,0.3-0.8,0.8-1,1.2c-0.2,0.5-0.4,1.1-0.4,1.7c0,0.5,0.1,1,0.3,1.4
		c0.2,0.4,0.4,0.7,0.7,1.1c0.3,0.3,0.6,0.6,0.9,0.8c0.3,0.2,0.7,0.4,1.1,0.6l1.1,0.5c0.3,0.1,0.6,0.3,0.9,0.5
		c0.3,0.1,0.5,0.3,0.7,0.6c0.2,0.2,0.3,0.5,0.3,0.8c0,0.3,0,0.5-0.2,0.7c-0.1,0.2-0.2,0.4-0.4,0.6c-0.2,0.1-0.4,0.3-0.7,0.3
		c-0.3,0.1-0.6,0.1-0.9,0.1c-0.5,0-0.9,0-1.3-0.2l-1-0.4l-0.7-0.4c-0.1-0.1-0.3-0.2-0.4-0.2H150c-0.1,0.1-0.1,0.1-0.1,0.2
		c0,0.1,0,0.2,0,0.4c0,0.2,0,0.4,0,0.5c0,0.3,0,0.5,0,0.8c0,0.1,0.1,0.3,0.2,0.4c0.1,0.1,0.3,0.2,0.4,0.3c0.3,0.1,0.5,0.2,0.8,0.3
		c0.3,0.1,0.7,0.2,1.1,0.3c1.1,0.2,2.2,0.2,3.3-0.2c0.6-0.2,1.1-0.4,1.6-0.8c0.5-0.4,0.8-0.8,1.1-1.3c0.3-0.6,0.4-1.2,0.4-1.9
		C158.7,176.4,158.6,175.9,158.3,175.4"/>
	<path  d="M258.9,142.5c0-0.1,0-0.1,0-0.2c-0.1-0.1-0.1-0.1-0.2-0.2h-0.4H257h-0.4c0,0-0.2,0-0.2,0.2c0,0.1,0,0.1,0,0.2
		v12.9c0,0.1,0,0.1,0,0.2c0.1,0,0.2,0,0.2,0c0.1,0,0.3,0,0.4,0h0.7h0.7c0.1,0,0.3,0,0.4,0c0.1,0,0.2,0,0.2,0c0-0.1,0-0.1,0-0.2
		L258.9,142.5z M251,155.2c-0.1-0.2-0.2-0.4-0.3-0.6l-4.1-6.1l3.7-4.9c0.2-0.3,0.3-0.5,0.4-0.6c0-0.1,0-0.3,0-0.4c0-0.1,0-0.1,0-0.2
		l-0.2-0.2h-0.4h-1.4h-0.4l-0.3,0.2c-0.1,0.1-0.1,0.1-0.2,0.2l-4,5.8v-5.8c0-0.1,0-0.1,0-0.2c0,0,0,0-0.2-0.2h-0.4h-1.4h-0.4
		c-0.1,0-0.2,0.1-0.2,0.2c0,0.1,0,0.1,0,0.2v12.8c0,0.1,0,0.1,0,0.2l0.2,0.2c0.1,0,0.3,0,0.4,0h0.7h0.7c0.1,0,0.3,0,0.4,0
		c0.1,0,0.2-0.1,0.2-0.2c0-0.1,0-0.1,0-0.2V149l4.1,6.4c0,0.1,0.1,0.2,0.2,0.3c0.1,0.1,0.3,0.1,0.4,0.2h1h0.7c0.2,0,0.3,0,0.5,0
		l0.2-0.2c0-0.1,0-0.1,0-0.2c0-0.1,0-0.2,0-0.2 M235.4,150.5c-0.2-0.4-0.4-0.7-0.7-1.1c-0.3-0.3-0.6-0.5-0.9-0.8
		c-0.3-0.2-0.7-0.4-1.1-0.6l-1.1-0.5c-0.3-0.1-0.6-0.3-0.9-0.5c-0.3-0.1-0.5-0.3-0.7-0.6c-0.2-0.2-0.3-0.5-0.3-0.8
		c0-0.2,0-0.4,0-0.6c0.1-0.2,0.2-0.3,0.4-0.5c0.2-0.1,0.4-0.2,0.6-0.3c0.3,0,0.5,0,0.8,0c0.4,0,0.7,0,1.1,0.1
		c0.3,0.1,0.6,0.2,0.8,0.3l0.6,0.3c0.1,0.1,0.2,0.1,0.4,0.2h0.2c0-0.1,0-0.1,0-0.2c0-0.1,0-0.2,0-0.4c0-0.1,0-0.3,0-0.5
		c0-0.2,0-0.3,0-0.5c0-0.1,0-0.2,0-0.3v-0.2l-0.1-0.2c-0.1-0.1-0.3-0.2-0.4-0.3c-0.2-0.1-0.5-0.2-0.8-0.3l-0.9-0.2h-1
		c-0.6,0-1.2,0.1-1.8,0.2c-1.1,0.3-2,1-2.5,2c-0.2,0.5-0.4,1.1-0.4,1.7c0,0.5,0.1,1,0.3,1.5c0.2,0.4,0.4,0.7,0.7,1.1
		c0.3,0.3,0.6,0.5,0.9,0.8c0.3,0.2,0.7,0.4,1.1,0.6l1.1,0.5c0.3,0.1,0.6,0.3,0.9,0.5c0.2,0.2,0.5,0.4,0.7,0.6
		c0.2,0.2,0.2,0.5,0.2,0.8c0,0.3,0,0.5-0.1,0.7c-0.1,0.2-0.2,0.4-0.4,0.5c-0.2,0.2-0.4,0.3-0.7,0.4c-0.3,0.1-0.6,0.1-0.9,0.1
		c-0.5,0-0.9-0.1-1.3-0.2l-1-0.4l-0.7-0.4c-0.1-0.1-0.3-0.2-0.4-0.2c-0.1,0-0.1,0-0.2,0c0,0,0,0,0,0.2c0,0.1,0,0.2,0,0.4
		c0,0.2,0,0.4,0,0.5c0,0.3,0,0.5,0,0.8c0,0.1,0.1,0.3,0.2,0.4c0.1,0.1,0.3,0.2,0.5,0.3c0.2,0.1,0.5,0.2,0.8,0.3
		c0.3,0.1,0.7,0.2,1.1,0.3c1.1,0.2,2.2,0.2,3.3-0.2c0.6-0.2,1.1-0.4,1.6-0.8c0.5-0.4,0.8-0.8,1.1-1.4c0.3-0.6,0.4-1.2,0.4-1.9
		c0-0.5-0.1-1-0.3-1.4 M219.1,147.8c-0.1,0.3-0.2,0.5-0.4,0.8c-0.2,0.2-0.5,0.4-0.7,0.5c-0.3,0.1-0.7,0.2-1.1,0.2h-1.2v-4.8h1.2
		c0.3,0,0.6,0,0.8,0c0.3,0,0.5,0.1,0.8,0.3c0.3,0.2,0.5,0.4,0.6,0.7c0.2,0.4,0.3,0.8,0.3,1.2c0,0.3,0,0.7-0.2,1 M221.9,144.9
		c-0.1-0.4-0.4-0.8-0.7-1.2c-0.3-0.3-0.7-0.6-1.1-0.8c-0.4-0.2-0.8-0.3-1.2-0.4c-0.3-0.1-0.7-0.1-1.1-0.2H217h-3
		c-0.2,0-0.5,0.1-0.7,0.3c-0.2,0.2-0.3,0.5-0.3,0.7v12.2c0,0.1,0,0.1,0,0.2c0.1,0,0.2,0,0.2,0c0.1,0,0.3,0,0.4,0h0.7h0.7
		c0.1,0,0.3,0,0.4,0c0.1,0,0.2,0,0.2,0c0-0.1,0-0.1,0-0.2v-4.3h1.1c0.8,0,1.6-0.1,2.4-0.3c0.6-0.2,1.2-0.5,1.7-0.9
		c0.5-0.4,0.8-0.9,1-1.5c0.2-0.6,0.4-1.3,0.4-2C222.2,145.9,222.2,145.4,221.9,144.9 M204.3,150.9c-0.1,0.5-0.3,1.1-0.6,1.5
		c-0.3,0.4-0.6,0.8-1.1,1c-0.5,0.3-1.1,0.4-1.7,0.4c-0.6,0-1.2-0.1-1.7-0.3c-0.4-0.2-0.8-0.5-1.1-1c-0.3-0.5-0.5-1-0.6-1.5
		c-0.1-0.7-0.2-1.3-0.2-2c0-0.6,0.1-1.2,0.2-1.8c0.1-0.5,0.3-1,0.6-1.5c0.3-0.4,0.6-0.8,1.1-1c0.5-0.3,1.1-0.4,1.7-0.4
		c0.6,0,1.2,0.1,1.7,0.4c0.4,0.2,0.8,0.5,1.1,1c0.3,0.5,0.5,1,0.6,1.5c0.1,0.6,0.2,1.3,0.2,2C204.5,149.7,204.4,150.3,204.3,150.9
		 M206.8,145.8c-0.2-0.8-0.6-1.5-1.2-2.1c-0.5-0.6-1.2-1-2-1.3c-0.7-0.3-1.5-0.5-2.3-0.6c-1,0-1.9,0.1-2.8,0.5
		c-0.8,0.3-1.5,0.8-2,1.4c-0.6,0.7-1,1.4-1.3,2.3c-0.3,1-0.4,2-0.4,3c0,1.1,0.1,2.1,0.4,3.1c0.2,0.8,0.6,1.5,1.2,2.2
		c0.5,0.6,1.2,1,2,1.3c0.9,0.3,1.8,0.4,2.8,0.4c1,0,1.9-0.2,2.8-0.5c0.8-0.3,1.5-0.8,2-1.4c0.6-0.7,1-1.4,1.3-2.3
		c0.5-2,0.5-4.1,0-6.1 M186.7,146.9c-0.1,0.2-0.2,0.5-0.4,0.6c-0.2,0.2-0.5,0.3-0.7,0.4c-0.3,0.1-0.7,0.2-1,0.2h-1.4v-3.7h2h0.5
		c0.4,0.1,0.7,0.3,1,0.7c0.2,0.3,0.3,0.7,0.3,1.1C186.8,146.5,186.8,146.8,186.7,146.9 M190.3,155.2c-0.1-0.2-0.1-0.4-0.2-0.6
		l-1.1-2.7c-0.1-0.3-0.2-0.6-0.4-0.9c-0.1-0.2-0.3-0.5-0.5-0.7c-0.1-0.2-0.3-0.4-0.5-0.5c-0.2-0.1-0.4-0.3-0.6-0.4
		c0.4-0.1,0.8-0.3,1.1-0.5c0.3-0.2,0.6-0.5,0.8-0.8c0.2-0.3,0.4-0.6,0.5-1c0.1-0.4,0.2-0.8,0.2-1.3c0-0.5-0.1-1-0.3-1.4
		c-0.1-0.4-0.4-0.8-0.7-1.1c-0.3-0.3-0.7-0.6-1.1-0.7c-0.5-0.2-1-0.3-1.5-0.4h-0.6h-4.4c-0.4,0-0.8,0.3-0.8,0.7c0,0.1,0,0.1,0,0.2
		v12.4c0,0.1,0,0.1,0,0.2c0.1,0,0.2,0,0.2,0c0.1,0,0.3,0,0.4,0h0.7h0.7c0.1,0,0.3,0,0.4,0c0.1,0,0.2,0,0.2,0c0-0.1,0-0.1,0-0.2v-5.1
		h0.9c0.3-0.1,0.5-0.1,0.8,0c0.2,0.1,0.4,0.2,0.6,0.4c0.2,0.2,0.3,0.4,0.5,0.7c0.2,0.3,0.3,0.6,0.4,0.9l1.2,3c0,0.1,0.1,0.2,0.1,0.2
		c0.1,0.1,0.1,0.1,0.2,0.2h0.4h1.5h0.5c0.1,0,0.2-0.1,0.2-0.1c0-0.1,0-0.1,0-0.2c0-0.1,0-0.2,0-0.3 M175,143.3
		c0.1-0.2,0.1-0.4,0.2-0.6c0-0.1,0-0.2,0-0.3c-0.1-0.1-0.2-0.1-0.4-0.2h-1.5c-0.1,0-0.3,0-0.4,0c-0.1,0-0.2,0.1-0.2,0.2
		c0,0.1,0,0.2,0,0.3l-3.2,10.4l0,0l-3.3-10.5c0-0.1-0.1-0.2-0.1-0.3c0,0,0-0.1-0.2-0.2h-0.4h-1.6c-0.1,0-0.3,0-0.5,0
		c-0.1,0.1-0.1,0.2,0,0.3c0,0.2,0.1,0.4,0.2,0.6l4,12.1v0.2l0.2,0.2h0.2h0.4h2.1c0.2,0,0.3,0,0.5,0c0.1,0,0.2-0.1,0.3-0.2l0.2-0.3
		L175,143.3z M158.5,154.3c0-0.1,0-0.2,0-0.3c0-0.1-0.1-0.1-0.1-0.2c-0.1,0-0.1,0-0.2,0h-4.9v-3.9h4.1c0.1,0,0.1,0,0.2,0
		c0.1,0,0.1-0.1,0.1-0.2c0-0.1,0-0.2,0-0.3c0-0.2,0-0.3,0-0.5c0-0.2,0-0.3,0-0.5c0-0.1,0-0.2,0-0.3c0-0.1-0.1-0.1-0.1-0.2h-0.2h-4.1
		v-3.5h4.9h0.2c0-0.1,0-0.1,0-0.2c0-0.1,0-0.2,0-0.3c0.1-0.3,0.1-0.7,0-1c0-0.1,0-0.2,0-0.3c0-0.1,0-0.1,0-0.2h-0.2h-6.8
		c-0.2,0-0.4,0.1-0.6,0.2c-0.2,0.2-0.3,0.4-0.2,0.7v11.9c0,0.2,0.1,0.5,0.2,0.7c0.2,0.1,0.4,0.2,0.6,0.2h6.8h0.2
		c0.1,0,0.1-0.1,0.1-0.2c0-0.1,0-0.2,0-0.3c0-0.2,0-0.4,0-0.5c0-0.2,0-0.3,0-0.5"/>
	<path  d="M419,123.2h-5.4l2.7-8.2l0,0L419,123.2z M419.2,112.1c0-0.2-0.1-0.3-0.2-0.5c-0.1-0.1-0.3-0.2-0.4-0.3
		c-0.3,0-0.5,0-0.8,0h-2.5h-0.7c-0.1,0.1-0.3,0.1-0.4,0.3c-0.1,0.1-0.2,0.3-0.2,0.4l-6,17.1c-0.1,0.3-0.2,0.6-0.2,0.8
		c-0.1,0.2-0.1,0.3,0,0.5c0.1,0.1,0.3,0.2,0.5,0.2h1.1h1c0.2,0,0.4,0,0.6,0c0.1,0,0.2-0.1,0.3-0.2c0.1-0.1,0.1-0.2,0.2-0.4l1.2-3.8
		h7.2l1.3,3.9c0,0.1,0.1,0.2,0.1,0.3c0.1,0.1,0.2,0.1,0.3,0.2c0.2,0,0.4,0,0.6,0h1.2h1.1c0.2,0,0.4-0.1,0.6-0.2
		c0.1-0.1,0.1-0.3,0-0.5c0-0.3-0.1-0.6-0.2-0.8L419.2,112.1z M401.5,111.9c0-0.1,0-0.2,0-0.3c-0.1-0.1-0.2-0.2-0.3-0.2h-0.6h-0.9
		h-0.9h-0.6c-0.1,0-0.2,0.1-0.3,0.2c0,0.1,0,0.2,0,0.3v13.2c0,0.4,0,0.8,0,1.2c-0.1,0.3-0.2,0.5-0.3,0.7c-0.1,0.2-0.3,0.3-0.5,0.4
		c-0.2,0-0.5,0-0.7,0c-0.2,0-0.5,0-0.7,0c-0.2,0-0.4-0.1-0.5-0.2l-0.4-0.2c-0.1,0-0.2,0-0.3,0c-0.1,0-0.2,0-0.2,0
		c-0.1,0.1-0.1,0.2-0.2,0.3c0,0.2,0,0.4,0,0.6c0,0.3,0,0.6,0,0.8v0.7c0,0.2,0,0.3,0,0.4c0,0.1,0,0.2,0,0.3c0,0.1,0.1,0.2,0.2,0.2
		c0.1,0.1,0.2,0.2,0.4,0.2c0.2,0.1,0.4,0.2,0.6,0.2l0.8,0.2c0.3,0,0.6,0,0.9,0c0.8,0,1.6-0.1,2.4-0.4c0.6-0.2,1.1-0.6,1.5-1.1
		c0.4-0.5,0.7-1.1,0.8-1.8c0.2-0.8,0.3-1.6,0.3-2.4L401.5,111.9z M386.8,111.9c0-0.1,0-0.2,0-0.3c-0.1-0.1-0.2-0.1-0.3-0.2l-0.6-0.1
		h-1H384c-0.2,0-0.4,0.1-0.6,0.1c-0.1,0-0.2,0.1-0.3,0.2c0,0.1,0,0.2,0,0.3v18.2c0,0.1,0,0.2,0,0.3c0.1,0.1,0.2,0.2,0.3,0.2
		c0.2,0.1,0.4,0.1,0.6,0.1h0.9h1l0.6-0.1c0.1,0,0.2-0.1,0.3-0.2c0-0.1,0-0.2,0-0.3V111.9z M374.2,111.9c0-0.1,0-0.2,0-0.3
		c-0.1-0.1-0.2-0.2-0.3-0.2h-0.5h-1.7c-0.2,0-0.4,0-0.6,0c-0.1,0-0.2,0.1-0.3,0.2c0,0.1,0,0.2,0,0.3v11.2c0,0.8,0,1.5,0,2.2l0,0
		c-0.2-0.4-0.4-0.8-0.6-1.2l-0.6-1.2l-0.6-1.2l-0.7-1.3l-3.7-7c-0.2-0.3-0.4-0.7-0.6-1c-0.2-0.2-0.4-0.5-0.6-0.6
		c-0.2-0.2-0.4-0.3-0.7-0.3c-0.3,0-0.6,0-0.9,0h-2.1c-0.4,0-0.7,0.1-1,0.4c-0.3,0.3-0.4,0.7-0.4,1v17.3c0,0.1,0,0.2,0,0.3
		c0.1,0.1,0.2,0.2,0.3,0.2c0.2,0.1,0.3,0.1,0.5,0.1h0.9h0.9c0.2,0,0.4-0.1,0.6-0.1c0.1,0,0.2-0.1,0.3-0.2c0-0.1,0-0.2,0-0.3v-10.1
		c0-0.8,0-1.5,0-2.2s0-1.4,0-2.1l0,0c0.2,0.6,0.5,1.2,0.8,1.8s0.6,1.2,0.9,1.7l4.8,9c0.2,0.4,0.4,0.8,0.7,1.2
		c0.2,0.3,0.4,0.5,0.6,0.7c0.2,0.2,0.4,0.3,0.7,0.4c0.3,0,0.6,0,0.9,0h1.6c0.2,0,0.4,0,0.6,0c0.2-0.1,0.3-0.1,0.5-0.3
		c0.1-0.1,0.2-0.3,0.3-0.5c0-0.2,0-0.4,0-0.6L374.2,111.9z M349.7,111.9c0-0.1,0-0.2,0-0.3c-0.1-0.1-0.2-0.2-0.3-0.2l-0.6-0.1h-0.9
		h-0.9c-0.2,0-0.4,0.1-0.6,0.1c-0.1,0-0.2,0.1-0.3,0.2c0,0.1,0,0.2,0,0.3v11.6c0,0.6-0.1,1.2-0.3,1.8c-0.2,0.5-0.4,0.9-0.8,1.3
		c-0.3,0.4-0.8,0.7-1.2,0.8c-0.5,0.2-1.1,0.3-1.6,0.3c-0.6,0-1.1-0.1-1.6-0.3c-0.5-0.2-0.9-0.4-1.2-0.8c-0.4-0.4-0.6-0.9-0.8-1.4
		c-0.2-0.6-0.3-1.3-0.3-2v-11.4c0-0.1,0-0.2,0-0.3c-0.1-0.1-0.2-0.1-0.3-0.2c-0.2-0.1-0.4-0.1-0.6-0.1h-0.9h-1
		c-0.2,0-0.4,0.1-0.6,0.1c-0.1,0-0.2,0.1-0.3,0.2c0,0.1,0,0.2,0,0.3v11.7c0,1.1,0.2,2.2,0.5,3.2c0.7,1.8,2.1,3.1,3.9,3.7
		c2.2,0.6,4.5,0.6,6.7,0c0.9-0.3,1.8-0.8,2.5-1.5c0.7-0.7,1.2-1.5,1.5-2.4c0.4-1,0.5-2.1,0.5-3.1L349.7,111.9z M309.2,123.2h-5.4
		l2.7-8.2l0,0L309.2,123.2z M309.4,112.1c0-0.2-0.1-0.3-0.2-0.5c-0.1-0.1-0.3-0.2-0.4-0.3c-0.3,0-0.5,0-0.8,0h-2.5h-0.7
		c-0.1,0.1-0.3,0.1-0.4,0.3c-0.1,0.1-0.2,0.3-0.2,0.4l-6,17.1c-0.1,0.3-0.2,0.6-0.2,0.8c-0.1,0.2-0.1,0.3,0,0.5
		c0.1,0.1,0.3,0.2,0.5,0.2h1.1h1c0.2,0,0.4,0,0.6,0c0.1,0,0.2-0.1,0.3-0.2c0.1-0.1,0.1-0.2,0.2-0.4l1.2-3.8h7.3l1.3,3.9
		c0,0.1,0.1,0.2,0.2,0.3c0.1,0.1,0.2,0.1,0.3,0.2c0.2,0,0.4,0,0.6,0h1.2h1.1c0.2,0,0.4-0.1,0.6-0.2c0.1-0.1,0.1-0.3,0-0.5
		c-0.1-0.3-0.1-0.6-0.3-0.9L309.4,112.1z M292.4,129.7c-0.1-0.3-0.2-0.6-0.4-0.8l-5.7-8.7l5.3-6.9c0.3-0.4,0.4-0.7,0.5-0.8
		c0-0.2,0-0.3,0-0.5c0-0.1,0-0.2,0-0.3c-0.1-0.1-0.2-0.2-0.3-0.2c-0.2-0.1-0.4-0.1-0.6-0.1h-1h-1c-0.2,0-0.4,0-0.6,0
		c-0.2,0-0.3,0.1-0.4,0.2c-0.1,0.1-0.2,0.2-0.3,0.3l-5.7,8.3V112c0-0.1,0-0.2,0-0.3c-0.1-0.1-0.2-0.1-0.3-0.2
		c-0.2-0.1-0.4-0.1-0.6-0.1h-0.9h-1c-0.2,0-0.4,0.1-0.6,0.1c-0.1,0-0.2,0.1-0.3,0.2c0,0.1,0,0.2,0,0.3v18.1c0,0.1,0,0.2,0,0.3
		c0.1,0.1,0.2,0.2,0.3,0.2c0.2,0.1,0.4,0.1,0.6,0.1h1h0.9c0.2,0,0.4-0.1,0.6-0.1c0.1,0,0.2-0.1,0.3-0.2c0-0.1,0-0.2,0-0.3v-9.1
		l5.8,9.1c0.1,0.1,0.2,0.3,0.3,0.4c0.2,0.1,0.4,0.2,0.6,0.2c0.5,0,0.9,0,1.4,0h1c0.2,0,0.4-0.1,0.6-0.1c0.1,0,0.2-0.1,0.3-0.2
		c0-0.1,0-0.2,0-0.3C292.3,129.9,292.3,129.8,292.4,129.7 M270.5,122.8c-0.2-0.5-0.5-1-0.9-1.5c-0.4-0.4-0.8-0.8-1.3-1.1
		c-0.5-0.3-1-0.6-1.5-0.8l-1.5-0.7c-0.5-0.2-0.9-0.4-1.3-0.7c-0.4-0.2-0.7-0.5-0.9-0.8c-0.2-0.3-0.3-0.7-0.3-1.1
		c0-0.3,0.1-0.6,0.2-0.8c0.1-0.3,0.3-0.5,0.5-0.7c0.2-0.2,0.5-0.4,0.8-0.4c0.4-0.1,0.7-0.2,1.1-0.2c0.5,0,1,0.1,1.5,0.2
		c0.4,0.1,0.8,0.3,1.2,0.5c0.3,0.1,0.6,0.3,0.9,0.5c0.2,0.1,0.3,0.2,0.5,0.2c0.1,0,0.2,0,0.3,0c0.1-0.1,0.1-0.2,0.1-0.3
		c0-0.2,0-0.3,0-0.5c0-0.2,0-0.5,0-0.7v-0.6c0-0.2,0-0.3,0-0.4c0-0.1,0-0.2,0-0.3c0-0.1-0.1-0.2-0.2-0.3c-0.2-0.2-0.4-0.3-0.6-0.4
		c-0.3-0.2-0.7-0.3-1-0.4c-0.4-0.1-0.9-0.2-1.3-0.3c-0.5,0-0.9,0-1.4,0c-0.9,0-1.7,0.1-2.5,0.4c-0.7,0.2-1.4,0.6-2,1
		c-0.6,0.5-1.1,1.1-1.4,1.7c-0.4,0.8-0.5,1.7-0.5,2.5c0,0.7,0.1,1.4,0.4,2.1c0.2,0.5,0.5,1.1,0.9,1.5c0.4,0.4,0.8,0.8,1.3,1.1
		c0.5,0.3,1,0.6,1.5,0.8l1.5,0.7c0.5,0.2,0.9,0.4,1.3,0.7c0.4,0.2,0.7,0.5,0.9,0.8c0.2,0.3,0.4,0.7,0.4,1.1c0,0.3-0.1,0.7-0.2,1
		c-0.1,0.3-0.3,0.6-0.6,0.8c-0.3,0.2-0.6,0.4-1,0.5c-0.4,0.1-0.9,0.2-1.3,0.2c-0.6,0-1.3-0.1-1.9-0.2c-0.5-0.1-1-0.3-1.4-0.6l-1-0.5
		c-0.2-0.1-0.4-0.2-0.6-0.3c-0.1,0-0.2,0-0.3,0c-0.1,0.1-0.1,0.2-0.2,0.3c0,0,0,0.3,0,0.5s0,0.5,0,0.8c0,0.3,0,0.7,0,1
		c0,0.2,0.1,0.4,0.3,0.6c0.2,0.2,0.4,0.3,0.6,0.5c0.4,0.2,0.7,0.3,1.1,0.5c0.5,0.2,1,0.3,1.5,0.4c0.6,0.1,1.2,0.2,1.8,0.2
		c0.9,0,1.9-0.1,2.8-0.4c0.8-0.2,1.6-0.6,2.3-1.1c0.6-0.5,1.2-1.2,1.5-1.9c0.4-0.8,0.6-1.7,0.6-2.5c0-0.7-0.1-1.4-0.4-2
		 M247.8,119.2c-0.2,0.8-0.9,1.5-1.6,1.8c-0.5,0.2-1,0.3-1.6,0.3h-1.7v-6.5h1.5c0.4,0,0.8,0,1.2,0c0.4,0,0.8,0.2,1.1,0.4
		c0.4,0.2,0.7,0.6,0.9,1c0.3,0.5,0.4,1.1,0.4,1.6c0,0.5-0.1,0.9-0.2,1.4 M251.6,115.4c-0.2-0.6-0.5-1.2-0.9-1.6
		c-0.4-0.5-0.9-0.9-1.5-1.2c-0.5-0.3-1.1-0.5-1.7-0.6c-0.5-0.1-1-0.2-1.5-0.2h-1.3h-4.5c-0.3,0-0.7,0.1-0.9,0.4
		c-0.3,0.3-0.4,0.7-0.4,1v17.3c0,0.1,0,0.2,0,0.3c0.1,0.1,0.2,0.2,0.3,0.2c0.2,0.1,0.4,0.1,0.6,0.1h0.9h0.9c0.2,0,0.4-0.1,0.6-0.1
		c0.1,0,0.2-0.1,0.3-0.2c0-0.1,0-0.2,0-0.3v-6.1h1.8c1.1,0,2.2-0.1,3.3-0.5c0.9-0.2,1.7-0.7,2.4-1.3c0.7-0.6,1.2-1.3,1.5-2.1
		c0.4-0.9,0.5-1.9,0.5-2.9C252,116.8,251.9,116.1,251.6,115.4 M226.6,123.6c-0.1,0.8-0.4,1.5-0.8,2.2c-0.4,0.6-0.9,1.1-1.5,1.4
		c-0.8,0.4-1.7,0.6-2.5,0.5c-0.8,0-1.6-0.1-2.4-0.5c-0.6-0.3-1.2-0.8-1.5-1.4c-0.4-0.6-0.7-1.4-0.8-2.1c-0.2-0.9-0.2-1.9-0.2-2.8
		c0-0.9,0.1-1.7,0.2-2.5c0.2-0.8,0.4-1.5,0.9-2.1c0.4-0.6,0.9-1.1,1.5-1.4c0.7-0.4,1.6-0.6,2.4-0.5c0.8,0,1.6,0.1,2.4,0.5
		c0.6,0.3,1.1,0.8,1.5,1.4c0.4,0.7,0.7,1.4,0.8,2.1c0.2,0.9,0.2,1.8,0.2,2.7c0,0.9-0.1,1.7-0.3,2.5 M230.3,116.4
		c-0.3-1.1-0.9-2.2-1.7-3c-0.8-0.8-1.7-1.4-2.8-1.8c-1.2-0.4-2.5-0.6-3.8-0.6c-1.4,0-2.7,0.2-4,0.7c-1.1,0.4-2.1,1.1-2.9,2
		c-0.8,0.9-1.4,2-1.8,3.2c-0.4,1.4-0.6,2.8-0.6,4.2c0,1.5,0.2,3,0.6,4.4c0.3,1.1,0.9,2.2,1.7,3.1c0.8,0.8,1.7,1.4,2.8,1.8
		c1.3,0.4,2.6,0.6,3.9,0.6c1.4,0,2.7-0.2,4-0.7c1.1-0.4,2.1-1.1,2.9-2c0.8-0.9,1.4-2,1.7-3.2c0.4-1.4,0.6-2.8,0.6-4.3
		C230.9,119.3,230.7,117.8,230.3,116.4 M201.2,118.1c-0.1,0.3-0.3,0.6-0.6,0.9c-0.3,0.3-0.7,0.5-1,0.6c-0.5,0.1-1,0.2-1.5,0.2h-1.8
		v-5.5h2.8l0.7,0.1c0.6,0.1,1.1,0.5,1.4,0.9c0.3,0.5,0.4,1.1,0.4,1.6c0,0.4-0.1,0.8-0.2,1.1 M206.4,129.6c-0.1-0.3-0.2-0.5-0.3-0.8
		l-1.6-3.8c-0.2-0.5-0.4-0.9-0.6-1.2c-0.2-0.3-0.4-0.7-0.6-1c-0.2-0.3-0.4-0.5-0.7-0.7c-0.3-0.2-0.5-0.4-0.8-0.5
		c0.6-0.2,1.1-0.4,1.6-0.7c0.4-0.3,0.8-0.7,1.2-1.1c0.3-0.4,0.6-0.9,0.7-1.4c0.2-0.6,0.3-1.2,0.3-1.7c0-0.7-0.1-1.4-0.3-2
		c-0.2-0.6-0.6-1.1-1-1.5c-0.5-0.4-1-0.8-1.6-1c-0.7-0.3-1.4-0.5-2.1-0.6h-0.9h-6.2c-0.3,0-0.6,0.1-0.8,0.3
		c-0.2,0.2-0.4,0.6-0.3,0.9v17.5c0,0.1,0,0.2,0,0.3c0.1,0.1,0.2,0.1,0.3,0.2l0.6,0.1h1h0.9c0.2,0,0.4-0.1,0.6-0.1
		c0.1,0,0.2-0.1,0.3-0.2c0-0.1,0-0.2,0-0.3v-7.3h1.2c0.4,0,0.7,0.1,1.1,0.2c0.3,0.1,0.6,0.3,0.9,0.6c0.3,0.3,0.5,0.6,0.7,0.9
		l0.6,1.3l1.7,4.3c0,0.1,0.1,0.2,0.1,0.3c0.1,0.1,0.2,0.2,0.3,0.2c0.2,0,0.4,0,0.6,0h1h1.2c0.2,0,0.4,0,0.7,0c0.1,0,0.2-0.1,0.3-0.2
		c0-0.1,0-0.2,0-0.3c0-0.1,0-0.3,0-0.4 M184.9,112.9c0.1-0.3,0.2-0.5,0.2-0.8c0.1-0.2,0.1-0.3,0-0.5c-0.1-0.2-0.3-0.2-0.5-0.2h-1.1
		h-1.1c-0.2,0-0.4,0-0.6,0c-0.1,0.1-0.2,0.1-0.3,0.3c-0.1,0.1-0.1,0.3-0.2,0.4l-4.6,14.8l0,0l-4.7-14.8l-0.2-0.4
		c-0.1-0.1-0.2-0.2-0.3-0.2c-0.2,0-0.4,0-0.6,0H170h-1.2c-0.2,0-0.4,0.1-0.6,0.2c-0.1,0.1-0.2,0.3-0.2,0.5c0,0.3,0.1,0.6,0.2,0.8
		l5.7,17c0,0.1,0,0.2,0,0.3c0,0.1,0.1,0.2,0.2,0.2c0.1,0.1,0.2,0.1,0.3,0.2h0.5h2.9c0.2,0,0.5,0,0.7,0c0.2,0,0.3-0.1,0.4-0.3
		c0.1-0.1,0.2-0.3,0.2-0.4L184.9,112.9z M161.6,128.4c0-0.2,0-0.3,0-0.5c0-0.1-0.1-0.2-0.2-0.3c-0.1,0-0.2,0-0.2,0h-6.9v-5.4h5.8
		c0.1,0,0.2,0,0.2,0c0.1-0.1,0.2-0.2,0.2-0.3c0-0.2,0-0.3,0-0.5c0-0.2,0-0.5,0-0.7c0-0.2,0-0.5,0-0.7c0-0.2,0-0.3,0-0.5
		c0-0.1-0.1-0.2-0.2-0.3h-0.2h-5.8v-4.7h6.9c0.1,0,0.2,0,0.3,0c0.1-0.1,0.1-0.2,0.2-0.3c0-0.2,0-0.3,0-0.5c0-0.5,0-1,0-1.4
		c0-0.2,0-0.3,0-0.5c0-0.1-0.1-0.2-0.2-0.3c-0.1,0-0.2,0-0.3,0h-9.6c-0.3,0-0.6,0.1-0.8,0.3c-0.2,0.2-0.4,0.6-0.3,0.9v16.8
		c0,0.4,0.1,0.7,0.3,1c0.2,0.2,0.5,0.3,0.8,0.3h9.6c0.1,0,0.2,0,0.2,0c0.1-0.1,0.2-0.2,0.2-0.3c0-0.1,0-0.3,0-0.5c0-0.2,0-0.5,0-0.7
		c0-0.2,0-0.5,0-0.7"/>
</g>
</svg>
