<svg xmlns="http://www.w3.org/2000/svg" fill="currentColor" stroke="none"><title>Asset 1</title><g id="Layer_2" data-name="Layer 2"><g id="Layer_3" data-name="Layer 3"><path d="M3.34,37.46c3,3.38,11.19,8.79,14.32,9.51a32.47,32.47,0,0,0,8,.7,15.13,15.13,0,0,1,3.19.47" style="fill:none;stroke:#231f20;stroke-linecap:round;stroke-linejoin:round;stroke-width:1.86135017871857px"/><path d="M17.43,39a11.94,11.94,0,0,0-2.86-.23,5.75,5.75,0,0,0-3.16.5c-.62.37-.72.71-1.51,1.23a6.39,6.39,0,0,1-2.08.88" style="fill:none;stroke:#231f20;stroke-linecap:round;stroke-linejoin:round;stroke-width:1.86135017871857px"/><path d="M19.39,54.06a14.2,14.2,0,0,1-3.33-3,7.44,7.44,0,0,1-1.72-2.87,9.33,9.33,0,0,0-.5-1.47A11.6,11.6,0,0,0,13,45.14" style="fill:none;stroke:#231f20;stroke-linecap:round;stroke-linejoin:round;stroke-width:1.86135017871857px"/><path d="M25.66,50.91a12,12,0,0,1-1.83-1.59c-.25-.3-.44-.58-.9-1.11-.13-.16-.25-.29-.33-.38" style="fill:none;stroke:#231f20;stroke-linecap:round;stroke-linejoin:round;stroke-width:1.86135017871857px"/><path d="M10.54,3.06c-1.32-.3-2,2.32-2.37,3.13-1,2.38-2,4.76-3.1,7.09a35.89,35.89,0,0,0-2.4,5.6C.3,27.3,1.38,35.55,4.77,43.52a46.1,46.1,0,0,0,15.6,19.77C24.09,65.86,29.13,68,33.74,67c4.1-.84,7.38-4.47,9-8.17,4-9,3.34-20,1.56-29.47A18.66,18.66,0,0,0,42,22.64c-1.46-2.38-3.89-3.4-6.4-4.43-1.33-.54-3.5-.81-4.4-2.07-1.14-1.59.09-4.12,1.36-5.28a11.18,11.18,0,0,1,9.7-2.38,13.41,13.41,0,0,1,5.61,2.59c1.41,1.08,3.17,2.77,5.12,2.44A3.39,3.39,0,0,0,55.78,10c-.2-1.65-1.73-3-3-4A21.49,21.49,0,0,0,43.1,1.73,16.6,16.6,0,0,0,29.36,5,14.17,14.17,0,0,0,25,10.6c-.69,1.49-1.38,3-2.93,3.8s-9.65,2.52-10-.94c-.11-1.14,1.22-2.69,1.7-3.68a13.12,13.12,0,0,0,1-2.34C15.41,5,12.64,3.54,10.54,3.06Z" style="fill:none;stroke:#231f20;stroke-miterlimit:10;stroke-width:2.79202526807785px"/></g></g></svg>