<?xml version="1.0" encoding="utf-8"?>
<!-- Generator: Adobe Illustrator 26.0.2, SVG Export Plug-In . SVG Version: 6.00 Build 0)  -->
<svg version="1.1" xmlns="http://www.w3.org/2000/svg" xmlns:xlink="http://www.w3.org/1999/xlink" x="0px" y="0px"
	 viewBox="0 0 425.2 252.7" style="enable-background:new 0 0 425.2 252.7;" xml:space="preserve">
<style type="text/css">
	.st0{display:none;}
	.st1{display:inline;}
	.st2{display:inline;fill:#231F20;}
	.st3{clip-path:url(#SVGID_00000011740313329481526190000003129419429496277393_);}
	.st4{clip-path:url(#SVGID_00000081630949460215531500000006820088910215670954_);}
	.st5{clip-path:url(#SVGID_00000003075314739679333930000015146265972434219431_);}
	.st6{clip-path:url(#SVGID_00000130649307612456827020000004780862336258798990_);}
	.st7{clip-path:url(#SVGID_00000085932115838726282300000011073436223208593801_);}
	.st8{clip-path:url(#SVGID_00000005258072577254965310000008032767322923688577_);}
	.st9{clip-path:url(#SVGID_00000006669676501214057490000002356825054872333743_);}
	.st10{clip-path:url(#SVGID_00000000222703207635887630000003705165565117994173_);}
	.st11{clip-path:url(#SVGID_00000181079149323813552820000007871798454435015565_);}
	.st12{clip-path:url(#SVGID_00000167398510068846673090000016671849920978554282_);}
	.st13{clip-path:url(#SVGID_00000061461444413647292920000018396065525280375451_);}
	.st14{clip-path:url(#SVGID_00000005971163522323729950000014535623629604364435_);}
	.st15{clip-path:url(#SVGID_00000120554341823925795560000007490119035806671277_);}
	.st16{clip-path:url(#SVGID_00000041274494918500933710000015259025706602607233_);}
	.st17{clip-path:url(#SVGID_00000129196197332592249080000012668158457102991025_);}
	.st18{clip-path:url(#SVGID_00000080912053227474241740000013951902945192613793_);}
	.st19{clip-path:url(#SVGID_00000070830434888295473130000007240200036490365338_);}
	.st20{clip-path:url(#SVGID_00000100380114710899298600000010129191876542515356_);}
	.st21{clip-path:url(#SVGID_00000152986089597287626290000005560733321505786008_);}
	.st22{clip-path:url(#SVGID_00000070838071258581510660000016872154800602035861_);}
	.st23{clip-path:url(#SVGID_00000137110533115197612440000005368760844793208231_);}
	.st24{clip-path:url(#SVGID_00000132061506320732544180000010067913450895125691_);}
	.st25{clip-path:url(#SVGID_00000181786116134615667910000002415203422066752657_);}
	.st26{clip-path:url(#SVGID_00000073718609830305654560000017322605634703207567_);}
	.st27{clip-path:url(#SVGID_00000066499613847332129110000004768329973490490274_);}
	.st28{clip-path:url(#SVGID_00000096743349583677615990000017086097063584616124_);}
	.st29{clip-path:url(#SVGID_00000126302506315722479070000012600325389657339810_);}
	.st30{clip-path:url(#SVGID_00000137817001891080360810000006440362805717567624_);}
	.st31{clip-path:url(#SVGID_00000106139757614982818550000012872399831226861487_);}
	.st32{clip-path:url(#SVGID_00000092429617083702733930000013478082567228737427_);}
	.st33{clip-path:url(#SVGID_00000086660464047199489040000013285146371092235146_);}
	.st34{clip-path:url(#SVGID_00000003815850020647473820000010634358042683804312_);}
	.st35{clip-path:url(#SVGID_00000051352407941420122870000003223874656034645151_);}
	.st36{clip-path:url(#SVGID_00000159472312889642814920000005024924718360127911_);}
	.st37{clip-path:url(#SVGID_00000113341462830718927870000010307380295051549833_);}
	.st38{clip-path:url(#SVGID_00000071521016402148029950000012301842177070036644_);}
	.st39{clip-path:url(#SVGID_00000126297334170134790190000016517412867267662499_);}
	.st40{clip-path:url(#SVGID_00000008119791110521797400000006243718201910864544_);}
	.st41{clip-path:url(#SVGID_00000041991811901397182540000007006221169579413683_);}
	.st42{clip-path:url(#SVGID_00000018233711420533056700000011244256637717187744_);}
</style>
<g id="Layer_1" class="st0">
	<path class="st1" d="M252.2,49.7c-0.5,0-0.9-0.1-1.3-0.3l-1,2.1v8.9h5.4v-8.9l-1.1-2c-0.5,0.2-1.1,0.3-1.6,0.3L252.2,49.7z"/>
	<path class="st1" d="M254.5,47.8L253.2,28c0-0.6-0.4-1-1-1s-1,0.4-1,1l-0.7,19.7c0,0.2,0.2,0.5,0.6,0.7c0.3,0.2,0.6,0.3,1,0.3h0.7
		C253.9,48.7,254.5,48.1,254.5,47.8z"/>
	<path class="st1" d="M252.2,48.8h0.2c0.1,0,0.2,0,0.3,0h-0.7C252.1,48.8,252.2,48.8,252.2,48.8z"/>
	<path class="st1" d="M173.2,49.7c0.5,0,0.9-0.1,1.3-0.3l1,2v9h-5.4v-8.9l1.1-2c0.5,0.2,1.1,0.3,1.6,0.3L173.2,49.7z"/>
	<path class="st1" d="M170.9,47.8l1.3-19.8c0-0.6,0.4-1,1-1s1,0.4,1,1l0.7,19.7c0,0.2-0.2,0.5-0.6,0.7c-0.3,0.2-0.6,0.3-1,0.3h-0.7
		C171.5,48.7,170.9,48.1,170.9,47.8z"/>
	<path class="st1" d="M173.2,48.8h-0.3c-0.1,0-0.2,0-0.3,0h0.7H173.2z"/>
	<rect y="62.6" class="st1" width="168.5" height="130"/>
	<rect x="256.7" y="62.6" class="st1" width="168.5" height="130"/>
	<path class="st1" d="M179.8,127c0,0,0.5-4,4.5-4.1s4.5,4.1,4.5,4.1v13.4h12.4V127c0,0,0.5-4,4.5-4.1s4.5,4.1,4.5,4.1v13.4h4.7V127
		c0,0,0.5-4,4.5-4.1s4.5,4.1,4.5,4.1v13.4h12.1V127c0,0,0.5-4,4.5-4.1s4.5,4.1,4.5,4.1v13.4h10V107h-84.3v33.4h9.4V127z M240,112.3
		l8.4,5.2l0,0l-0.5,0.8l-7.9-4.9l-7.4,4.9l-0.5-0.8L240,112.3z M212,111.5l15.4,6l0,0l-0.3,0.9l-15.1-5.9l-14.1,5.8l-0.4-0.9
		L212,111.5z M184.1,112.3l8.4,5.2l0,0l-0.5,0.8l-7.9-4.9l-7.4,4.9l-0.5-0.8L184.1,112.3z"/>
	<path class="st1" d="M179.9,89.5h8.9v16.5h12.4V89.5h8.9v16.5h4.7V89.6h8.9v16.5h12.1V89.6h8.9v16.5h10V62.6h-84.2v43.5h9.4
		L179.9,89.5z M240.2,79.3c3.5,0,6.7,1.9,8.4,5l-0.8,0.4c-2.2-4.1-7.4-5.7-11.5-3.5c-1.5,0.8-2.7,2-3.5,3.5l0,0l-0.8-0.4
		C233.6,81.3,236.8,79.4,240.2,79.3z M212,78.2l15.4,5.9l0,0l-0.3,0.9L212,79.2L197.9,85l-0.4-0.9L212,78.2z M176.8,84.8l-0.8-0.5
		c2.4-4.6,8.1-6.4,12.7-3.9c1.7,0.9,3,2.2,3.9,3.9l-0.8,0.4c-2.2-4.1-7.4-5.7-11.5-3.5C178.9,82.1,177.6,83.3,176.8,84.8L176.8,84.8
		z"/>
	<path class="st1" d="M170.5,192.5h31.4v-27.7c0,0,1.2-7.6,10.6-7.7s10.5,7.7,10.5,7.7v27.7h31.7V149h-84.2V192.5z M235.8,162.3
		c0.3-2.3,2.2-4,4.5-4c3.9-0.1,4.5,4,4.5,4v15.4h-8.9L235.8,162.3z M184.3,158.3c3.9-0.1,4.5,4,4.5,4v15.4h-8.9v-15.4
		C180.1,160,182,158.3,184.3,158.3L184.3,158.3z"/>
	<rect x="170.5" y="141.3" class="st1" width="84.3" height="6.8"/>
	<rect x="170.5" y="106.1" class="st1" width="9.4" height="0"/>
	<rect x="244.7" y="106.1" class="st1" width="10" height="0"/>
	<rect x="223.8" y="106.1" class="st1" width="12.1" height="0"/>
	<rect x="210.1" y="106.1" class="st1" width="4.7" height="0"/>
	<rect x="188.8" y="106.1" class="st1" width="12.4" height="0"/>
	<polygon class="st1" points="232.8,84.8 232.8,84.8 232.7,84.8 	"/>
	<polygon class="st1" points="194.6,0 197.3,8.2 228.1,8.2 230.9,0 	"/>
	<path class="st1" d="M228.1,9.3h-30.8c-14.6,6.6-23.3,21.8-21.6,37.7h22.2l5.1-14.3l-1.7-1.7v-2.8c0,0,3.3-3.8,11.8-3.9
		c7.4-0.1,11.2,4,11.2,4V31l-1.6,1.6l5,14.4h22.1C251.9,30.9,241.6,15,228.1,9.3z"/>
	<path class="st1" d="M250,48.9c-0.2-0.2-0.4-0.6-0.5-0.9h-22v12.4h21.3v-9.1L250,48.9z"/>
	<path class="st1" d="M175.4,48.9c0.2-0.2,0.4-0.6,0.5-0.9h22v12.4h-21.3v-9.1L175.4,48.9z"/>
	<path class="st1" d="M221.4,32.5l1.8-2v-1.8c0,0-3.4-3.4-10.5-3.4c-7.2,0.1-10.6,3.4-10.6,3.4v1.9l1.8,1.9l-5.2,14.8v13.1h27.8
		V47.3L221.4,32.5z M220.2,30.7c-1.4-1.3-4.2-2.3-7.5-2.3s-6,1-7.4,2.3l-0.6-0.6c1.6-1.5,4.6-2.5,7.9-2.5s6.5,1,8.1,2.5L220.2,30.7z
		"/>
	<path class="st1" d="M12.5,239.7c5.3,0,8.5-1.8,8.5-7.3v-23.3h2.9v23.2c0,7.3-4,10-11.4,10c-7,0-11.1-2.7-11.1-10v-23.2h2.9v23.2
		C4.3,237.9,7.5,239.7,12.5,239.7z"/>
	<path class="st1" d="M32.1,242.1v-23.6h2.8v1.8c2.4-1.3,5-2,7.6-2.2c6.5,0,7.9,3,7.9,11.7v12.3h-2.8v-12.3c0-6.9-0.8-9.2-5.5-9.2
		c-2.5,0.1-5,0.8-7.3,2v19.5H32.1z"/>
	<path class="st1" d="M58.6,209.1h2.8v3.5h-2.8V209.1z M58.6,218.5h2.8v23.6h-2.8V218.5z"/>
	<path class="st1" d="M69.7,218.5l6.1,21.1h1.8l6.2-21.1h2.9l-7,23.6h-6.1l-6.9-23.6H69.7z"/>
	<path class="st1" d="M108.7,239.6l0.1,2.4c0,0-5.3,0.7-9,0.7c-7,0-9.2-4.3-9.2-12.2c0-9.1,4-12.3,9.7-12.3c6.1,0,9.3,3.2,9.3,11.1
		l-0.1,2.3h-16c0,5.6,1.6,8.5,6.6,8.5C103.5,240,108.7,239.6,108.7,239.6z M106.8,229.1c0-6.2-2-8.5-6.5-8.5s-6.8,2.4-6.8,8.5H106.8
		z"/>
	<path class="st1" d="M116.3,218.5h2.8v3.4c2.6-1.9,5.5-3.2,8.6-3.8v2.9c-3.1,0.7-6,1.9-8.6,3.6v17.6h-2.8V218.5z"/>
	<path class="st1" d="M148,221.4c-2.7-0.4-5.4-0.7-8.2-0.8c-3,0-5.6,0.8-5.6,4c0,2.4,1.2,3.2,6.1,4c6.2,1,8.5,2.1,8.5,6.6
		c0,5.5-3.4,7.3-9.1,7.3c-2.7-0.1-5.4-0.4-8.1-0.9l0.2-2.5c2.5,0.4,5.1,0.7,7.7,0.8c4.1,0,6.5-0.9,6.5-4.6c0-2.8-1.4-3.4-6.5-4.2
		c-5.7-0.9-8.2-1.9-8.2-6.5c0-5.1,4.2-6.6,8.3-6.6c2.8,0.1,5.6,0.3,8.4,0.8L148,221.4z"/>
	<path class="st1" d="M155.6,209.1h2.8v3.5h-2.8V209.1z M155.6,218.5h2.8v23.6h-2.8V218.5z"/>
	<path class="st1" d="M170.1,221.1v11.5c0,5.9,0.4,7.4,3.7,7.4c1.3,0,4.4-0.3,4.4-0.3l0.1,2.5c-1.6,0.2-3.2,0.4-4.8,0.5
		c-4.6,0-6.3-1.7-6.3-8.5v-13h-3.5v-2.6h3.5v-7.4h2.8v7.4h7.9v2.6L170.1,221.1z"/>
	<path class="st1" d="M183.8,218.5l6.3,20.9h1.7l6.3-20.9h2.9l-10.2,34.2H188l3.1-10.6h-3.2l-6.9-23.6L183.8,218.5z"/>
	<path class="st1" d="M235.7,230c0,8.4-1.9,12.6-9.8,12.6s-10-3.7-10-12.6c0-8.3,2.6-11.8,10-11.8
		C232.7,218.1,235.7,221.7,235.7,230z M232.8,230c0-6.8-2.1-9.3-6.9-9.3c-5.4,0-7.1,2.3-7.1,9.3s1,10.1,7.1,10.1
		S232.8,236.7,232.8,230z"/>
	<path class="st1" d="M245.5,242.1h-2.8v-21h-3.1v-2.6h3.1v-2.4c0-6.8,1.7-8.5,6.2-8.5c1.6,0,4.6,0.3,4.6,0.3v2.4
		c0,0-2.8-0.1-4.1-0.1c-2.8,0-3.8,1.2-3.8,6v2.4h7.2v2.6h-7.2L245.5,242.1z"/>
	<path class="st1" d="M269.4,209.2h5.3l10.3,28.6l10.3-28.6h5.2v32.9h-2.9v-29.6H297L286.6,241h-3.4L273,212.5h-0.7v29.6h-2.9
		L269.4,209.2z"/>
	<path class="st1" d="M325.1,238.2c0.1,1.4,1.5,1.9,3.1,2.1l-0.1,2.3c-2.3,0-4-0.5-5.3-1.9c-2.8,1.2-5.8,1.8-8.9,1.9
		c-4.1,0-6.5-2.4-6.5-7.1c0-4.3,2.2-6.4,6.9-6.9l8-0.8v-2.1c0-3.5-1.6-4.9-4.6-4.9c-3.4,0-8.9,0.7-8.9,0.7l-0.1-2.4
		c3.1-0.5,6.1-0.8,9.2-0.9c4.9,0,7.2,2.4,7.2,7.5V238.2z M314.7,230.8c-3.2,0.3-4.3,1.8-4.3,4.6c0,3,1.3,4.7,3.9,4.7
		c2.8-0.1,5.5-0.7,8.1-1.6V230L314.7,230.8z"/>
	<path class="st1" d="M333.9,218.5h2.8v3.4c2.6-1.9,5.5-3.2,8.6-3.8v2.9c-3.1,0.7-6,1.9-8.6,3.6v17.6h-2.8V218.5z"/>
	<path class="st1" d="M350.2,209.1h2.8v3.5h-2.8V209.1z M350.2,218.5h2.8v23.6h-2.8V218.5z"/>
	<path class="st1" d="M379.9,229.9c0,9.1-2.4,12.7-11,12.7c-3,0-7.6-0.5-7.6-0.5v-34h2.8v11.7c2.3-1,4.8-1.6,7.4-1.6
		C378,218.1,379.9,221.5,379.9,229.9z M377,229.9c0-6.5-1.1-9.2-5.7-9.2c-2.5,0.1-4.9,0.6-7.2,1.5v17.5c0,0,3.3,0.3,4.7,0.3
		C375.9,240,377,236.8,377,229.9L377,229.9z"/>
	<path class="st1" d="M404.8,230c0,8.4-1.9,12.6-9.8,12.6s-10-3.7-10-12.6c0-8.3,2.6-11.8,10-11.8
		C401.8,218.1,404.8,221.7,404.8,230z M401.8,230c0-6.8-2.1-9.3-6.9-9.3c-5.4,0-7.1,2.3-7.1,9.3s1,10.1,7.1,10.1
		S401.9,236.7,401.8,230L401.8,230z"/>
	<path class="st1" d="M411.6,218.5h2.8v3.4c2.6-1.9,5.5-3.2,8.6-3.8v2.9c-3.1,0.7-6,1.9-8.6,3.6v17.6h-2.8V218.5z"/>
</g>
<g id="Layer_2" class="st0">
	<path class="st2" d="M127.7,95.9v83.7H1.3V95.9H127.7 M129,94.7H0v86.2h129V94.7z"/>
	<polygon class="st2" points="61.7,113.5 64.5,111.5 67.2,113.5 66.2,110.2 68.9,108.3 65.5,108.3 64.5,105 63.4,108.3 60,108.3 
		62.8,110.2 	"/>
	<polygon class="st2" points="47.6,117.3 50.4,115.3 53.1,117.3 52.1,114 54.8,112.1 51.4,112.1 50.4,108.8 49.3,112.1 45.9,112.1 
		48.7,114 	"/>
	<polygon class="st2" points="40,119.1 39,122.4 35.6,122.4 38.4,124.4 37.3,127.6 40,125.6 42.8,127.6 41.7,124.4 44.5,122.4 
		41.1,122.4 	"/>
	<polygon class="st2" points="36.3,139.8 39,141.7 37.9,138.5 40.7,136.5 37.3,136.5 36.3,133.3 35.2,136.5 31.8,136.5 34.6,138.5 
		33.5,141.7 	"/>
	<polygon class="st2" points="41.1,150.7 40,147.4 39,150.7 35.6,150.7 38.4,152.7 37.3,155.9 40,153.9 42.8,155.9 41.7,152.7 
		44.5,150.7 	"/>
	<polygon class="st2" points="51.4,161 50.4,157.8 49.4,161.1 45.9,161 48.7,163 47.7,166.3 50.4,164.3 53.1,166.3 52.1,163 
		54.8,161 	"/>
	<polygon class="st2" points="65.5,164.8 64.5,161.5 63.4,164.8 60,164.8 62.8,166.8 61.7,170 64.5,168 67.2,170 66.2,166.8 
		68.9,164.8 	"/>
	<polygon class="st2" points="79.6,161 78.5,157.8 77.5,161.1 74.1,161 76.9,163 75.8,166.3 78.5,164.3 81.3,166.3 80.2,163 83,161 
			"/>
	<polygon class="st2" points="89.9,150.7 88.9,147.4 87.8,150.7 84.4,150.7 87.2,152.7 86.2,155.9 88.9,153.9 91.6,155.9 
		90.6,152.7 93.3,150.7 	"/>
	<polygon class="st2" points="97.1,136.5 93.6,136.5 92.6,133.2 91.6,136.5 88.2,136.5 90.9,138.5 89.9,141.7 92.6,139.7 
		95.3,141.7 94.3,138.5 	"/>
	<polygon class="st2" points="86.2,127.6 88.9,125.6 91.6,127.6 90.6,124.4 93.3,122.4 89.9,122.4 88.9,119.1 87.8,122.4 
		84.4,122.4 87.2,124.4 	"/>
	<polygon class="st2" points="78.6,108.8 77.5,112.1 74.1,112.1 76.9,114 75.9,117.3 78.6,115.3 81.3,117.3 80.3,114 83,112.1 
		79.6,112.1 	"/>
	<path class="st2" d="M113.9,34.8c10.9,18.8,13.3,39.3,6.5,55h-17.6c6.5-7.8,8.1-19.4,4.5-32.3c-2.4-8.3-6.4-16-11.7-22.8h18.2
		 M57.1,34.7c-2,6.7-0.2,14,4.7,18.9l35.9,36h-45l10.9-10.9l0.9-0.9l-0.9-0.9L51,64.4l-0.9-0.9l-0.9,0.9L24.3,89.7l0,0H1.3V41
		c2.5-2.5,5.4-4.5,8.6-6.1h47.3 M12.6,79.9l0.9-0.9l25.1-25.2l0.9-0.9L38.6,52c-7.4-7.5-19.5-7.5-26.9-0.1s-7.5,19.5-0.1,27l0.9,0.9
		 M114.5,33.6H93.1c6,7.1,10.4,15.4,13.1,24.3c3.6,12.9,1.9,25-5.8,32.7L62.7,52.9c-5-5.1-6.6-12.7-3.8-19.3H9.5
		c-3.5,1.7-6.7,4-9.5,6.8v0.1v50.7h25.6l-0.5-0.5l25.1-25.1L63,78.2l-13.2,13h71.5C128.6,74.8,126.1,53.1,114.5,33.6L114.5,33.6z
		 M12.5,78.1c-6.9-6.9-6.9-18.2,0-25.1s18.2-6.9,25.1,0L12.5,78.1z"/>
	<path class="st2" d="M127.2,185.8c0.8,9.7-2.6,19.2-9.2,26.2H93.4L69,187.5l-0.9-0.9l-0.8,0.9l-12.6,12.7l-0.9,0.9l0.9,0.9
		l10.1,10.1H21.3l26.2-26.2h41.3l16.1,16.1l0.9,0.9l0.9-0.9c4.2-4.2,6.2-10.2,5.4-16.1h15.2 M128.3,184.7h-18
		c1.4,5.9-0.4,12.2-4.7,16.5l-16.5-16.5H47l-28.7,28.8h49.4l-12.2-12.3l12.5-12.6l24.8,24.8h25.7c7.4-7.6,11-18.2,9.9-28.8H128.3z"
		/>
	<path class="st2" d="M333.4,176.1c-0.1,0.5-0.4,1-0.8,1.5c-0.3,0.4-0.8,0.7-1.3,0.9c-0.6,0.2-1.3,0.3-1.9,0.3H328v-9.3h1.4
		c0.7,0,1.4,0.1,2,0.3c0.5,0.2,0.9,0.5,1.3,1c0.3,0.4,0.6,0.9,0.7,1.4c0.2,0.6,0.2,1.2,0.2,1.8C333.7,174.7,333.6,175.4,333.4,176.1
		 M336,171c-0.6-1.6-1.8-2.8-3.4-3.3c-1-0.3-2-0.5-3.1-0.4H326c-0.2,0-0.4,0.1-0.6,0.2c-0.2,0.2-0.3,0.4-0.2,0.7V180
		c-0.1,0.4,0.2,0.8,0.6,0.9c0.1,0,0.1,0,0.2,0h3.3c1,0,2.1-0.1,3.1-0.4c0.8-0.2,1.6-0.7,2.2-1.2c0.6-0.6,1.1-1.4,1.4-2.2
		c0.3-1,0.5-2.1,0.5-3.2C336.5,172.9,336.4,171.9,336,171 M315.8,175.7h-3.9l1.9-5.8l0,0L315.8,175.7z M315.8,167.8
		c0-0.1-0.1-0.2-0.2-0.3c-0.1-0.1-0.2-0.1-0.3-0.2h-0.6h-1.8h-0.5c-0.1,0-0.2,0.1-0.3,0.2c-0.1,0.1-0.1,0.2-0.1,0.3l-4.1,12.2
		c-0.1,0.2-0.1,0.4-0.2,0.6c-0.1,0.1-0.1,0.2,0,0.4c0.1,0.1,0.2,0.2,0.4,0.2h1.5h0.4l0.2-0.2c0-0.1,0-0.2,0-0.3l0.9-2.7h5.1l0.9,2.7
		c0,0.1,0,0.2,0,0.2h0.2h0.5h1.6c0.1,0,0.3-0.1,0.4-0.2c0.1-0.1,0.1-0.2,0-0.3c0.1-0.2,0.3-0.3,0.4-0.5L315.8,167.8z M304,179.2
		c0-0.1,0-0.2,0-0.4c0-0.1-0.1-0.1-0.2-0.2c-0.1,0-0.1,0-0.2,0h-4.3v-11c0-0.1,0-0.1,0-0.2c0,0,0,0-0.2-0.2h-0.4h-1.3H297
		c-0.1,0-0.2,0.1-0.2,0.2c0,0.1,0,0.1,0,0.2v12.4c0,0.2,0.1,0.5,0.2,0.7c0.2,0.1,0.4,0.2,0.6,0.2h6.2h0.2l0.2-0.2v-0.4
		c0-0.2,0-0.3,0-0.5c0-0.2,0-0.4,0-0.5 M291.5,180.4l-0.3-0.6l-4.1-6.1l3.7-4.9c0.1-0.2,0.3-0.4,0.4-0.6c0-0.1,0-0.2,0-0.4
		c0-0.1,0-0.1,0-0.2c-0.1-0.1-0.1-0.1-0.2-0.1h-0.4h-1.4h-0.5l-0.3,0.2c-0.1,0.1-0.1,0.1-0.2,0.2l-4,5.8v-5.8c0-0.1,0-0.1,0-0.2
		c-0.1-0.1-0.1-0.1-0.2-0.2h-0.4h-1.4h-0.4c-0.1,0-0.2,0.1-0.2,0.2c0,0.1,0,0.1,0,0.2v12.8c0,0.1,0,0.1,0,0.2
		c0.1,0.1,0.1,0.1,0.2,0.2c0.1,0,0.3,0,0.4,0h1.3h0.4c0.1,0,0.2-0.1,0.2-0.2c0-0.1,0-0.1,0-0.2v-6.6l4.1,6.5
		c0.1,0.1,0.1,0.2,0.2,0.3l0.4,0.2h1h0.7c0.1,0,0.3,0,0.4,0c0.1,0,0.2-0.1,0.2-0.2c0-0.1,0-0.1,0-0.2c0-0.1,0-0.2,0-0.2
		 M275.9,175.5c-0.1-0.4-0.4-0.7-0.7-1c-0.3-0.3-0.6-0.6-0.9-0.8c-0.3-0.2-0.7-0.4-1.1-0.6l-1.1-0.5l-1-0.5
		c-0.2-0.2-0.5-0.4-0.7-0.6c-0.2-0.2-0.2-0.5-0.2-0.8c0-0.2,0-0.4,0-0.6c0.1-0.2,0.2-0.4,0.3-0.5c0.2-0.1,0.4-0.2,0.6-0.3
		c0.3,0,0.5,0,0.8,0c0.4,0,0.7,0,1.1,0c0.3,0.1,0.6,0.2,0.9,0.3c0.2,0.1,0.4,0.2,0.6,0.3h0.4h0.2c0-0.1,0.1-0.1,0.1-0.2
		c0,0,0-0.2,0-0.4v-1c0-0.1,0-0.2,0-0.3c0-0.1,0-0.1,0-0.2l-0.2-0.2c-0.1-0.1-0.3-0.2-0.4-0.3l-0.7-0.3l-0.9-0.2c-0.3,0-0.6,0-1,0
		c-0.6,0-1.2,0.1-1.8,0.2c-0.5,0.2-1,0.4-1.4,0.7c-0.4,0.3-0.8,0.8-1,1.2c-0.3,0.5-0.4,1.1-0.4,1.7c0,0.5,0.1,1,0.3,1.4
		c0.1,0.4,0.4,0.8,0.7,1.1c0.3,0.3,0.6,0.6,0.9,0.8c0.3,0.2,0.7,0.4,1.1,0.6l1.1,0.5c0.3,0.1,0.6,0.3,0.9,0.5
		c0.3,0.2,0.5,0.4,0.7,0.6c0.2,0.2,0.3,0.5,0.3,0.8c0,0.3,0,0.5-0.2,0.7c-0.1,0.2-0.2,0.4-0.4,0.6c-0.2,0.1-0.4,0.3-0.7,0.3
		c-0.3,0.1-0.6,0.1-0.9,0.1c-0.5,0-0.9,0-1.3-0.2l-1-0.4l-0.7-0.4c-0.1-0.1-0.3-0.2-0.4-0.2h-0.2c-0.1,0.1-0.1,0.1-0.1,0.2
		c0,0.1,0,0.2,0,0.4v0.5c0,0.3,0,0.5,0,0.8c0,0.1,0.1,0.3,0.2,0.4c0.1,0.1,0.3,0.2,0.4,0.3c0.3,0.1,0.5,0.2,0.8,0.3
		c0.3,0.1,0.7,0.2,1.1,0.3c1.1,0.2,2.2,0.2,3.3-0.2c0.6-0.2,1.1-0.4,1.6-0.8c0.5-0.4,0.8-0.8,1.1-1.3c0.3-0.6,0.4-1.2,0.4-1.9
		C276.1,176.4,276,175.9,275.9,175.5 M253.8,167.7c0-0.1,0-0.1,0-0.2c-0.1-0.1-0.1-0.1-0.2-0.2h-0.4h-1.2h-0.4
		c-0.1,0-0.2,0.1-0.2,0.2c0,0.1,0,0.1,0,0.2v12.9c0,0.1,0,0.1,0,0.2c0.1,0.1,0.1,0.1,0.2,0.1h0.4h1.3c0.1,0,0.3,0,0.4,0
		c0.1,0,0.2-0.1,0.2-0.1c0-0.1,0-0.1,0-0.2L253.8,167.7z M244.8,167.7c0-0.1,0-0.1,0-0.2c0-0.1-0.1-0.1-0.2-0.2c-0.1,0-0.2,0-0.4,0
		h-1.2c-0.1,0-0.3,0-0.4,0c-0.1,0-0.2,0.1-0.2,0.2c0,0.1,0,0.1,0,0.2v6.4c0,0.5,0,1,0,1.5s0,1,0,1.5l0,0l-0.4-0.8
		c0-0.3-0.3-0.6-0.4-0.9l-0.4-0.9l-0.5-0.9l-2.7-5.1c-0.1-0.2-0.2-0.5-0.4-0.7c-0.1-0.2-0.3-0.3-0.4-0.4c-0.2-0.1-0.3-0.2-0.5-0.2
		c-0.2,0-0.4,0-0.7,0h-1.5c-0.3,0-0.5,0.1-0.7,0.3c-0.2,0.2-0.3,0.5-0.3,0.7v12.2c0,0.1,0,0.1,0,0.2c0,0.1,0.1,0.1,0.2,0.2h0.4h1.2
		h0.4c0.1,0,0.2-0.1,0.2-0.2c0-0.1,0-0.1,0-0.2v-7.1c0-0.5,0-1,0-1.5s0-1,0-1.5l0,0c0.2,0.4,0.3,0.8,0.5,1.3s0.4,0.8,0.6,1.2
		l3.4,6.4l0.5,0.9c0.1,0.2,0.3,0.4,0.4,0.5c0.1,0.1,0.3,0.2,0.5,0.3c0.2,0,0.4,0,0.6,0h1.2h0.4c0.1,0,0.2-0.1,0.3-0.2
		c0.1-0.1,0.2-0.2,0.2-0.3c0-0.1,0-0.3,0-0.4L244.8,167.7z M228.8,179.2c0-0.1,0-0.2,0-0.4c0,0,0-0.2,0-0.2c-0.1,0-0.1,0-0.2,0h-4.2
		v-11c0-0.1,0-0.1,0-0.2c-0.1-0.1-0.1-0.1-0.2-0.2h-0.4h-1.3h-0.4c-0.1,0-0.2,0.1-0.2,0.2c0,0.1,0,0.1,0,0.2v12.4
		c0,0.2,0.1,0.5,0.2,0.7c0.2,0.1,0.4,0.2,0.6,0.2h6.2h0.2c0-0.1,0-0.1,0-0.2v-0.4c0-0.2,0-0.3,0-0.5c0-0.2,0-0.4,0-0.5 M212,175.8
		h-3.9l1.9-5.8l0,0L212,175.8z M212,168c0-0.1-0.1-0.2-0.2-0.3c-0.1-0.1-0.2-0.1-0.3-0.2H211h-1.8h-0.5c-0.1,0-0.2,0.1-0.3,0.2
		l-0.2,0.3l-4,12c-0.1,0.2-0.1,0.4-0.2,0.6c0,0.1,0,0.2,0,0.4c0.1,0.1,0.2,0.1,0.4,0.2h1.5h0.4l0.2-0.2c0-0.1,0-0.2,0-0.3l0.9-2.7
		h5.1l0.9,2.7v0.2h0.2h0.5h1.6c0.1,0,0.3-0.1,0.4-0.2c0.1-0.1,0.1-0.2,0-0.3c0.1-0.1,0.3-0.3,0.4-0.5L212,168z M198.9,167.8
		c0-0.1,0-0.1,0-0.2c-0.1-0.1-0.1-0.1-0.2-0.2h-0.4h-1.3h-0.4c-0.1,0-0.2,0.1-0.2,0.2c0,0.1,0,0.1,0,0.2v12.9c0,0.1,0,0.1,0,0.2
		c0.1,0.1,0.1,0.1,0.2,0.1c0.1,0,0.3,0,0.4,0h1.3h0.4c0.1,0,0.2-0.1,0.2-0.1c0-0.1,0-0.1,0-0.2V167.8z M190.9,178.4
		c0-0.1,0-0.2,0-0.4c0,0,0-0.1,0-0.2c-0.1,0-0.1,0-0.2,0c-0.1,0-0.3,0.1-0.4,0.2l-0.6,0.4c-0.3,0.2-0.6,0.3-0.9,0.4
		c-0.4,0.1-0.8,0.2-1.3,0.2c-0.5,0-1-0.1-1.5-0.3c-0.4-0.2-0.8-0.5-1.1-0.8c-0.3-0.4-0.5-0.9-0.7-1.4c-0.2-0.7-0.3-1.4-0.3-2.1
		c0-0.7,0.1-1.3,0.2-2c0.1-0.5,0.4-1,0.7-1.5c0.3-0.5,0.7-0.8,1.2-1.1c0.4-0.2,0.9-0.3,1.4-0.3c0.8,0,1.5,0.2,2.2,0.6
		c0.2,0.1,0.4,0.3,0.6,0.4c0.1,0.1,0.3,0.2,0.4,0.2h0.2c0-0.1,0.1-0.1,0.1-0.2v-0.4c0-0.2,0-0.3,0-0.5c0-0.2,0-0.4,0-0.5
		s0-0.3,0-0.4c0-0.1,0-0.2,0-0.2l-0.2-0.3c-0.2-0.1-0.3-0.2-0.5-0.3l-0.8-0.4l-1-0.3c-0.4,0-0.7,0-1.1,0c-0.9,0-1.7,0.1-2.5,0.5
		c-0.8,0.3-1.4,0.8-2,1.4c-0.6,0.7-1,1.4-1.3,2.3c-0.6,2-0.6,4.1,0,6.1c0.2,0.8,0.7,1.5,1.2,2.1c0.5,0.6,1.2,1,1.9,1.3
		c0.8,0.3,1.7,0.4,2.5,0.4c0.4,0,0.9,0,1.3-0.1c0.4-0.1,0.7-0.2,1.1-0.3c0.3-0.1,0.6-0.2,0.8-0.4c0.2-0.1,0.3-0.2,0.5-0.3l0.2-0.2
		v-0.2c0,0,0-0.2,0-0.3V179c0-0.2,0-0.4,0-0.6 M173.2,176.1c-0.1,0.5-0.3,1.1-0.6,1.5c-0.3,0.4-0.7,0.8-1.1,1
		c-0.5,0.3-1.1,0.4-1.7,0.4c-0.6,0-1.2-0.1-1.7-0.3c-0.4-0.2-0.8-0.5-1.1-1c-0.3-0.5-0.5-1-0.6-1.5c-0.1-0.7-0.2-1.3-0.2-2
		c0-0.6,0-1.2,0.2-1.8c0.1-0.5,0.3-1,0.6-1.5c0.3-0.4,0.7-0.8,1.1-1c0.5-0.3,1.1-0.4,1.7-0.4c0.6,0,1.1,0.1,1.7,0.4
		c0.4,0.2,0.8,0.6,1.1,1c0.3,0.5,0.5,1,0.6,1.5c0.1,0.6,0.2,1.3,0.2,2C173.4,174.9,173.3,175.5,173.2,176.1 M175.9,171.1
		c-0.2-0.8-0.6-1.5-1.2-2.2c-0.5-0.6-1.2-1-2-1.3c-0.9-0.3-1.8-0.4-2.7-0.4c-1,0-1.9,0.1-2.9,0.5c-0.8,0.3-1.5,0.8-2,1.4
		c-0.6,0.7-1,1.4-1.2,2.3c-0.3,1-0.4,2-0.4,3c0,1.1,0.1,2.1,0.4,3.1c0.2,0.8,0.6,1.5,1.2,2.2c0.5,0.6,1.2,1,2,1.3
		c0.9,0.3,1.8,0.4,2.8,0.4c1,0,1.9-0.2,2.8-0.5c0.8-0.3,1.5-0.8,2-1.4c0.6-0.7,1-1.4,1.2-2.3c0.3-1,0.4-2,0.4-3
		C176.3,173.1,176.2,172.1,175.9,171.1 M158.3,175.4c-0.1-0.4-0.4-0.7-0.6-1c-0.3-0.3-0.6-0.6-1-0.8c-0.3-0.2-0.7-0.4-1.1-0.6
		l-1.1-0.5c-0.4-0.2-0.7-0.3-0.9-0.5c-0.3-0.2-0.5-0.4-0.7-0.6c-0.2-0.2-0.3-0.5-0.3-0.8c0-0.4,0.2-0.7,0.5-0.9
		c0.2-0.1,0.4-0.2,0.6-0.3c0.3,0,0.5,0,0.8,0c0.4,0,0.7,0,1.1,0c0.3,0.1,0.6,0.2,0.8,0.3c0.2,0.1,0.4,0.2,0.6,0.3c0.1,0,0.2,0,0.4,0
		h0.2v-0.2c0,0,0-0.2,0-0.4v-1c0,0,0-0.2,0-0.3v-0.2l-0.2-0.2c-0.1-0.1-0.3-0.2-0.4-0.3l-0.7-0.3l-0.9-0.2c-0.3,0-0.6,0-1,0
		c-0.6,0-1.2,0.1-1.8,0.2c-0.5,0.2-1,0.4-1.4,0.7c-0.4,0.3-0.8,0.8-1,1.2c-0.2,0.5-0.4,1.1-0.4,1.7c0,0.5,0.1,1,0.3,1.4
		c0.2,0.4,0.4,0.7,0.7,1.1c0.3,0.3,0.6,0.6,0.9,0.8c0.3,0.2,0.7,0.4,1.1,0.6l1.1,0.5c0.3,0.1,0.6,0.3,0.9,0.5
		c0.3,0.1,0.5,0.3,0.7,0.6c0.2,0.2,0.3,0.5,0.3,0.8c0,0.3,0,0.5-0.2,0.7c-0.1,0.2-0.2,0.4-0.4,0.6c-0.2,0.1-0.4,0.3-0.7,0.3
		c-0.3,0.1-0.6,0.1-0.9,0.1c-0.5,0-0.9,0-1.3-0.2l-1-0.4l-0.7-0.4c-0.1-0.1-0.3-0.2-0.4-0.2H150c-0.1,0.1-0.1,0.1-0.1,0.2
		c0,0.1,0,0.2,0,0.4c0,0.2,0,0.4,0,0.5c0,0.3,0,0.5,0,0.8c0,0.1,0.1,0.3,0.2,0.4c0.1,0.1,0.3,0.2,0.4,0.3c0.3,0.1,0.5,0.2,0.8,0.3
		c0.3,0.1,0.7,0.2,1.1,0.3c1.1,0.2,2.2,0.2,3.3-0.2c0.6-0.2,1.1-0.4,1.6-0.8c0.5-0.4,0.8-0.8,1.1-1.3c0.3-0.6,0.4-1.2,0.4-1.9
		C158.7,176.4,158.6,175.9,158.3,175.4"/>
	<path class="st2" d="M258.9,142.5c0-0.1,0-0.1,0-0.2c-0.1-0.1-0.1-0.1-0.2-0.2h-0.4H257h-0.4c0,0-0.2,0-0.2,0.2c0,0.1,0,0.1,0,0.2
		v12.9c0,0.1,0,0.1,0,0.2c0.1,0,0.2,0,0.2,0c0.1,0,0.3,0,0.4,0h0.7h0.7c0.1,0,0.3,0,0.4,0c0.1,0,0.2,0,0.2,0c0-0.1,0-0.1,0-0.2
		L258.9,142.5z M251,155.2c-0.1-0.2-0.2-0.4-0.3-0.6l-4.1-6.1l3.7-4.9c0.2-0.3,0.3-0.5,0.4-0.6c0-0.1,0-0.3,0-0.4c0-0.1,0-0.1,0-0.2
		l-0.2-0.2h-0.4h-1.4h-0.4l-0.3,0.2c-0.1,0.1-0.1,0.1-0.2,0.2l-4,5.8v-5.8c0-0.1,0-0.1,0-0.2c0,0,0,0-0.2-0.2h-0.4h-1.4h-0.4
		c-0.1,0-0.2,0.1-0.2,0.2c0,0.1,0,0.1,0,0.2v12.8c0,0.1,0,0.1,0,0.2l0.2,0.2c0.1,0,0.3,0,0.4,0h0.7h0.7c0.1,0,0.3,0,0.4,0
		c0.1,0,0.2-0.1,0.2-0.2c0-0.1,0-0.1,0-0.2V149l4.1,6.4c0,0.1,0.1,0.2,0.2,0.3c0.1,0.1,0.3,0.1,0.4,0.2h1h0.7c0.2,0,0.3,0,0.5,0
		l0.2-0.2c0-0.1,0-0.1,0-0.2c0-0.1,0-0.2,0-0.2 M235.4,150.5c-0.2-0.4-0.4-0.7-0.7-1.1c-0.3-0.3-0.6-0.5-0.9-0.8
		c-0.3-0.2-0.7-0.4-1.1-0.6l-1.1-0.5c-0.3-0.1-0.6-0.3-0.9-0.5c-0.3-0.1-0.5-0.3-0.7-0.6c-0.2-0.2-0.3-0.5-0.3-0.8
		c0-0.2,0-0.4,0-0.6c0.1-0.2,0.2-0.3,0.4-0.5c0.2-0.1,0.4-0.2,0.6-0.3c0.3,0,0.5,0,0.8,0c0.4,0,0.7,0,1.1,0.1
		c0.3,0.1,0.6,0.2,0.8,0.3l0.6,0.3c0.1,0.1,0.2,0.1,0.4,0.2h0.2c0-0.1,0-0.1,0-0.2c0-0.1,0-0.2,0-0.4c0-0.1,0-0.3,0-0.5
		c0-0.2,0-0.3,0-0.5c0-0.1,0-0.2,0-0.3v-0.2l-0.1-0.2c-0.1-0.1-0.3-0.2-0.4-0.3c-0.2-0.1-0.5-0.2-0.8-0.3l-0.9-0.2h-1
		c-0.6,0-1.2,0.1-1.8,0.2c-1.1,0.3-2,1-2.5,2c-0.2,0.5-0.4,1.1-0.4,1.7c0,0.5,0.1,1,0.3,1.5c0.2,0.4,0.4,0.7,0.7,1.1
		c0.3,0.3,0.6,0.5,0.9,0.8c0.3,0.2,0.7,0.4,1.1,0.6l1.1,0.5c0.3,0.1,0.6,0.3,0.9,0.5c0.2,0.2,0.5,0.4,0.7,0.6
		c0.2,0.2,0.2,0.5,0.2,0.8c0,0.3,0,0.5-0.1,0.7c-0.1,0.2-0.2,0.4-0.4,0.5c-0.2,0.2-0.4,0.3-0.7,0.4c-0.3,0.1-0.6,0.1-0.9,0.1
		c-0.5,0-0.9-0.1-1.3-0.2l-1-0.4l-0.7-0.4c-0.1-0.1-0.3-0.2-0.4-0.2c-0.1,0-0.1,0-0.2,0c0,0,0,0,0,0.2c0,0.1,0,0.2,0,0.4
		c0,0.2,0,0.4,0,0.5c0,0.3,0,0.5,0,0.8c0,0.1,0.1,0.3,0.2,0.4c0.1,0.1,0.3,0.2,0.5,0.3c0.2,0.1,0.5,0.2,0.8,0.3
		c0.3,0.1,0.7,0.2,1.1,0.3c1.1,0.2,2.2,0.2,3.3-0.2c0.6-0.2,1.1-0.4,1.6-0.8c0.5-0.4,0.8-0.8,1.1-1.4c0.3-0.6,0.4-1.2,0.4-1.9
		c0-0.5-0.1-1-0.3-1.4 M219.1,147.8c-0.1,0.3-0.2,0.5-0.4,0.8c-0.2,0.2-0.5,0.4-0.7,0.5c-0.3,0.1-0.7,0.2-1.1,0.2h-1.2v-4.8h1.2
		c0.3,0,0.6,0,0.8,0c0.3,0,0.5,0.1,0.8,0.3c0.3,0.2,0.5,0.4,0.6,0.7c0.2,0.4,0.3,0.8,0.3,1.2c0,0.3,0,0.7-0.2,1 M221.9,144.9
		c-0.1-0.4-0.4-0.8-0.7-1.2c-0.3-0.3-0.7-0.6-1.1-0.8c-0.4-0.2-0.8-0.3-1.2-0.4c-0.3-0.1-0.7-0.1-1.1-0.2H217h-3
		c-0.2,0-0.5,0.1-0.7,0.3c-0.2,0.2-0.3,0.5-0.3,0.7v12.2c0,0.1,0,0.1,0,0.2c0.1,0,0.2,0,0.2,0c0.1,0,0.3,0,0.4,0h0.7h0.7
		c0.1,0,0.3,0,0.4,0c0.1,0,0.2,0,0.2,0c0-0.1,0-0.1,0-0.2v-4.3h1.1c0.8,0,1.6-0.1,2.4-0.3c0.6-0.2,1.2-0.5,1.7-0.9
		c0.5-0.4,0.8-0.9,1-1.5c0.2-0.6,0.4-1.3,0.4-2C222.2,145.9,222.2,145.4,221.9,144.9 M204.3,150.9c-0.1,0.5-0.3,1.1-0.6,1.5
		c-0.3,0.4-0.6,0.8-1.1,1c-0.5,0.3-1.1,0.4-1.7,0.4c-0.6,0-1.2-0.1-1.7-0.3c-0.4-0.2-0.8-0.5-1.1-1c-0.3-0.5-0.5-1-0.6-1.5
		c-0.1-0.7-0.2-1.3-0.2-2c0-0.6,0.1-1.2,0.2-1.8c0.1-0.5,0.3-1,0.6-1.5c0.3-0.4,0.6-0.8,1.1-1c0.5-0.3,1.1-0.4,1.7-0.4
		c0.6,0,1.2,0.1,1.7,0.4c0.4,0.2,0.8,0.5,1.1,1c0.3,0.5,0.5,1,0.6,1.5c0.1,0.6,0.2,1.3,0.2,2C204.5,149.7,204.4,150.3,204.3,150.9
		 M206.8,145.8c-0.2-0.8-0.6-1.5-1.2-2.1c-0.5-0.6-1.2-1-2-1.3c-0.7-0.3-1.5-0.5-2.3-0.6c-1,0-1.9,0.1-2.8,0.5
		c-0.8,0.3-1.5,0.8-2,1.4c-0.6,0.7-1,1.4-1.3,2.3c-0.3,1-0.4,2-0.4,3c0,1.1,0.1,2.1,0.4,3.1c0.2,0.8,0.6,1.5,1.2,2.2
		c0.5,0.6,1.2,1,2,1.3c0.9,0.3,1.8,0.4,2.8,0.4c1,0,1.9-0.2,2.8-0.5c0.8-0.3,1.5-0.8,2-1.4c0.6-0.7,1-1.4,1.3-2.3
		c0.5-2,0.5-4.1,0-6.1 M186.7,146.9c-0.1,0.2-0.2,0.5-0.4,0.6c-0.2,0.2-0.5,0.3-0.7,0.4c-0.3,0.1-0.7,0.2-1,0.2h-1.4v-3.7h2h0.5
		c0.4,0.1,0.7,0.3,1,0.7c0.2,0.3,0.3,0.7,0.3,1.1C186.8,146.5,186.8,146.8,186.7,146.9 M190.3,155.2c-0.1-0.2-0.1-0.4-0.2-0.6
		l-1.1-2.7c-0.1-0.3-0.2-0.6-0.4-0.9c-0.1-0.2-0.3-0.5-0.5-0.7c-0.1-0.2-0.3-0.4-0.5-0.5c-0.2-0.1-0.4-0.3-0.6-0.4
		c0.4-0.1,0.8-0.3,1.1-0.5c0.3-0.2,0.6-0.5,0.8-0.8c0.2-0.3,0.4-0.6,0.5-1c0.1-0.4,0.2-0.8,0.2-1.3c0-0.5-0.1-1-0.3-1.4
		c-0.1-0.4-0.4-0.8-0.7-1.1c-0.3-0.3-0.7-0.6-1.1-0.7c-0.5-0.2-1-0.3-1.5-0.4h-0.6h-4.4c-0.4,0-0.8,0.3-0.8,0.7c0,0.1,0,0.1,0,0.2
		v12.4c0,0.1,0,0.1,0,0.2c0.1,0,0.2,0,0.2,0c0.1,0,0.3,0,0.4,0h0.7h0.7c0.1,0,0.3,0,0.4,0c0.1,0,0.2,0,0.2,0c0-0.1,0-0.1,0-0.2v-5.1
		h0.9c0.3-0.1,0.5-0.1,0.8,0c0.2,0.1,0.4,0.2,0.6,0.4c0.2,0.2,0.3,0.4,0.5,0.7c0.2,0.3,0.3,0.6,0.4,0.9l1.2,3c0,0.1,0.1,0.2,0.1,0.2
		c0.1,0.1,0.1,0.1,0.2,0.2h0.4h1.5h0.5c0.1,0,0.2-0.1,0.2-0.1c0-0.1,0-0.1,0-0.2c0-0.1,0-0.2,0-0.3 M175,143.3
		c0.1-0.2,0.1-0.4,0.2-0.6c0-0.1,0-0.2,0-0.3c-0.1-0.1-0.2-0.1-0.4-0.2h-1.5c-0.1,0-0.3,0-0.4,0c-0.1,0-0.2,0.1-0.2,0.2
		c0,0.1,0,0.2,0,0.3l-3.2,10.4l0,0l-3.3-10.5c0-0.1-0.1-0.2-0.1-0.3c0,0,0-0.1-0.2-0.2h-0.4h-1.6c-0.1,0-0.3,0-0.5,0
		c-0.1,0.1-0.1,0.2,0,0.3c0,0.2,0.1,0.4,0.2,0.6l4,12.1v0.2l0.2,0.2h0.2h0.4h2.1c0.2,0,0.3,0,0.5,0c0.1,0,0.2-0.1,0.3-0.2l0.2-0.3
		L175,143.3z M158.5,154.3c0-0.1,0-0.2,0-0.3c0-0.1-0.1-0.1-0.1-0.2c-0.1,0-0.1,0-0.2,0h-4.9v-3.9h4.1c0.1,0,0.1,0,0.2,0
		c0.1,0,0.1-0.1,0.1-0.2c0-0.1,0-0.2,0-0.3c0-0.2,0-0.3,0-0.5c0-0.2,0-0.3,0-0.5c0-0.1,0-0.2,0-0.3c0-0.1-0.1-0.1-0.1-0.2h-0.2h-4.1
		v-3.5h4.9h0.2c0-0.1,0-0.1,0-0.2c0-0.1,0-0.2,0-0.3c0.1-0.3,0.1-0.7,0-1c0-0.1,0-0.2,0-0.3c0-0.1,0-0.1,0-0.2h-0.2h-6.8
		c-0.2,0-0.4,0.1-0.6,0.2c-0.2,0.2-0.3,0.4-0.2,0.7v11.9c0,0.2,0.1,0.5,0.2,0.7c0.2,0.1,0.4,0.2,0.6,0.2h6.8h0.2
		c0.1,0,0.1-0.1,0.1-0.2c0-0.1,0-0.2,0-0.3c0-0.2,0-0.4,0-0.5c0-0.2,0-0.3,0-0.5"/>
	<path class="st2" d="M419,123.2h-5.4l2.7-8.2l0,0L419,123.2z M419.2,112.1c0-0.2-0.1-0.3-0.2-0.5c-0.1-0.1-0.3-0.2-0.4-0.3
		c-0.3,0-0.5,0-0.8,0h-2.5h-0.7c-0.1,0.1-0.3,0.1-0.4,0.3c-0.1,0.1-0.2,0.3-0.2,0.4l-6,17.1c-0.1,0.3-0.2,0.6-0.2,0.8
		c-0.1,0.2-0.1,0.3,0,0.5c0.1,0.1,0.3,0.2,0.5,0.2h1.1h1c0.2,0,0.4,0,0.6,0c0.1,0,0.2-0.1,0.3-0.2c0.1-0.1,0.1-0.2,0.2-0.4l1.2-3.8
		h7.2l1.3,3.9c0,0.1,0.1,0.2,0.1,0.3c0.1,0.1,0.2,0.1,0.3,0.2c0.2,0,0.4,0,0.6,0h1.2h1.1c0.2,0,0.4-0.1,0.6-0.2
		c0.1-0.1,0.1-0.3,0-0.5c0-0.3-0.1-0.6-0.2-0.8L419.2,112.1z M401.5,111.9c0-0.1,0-0.2,0-0.3c-0.1-0.1-0.2-0.2-0.3-0.2h-0.6h-0.9
		h-0.9h-0.6c-0.1,0-0.2,0.1-0.3,0.2c0,0.1,0,0.2,0,0.3v13.2c0,0.4,0,0.8,0,1.2c-0.1,0.3-0.2,0.5-0.3,0.7c-0.1,0.2-0.3,0.3-0.5,0.4
		c-0.2,0-0.5,0-0.7,0c-0.2,0-0.5,0-0.7,0c-0.2,0-0.4-0.1-0.5-0.2l-0.4-0.2c-0.1,0-0.2,0-0.3,0c-0.1,0-0.2,0-0.2,0
		c-0.1,0.1-0.1,0.2-0.2,0.3c0,0.2,0,0.4,0,0.6c0,0.3,0,0.6,0,0.8v0.7c0,0.2,0,0.3,0,0.4c0,0.1,0,0.2,0,0.3c0,0.1,0.1,0.2,0.2,0.2
		c0.1,0.1,0.2,0.2,0.4,0.2c0.2,0.1,0.4,0.2,0.6,0.2l0.8,0.2c0.3,0,0.6,0,0.9,0c0.8,0,1.6-0.1,2.4-0.4c0.6-0.2,1.1-0.6,1.5-1.1
		c0.4-0.5,0.7-1.1,0.8-1.8c0.2-0.8,0.3-1.6,0.3-2.4L401.5,111.9z M386.8,111.9c0-0.1,0-0.2,0-0.3c-0.1-0.1-0.2-0.1-0.3-0.2l-0.6-0.1
		h-1H384c-0.2,0-0.4,0.1-0.6,0.1c-0.1,0-0.2,0.1-0.3,0.2c0,0.1,0,0.2,0,0.3v18.2c0,0.1,0,0.2,0,0.3c0.1,0.1,0.2,0.2,0.3,0.2
		c0.2,0.1,0.4,0.1,0.6,0.1h0.9h1l0.6-0.1c0.1,0,0.2-0.1,0.3-0.2c0-0.1,0-0.2,0-0.3V111.9z M374.2,111.9c0-0.1,0-0.2,0-0.3
		c-0.1-0.1-0.2-0.2-0.3-0.2h-0.5h-1.7c-0.2,0-0.4,0-0.6,0c-0.1,0-0.2,0.1-0.3,0.2c0,0.1,0,0.2,0,0.3v11.2c0,0.8,0,1.5,0,2.2l0,0
		c-0.2-0.4-0.4-0.8-0.6-1.2l-0.6-1.2l-0.6-1.2l-0.7-1.3l-3.7-7c-0.2-0.3-0.4-0.7-0.6-1c-0.2-0.2-0.4-0.5-0.6-0.6
		c-0.2-0.2-0.4-0.3-0.7-0.3c-0.3,0-0.6,0-0.9,0h-2.1c-0.4,0-0.7,0.1-1,0.4c-0.3,0.3-0.4,0.7-0.4,1v17.3c0,0.1,0,0.2,0,0.3
		c0.1,0.1,0.2,0.2,0.3,0.2c0.2,0.1,0.3,0.1,0.5,0.1h0.9h0.9c0.2,0,0.4-0.1,0.6-0.1c0.1,0,0.2-0.1,0.3-0.2c0-0.1,0-0.2,0-0.3v-10.1
		c0-0.8,0-1.5,0-2.2s0-1.4,0-2.1l0,0c0.2,0.6,0.5,1.2,0.8,1.8s0.6,1.2,0.9,1.7l4.8,9c0.2,0.4,0.4,0.8,0.7,1.2
		c0.2,0.3,0.4,0.5,0.6,0.7c0.2,0.2,0.4,0.3,0.7,0.4c0.3,0,0.6,0,0.9,0h1.6c0.2,0,0.4,0,0.6,0c0.2-0.1,0.3-0.1,0.5-0.3
		c0.1-0.1,0.2-0.3,0.3-0.5c0-0.2,0-0.4,0-0.6L374.2,111.9z M349.7,111.9c0-0.1,0-0.2,0-0.3c-0.1-0.1-0.2-0.2-0.3-0.2l-0.6-0.1h-0.9
		h-0.9c-0.2,0-0.4,0.1-0.6,0.1c-0.1,0-0.2,0.1-0.3,0.2c0,0.1,0,0.2,0,0.3v11.6c0,0.6-0.1,1.2-0.3,1.8c-0.2,0.5-0.4,0.9-0.8,1.3
		c-0.3,0.4-0.8,0.7-1.2,0.8c-0.5,0.2-1.1,0.3-1.6,0.3c-0.6,0-1.1-0.1-1.6-0.3c-0.5-0.2-0.9-0.4-1.2-0.8c-0.4-0.4-0.6-0.9-0.8-1.4
		c-0.2-0.6-0.3-1.3-0.3-2v-11.4c0-0.1,0-0.2,0-0.3c-0.1-0.1-0.2-0.1-0.3-0.2c-0.2-0.1-0.4-0.1-0.6-0.1h-0.9h-1
		c-0.2,0-0.4,0.1-0.6,0.1c-0.1,0-0.2,0.1-0.3,0.2c0,0.1,0,0.2,0,0.3v11.7c0,1.1,0.2,2.2,0.5,3.2c0.7,1.8,2.1,3.1,3.9,3.7
		c2.2,0.6,4.5,0.6,6.7,0c0.9-0.3,1.8-0.8,2.5-1.5c0.7-0.7,1.2-1.5,1.5-2.4c0.4-1,0.5-2.1,0.5-3.1L349.7,111.9z M309.2,123.2h-5.4
		l2.7-8.2l0,0L309.2,123.2z M309.4,112.1c0-0.2-0.1-0.3-0.2-0.5c-0.1-0.1-0.3-0.2-0.4-0.3c-0.3,0-0.5,0-0.8,0h-2.5h-0.7
		c-0.1,0.1-0.3,0.1-0.4,0.3c-0.1,0.1-0.2,0.3-0.2,0.4l-6,17.1c-0.1,0.3-0.2,0.6-0.2,0.8c-0.1,0.2-0.1,0.3,0,0.5
		c0.1,0.1,0.3,0.2,0.5,0.2h1.1h1c0.2,0,0.4,0,0.6,0c0.1,0,0.2-0.1,0.3-0.2c0.1-0.1,0.1-0.2,0.2-0.4l1.2-3.8h7.3l1.3,3.9
		c0,0.1,0.1,0.2,0.2,0.3c0.1,0.1,0.2,0.1,0.3,0.2c0.2,0,0.4,0,0.6,0h1.2h1.1c0.2,0,0.4-0.1,0.6-0.2c0.1-0.1,0.1-0.3,0-0.5
		c-0.1-0.3-0.1-0.6-0.3-0.9L309.4,112.1z M292.4,129.7c-0.1-0.3-0.2-0.6-0.4-0.8l-5.7-8.7l5.3-6.9c0.3-0.4,0.4-0.7,0.5-0.8
		c0-0.2,0-0.3,0-0.5c0-0.1,0-0.2,0-0.3c-0.1-0.1-0.2-0.2-0.3-0.2c-0.2-0.1-0.4-0.1-0.6-0.1h-1h-1c-0.2,0-0.4,0-0.6,0
		c-0.2,0-0.3,0.1-0.4,0.2c-0.1,0.1-0.2,0.2-0.3,0.3l-5.7,8.3V112c0-0.1,0-0.2,0-0.3c-0.1-0.1-0.2-0.1-0.3-0.2
		c-0.2-0.1-0.4-0.1-0.6-0.1h-0.9h-1c-0.2,0-0.4,0.1-0.6,0.1c-0.1,0-0.2,0.1-0.3,0.2c0,0.1,0,0.2,0,0.3v18.1c0,0.1,0,0.2,0,0.3
		c0.1,0.1,0.2,0.2,0.3,0.2c0.2,0.1,0.4,0.1,0.6,0.1h1h0.9c0.2,0,0.4-0.1,0.6-0.1c0.1,0,0.2-0.1,0.3-0.2c0-0.1,0-0.2,0-0.3v-9.1
		l5.8,9.1c0.1,0.1,0.2,0.3,0.3,0.4c0.2,0.1,0.4,0.2,0.6,0.2c0.5,0,0.9,0,1.4,0h1c0.2,0,0.4-0.1,0.6-0.1c0.1,0,0.2-0.1,0.3-0.2
		c0-0.1,0-0.2,0-0.3C292.3,129.9,292.3,129.8,292.4,129.7 M270.5,122.8c-0.2-0.5-0.5-1-0.9-1.5c-0.4-0.4-0.8-0.8-1.3-1.1
		c-0.5-0.3-1-0.6-1.5-0.8l-1.5-0.7c-0.5-0.2-0.9-0.4-1.3-0.7c-0.4-0.2-0.7-0.5-0.9-0.8c-0.2-0.3-0.3-0.7-0.3-1.1
		c0-0.3,0.1-0.6,0.2-0.8c0.1-0.3,0.3-0.5,0.5-0.7c0.2-0.2,0.5-0.4,0.8-0.4c0.4-0.1,0.7-0.2,1.1-0.2c0.5,0,1,0.1,1.5,0.2
		c0.4,0.1,0.8,0.3,1.2,0.5c0.3,0.1,0.6,0.3,0.9,0.5c0.2,0.1,0.3,0.2,0.5,0.2c0.1,0,0.2,0,0.3,0c0.1-0.1,0.1-0.2,0.1-0.3
		c0-0.2,0-0.3,0-0.5c0-0.2,0-0.5,0-0.7v-0.6c0-0.2,0-0.3,0-0.4c0-0.1,0-0.2,0-0.3c0-0.1-0.1-0.2-0.2-0.3c-0.2-0.2-0.4-0.3-0.6-0.4
		c-0.3-0.2-0.7-0.3-1-0.4c-0.4-0.1-0.9-0.2-1.3-0.3c-0.5,0-0.9,0-1.4,0c-0.9,0-1.7,0.1-2.5,0.4c-0.7,0.2-1.4,0.6-2,1
		c-0.6,0.5-1.1,1.1-1.4,1.7c-0.4,0.8-0.5,1.7-0.5,2.5c0,0.7,0.1,1.4,0.4,2.1c0.2,0.5,0.5,1.1,0.9,1.5c0.4,0.4,0.8,0.8,1.3,1.1
		c0.5,0.3,1,0.6,1.5,0.8l1.5,0.7c0.5,0.2,0.9,0.4,1.3,0.7c0.4,0.2,0.7,0.5,0.9,0.8c0.2,0.3,0.4,0.7,0.4,1.1c0,0.3-0.1,0.7-0.2,1
		c-0.1,0.3-0.3,0.6-0.6,0.8c-0.3,0.2-0.6,0.4-1,0.5c-0.4,0.1-0.9,0.2-1.3,0.2c-0.6,0-1.3-0.1-1.9-0.2c-0.5-0.1-1-0.3-1.4-0.6l-1-0.5
		c-0.2-0.1-0.4-0.2-0.6-0.3c-0.1,0-0.2,0-0.3,0c-0.1,0.1-0.1,0.2-0.2,0.3c0,0,0,0.3,0,0.5s0,0.5,0,0.8c0,0.3,0,0.7,0,1
		c0,0.2,0.1,0.4,0.3,0.6c0.2,0.2,0.4,0.3,0.6,0.5c0.4,0.2,0.7,0.3,1.1,0.5c0.5,0.2,1,0.3,1.5,0.4c0.6,0.1,1.2,0.2,1.8,0.2
		c0.9,0,1.9-0.1,2.8-0.4c0.8-0.2,1.6-0.6,2.3-1.1c0.6-0.5,1.2-1.2,1.5-1.9c0.4-0.8,0.6-1.7,0.6-2.5c0-0.7-0.1-1.4-0.4-2
		 M247.8,119.2c-0.2,0.8-0.9,1.5-1.6,1.8c-0.5,0.2-1,0.3-1.6,0.3h-1.7v-6.5h1.5c0.4,0,0.8,0,1.2,0c0.4,0,0.8,0.2,1.1,0.4
		c0.4,0.2,0.7,0.6,0.9,1c0.3,0.5,0.4,1.1,0.4,1.6c0,0.5-0.1,0.9-0.2,1.4 M251.6,115.4c-0.2-0.6-0.5-1.2-0.9-1.6
		c-0.4-0.5-0.9-0.9-1.5-1.2c-0.5-0.3-1.1-0.5-1.7-0.6c-0.5-0.1-1-0.2-1.5-0.2h-1.3h-4.5c-0.3,0-0.7,0.1-0.9,0.4
		c-0.3,0.3-0.4,0.7-0.4,1v17.3c0,0.1,0,0.2,0,0.3c0.1,0.1,0.2,0.2,0.3,0.2c0.2,0.1,0.4,0.1,0.6,0.1h0.9h0.9c0.2,0,0.4-0.1,0.6-0.1
		c0.1,0,0.2-0.1,0.3-0.2c0-0.1,0-0.2,0-0.3v-6.1h1.8c1.1,0,2.2-0.1,3.3-0.5c0.9-0.2,1.7-0.7,2.4-1.3c0.7-0.6,1.2-1.3,1.5-2.1
		c0.4-0.9,0.5-1.9,0.5-2.9C252,116.8,251.9,116.1,251.6,115.4 M226.6,123.6c-0.1,0.8-0.4,1.5-0.8,2.2c-0.4,0.6-0.9,1.1-1.5,1.4
		c-0.8,0.4-1.7,0.6-2.5,0.5c-0.8,0-1.6-0.1-2.4-0.5c-0.6-0.3-1.2-0.8-1.5-1.4c-0.4-0.6-0.7-1.4-0.8-2.1c-0.2-0.9-0.2-1.9-0.2-2.8
		c0-0.9,0.1-1.7,0.2-2.5c0.2-0.8,0.4-1.5,0.9-2.1c0.4-0.6,0.9-1.1,1.5-1.4c0.7-0.4,1.6-0.6,2.4-0.5c0.8,0,1.6,0.1,2.4,0.5
		c0.6,0.3,1.1,0.8,1.5,1.4c0.4,0.7,0.7,1.4,0.8,2.1c0.2,0.9,0.2,1.8,0.2,2.7c0,0.9-0.1,1.7-0.3,2.5 M230.3,116.4
		c-0.3-1.1-0.9-2.2-1.7-3c-0.8-0.8-1.7-1.4-2.8-1.8c-1.2-0.4-2.5-0.6-3.8-0.6c-1.4,0-2.7,0.2-4,0.7c-1.1,0.4-2.1,1.1-2.9,2
		c-0.8,0.9-1.4,2-1.8,3.2c-0.4,1.4-0.6,2.8-0.6,4.2c0,1.5,0.2,3,0.6,4.4c0.3,1.1,0.9,2.2,1.7,3.1c0.8,0.8,1.7,1.4,2.8,1.8
		c1.3,0.4,2.6,0.6,3.9,0.6c1.4,0,2.7-0.2,4-0.7c1.1-0.4,2.1-1.1,2.9-2c0.8-0.9,1.4-2,1.7-3.2c0.4-1.4,0.6-2.8,0.6-4.3
		C230.9,119.3,230.7,117.8,230.3,116.4 M201.2,118.1c-0.1,0.3-0.3,0.6-0.6,0.9c-0.3,0.3-0.7,0.5-1,0.6c-0.5,0.1-1,0.2-1.5,0.2h-1.8
		v-5.5h2.8l0.7,0.1c0.6,0.1,1.1,0.5,1.4,0.9c0.3,0.5,0.4,1.1,0.4,1.6c0,0.4-0.1,0.8-0.2,1.1 M206.4,129.6c-0.1-0.3-0.2-0.5-0.3-0.8
		l-1.6-3.8c-0.2-0.5-0.4-0.9-0.6-1.2c-0.2-0.3-0.4-0.7-0.6-1c-0.2-0.3-0.4-0.5-0.7-0.7c-0.3-0.2-0.5-0.4-0.8-0.5
		c0.6-0.2,1.1-0.4,1.6-0.7c0.4-0.3,0.8-0.7,1.2-1.1c0.3-0.4,0.6-0.9,0.7-1.4c0.2-0.6,0.3-1.2,0.3-1.7c0-0.7-0.1-1.4-0.3-2
		c-0.2-0.6-0.6-1.1-1-1.5c-0.5-0.4-1-0.8-1.6-1c-0.7-0.3-1.4-0.5-2.1-0.6h-0.9h-6.2c-0.3,0-0.6,0.1-0.8,0.3
		c-0.2,0.2-0.4,0.6-0.3,0.9v17.5c0,0.1,0,0.2,0,0.3c0.1,0.1,0.2,0.1,0.3,0.2l0.6,0.1h1h0.9c0.2,0,0.4-0.1,0.6-0.1
		c0.1,0,0.2-0.1,0.3-0.2c0-0.1,0-0.2,0-0.3v-7.3h1.2c0.4,0,0.7,0.1,1.1,0.2c0.3,0.1,0.6,0.3,0.9,0.6c0.3,0.3,0.5,0.6,0.7,0.9
		l0.6,1.3l1.7,4.3c0,0.1,0.1,0.2,0.1,0.3c0.1,0.1,0.2,0.2,0.3,0.2c0.2,0,0.4,0,0.6,0h1h1.2c0.2,0,0.4,0,0.7,0c0.1,0,0.2-0.1,0.3-0.2
		c0-0.1,0-0.2,0-0.3c0-0.1,0-0.3,0-0.4 M184.9,112.9c0.1-0.3,0.2-0.5,0.2-0.8c0.1-0.2,0.1-0.3,0-0.5c-0.1-0.2-0.3-0.2-0.5-0.2h-1.1
		h-1.1c-0.2,0-0.4,0-0.6,0c-0.1,0.1-0.2,0.1-0.3,0.3c-0.1,0.1-0.1,0.3-0.2,0.4l-4.6,14.8l0,0l-4.7-14.8l-0.2-0.4
		c-0.1-0.1-0.2-0.2-0.3-0.2c-0.2,0-0.4,0-0.6,0H170h-1.2c-0.2,0-0.4,0.1-0.6,0.2c-0.1,0.1-0.2,0.3-0.2,0.5c0,0.3,0.1,0.6,0.2,0.8
		l5.7,17c0,0.1,0,0.2,0,0.3c0,0.1,0.1,0.2,0.2,0.2c0.1,0.1,0.2,0.1,0.3,0.2h0.5h2.9c0.2,0,0.5,0,0.7,0c0.2,0,0.3-0.1,0.4-0.3
		c0.1-0.1,0.2-0.3,0.2-0.4L184.9,112.9z M161.6,128.4c0-0.2,0-0.3,0-0.5c0-0.1-0.1-0.2-0.2-0.3c-0.1,0-0.2,0-0.2,0h-6.9v-5.4h5.8
		c0.1,0,0.2,0,0.2,0c0.1-0.1,0.2-0.2,0.2-0.3c0-0.2,0-0.3,0-0.5c0-0.2,0-0.5,0-0.7c0-0.2,0-0.5,0-0.7c0-0.2,0-0.3,0-0.5
		c0-0.1-0.1-0.2-0.2-0.3h-0.2h-5.8v-4.7h6.9c0.1,0,0.2,0,0.3,0c0.1-0.1,0.1-0.2,0.2-0.3c0-0.2,0-0.3,0-0.5c0-0.5,0-1,0-1.4
		c0-0.2,0-0.3,0-0.5c0-0.1-0.1-0.2-0.2-0.3c-0.1,0-0.2,0-0.3,0h-9.6c-0.3,0-0.6,0.1-0.8,0.3c-0.2,0.2-0.4,0.6-0.3,0.9v16.8
		c0,0.4,0.1,0.7,0.3,1c0.2,0.2,0.5,0.3,0.8,0.3h9.6c0.1,0,0.2,0,0.2,0c0.1-0.1,0.2-0.2,0.2-0.3c0-0.1,0-0.3,0-0.5c0-0.2,0-0.5,0-0.7
		c0-0.2,0-0.5,0-0.7"/>
</g>
<g id="Layer_3" class="st0">
	<path class="st1" d="M42.3,93.7c-3.3-1.7-6.8-3-10.5-4c-3.5-0.9-7.1-1.3-10.7-1.3c-3.7,0-7.3,0.4-10.9,1.3c-3.5,1-6.9,2.3-10.2,3.8
		L1.6,117c0.2,2.9,0.8,5.7,1.8,8.5c1.1,2.6,2.5,5,4.2,7.1c1.7,2.1,3.7,4,6,5.6c2.3,1.6,4.9,2.7,7.6,3.3c2.7-0.8,5.4-2,7.8-3.6
		c2.3-1.5,4.3-3.4,6-5.6c1.8-2.1,3.1-4.5,4-7.1c1-2.6,1.6-5.4,1.8-8.2L42.3,93.7z M21.1,107.2l4.2,8.7l2.9-4l7.1,9.6
		c-0.2,1-0.6,1.9-1.3,2.7c-1,0.7-2.2,1-3.3,0.9c-0.5,0-0.9,0-1.3-0.2c-0.4-0.2-0.7-0.2-1.1-0.4c-0.4-0.2-0.7-0.2-1.1-0.4
		c0-0.2-0.4-0.2-1.1-0.2c-0.5-0.1-1.1,0-1.6,0.2c-0.4,0.2-0.7,0.2-1.1,0.4c-0.4,0.2-0.7,0.2-0.9,0.4c-0.4,0.2-0.9,0.3-1.3,0.2
		c-0.7,0-1.1,0-1.3-0.2c-0.2-0.2-0.7-0.2-1.1-0.4c-0.4-0.2-0.7-0.2-1.1-0.4s-0.7-0.2-1.3-0.2c-0.5-0.1-1.1,0-1.6,0.2
		c-0.4,0.2-0.7,0.2-1.1,0.4c-0.4,0.2-0.7,0.2-1.1,0.4c-0.4,0.2-0.7,0.2-1.3,0.2c-1.2,0.1-2.4-0.2-3.3-0.9c-0.7-0.7-1.2-1.7-1.3-2.7
		l7.1-9.6l3.1,4L21.1,107.2z M24.7,127.3c-0.4,0.2-0.7,0.2-1.1,0.4c-0.3,0.3-0.7,0.4-1.1,0.4c-0.4,0.2-0.9,0.3-1.3,0.2
		c-0.7,0-1.1,0-1.3-0.2s-0.7-0.2-1.1-0.4c-0.4-0.2-0.7-0.4-1.1-0.4c-0.4-0.2-0.9-0.3-1.3-0.2c-0.7,0-1.1,0-1.3,0.2
		c-0.2,0.2-0.7,0.2-0.9,0.4c-0.2,0.2-0.7,0.2-0.9,0.4c-0.5,0.2-1,0.3-1.6,0.2c-0.6,0-1.2-0.1-1.8-0.4c-0.2-0.2-0.4-0.7-0.7-0.9
		s-0.2-0.7-0.4-0.9c0.4,0.2,0.9,0.4,1.3,0.4c0.5,0.2,1,0.3,1.6,0.2c0.7,0,1.1,0,1.3-0.2c0.2-0.2,0.7-0.2,1.1-0.4s0.7-0.2,1.1-0.4
		c0.4-0.2,0.9-0.3,1.3-0.2c0.7,0,1.1,0,1.3,0.2c0.2,0.2,0.7,0.2,1.1,0.4c0.4,0.2,0.7,0.2,0.9,0.4c0.5,0.2,1,0.3,1.6,0.2
		c0.7,0,1.1,0,1.3-0.2c0.2-0.2,0.7-0.2,1.1-0.4s0.7-0.2,1.1-0.4c0.4-0.2,0.9-0.3,1.3-0.2c0.7,0,1.1,0,1.3,0.2
		c0.2,0.2,0.7,0.2,1.1,0.4c0.4,0.2,0.7,0.2,1.1,0.4c0.5,0.2,1,0.3,1.6,0.2c0.5,0,1.1,0,1.6-0.2c0.4-0.2,0.9-0.2,1.3-0.4
		c-0.2,0.4-0.4,0.7-0.4,0.9s-0.2,0.4-0.4,0.9c-0.2,0-0.4,0.2-0.9,0.2s-0.7,0.2-0.9,0.2c-0.5,0.1-1.1,0-1.6-0.2
		c-0.4-0.2-0.7-0.2-1.1-0.4c-0.3-0.3-0.7-0.4-1.1-0.4c-0.4-0.2-0.9-0.3-1.3-0.2C25.4,127,24.9,127,24.7,127.3 M21.1,137
		c-2-0.6-3.9-1.6-5.6-2.9c-1.7-1.1-3.2-2.4-4.5-4c0.6,0,1.2,0,1.8-0.2c0.4-0.2,0.7-0.2,1.1-0.4c0.4-0.2,0.7-0.2,0.9-0.4
		c0.2-0.2,0.7-0.2,1.3-0.2c0.5,0,0.9,0,1.3,0.2c0.2,0.2,0.7,0.2,1.1,0.4s0.7,0.2,1.1,0.4c0.5,0.2,1,0.3,1.6,0.2
		c0.5,0.1,1.1,0,1.6-0.2c0.4-0.2,0.7-0.2,1.1-0.4s0.7-0.2,0.9-0.4c0.2-0.2,0.7-0.2,1.3-0.2c0.7,0,1.1,0,1.3,0.2
		c0.2,0.2,0.7,0.2,0.9,0.4s0.7,0.2,1.1,0.4c0.5,0.2,1,0.3,1.6,0.2C28.5,133.3,25.1,135.7,21.1,137 M39.4,117.2
		c-0.1,2.7-0.7,5.3-1.8,7.8c-0.9,2.4-2.2,4.7-3.8,6.7c-1.6,2-3.5,3.7-5.6,5.1c-2.1,1.4-4.5,2.5-6.9,3.3c-2.5-0.7-5-1.8-7.1-3.3
		c-4.3-2.9-7.5-7-9.3-11.8c-0.9-2.4-1.5-5-1.8-7.6L1.6,94.8c0.2,0,0.4-0.2,0.7-0.2c0.2,0,0.4-0.2,0.7-0.2l1.6,22.9
		c0.2,2.5,0.7,5,1.6,7.3c0.8,2.3,2,4.4,3.6,6.2c1.5,1.9,3.2,3.5,5.1,4.9c2,1.3,4.2,2.4,6.5,3.1c2.4-0.8,4.6-2,6.7-3.3
		c1.9-1.4,3.6-3,5.1-4.9c1.5-1.9,2.6-4,3.3-6.2c0.8-2.2,1.4-4.5,1.6-6.9l1.6-23.1c0.2,0,0.4,0.2,0.7,0.2c0.2,0,0.4,0.2,0.7,0.2
		L39.4,117.2z M21.1,98.8l0.7,1.8l1.8-0.2l-1.1,1.6l1.1,1.6l-1.8-0.2l-0.7,1.8l-0.7-1.8l-2,0.2l1.1-1.6l-1.1-1.6l1.8,0.2L21.1,98.8z
		 M16,91.9l0.7,1.8l1.8-0.2l-1.1,1.3l1.1,1.6l-1.8-0.2L16,97.9l-0.7-1.8l-2,0.2l1.1-1.6l-1.1-1.3l1.8,0.2L16,91.9z M26.3,91.9
		l0.7,1.8l1.8-0.2l-0.9,1.3l1.1,1.6l-1.8-0.2l-0.7,1.8l-0.7-1.8l-2,0.2l1.1-1.6l-1.1-1.6l1.8,0.2L26.3,91.9z"/>
	<path class="st1" d="M86.6,106.6h-1.8v-16h5.1c0.8,0,1.6,0,2.4,0.2c0.5,0.2,1.1,0.4,1.6,0.7c0.4,0.4,0.7,0.8,0.9,1.3
		c0.2,0.7,0.3,1.3,0.2,2c0.1,1.1-0.2,2.2-0.9,3.1c-0.6,0.7-1.5,1.2-2.4,1.3l3.8,7.1h-2l-3.6-6.9h-3.6v7.1L86.6,106.6z M86.6,98.1
		h3.3c0.5,0.1,1.1,0,1.6-0.2c0.4,0,0.8-0.2,1.1-0.4c0.3-0.3,0.5-0.6,0.7-0.9c0.2-0.5,0.3-1,0.2-1.6c0.1-0.5,0-1.1-0.2-1.6
		c-0.2-0.3-0.4-0.6-0.7-0.9c-0.3-0.3-0.7-0.4-1.1-0.4c-0.4,0-1.1-0.2-1.6-0.2h-3.3V98.1z"/>
	<path class="st1" d="M98.8,106.6v-16h9.6v1.3h-7.8v5.8h6.9v1.6h-6.9v5.8h7.8v1.3h-9.6V106.6z"/>
	<path class="st1" d="M113.3,106.6h-1.8v-16h4.9c0.8,0,1.6,0,2.4,0.2c0.5,0.2,1.1,0.4,1.6,0.7c0.4,0.4,0.7,0.8,0.9,1.3
		c0.2,0.7,0.3,1.5,0.2,2.2c0.1,1.4-0.4,2.8-1.3,3.8c-1.2,0.8-2.6,1.2-4,1.1h-3.3v6.7H113.3z M113.3,98.5h3.1c0.5,0.1,1.1,0,1.6-0.2
		c0.4,0,0.8-0.2,1.1-0.4c0.2-0.2,0.4-0.7,0.7-0.9c0.2-0.6,0.3-1.2,0.2-1.8c0.1-0.5,0-1.1-0.2-1.6c-0.2-0.3-0.4-0.6-0.7-0.9
		c-0.3-0.3-0.7-0.4-1.1-0.4c-0.4,0-1.1-0.2-1.6-0.2h-3.1V98.5z"/>
	<path class="st1" d="M135.3,101c0,0.9-0.2,1.8-0.4,2.7c-0.5,1.4-1.5,2.4-2.9,2.9c-0.8,0.2-1.6,0.3-2.4,0.2c-1.5,0.1-2.9-0.4-4-1.3
		c-1-1.2-1.5-2.7-1.3-4.2V90.5h1.8V101c-0.1,1.2,0.2,2.4,0.9,3.3c0.8,0.7,1.8,1,2.9,0.9c1.1,0.2,2.2-0.3,2.9-1.1
		c0.7-1,1-2.2,0.9-3.3V90.3h1.8L135.3,101L135.3,101z"/>
	<path class="st1" d="M149.7,102.1c0.1,1.3-0.4,2.5-1.3,3.3c-1.2,0.8-2.6,1.2-4,1.1h-5.1v-16h5.1c1.4-0.1,2.7,0.3,3.8,1.1
		c0.9,0.8,1.3,2,1.1,3.1c0.2,1.5-0.6,3-2,3.6l0,0c0.7,0.2,1.3,0.7,1.8,1.3C149.6,100.4,149.8,101.2,149.7,102.1z M147.7,94.8
		c0.1-0.8-0.2-1.7-0.9-2.2c-0.7-0.5-1.4-0.7-2.2-0.7h-3.6v5.6h3.6c0.8,0.1,1.6-0.2,2.2-0.7C147.5,96.3,147.8,95.5,147.7,94.8z
		 M148,102.1c0.1-0.8-0.2-1.7-0.9-2.2c-0.7-0.5-1.6-0.8-2.4-0.7h-3.8v6h3.8c0.9,0.1,1.7-0.2,2.4-0.7C147.7,103.9,148,103,148,102.1z
		"/>
	<path class="st1" d="M153.1,106.6v-16h1.8V105h7.3v1.3h-9.1V106.6z"/>
	<path class="st1" d="M164.9,106.6v-16h1.8v16H164.9z"/>
	<path class="st1" d="M171.1,90.5h1.8v7.1h1.6l5.1-7.1h2l-5.8,7.8l5.8,8.2h-2l-5.3-7.6h-1.3v7.6h-1.8L171.1,90.5z"/>
	<path class="st1" d="M192.5,102.6h-6.7l-1.3,4h-1.8l5.3-16h2.2l5.3,16h-2L192.5,102.6z M186,101.2h5.8l-2.7-9.1l0,0L186,101.2z"/>
	<path class="st1" d="M212,102.3c0.1,0.7,0,1.4-0.2,2c-0.1,0.5-0.4,1-0.9,1.3c-0.4,0.4-1,0.7-1.6,0.7c-0.8,0.2-1.6,0.3-2.4,0.2
		c-0.7,0-1.5,0-2.2-0.2c-0.7-0.2-1.3-0.2-2-0.4l0.4-1.3c0.6,0.3,1.3,0.4,2,0.4c0.7,0.2,1.5,0.3,2.2,0.2c0.5,0.1,1.1,0,1.6-0.2
		c0.4,0,0.7-0.2,1.1-0.4c0.3-0.3,0.5-0.6,0.7-0.9c0.2-0.4,0.3-0.9,0.2-1.3c0.1-0.4,0-0.8-0.2-1.1c-0.1-0.3-0.2-0.6-0.4-0.9
		c-0.3-0.3-0.7-0.5-1.1-0.7c-0.5-0.3-1-0.5-1.6-0.7l-2-0.7c-0.4-0.2-1.1-0.4-1.3-0.9c-0.4-0.3-0.7-0.8-0.9-1.3
		c-0.2-0.6-0.3-1.2-0.2-1.8c0-1.1,0.4-2.3,1.1-3.1c1.1-0.8,2.4-1.2,3.8-1.1c0.7,0,1.4,0,2,0.2c0.7,0.2,1.3,0.2,2,0.4l-0.2,1.3
		c-0.6-0.3-1.2-0.4-1.8-0.4c-0.6-0.2-1.3-0.3-2-0.2c-0.9-0.1-1.7,0.2-2.4,0.7c-0.5,0.6-0.7,1.3-0.7,2c-0.1,0.4,0,0.8,0.2,1.1
		c0.2,0.2,0.2,0.7,0.7,0.9c0.4,0.2,0.7,0.4,0.9,0.7c0.2,0.2,0.9,0.2,1.3,0.4c0.8,0.2,1.5,0.5,2.2,0.9c0.5,0.2,1,0.5,1.3,0.9
		c0.4,0.3,0.7,0.8,0.7,1.3C212.1,101,212,101.7,212,102.3z"/>
	<path class="st1" d="M215.2,106.6v-16h1.8V105h7.3v1.3h-9.1L215.2,106.6z"/>
	<path class="st1" d="M231.6,106.8c-0.9,0-1.8-0.2-2.7-0.4c-0.8-0.3-1.4-0.7-2-1.3c-0.5-0.7-0.9-1.6-1.1-2.4
		c-0.3-1.2-0.4-2.5-0.4-3.8c0-1.3,0.2-2.7,0.4-4c0.1-0.9,0.5-1.7,1.1-2.4c0.5-0.7,1.2-1.2,2-1.3c0.9-0.3,1.8-0.4,2.7-0.4
		c0.9,0,1.8,0.2,2.7,0.4c0.8,0.3,1.4,0.7,2,1.3c0.5,0.7,0.9,1.6,1.1,2.4c0.3,1.2,0.4,2.5,0.4,3.8c0,1.3-0.2,2.7-0.4,4
		c-0.1,0.9-0.5,1.7-1.1,2.4c-0.5,0.7-1.2,1.2-2,1.3C233.4,106.6,232.5,106.8,231.6,106.8z M231.6,105.2c0.7,0,1.4-0.1,2-0.4
		c0.5-0.3,0.9-0.7,1.3-1.1c0.4-0.6,0.7-1.3,0.7-2c0.2-1,0.3-2.1,0.2-3.1c0.1-1,0-2.1-0.2-3.1c-0.2-0.7-0.4-1.4-0.7-2
		c-0.3-0.5-0.8-0.9-1.3-1.1c-0.6-0.3-1.3-0.4-2-0.4c-0.7,0-1.4,0.1-2,0.4c-0.5,0.2-1,0.6-1.3,1.1c-0.4,0.6-0.6,1.3-0.7,2
		c-0.2,1-0.3,2.1-0.2,3.1c-0.1,1,0,2.1,0.2,3.1c0.2,0.7,0.4,1.4,0.7,2c0.3,0.5,0.8,0.9,1.3,1.1C230.1,105.2,230.7,105.2,231.6,105.2
		z"/>
	<path class="st1" d="M239.2,90.5h1.8l4.2,14.2l0,0l4.2-14.2h1.6l-4.7,16h-2.4L239.2,90.5z"/>
	<path class="st1" d="M253.4,106.6v-16h9.6v1.3h-7.8v5.8h6.9v1.6h-6.9v5.8h7.8v1.3h-9.6L253.4,106.6z"/>
	<path class="st1" d="M268.1,92.3L268.1,92.3v14.2h-1.6v-16h2.4l7.1,14l0,0v-14h1.6v16h-2.4L268.1,92.3z"/>
	<path class="st1" d="M282.1,106.6v-16h1.8v16H282.1z"/>
	<path class="st1" d="M290.4,90.5v14.7c0,0.7,0,1.4-0.2,2c-0.2,0.5-0.4,1.1-0.7,1.6c-0.3,0.5-0.6,0.9-1.1,1.1
		c-0.6,0.4-1.3,0.7-2,0.9l-0.4-1.3c0.4-0.2,0.9-0.2,1.3-0.4c0.4-0.2,0.7-0.5,0.9-0.9c0.3-0.3,0.4-0.7,0.4-1.1c0-0.4,0.2-0.9,0.2-1.3
		V90.8h1.6V90.5z"/>
	<path class="st1" d="M302.2,102.6h-6.7l-1.3,4h-1.8l5.3-16h2.2l5.3,16h-1.8L302.2,102.6z M295.9,101.2h5.8l-2.9-9.1l0,0
		L295.9,101.2z"/>
	<path class="st1" d="M87.9,114.8l3.3,7.1l0,0l3.1-7.1h3.6v16H95V119l0,0l-2.7,6.2h-2.7L87,119l0,0v11.8h-2.7v-16H87.9z"/>
	<path class="st1" d="M101.5,130.6v-15.8h3.1v16h-3.1V130.6z"/>
	<path class="st1" d="M110.8,118.8L110.8,118.8v12h-2.7v-16h4l5.3,12.2l0,0v-12.2h2.7v16h-4.2L110.8,118.8z"/>
	<path class="st1" d="M123.7,130.6v-15.8h3.1v16h-3.1V130.6z"/>
	<path class="st1" d="M140,126.1c0,0.7,0,1.5-0.2,2.2c-0.2,0.6-0.6,1.1-1.1,1.6c-0.5,0.4-1.1,0.7-1.8,0.9c-0.9,0.2-1.8,0.3-2.7,0.2
		c-0.8,0-1.6,0-2.4-0.2c-0.7-0.2-1.6-0.2-2-0.4l0.4-2.7c0.6,0.3,1.3,0.4,2,0.4c0.7,0.2,1.5,0.3,2.2,0.2h1.1c0.2,0,0.7-0.2,0.9-0.2
		c0.2,0,0.4-0.4,0.4-0.7c0.2-0.3,0.3-0.7,0.2-1.1c0-0.3,0-0.6-0.2-0.9c0-0.2-0.2-0.4-0.4-0.7c-0.2-0.2-0.4-0.2-0.9-0.4
		c-0.4-0.2-0.9-0.3-1.3-0.4l-2-0.7c-0.5-0.1-1-0.4-1.3-0.9c-0.4-0.4-0.7-0.8-0.9-1.3c-0.2-0.6-0.3-1.3-0.2-2
		c-0.2-1.3,0.3-2.7,1.3-3.6c1.2-0.8,2.6-1.2,4-1.1c0.7,0,1.5,0,2.2,0.2l2,0.7l-0.4,2.7c-0.6-0.3-1.2-0.4-1.8-0.4
		c-0.7-0.2-1.3-0.3-2-0.2h-0.9c-0.2,0-0.4,0.2-0.7,0.2c-0.2,0-0.4,0.2-0.4,0.4c0,0.2-0.2,0.4-0.2,0.9s0,0.7,0.2,0.9
		c0.2,0.2,0.2,0.4,0.4,0.7c0.2,0.2,0.4,0.2,0.9,0.4c0.4,0.2,0.9,0.3,1.3,0.4c0.7,0.2,1.4,0.4,2,0.7c0.5,0.1,1,0.4,1.3,0.9
		c0.4,0.3,0.7,0.8,0.7,1.3C139.9,124.8,140,125.5,140,126.1z"/>
	<path class="st1" d="M148,117.5v13.4h-3.1v-13.4h-4.2v-2.7H152v2.7H148z"/>
	<path class="st1" d="M165.5,119.5c0,1-0.2,2-0.7,2.9c-0.5,0.8-1.2,1.4-2,1.8l3.6,6.7h-3.6l-3.1-6.2h-2.4v6.2h-3.1v-16h5.6
		c0.9-0.1,1.8,0,2.7,0.2c0.7,0.2,1.3,0.5,1.8,0.9c0.4,0.4,0.7,1,0.9,1.6C165.3,118.1,165.5,118.8,165.5,119.5z M162.2,119.7
		c0.1-0.7-0.2-1.3-0.7-1.8c-0.6-0.3-1.3-0.5-2-0.4h-2.2v4.5h2.2c0.5,0,0.9,0,1.3-0.2c0.3,0,0.7-0.2,0.9-0.4c0.2-0.2,0.4-0.4,0.4-0.7
		L162.2,119.7z"/>
	<path class="st1" d="M178.4,126.1c0,0.7,0,1.5-0.2,2.2c-0.2,0.6-0.6,1.1-1.1,1.6c-0.5,0.4-1.1,0.7-1.8,0.9
		c-0.9,0.2-1.8,0.3-2.7,0.2c-0.8,0-1.6,0-2.4-0.2c-0.7-0.2-1.6-0.2-2-0.4l0.4-2.7c0.6,0.3,1.3,0.4,2,0.4c0.7,0.2,1.5,0.3,2.2,0.2
		h1.1c0.2,0,0.7-0.2,0.9-0.2c0.2,0,0.4-0.4,0.4-0.7c0.2-0.3,0.3-0.7,0.2-1.1c0-0.3,0-0.6-0.2-0.9c0-0.2-0.2-0.4-0.4-0.7
		c-0.2-0.2-0.4-0.2-0.9-0.4c-0.4-0.2-0.9-0.3-1.3-0.4l-2-0.7c-0.5-0.1-1-0.4-1.3-0.9c-0.4-0.4-0.7-0.8-0.9-1.3
		c-0.2-0.6-0.3-1.3-0.2-2c-0.2-1.3,0.3-2.7,1.3-3.6c1.2-0.8,2.6-1.2,4-1.1c0.7,0,1.5,0,2.2,0.2l2,0.7l-0.4,2.7
		c-0.6-0.3-1.2-0.4-1.8-0.4c-0.7-0.2-1.3-0.3-2-0.2h-0.9c-0.2,0-0.4,0.2-0.7,0.2s-0.4,0.2-0.4,0.4c0,0.2-0.2,0.4-0.2,0.9
		s0,0.7,0.2,0.9c0.2,0.2,0.2,0.4,0.4,0.7c0.2,0.2,0.4,0.2,0.9,0.4c0.4,0.2,0.9,0.3,1.3,0.4c0.7,0.2,1.4,0.4,2,0.7
		c0.5,0.1,1,0.4,1.3,0.9c0.4,0.3,0.7,0.8,0.7,1.3C178.2,124.8,178.4,125.2,178.4,126.1z"/>
	<path class="st1" d="M186.5,117.5v13.4h-3.1v-13.4h-4.2v-2.7h11.3v2.7H186.5z"/>
	<path class="st1" d="M200.5,130.6h-4.7l-4.2-16h3.3l3.3,13.4l0,0l3.3-13.4h3.1L200.5,130.6z"/>
	<path class="st1" d="M212.3,131c-1,0-2-0.2-2.9-0.4c-0.8-0.2-1.5-0.7-2-1.3c-0.5-0.7-0.9-1.6-1.1-2.4c-0.6-2.6-0.6-5.4,0-8
		c0.1-0.9,0.5-1.7,1.1-2.4c0.5-0.7,1.2-1.2,2-1.3c1.9-0.6,3.9-0.6,5.8,0c0.8,0.2,1.5,0.7,2,1.3c0.5,0.7,0.9,1.6,1.1,2.4
		c0.6,2.6,0.6,5.4,0,8c-0.1,0.9-0.5,1.7-1.1,2.4c-0.5,0.7-1.2,1.2-2,1.3C214.2,130.9,213.2,131,212.3,131z M212.3,128.4
		c0.5,0.1,1.1,0,1.6-0.2c0.4-0.2,0.8-0.5,1.1-0.9c0.3-0.6,0.4-1.2,0.4-1.8c0-0.7,0.2-1.6,0.2-2.7c0.1-0.9,0-1.8-0.2-2.7
		c0-0.6-0.2-1.2-0.4-1.8c-0.3-0.4-0.7-0.7-1.1-0.9c-1-0.3-2.1-0.3-3.1,0c-0.4,0.2-0.7,0.5-0.9,0.9c-0.3,0.5-0.5,1.2-0.4,1.8
		c0,0.7-0.2,1.6-0.2,2.7c-0.1,0.9,0,1.8,0.2,2.7c0,0.6,0.2,1.2,0.4,1.8c0.2,0.4,0.7,0.7,0.9,0.9
		C210.9,128.4,211.6,128.4,212.3,128.4z"/>
	<path class="st1" d="M225.6,130.6v-2.7l7.1-10.7h-6.9v-2.4h10.2v2.7l-6.9,10.7h7.3v2.7h-10.9V130.6z"/>
	<path class="st1" d="M247.2,127.3h-5.3l-0.9,3.3h-3.3l4.9-16h4.2l4.9,16h-3.3L247.2,127.3z M242.3,124.8h4l-2-7.1h-0.2L242.3,124.8
		z"/>
	<path class="st1" d="M258.1,130.6v-15.8h3.1v16h-3.1V130.6z"/>
	<path class="st1" d="M263.9,130.6v-2.7l7.1-10.7h-6.9v-2.4h10.2v2.7l-7.1,10.7h7.3v2.7h-10.7V130.6z"/>
	<path class="st1" d="M282.6,131c-1,0-2-0.2-2.9-0.4c-0.8-0.2-1.5-0.7-2-1.3c-0.5-0.7-0.9-1.6-1.1-2.4c-0.6-2.6-0.6-5.4,0-8
		c0.1-0.9,0.5-1.7,1.1-2.4c0.5-0.7,1.2-1.2,2-1.3c1.9-0.6,3.9-0.6,5.8,0c0.8,0.2,1.5,0.7,2,1.3c0.5,0.7,0.9,1.6,1.1,2.4
		c0.6,2.6,0.6,5.4,0,8c-0.1,0.9-0.5,1.7-1.1,2.4c-0.5,0.7-1.2,1.2-2,1.3C284.5,130.9,283.6,131,282.6,131z M282.6,128.4
		c0.5,0.1,1.1,0,1.6-0.2c0.4-0.2,0.8-0.5,1.1-0.9c0.3-0.6,0.4-1.2,0.4-1.8c0-0.7,0.2-1.6,0.2-2.7c0.1-0.9,0-1.8-0.2-2.7
		c0-0.6-0.2-1.2-0.4-1.8c-0.3-0.4-0.7-0.7-1.1-0.9c-1-0.3-2.1-0.3-3.1,0c-0.4,0.2-0.7,0.5-0.9,0.9c-0.3,0.5-0.5,1.2-0.4,1.8
		c0,0.7-0.2,1.6-0.2,2.7c-0.1,0.9,0,1.8,0.2,2.7c0,0.6,0.2,1.2,0.4,1.8c0.2,0.4,0.7,0.7,0.9,0.9
		C281.2,128.4,281.9,128.4,282.6,128.4z"/>
	<path class="st1" d="M303.3,126.4c0.1,1.3-0.4,2.5-1.3,3.3c-1.3,0.8-2.7,1.2-4.2,1.1h-5.8v-16h5.6c0.8,0,1.6,0,2.4,0.2
		c0.6,0.2,1.2,0.4,1.8,0.7c0.5,0.3,0.8,0.8,0.9,1.3c0.2,0.6,0.3,1.2,0.2,1.8c0,0.7,0,1.1-0.2,1.3c-0.2,0.2-0.2,0.7-0.4,1.1l-0.7,0.7
		c-0.2,0.2-0.4,0.2-0.9,0.4v0.2c0.2,0.2,0.7,0.2,0.9,0.4l0.7,0.7c0.3,0.3,0.4,0.7,0.4,1.1C303.3,125.2,303.3,125.7,303.3,126.4z
		 M299.7,119.2c0-0.5-0.1-1-0.4-1.3c-0.5-0.3-1.2-0.5-1.8-0.4h-2.7v3.8h2.2c0.7,0.1,1.4-0.1,2-0.4
		C299.5,120.4,299.7,119.8,299.7,119.2z M300.2,125.9c0-0.4,0-0.7-0.2-0.9c-0.2-0.2-0.2-0.4-0.4-0.7c-0.2-0.2-0.4-0.2-0.9-0.4
		c-0.4-0.2-0.9-0.2-1.3-0.2h-2.4v4h2.9c0.6,0,1.2-0.1,1.8-0.4C299.9,127.3,300.2,126.6,300.2,125.9z"/>
	<path class="st1" d="M317.1,119.5c0,1-0.2,2-0.7,2.9c-0.5,0.8-1.2,1.4-2,1.8l3.6,6.7h-3.6l-3.1-6.2h-2.4v6.2h-3.1v-16h5.6
		c0.9-0.1,1.8,0,2.7,0.2c0.7,0.2,1.3,0.5,1.8,0.9c0.4,0.4,0.7,1,0.9,1.6C317,118.1,317.1,118.8,317.1,119.5z M313.9,119.7
		c0.1-0.7-0.2-1.3-0.7-1.8c-0.6-0.3-1.3-0.5-2-0.4h-2.2v4.5h2.2c0.5,0,0.9,0,1.3-0.2c0.3,0,0.7-0.2,0.9-0.4c0.2-0.2,0.4-0.4,0.4-0.7
		V119.7z"/>
	<path class="st1" d="M328.2,127.3h-5.3l-0.9,3.3h-3.3l4.9-16h4.2l4.9,16h-3.3L328.2,127.3z M323.5,124.8h4l-2-7.1h-0.2L323.5,124.8
		z"/>
	<path class="st1" d="M333.5,130.6v-2.7l7.1-10.7h-6.9v-2.4H344v2.7l-7.1,10.7h7.3v2.7h-10.7V130.6z M336.2,109.7l2.9,1.8l3.1-1.8
		l1.1,1.8l-4.2,2.4l-4-2.2L336.2,109.7z"/>
	<path class="st1" d="M346.9,130.6v-15.8h10.2v2.7H350v4h6.2v2.7H350v4h7.1v2.7h-10.2V130.6z"/>
	<path class="st1" d="M367.1,130.6h-4.7l-4.2-15.8h3.3l3.3,13.4l0,0l3.3-13.4h3.1L367.1,130.6z"/>
	<path class="st1" d="M380.5,127.3h-5.3l-0.9,3.3h-3.3l4.9-16h4.2l4.9,16h-3.3L380.5,127.3z M375.8,124.8h4l-2-7.1h-0.2L375.8,124.8
		z"/>
	<path class="st1" d="M389.6,118.8L389.6,118.8v12h-2.7v-16h4l5.3,12.2l0,0v-12.2h2.7v16h-4.2L389.6,118.8z"/>
	<path class="st1" d="M400.3,132.8c0.4-0.2,0.9-0.4,1.3-0.4c0.3-0.2,0.6-0.4,0.9-0.7c0.2-0.2,0.4-0.6,0.4-0.9c0-0.4,0.2-0.9,0.2-1.3
		v-14.7h3.1V129c0,0.8,0,1.6-0.2,2.4c-0.2,0.7-0.5,1.3-0.9,1.8c-0.5,0.5-1,0.9-1.6,1.3c-0.7,0.5-1.6,0.8-2.4,0.9L400.3,132.8z"/>
	<path class="st1" d="M409.4,130.6v-15.8h10.2v2.7h-7.1v4h6.2v2.7h-6.2v4h7.1v2.7h-10.2V130.6z"/>
	<path class="st1" d="M424.1,134.1l-2-0.4l0.7-2.7l-0.9-0.2v-3.1h3.3v2.7L424.1,134.1z"/>
	<path class="st1" d="M83.4,157.3v-2.7l7.1-10.7h-6.9v-2.4h10.2v2.7L87,154.8h7.3v2.7H83.4V157.3z"/>
	<path class="st1" d="M99.7,145.5L99.7,145.5v12H97v-16h4l5.3,12.2l0,0v-12.2h2.7v16h-4.2L99.7,145.5z"/>
	<path class="st1" d="M120.6,154h-5.3l-0.9,3.3H111l4.9-16h4.2l4.9,16h-3.3L120.6,154z M115.9,151.5h4l-2-7.3l0,0L115.9,151.5z"/>
	<path class="st1" d="M129.7,145.5L129.7,145.5v12h-2.9v-16h4l5.3,12.2l0,0v-12.2h2.7v16h-4.2L129.7,145.5z"/>
	<path class="st1" d="M148.4,157.7c-1,0-2-0.2-2.9-0.4c-0.8-0.2-1.5-0.7-2-1.3c-0.5-0.7-0.9-1.6-1.1-2.4c-0.6-2.6-0.6-5.4,0-8
		c0.1-0.9,0.5-1.7,1.1-2.4c0.5-0.7,1.2-1.2,2-1.3c1.9-0.6,3.9-0.6,5.8,0c0.8,0.2,1.5,0.7,2,1.3c0.5,0.7,0.9,1.6,1.1,2.4
		c0.6,2.6,0.6,5.4,0,8c-0.1,0.9-0.5,1.7-1.1,2.4c-0.5,0.7-1.2,1.2-2,1.3C150.4,157.6,149.4,157.7,148.4,157.7z M148.4,155.1
		c0.5,0.1,1.1,0,1.6-0.2c0.4-0.2,0.8-0.5,1.1-0.9c0.3-0.6,0.4-1.2,0.4-1.8c0-0.7,0.2-1.6,0.2-2.7c0.1-0.9,0-1.8-0.2-2.7
		c0-0.6-0.2-1.2-0.4-1.8c-0.3-0.4-0.7-0.7-1.1-0.9c-1-0.3-2.1-0.3-3.1,0c-0.4,0.2-0.7,0.5-0.9,0.9c-0.3,0.5-0.5,1.2-0.4,1.8
		c0,0.7-0.2,1.6-0.2,2.7c-0.1,0.9,0,1.8,0.2,2.7c0,0.6,0.2,1.2,0.4,1.8c0.2,0.4,0.7,0.7,0.9,0.9C147.4,154.9,147.9,155,148.4,155.1z
		"/>
	<path class="st1" d="M167.3,152.8c0,0.7,0,1.5-0.2,2.2c-0.2,0.6-0.6,1.1-1.1,1.6c-0.5,0.4-1.1,0.7-1.8,0.9
		c-0.9,0.2-1.8,0.3-2.7,0.2c-0.8,0-1.6,0-2.4-0.2c-0.7-0.2-1.6-0.2-2-0.4l0.4-2.7c0.6,0.3,1.3,0.4,2,0.4c0.7,0.2,1.5,0.3,2.2,0.2
		h1.1c0.2,0,0.7-0.2,0.9-0.2c0.2,0,0.4-0.4,0.4-0.7c0.2-0.3,0.3-0.7,0.2-1.1c0-0.3,0-0.6-0.2-0.9c0-0.2-0.2-0.4-0.4-0.7
		c-0.2-0.2-0.4-0.2-0.9-0.4c-0.4-0.2-0.9-0.3-1.3-0.4l-2-0.7c-0.5-0.1-1-0.4-1.3-0.9c-0.4-0.4-0.7-0.8-0.9-1.3
		c-0.2-0.6-0.3-1.3-0.2-2c-0.2-1.3,0.3-2.7,1.3-3.6c1.2-0.8,2.6-1.2,4-1.1c0.7,0,1.5,0,2.2,0.2l2,0.7l-0.4,2.7
		c-0.6-0.3-1.2-0.4-1.8-0.4c-0.7-0.2-1.3-0.3-2-0.2h-0.9c-0.2,0-0.4,0.2-0.7,0.2s-0.4,0.2-0.4,0.4c-0.2,0.3-0.3,0.6-0.2,0.9
		c0,0.4,0,0.7,0.2,0.9c0.2,0.2,0.2,0.4,0.4,0.7c0.2,0.2,0.4,0.2,0.9,0.4c0.4,0.2,0.9,0.3,1.3,0.4c0.7,0.2,1.4,0.4,2,0.7
		c0.5,0.1,1,0.4,1.3,0.9c0.4,0.3,0.7,0.8,0.7,1.3C167.3,151.5,167.4,152.2,167.3,152.8z"/>
	<path class="st1" d="M175.6,144.2v13.4h-3.1v-13.4h-4.2v-2.7h11.3v2.7H175.6z"/>
	<path class="st1" d="M186.7,157.3v-15.8h3.1v16h-3.1V157.3z"/>
	<path class="st1" d="M196,145.5L196,145.5v12h-2.7v-16h4l5.3,12.2l0,0v-12.2h2.7v16h-4.2L196,145.5z"/>
	<path class="st1" d="M223.6,152.8c0,0.7,0,1.5-0.2,2.2c-0.2,0.6-0.6,1.1-1.1,1.6c-0.5,0.4-1.1,0.7-1.8,0.9
		c-0.9,0.2-1.8,0.3-2.7,0.2c-0.8,0-1.6,0-2.4-0.2c-0.7-0.2-1.6-0.2-2-0.4l0.4-2.7c0.6,0.3,1.3,0.4,2,0.4c0.7,0.2,1.5,0.3,2.2,0.2
		h1.1c0.2,0,0.7-0.2,0.9-0.2c0.2,0,0.4-0.4,0.4-0.7c0.2-0.3,0.3-0.7,0.2-1.1c0-0.3,0-0.6-0.2-0.9c0-0.2-0.2-0.4-0.4-0.7
		c-0.2-0.2-0.4-0.2-0.9-0.4c-0.4-0.2-0.9-0.3-1.3-0.4l-2-0.7c-0.5-0.1-1-0.4-1.3-0.9c-0.4-0.4-0.7-0.8-0.9-1.3
		c-0.2-0.6-0.3-1.3-0.2-2c-0.2-1.3,0.3-2.7,1.3-3.6c1.2-0.8,2.6-1.2,4-1.1c0.7,0,1.5,0,2.2,0.2l2,0.7l-0.4,2.7
		c-0.6-0.3-1.2-0.4-1.8-0.4c-0.7-0.2-1.3-0.3-2-0.2h-0.9c-0.2,0-0.4,0.2-0.7,0.2s-0.4,0.2-0.4,0.4s-0.2,0.4-0.2,0.9
		c0,0.4,0,0.7,0.2,0.9c0.2,0.2,0.2,0.4,0.4,0.7c0.2,0.2,0.4,0.2,0.9,0.4c0.4,0.2,0.9,0.3,1.3,0.4c0.7,0.2,1.4,0.4,2,0.7
		c0.5,0.1,1,0.4,1.3,0.9c0.4,0.3,0.7,0.8,0.7,1.3C223.4,151.5,223.6,151.9,223.6,152.8z M215.4,136.4l2.9,1.8l3.1-1.8l1.1,1.8
		l-4.2,2.4l-4-2.2L215.4,136.4z"/>
	<path class="st1" d="M237,146.4c0,0.7,0,1.5-0.2,2.2c-0.2,0.6-0.5,1.1-0.9,1.6c-0.5,0.4-1.1,0.7-1.8,0.9c-0.9,0.2-1.8,0.3-2.7,0.2
		H229v6h-3.1v-15.8h5.6c0.9-0.1,1.8,0,2.7,0.2c0.7,0.2,1.3,0.5,1.8,0.9c0.4,0.4,0.7,1,0.9,1.6C236.9,144.9,237,145.6,237,146.4z
		 M233.8,146.4c0.1-0.4,0-0.8-0.2-1.1c0-0.2-0.2-0.4-0.4-0.7c-0.2-0.2-0.4-0.2-0.9-0.4h-3.6v4.7h2.2c0.5,0,0.9,0,1.3-0.2
		c0.3,0,0.7-0.2,0.9-0.4c0.2-0.2,0.4-0.4,0.4-0.7C233.8,147.2,233.9,146.8,233.8,146.4z"/>
	<path class="st1" d="M245,157.7c-1,0-2-0.2-2.9-0.4c-0.8-0.2-1.5-0.7-2-1.3c-0.5-0.7-0.9-1.6-1.1-2.4c-0.6-2.6-0.6-5.4,0-8
		c0.1-0.9,0.5-1.7,1.1-2.4c0.5-0.7,1.2-1.2,2-1.3c1.9-0.6,3.9-0.6,5.8,0c0.8,0.2,1.5,0.7,2,1.3c0.5,0.7,0.9,1.6,1.1,2.4
		c0.6,2.6,0.6,5.4,0,8c-0.1,0.9-0.5,1.7-1.1,2.4c-0.5,0.7-1.2,1.2-2,1.3C246.9,157.6,246,157.7,245,157.7z M245,155.1
		c0.5,0.1,1.1,0,1.6-0.2c0.4-0.2,0.8-0.5,1.1-0.9c0.3-0.6,0.4-1.2,0.4-1.8c0-0.7,0.2-1.6,0.2-2.7c0.1-0.9,0-1.8-0.2-2.7
		c0-0.6-0.2-1.2-0.4-1.8c-0.3-0.4-0.7-0.7-1.1-0.9c-1-0.3-2.1-0.3-3.1,0c-0.4,0.2-0.7,0.5-0.9,0.9c-0.3,0.5-0.5,1.2-0.4,1.8
		c0,0.7-0.2,1.6-0.2,2.7c-0.1,0.9,0,1.8,0.2,2.7c0,0.6,0.2,1.2,0.4,1.8c0.2,0.4,0.7,0.7,0.9,0.9S244.3,155.1,245,155.1z"/>
	<path class="st1" d="M265.4,146.2c0,1-0.2,2-0.7,2.9c-0.5,0.8-1.2,1.4-2,1.8l3.6,6.7h-3.6l-3.1-6.2h-2.4v6.2h-3.1v-16h5.6
		c0.9-0.1,1.8,0,2.7,0.2c0.7,0.2,1.3,0.5,1.8,0.9c0.4,0.4,0.7,1,0.9,1.6C265.3,144.8,265.4,145.5,265.4,146.2z M262.1,146.4
		c0.1-0.7-0.2-1.3-0.7-1.8c-0.6-0.3-1.3-0.5-2-0.4h-2.2v4.5h2.2c0.5,0,0.9,0,1.3-0.2c0.3,0,0.7-0.2,0.9-0.4c0.2-0.2,0.4-0.4,0.4-0.7
		V146.4z"/>
	<path class="st1" d="M274.1,144.2v13.4H271v-13.4h-4v-2.7h11.3v2.7H274.1z"/>
</g>
<g id="Layer_4" class="st0">
	<g class="st1">
		<defs>
			<rect id="SVGID_1_" y="39.1" width="425.2" height="174.5"/>
		</defs>
		<clipPath id="SVGID_00000057150570310306922580000016053376550375661705_">
			<use xlink:href="#SVGID_1_"  style="overflow:visible;"/>
		</clipPath>
		<g style="clip-path:url(#SVGID_00000057150570310306922580000016053376550375661705_);">
			<g>
				<defs>
					<rect id="SVGID_00000117640205670518132460000003804492239127510702_" y="39.1" width="425.2" height="174.5"/>
				</defs>
				<clipPath id="SVGID_00000028306384507375831630000001824861243960854944_">
					<use xlink:href="#SVGID_00000117640205670518132460000003804492239127510702_"  style="overflow:visible;"/>
				</clipPath>
				<g style="clip-path:url(#SVGID_00000028306384507375831630000001824861243960854944_);">
					<path d="M224.9,163.2c-1.2-13.4-1.6-28.7-1.6-44.9c0-24,1.3-46.1,4-63.1c1.5-9,5.2-15.9,8.4-15.4s4.8,8.5,3.4,17.8
						c-0.2,1.5-0.5,2.9-0.9,4.4c-5.2,21-9.4,57.3-9.4,98.7c0,5.5,0,10.9,0.2,16.2c0,2.2,0.1,4.6,0.1,6.9c0.2,9.4-0.7,18.7-2.5,27.9
						c0-1.4,0-2.7,0-4C226.6,191.7,226.1,176.6,224.9,163.2"/>
				</g>
			</g>
			<g>
				<defs>
					<rect id="SVGID_00000049216473353403965980000016045026864111135372_" y="39.1" width="425.2" height="174.5"/>
				</defs>
				<clipPath id="SVGID_00000021114735993224352260000002070243406357735047_">
					<use xlink:href="#SVGID_00000049216473353403965980000016045026864111135372_"  style="overflow:visible;"/>
				</clipPath>
				<g style="clip-path:url(#SVGID_00000021114735993224352260000002070243406357735047_);">
					<path d="M425.2,90.6c0.6,7.2-11.8,15.6-27.7,18.9c-15.8,3.3-29.1,0.1-29.7-7.1c-0.5-7.2,11.8-15.6,27.7-18.9
						S424.6,83.4,425.2,90.6"/>
				</g>
			</g>
			<g>
				<defs>
					<rect id="SVGID_00000086666349152449672190000012984662908705397664_" y="39.1" width="425.2" height="174.5"/>
				</defs>
				<clipPath id="SVGID_00000181806064952778438500000012497305037602374275_">
					<use xlink:href="#SVGID_00000086666349152449672190000012984662908705397664_"  style="overflow:visible;"/>
				</clipPath>
				<g style="clip-path:url(#SVGID_00000181806064952778438500000012497305037602374275_);">
					<path d="M290.8,103c-13.1,16.1-19.1,34.1-15.2,51.3c8.9,39.6,66.9,59.5,128.3,45.7l2-0.5c5.3-1.3,9-5.1,8.2-8.5
						c-0.8-3.4-5.8-5.2-11.1-3.9c-1.5,0.3-2.9,0.6-4.4,0.9c-59,11.2-111.9-6.3-118.1-39c-6.2-32.7,36.3-67,94.5-79.3
						c3.6-0.7,6-4.3,5.3-7.9c-0.6-3.2-3.4-5.4-6.7-5.4c-0.5,0-0.9,0.1-1.4,0.2c-0.7,0.1-8.2,1.7-11.2,2.6l-0.4,0.1
						c-59.3,18.1-104.8,53.5-122.1,90.1l-0.2,1.2C250.6,133.5,268.7,117,290.8,103"/>
				</g>
			</g>
			<g>
				<defs>
					<rect id="SVGID_00000142891323286691035400000010291859369013352101_" y="39.1" width="425.2" height="174.5"/>
				</defs>
				<clipPath id="SVGID_00000139976130712377402880000017006277720313538981_">
					<use xlink:href="#SVGID_00000142891323286691035400000010291859369013352101_"  style="overflow:visible;"/>
				</clipPath>
				<g style="clip-path:url(#SVGID_00000139976130712377402880000017006277720313538981_);">
					<path d="M15.5,68.5h-3v-3.5C10.2,67.8,8.3,69,5.7,69c-1.9,0.1-3.8-0.9-4.8-2.5c-0.7-2-1-4.2-0.9-6.4V46.7h3v13.4
						c0,1.1,0,2.2,0.1,3.3c0,1.7,1.4,3.1,3.1,3.2c2.1,0,3.5-0.9,6.3-3.9v-16h3V68.5z"/>
				</g>
			</g>
			<g>
				<defs>
					<rect id="SVGID_00000060020211032050246190000009372916869663512460_" y="39.1" width="425.2" height="174.5"/>
				</defs>
				<clipPath id="SVGID_00000152959736371603205070000008288472970991706260_">
					<use xlink:href="#SVGID_00000060020211032050246190000009372916869663512460_"  style="overflow:visible;"/>
				</clipPath>
				<g style="clip-path:url(#SVGID_00000152959736371603205070000008288472970991706260_);">
					<path d="M24.3,48.2v1.9c1.7-2.3,4.3-3.7,7.1-3.9c1.8,0,3.6,0.9,4.6,2.5c0.7,1.2,0.9,2.4,0.9,5.4v14.3h-3V54.2
						c0.1-1.1,0-2.2-0.2-3.3c-0.4-1.3-1.6-2.2-3-2.2c-1.9,0-3.6,1-6.3,3.7v16.1h-3V46.7h3V48.2z"/>
				</g>
			</g>
			<g>
				<defs>
					<rect id="SVGID_00000105420060391792068360000003067236449835924107_" y="39.1" width="425.2" height="174.5"/>
				</defs>
				<clipPath id="SVGID_00000000181278085828447220000012506950255323818134_">
					<use xlink:href="#SVGID_00000105420060391792068360000003067236449835924107_"  style="overflow:visible;"/>
				</clipPath>
				<g style="clip-path:url(#SVGID_00000000181278085828447220000012506950255323818134_);">
					<path d="M45.7,68.5h-3V46.7h3V68.5z M45.7,42.5h-3v-3.3h3V42.5z"/>
				</g>
			</g>
			<g>
				<defs>
					<rect id="SVGID_00000036213743185986957700000008342318793761044637_" y="39.1" width="425.2" height="174.5"/>
				</defs>
				<clipPath id="SVGID_00000146492941864456208470000007291474483043417271_">
					<use xlink:href="#SVGID_00000036213743185986957700000008342318793761044637_"  style="overflow:visible;"/>
				</clipPath>
				<g style="clip-path:url(#SVGID_00000146492941864456208470000007291474483043417271_);">
					<path d="M59.6,68.5h-4.4l-6.6-21.8h3.1l5,17l0.2,0.8l0.4,1.3l0.2,0.9c0.3-1.2,0.3-1.8,0.7-3L63,46.7h2.9L59.6,68.5z"/>
				</g>
			</g>
			<g>
				<defs>
					<rect id="SVGID_00000120518814542884834120000010359582738465097637_" y="39.1" width="425.2" height="174.5"/>
				</defs>
				<clipPath id="SVGID_00000099622253819736359380000008017124884673530556_">
					<use xlink:href="#SVGID_00000120518814542884834120000010359582738465097637_"  style="overflow:visible;"/>
				</clipPath>
				<g style="clip-path:url(#SVGID_00000099622253819736359380000008017124884673530556_);">
					<path d="M80.2,55.5L80.2,55.5c0-4.1-1.9-6.8-4.8-6.8c-1.9,0-3.7,1.2-4.5,2.9c-0.6,1.2-0.9,2.5-0.9,3.9L80.2,55.5z M83.8,63.7
						c-1.4,3.2-4.5,5.2-8,5.3c-5.5,0-8.9-4.5-8.9-11.5c0-6.8,3.4-11.2,8.5-11.2c5.1,0,7.9,4.1,8,11.8H69.9c0,5.2,2.3,8.5,6,8.5
						c2.4,0,3.8-1.1,5.7-4.2L83.8,63.7z"/>
				</g>
			</g>
			<g>
				<defs>
					<rect id="SVGID_00000095334662054195797820000009332247159494258365_" y="39.1" width="425.2" height="174.5"/>
				</defs>
				<clipPath id="SVGID_00000100378270742375313880000003510474399675004331_">
					<use xlink:href="#SVGID_00000095334662054195797820000009332247159494258365_"  style="overflow:visible;"/>
				</clipPath>
				<g style="clip-path:url(#SVGID_00000100378270742375313880000003510474399675004331_);">
					<path d="M98.4,49.2c-3.5,0.1-5.5,2.1-7.3,7.1v12.2h-3V46.7h3v5.7c0.5-1.9,1.6-3.5,3.1-4.7c1-0.9,2.3-1.3,3.7-1.3h0.5V49.2z"/>
				</g>
			</g>
			<g>
				<defs>
					<rect id="SVGID_00000096773575059105891040000018329723295263327669_" y="39.1" width="425.2" height="174.5"/>
				</defs>
				<clipPath id="SVGID_00000005228274568141603460000002358567717191027096_">
					<use xlink:href="#SVGID_00000096773575059105891040000018329723295263327669_"  style="overflow:visible;"/>
				</clipPath>
				<g style="clip-path:url(#SVGID_00000005228274568141603460000002358567717191027096_);">
					<polygon points="115.3,46.7 115.3,48.5 103.7,66 115.3,66 115.3,68.5 100.1,68.5 100.1,66.6 111.5,49.2 100.8,49.2 100.8,46.7 
											"/>
				</g>
			</g>
			<g>
				<defs>
					<rect id="SVGID_00000183244091242296002640000010477529015853077393_" y="39.1" width="425.2" height="174.5"/>
				</defs>
				<clipPath id="SVGID_00000003078021004766859180000011340867433886079165_">
					<use xlink:href="#SVGID_00000183244091242296002640000010477529015853077393_"  style="overflow:visible;"/>
				</clipPath>
				<g style="clip-path:url(#SVGID_00000003078021004766859180000011340867433886079165_);">
					<path d="M122.3,68.5h-3V46.7h3V68.5z M122.3,42.5h-3v-3.3h3V42.5z"/>
				</g>
			</g>
			<g>
				<defs>
					<rect id="SVGID_00000032649701247442868540000003388530789672727974_" y="39.1" width="425.2" height="174.5"/>
				</defs>
				<clipPath id="SVGID_00000071529357705797004020000009465852740170444438_">
					<use xlink:href="#SVGID_00000032649701247442868540000003388530789672727974_"  style="overflow:visible;"/>
				</clipPath>
				<g style="clip-path:url(#SVGID_00000071529357705797004020000009465852740170444438_);">
					<path d="M131.8,46.7h4.6v2.5h-4.6v13.6c0,0.9,0.2,1.8,0.4,2.7c0.4,0.8,1.2,1.2,2.1,1.1c0.7,0,1.5-0.1,2.2-0.3v2.3
						c-1,0.3-2.1,0.5-3.1,0.5c-1.6,0.2-3.1-0.6-4-1.9c-0.4-0.8-0.5-0.9-0.5-4.9v-13h-3.3v-2.5h3.3v-7.3h3V46.7z"/>
				</g>
			</g>
			<g>
				<defs>
					<rect id="SVGID_00000011740059957334665940000004244343233881076138_" y="39.1" width="425.2" height="174.5"/>
				</defs>
				<clipPath id="SVGID_00000054248632372617266910000009218838620386673056_">
					<use xlink:href="#SVGID_00000011740059957334665940000004244343233881076138_"  style="overflow:visible;"/>
				</clipPath>
				<g style="clip-path:url(#SVGID_00000054248632372617266910000009218838620386673056_);">
					<path d="M150.8,55.5L150.8,55.5c0-4.1-1.9-6.8-4.8-6.8c-1.9,0-3.7,1.2-4.5,2.9c-0.6,1.2-0.9,2.5-0.9,3.9H150.8z M154.4,63.7
						c-1.4,3.2-4.5,5.2-7.9,5.3c-5.5,0-9-4.5-9-11.5c0-6.8,3.4-11.2,8.6-11.2c5.2,0,7.9,4.1,7.9,11.8h-13.4c0,5.2,2.3,8.5,6,8.5
						c2.4,0,3.8-1.1,5.7-4.2L154.4,63.7z"/>
				</g>
			</g>
			<g>
				<defs>
					<rect id="SVGID_00000164493022872460238060000018361287528545341621_" y="39.1" width="425.2" height="174.5"/>
				</defs>
				<clipPath id="SVGID_00000013885756245874245790000015035836113719286417_">
					<use xlink:href="#SVGID_00000164493022872460238060000018361287528545341621_"  style="overflow:visible;"/>
				</clipPath>
				<g style="clip-path:url(#SVGID_00000013885756245874245790000015035836113719286417_);">
					<path d="M162.4,46.7h4.6v2.5h-4.6v13.6c0,0.9,0.2,1.8,0.4,2.7c0.4,0.8,1.2,1.2,2.1,1.1c0.7,0,1.5-0.1,2.2-0.3v2.3
						c-1,0.3-2.1,0.5-3.1,0.5c-1.6,0.2-3.1-0.6-4-1.9c-0.4-0.8-0.5-0.9-0.5-4.9v-13h-3.3v-2.5h3.3v-7.3h3V46.7z"/>
				</g>
			</g>
			<g>
				<defs>
					<rect id="SVGID_00000038388444292013460030000015002381849844756668_" y="39.1" width="425.2" height="174.5"/>
				</defs>
				<clipPath id="SVGID_00000047746784337728269450000000017252450446746299_">
					<use xlink:href="#SVGID_00000038388444292013460030000015002381849844756668_"  style="overflow:visible;"/>
				</clipPath>
				<g style="clip-path:url(#SVGID_00000047746784337728269450000000017252450446746299_);">
					<path d="M173,48.2v1.9c1.7-2.3,4.3-3.7,7.1-3.9c1.8,0,3.6,0.9,4.5,2.5c0.7,1.2,0.9,2.4,0.9,5.4v14.3h-3V54.2
						c0.1-1.1,0-2.2-0.2-3.3c-0.4-1.3-1.6-2.2-3-2.2c-1.9,0-3.6,1-6.3,3.7v16.1h-3V46.7h3C173,46.7,173,48.2,173,48.2z"/>
				</g>
			</g>
			<g>
				<defs>
					<rect id="SVGID_00000134221795970979213890000011636687524119664521_" y="39.1" width="425.2" height="174.5"/>
				</defs>
				<clipPath id="SVGID_00000031917026947401033080000007192193011183241862_">
					<use xlink:href="#SVGID_00000134221795970979213890000011636687524119664521_"  style="overflow:visible;"/>
				</clipPath>
				<g style="clip-path:url(#SVGID_00000031917026947401033080000007192193011183241862_);">
					<path d="M194.5,68.5h-3V46.7h3V68.5z M194.5,42.5h-3v-3.3h3V42.5z"/>
				</g>
			</g>
			<g>
				<defs>
					<rect id="SVGID_00000103226396091457152990000002416247916375645837_" y="39.1" width="425.2" height="174.5"/>
				</defs>
				<clipPath id="SVGID_00000000945568728408030530000015516601809884297655_">
					<use xlink:href="#SVGID_00000103226396091457152990000002416247916375645837_"  style="overflow:visible;"/>
				</clipPath>
				<g style="clip-path:url(#SVGID_00000000945568728408030530000015516601809884297655_);">
					<polygon points="87.6,104.3 96.1,93.1 99.3,93.1 93.4,100.7 100.1,114.9 97,114.9 91.5,103 87.6,107.9 87.6,114.9 84.6,114.9 
						84.6,84.2 87.6,84.2 					"/>
				</g>
			</g>
			<g>
				<defs>
					<rect id="SVGID_00000121994198479286398100000001620713572633203896_" y="39.1" width="425.2" height="174.5"/>
				</defs>
				<clipPath id="SVGID_00000119086436261102623990000000561751421005207471_">
					<use xlink:href="#SVGID_00000121994198479286398100000001620713572633203896_"  style="overflow:visible;"/>
				</clipPath>
				<g style="clip-path:url(#SVGID_00000119086436261102623990000000561751421005207471_);">
					<rect x="103.4" y="84.2" width="3" height="30.7"/>
				</g>
			</g>
			<g>
				<defs>
					<rect id="SVGID_00000013186126258277264930000009826036620754503100_" y="39.1" width="425.2" height="174.5"/>
				</defs>
				<clipPath id="SVGID_00000052073817446464809460000015228997341988910249_">
					<use xlink:href="#SVGID_00000013186126258277264930000009826036620754503100_"  style="overflow:visible;"/>
				</clipPath>
				<g style="clip-path:url(#SVGID_00000052073817446464809460000015228997341988910249_);">
					<path d="M115.2,114.9h-3V93.1h3V114.9z M115.2,88.8h-3v-3.3h3V88.8z"/>
				</g>
			</g>
			<g>
				<defs>
					<rect id="SVGID_00000153702243609583316380000006024641854136698011_" y="39.1" width="425.2" height="174.5"/>
				</defs>
				<clipPath id="SVGID_00000173154166009311417200000017181710413743117725_">
					<use xlink:href="#SVGID_00000153702243609583316380000006024641854136698011_"  style="overflow:visible;"/>
				</clipPath>
				<g style="clip-path:url(#SVGID_00000173154166009311417200000017181710413743117725_);">
					<path d="M124,94.6v1.9c1.7-2.3,4.3-3.7,7.1-3.9c1.8,0,3.6,0.9,4.5,2.5c0.7,1.2,0.9,2.4,0.9,5.4v14.3h-3v-14.3
						c0.1-1.1,0-2.2-0.2-3.3c-0.4-1.3-1.6-2.2-3-2.2c-1.9,0-3.6,1-6.3,3.7v16.1h-3V93.1h3V94.6z"/>
				</g>
			</g>
			<g>
				<defs>
					<rect id="SVGID_00000027575493698993279590000005996431807722701247_" y="39.1" width="425.2" height="174.5"/>
				</defs>
				<clipPath id="SVGID_00000127764697607262332480000014155284659227398329_">
					<use xlink:href="#SVGID_00000027575493698993279590000005996431807722701247_"  style="overflow:visible;"/>
				</clipPath>
				<g style="clip-path:url(#SVGID_00000127764697607262332480000014155284659227398329_);">
					<path d="M145.4,114.9h-3V93.1h3V114.9z M145.4,88.8h-3v-3.3h3V88.8z"/>
				</g>
			</g>
			<g>
				<defs>
					<rect id="SVGID_00000023980831038465242570000008049090002567109045_" y="39.1" width="425.2" height="174.5"/>
				</defs>
				<clipPath id="SVGID_00000168080552100233522750000018420432960023848064_">
					<use xlink:href="#SVGID_00000023980831038465242570000008049090002567109045_"  style="overflow:visible;"/>
				</clipPath>
				<g style="clip-path:url(#SVGID_00000168080552100233522750000018420432960023848064_);">
					<path d="M156.3,84.8L156.3,84.8l2.2,3.5l2.3-3.5h3l-3.8,5.5H157l-3.7-5.5H156.3z M165.9,109.6c-1.5,3.8-4,5.7-7.5,5.7
						c-5.2,0-8.6-4.5-8.6-11.2s3.5-11.5,8.7-11.5c3.4,0,5.8,1.9,7.2,5.9l-2.7,0.9c-0.7-2.7-2.4-4.3-4.6-4.3c-3.5,0-5.7,3.4-5.7,9.1
						c-0.1,2,0.3,4.1,1.2,5.9c0.9,1.6,2.5,2.7,4.4,2.8c2.3,0,4-1.5,5.1-4.3L165.9,109.6z"/>
				</g>
			</g>
			<g>
				<defs>
					<rect id="SVGID_00000071522108614019344390000005537206648469194638_" y="39.1" width="425.2" height="174.5"/>
				</defs>
				<clipPath id="SVGID_00000056400849253747828250000003575778855332281269_">
					<use xlink:href="#SVGID_00000071522108614019344390000005537206648469194638_"  style="overflow:visible;"/>
				</clipPath>
				<g style="clip-path:url(#SVGID_00000056400849253747828250000003575778855332281269_);">
					<path d="M173,94.6v1.9c1.7-2.3,4.3-3.7,7.1-3.9c1.8,0,3.6,0.9,4.5,2.5c0.7,1.2,0.9,2.4,0.9,5.4v14.3h-3v-14.3
						c0.1-1.1,0-2.2-0.2-3.3c-0.4-1.3-1.6-2.2-3-2.2c-1.9,0-3.6,1-6.3,3.7v16.1h-3V93.1h3V94.6z"/>
				</g>
			</g>
			<g>
				<defs>
					<rect id="SVGID_00000181787012459473224070000002211057421355393670_" y="39.1" width="425.2" height="174.5"/>
				</defs>
				<clipPath id="SVGID_00000114786732483275245140000018433048479734563742_">
					<use xlink:href="#SVGID_00000181787012459473224070000002211057421355393670_"  style="overflow:visible;"/>
				</clipPath>
				<g style="clip-path:url(#SVGID_00000114786732483275245140000018433048479734563742_);">
					<path d="M194.5,114.9h-3V93.1h3V114.9z M194.5,88.8h-3v-3.3h3V88.8z"/>
				</g>
			</g>
			<g>
				<defs>
					<rect id="SVGID_00000175301921611789377680000008710676393112098945_" y="39.1" width="425.2" height="174.5"/>
				</defs>
				<clipPath id="SVGID_00000104704569341416957680000012180928385904129417_">
					<use xlink:href="#SVGID_00000175301921611789377680000008710676393112098945_"  style="overflow:visible;"/>
				</clipPath>
				<g style="clip-path:url(#SVGID_00000104704569341416957680000012180928385904129417_);">
					<path d="M110.8,155.4c-1.5,3.8-4,5.7-7.5,5.7c-5.2,0-8.6-4.5-8.6-11.2s3.5-11.5,8.7-11.5c3.4,0,5.8,1.9,7.2,5.9l-2.7,0.9
						c-0.7-2.7-2.4-4.3-4.6-4.3c-3.5,0-5.7,3.4-5.7,9.1c-0.1,2,0.3,4.1,1.2,5.9c0.9,1.6,2.5,2.7,4.4,2.8c2.2,0,4-1.5,5.1-4.3
						L110.8,155.4z"/>
				</g>
			</g>
			<g>
				<defs>
					<rect id="SVGID_00000062909600889122507040000007295386937845952147_" y="39.1" width="425.2" height="174.5"/>
				</defs>
				<clipPath id="SVGID_00000014631642615181222500000007581503104094908579_">
					<use xlink:href="#SVGID_00000062909600889122507040000007295386937845952147_"  style="overflow:visible;"/>
				</clipPath>
				<g style="clip-path:url(#SVGID_00000014631642615181222500000007581503104094908579_);">
					<path d="M126.8,147.6L126.8,147.6c0-4.1-1.9-6.8-4.8-6.8c-1.9,0-3.7,1.2-4.4,2.9c-0.6,1.2-0.9,2.5-0.9,3.9H126.8z M130.3,155.8
						c-1.4,3.2-4.5,5.2-7.9,5.3c-5.5,0-9-4.5-9-11.5c0-6.8,3.4-11.2,8.6-11.2s7.9,4.2,7.9,11.8h-13.4c0,5.2,2.3,8.5,6,8.5
						c2.4,0,3.8-1.1,5.7-4.2L130.3,155.8z"/>
				</g>
			</g>
			<g>
				<defs>
					<rect id="SVGID_00000097472414620759742410000012018566597407087773_" y="39.1" width="425.2" height="174.5"/>
				</defs>
				<clipPath id="SVGID_00000075157090701124059080000013002621424019465886_">
					<use xlink:href="#SVGID_00000097472414620759742410000012018566597407087773_"  style="overflow:visible;"/>
				</clipPath>
				<g style="clip-path:url(#SVGID_00000075157090701124059080000013002621424019465886_);">
					<path d="M137.7,140.3v1.9c1.6-2.3,4.3-3.7,7.1-3.9c1.8,0,3.6,0.9,4.5,2.5c0.7,1.2,0.9,2.3,0.9,5.4v14.3h-3v-14.3
						c0.1-1.1,0-2.2-0.2-3.3c-0.4-1.3-1.6-2.2-3-2.2c-1.9,0-3.6,1-6.3,3.7v16.1h-3v-21.8h3L137.7,140.3L137.7,140.3z"/>
				</g>
			</g>
			<g>
				<defs>
					<rect id="SVGID_00000146466559378942385310000007218738094405557146_" y="39.1" width="425.2" height="174.5"/>
				</defs>
				<clipPath id="SVGID_00000178205097691401281790000000286020852428075429_">
					<use xlink:href="#SVGID_00000146466559378942385310000007218738094405557146_"  style="overflow:visible;"/>
				</clipPath>
				<g style="clip-path:url(#SVGID_00000178205097691401281790000000286020852428075429_);">
					<path d="M159.7,138.8h4.6v2.5h-4.6v13.6c0,0.9,0.2,1.8,0.4,2.7c0.4,0.8,1.2,1.2,2.1,1.1c0.8,0,1.5-0.1,2.2-0.3v2.2
						c-1,0.3-2.1,0.5-3.1,0.5c-1.6,0.2-3.1-0.6-4-1.9c-0.4-0.8-0.5-0.9-0.5-4.9v-12.9h-3.3v-2.5h3.3v-7.4h3L159.7,138.8z"/>
				</g>
			</g>
			<g>
				<defs>
					<rect id="SVGID_00000121247415646114683500000015542335368414875566_" y="39.1" width="425.2" height="174.5"/>
				</defs>
				<clipPath id="SVGID_00000033354203533387059390000000663999455687345336_">
					<use xlink:href="#SVGID_00000121247415646114683500000015542335368414875566_"  style="overflow:visible;"/>
				</clipPath>
				<g style="clip-path:url(#SVGID_00000033354203533387059390000000663999455687345336_);">
					<path d="M178.7,147.6L178.7,147.6c0-4.1-1.9-6.8-4.8-6.8c-1.9,0-3.7,1.2-4.4,2.9c-0.6,1.2-0.9,2.5-0.9,3.9H178.7z M182.3,155.8
						c-1.4,3.2-4.5,5.2-7.9,5.3c-5.5,0-9-4.5-9-11.5c0-6.8,3.4-11.2,8.6-11.2c5.1,0,7.9,4.2,7.9,11.8h-13.4c0,5.2,2.3,8.5,6,8.5
						c2.4,0,3.8-1.1,5.6-4.2L182.3,155.8z"/>
				</g>
			</g>
			<g>
				<defs>
					<rect id="SVGID_00000028325350044659744020000002963471551370406552_" y="39.1" width="425.2" height="174.5"/>
				</defs>
				<clipPath id="SVGID_00000067943564488672672750000002826475888470465196_">
					<use xlink:href="#SVGID_00000028325350044659744020000002963471551370406552_"  style="overflow:visible;"/>
				</clipPath>
				<g style="clip-path:url(#SVGID_00000067943564488672672750000002826475888470465196_);">
					<path d="M196.9,141.3c-3.5,0.1-5.5,2.1-7.3,7.1v12.2h-3v-21.8h3v5.7c0.5-1.9,1.6-3.5,3.1-4.7c1-0.9,2.3-1.4,3.7-1.3h0.5
						L196.9,141.3L196.9,141.3z"/>
				</g>
			</g>
			<g>
				<defs>
					<rect id="SVGID_00000014602805172455240620000004238327487227208099_" y="39.1" width="425.2" height="174.5"/>
				</defs>
				<clipPath id="SVGID_00000056415343192770412430000016856279317503344314_">
					<use xlink:href="#SVGID_00000014602805172455240620000004238327487227208099_"  style="overflow:visible;"/>
				</clipPath>
				<g style="clip-path:url(#SVGID_00000056415343192770412430000016856279317503344314_);">
					<rect x="61.1" y="175.5" width="3" height="30.7"/>
				</g>
			</g>
			<g>
				<defs>
					<rect id="SVGID_00000150791059753146732370000000016199404368472763_" y="39.1" width="425.2" height="174.5"/>
				</defs>
				<clipPath id="SVGID_00000081615956328651529800000001581618261440591264_">
					<use xlink:href="#SVGID_00000150791059753146732370000000016199404368472763_"  style="overflow:visible;"/>
				</clipPath>
				<g style="clip-path:url(#SVGID_00000081615956328651529800000001581618261440591264_);">
					<path d="M73.1,180.1h-3v-3.3h3V180.1z M73.1,207.7c0.2,1.4-0.1,2.9-0.8,4.2c-0.9,1.1-2.3,1.7-3.8,1.6c-0.5,0-1-0.1-1.5-0.1
						v-2.5c0.4,0.1,0.8,0.1,1.2,0.1c1.2,0,1.6-0.6,1.8-2c0-0.3,0.1-1.6,0.1-2.3v-22.5h3C73.1,184.3,73.1,207.7,73.1,207.7z"/>
				</g>
			</g>
			<g>
				<defs>
					<rect id="SVGID_00000013167729353228047960000007710148418561268370_" y="39.1" width="425.2" height="174.5"/>
				</defs>
				<clipPath id="SVGID_00000176724236926708710330000016286798701670016687_">
					<use xlink:href="#SVGID_00000013167729353228047960000007710148418561268370_"  style="overflow:visible;"/>
				</clipPath>
				<g style="clip-path:url(#SVGID_00000176724236926708710330000016286798701670016687_);">
					<path d="M94.3,206.2h-3v-3.4c-2.3,2.8-4.3,3.9-6.8,3.9c-1.9,0.1-3.8-0.8-4.8-2.5c-0.7-2-1-4.2-0.9-6.4v-13.4h3v13.4
						c0,1.1,0,2.1,0.1,3.2c0,1.7,1.4,3.1,3.1,3.2c2.1,0,3.5-0.9,6.3-3.9v-16h3V206.2z"/>
				</g>
			</g>
			<g>
				<defs>
					<rect id="SVGID_00000027567814913475851220000010161300505825474184_" y="39.1" width="425.2" height="174.5"/>
				</defs>
				<clipPath id="SVGID_00000054977716655797434300000017780375019806939050_">
					<use xlink:href="#SVGID_00000027567814913475851220000010161300505825474184_"  style="overflow:visible;"/>
				</clipPath>
				<g style="clip-path:url(#SVGID_00000054977716655797434300000017780375019806939050_);">
					<path d="M103.2,201.2L103.2,201.2c2,2.2,3.3,3,4.9,3c3.8,0,5.9-3.4,5.9-9.3c0-5.3-2-8.5-5.5-8.5c-1.9,0-2.9,0.7-5.1,2.9
						l-0.3,0.3L103.2,201.2z M103.2,186.9c2.4-3.2,7-3.9,10.2-1.5c1.3,1,2.3,2.4,2.7,4.1c0.6,1.8,0.9,3.6,0.8,5.5
						c0,7-3.3,11.7-8.3,11.7c-2.3,0-3.7-0.8-5.8-3l-0.6,2.5h-2.2v-30.7h3V186.9z"/>
				</g>
			</g>
			<g>
				<defs>
					<rect id="SVGID_00000093146521376819651790000003251764313704782731_" y="39.1" width="425.2" height="174.5"/>
				</defs>
				<clipPath id="SVGID_00000178187481783363552010000000883632223994805658_">
					<use xlink:href="#SVGID_00000093146521376819651790000003251764313704782731_"  style="overflow:visible;"/>
				</clipPath>
				<g style="clip-path:url(#SVGID_00000178187481783363552010000000883632223994805658_);">
					<rect x="121.3" y="175.5" width="3" height="30.7"/>
				</g>
			</g>
			<g>
				<defs>
					<rect id="SVGID_00000099622169550225927750000017993132444302690445_" y="39.1" width="425.2" height="174.5"/>
				</defs>
				<clipPath id="SVGID_00000027599054896984873550000016867790061546512534_">
					<use xlink:href="#SVGID_00000099622169550225927750000017993132444302690445_"  style="overflow:visible;"/>
				</clipPath>
				<g style="clip-path:url(#SVGID_00000027599054896984873550000016867790061546512534_);">
					<path d="M133.3,180.1h-3v-3.3h3L133.3,180.1z M133.3,207.7c0.2,1.4-0.1,2.9-0.8,4.2c-0.9,1.1-2.3,1.7-3.8,1.6
						c-0.5,0-1-0.1-1.5-0.1v-2.5c0.4,0.1,0.8,0.1,1.2,0.1c1.2,0,1.6-0.6,1.8-2c0-0.3,0-1.6,0-2.3v-22.5h3L133.3,207.7L133.3,207.7z"
						/>
				</g>
			</g>
			<g>
				<defs>
					<rect id="SVGID_00000038382382906202217260000015385821889418845830_" y="39.1" width="425.2" height="174.5"/>
				</defs>
				<clipPath id="SVGID_00000145781037584455381320000010808133595440488635_">
					<use xlink:href="#SVGID_00000038382382906202217260000015385821889418845830_"  style="overflow:visible;"/>
				</clipPath>
				<g style="clip-path:url(#SVGID_00000145781037584455381320000010808133595440488635_);">
					<path d="M150.4,193.9L150.4,193.9c-2.2,0.5-4.3,1.2-6.4,2.1c-2.5,1.1-3.5,2.3-3.5,4.3c-0.2,1.9,1.3,3.7,3.2,3.8
						c0.1,0,0.2,0,0.2,0c2.2,0,4.3-1.4,6.4-4.4V193.9z M138.2,188.3c1.5-2.8,4.5-4.5,7.7-4.4c2-0.1,4,0.6,5.6,1.9
						c1.4,1.3,1.9,2.9,1.9,6v8.7c0,1.9,0.2,3.9,0.6,5.8h-3.3c-0.1-1-0.2-1.4-0.3-3.5c-2.5,3-4,4-6.7,4c-3.2,0.1-5.9-2.3-6-5.5
						c0-0.2,0-0.5,0-0.7c0-3.6,1.9-5.8,6.7-7.3c1.8-0.6,2.7-0.8,6.1-1.6c0.1-1-0.1-1.9-0.4-2.9c-0.8-1.5-2.3-2.3-4-2.2
						c-2.3,0-4.5,1.3-5.4,3.5L138.2,188.3z"/>
				</g>
			</g>
			<g>
				<defs>
					<rect id="SVGID_00000101782557176005626750000012196932481529261462_" y="39.1" width="425.2" height="174.5"/>
				</defs>
				<clipPath id="SVGID_00000183971333507519995020000004400576319444239001_">
					<use xlink:href="#SVGID_00000101782557176005626750000012196932481529261462_"  style="overflow:visible;"/>
				</clipPath>
				<g style="clip-path:url(#SVGID_00000183971333507519995020000004400576319444239001_);">
					<path d="M162.2,185.9v1.9c1.7-2.3,4.3-3.7,7.1-3.9c1.8,0,3.6,0.9,4.5,2.5c0.7,1.2,0.9,2.3,0.9,5.4v14.3h-3v-14.3
						c0.1-1.1,0-2.2-0.2-3.3c-0.4-1.3-1.6-2.2-3-2.2c-1.9,0-3.6,1-6.3,3.7v16.1h-3v-21.8h3L162.2,185.9L162.2,185.9z"/>
				</g>
			</g>
			<g>
				<defs>
					<rect id="SVGID_00000040572719252836624300000016040612497018151813_" y="39.1" width="425.2" height="174.5"/>
				</defs>
				<clipPath id="SVGID_00000173863415342388347480000017929153131907475872_">
					<use xlink:href="#SVGID_00000040572719252836624300000016040612497018151813_"  style="overflow:visible;"/>
				</clipPath>
				<g style="clip-path:url(#SVGID_00000173863415342388347480000017929153131907475872_);">
					<path d="M192,193.9L192,193.9c-2.2,0.5-4.3,1.2-6.4,2.1c-2.5,1.1-3.5,2.3-3.5,4.3c-0.2,1.9,1.3,3.7,3.2,3.8c0.1,0,0.2,0,0.2,0
						c2.2,0,4.3-1.4,6.4-4.4V193.9z M179.7,188.3c1.5-2.8,4.5-4.5,7.7-4.4c2-0.1,4,0.6,5.6,1.9c1.4,1.3,1.9,2.9,1.9,6v8.7
						c0,1.9,0.2,3.9,0.6,5.8h-3.3c-0.1-1-0.2-1.4-0.3-3.5c-2.5,3-4,4-6.8,4c-3.2,0.2-5.9-2.3-6-5.5c0-0.2,0-0.5,0-0.7
						c0-3.6,1.9-5.8,6.7-7.3c2-0.7,4-1.2,6.1-1.6c0-1-0.1-1.9-0.5-2.9c-0.8-1.5-2.3-2.3-4-2.2c-2.3,0-4.5,1.3-5.4,3.5L179.7,188.3z"
						/>
				</g>
			</g>
		</g>
	</g>
</g>
<g id="Layer_5">
	<g>
		<path d="M306.8,122.5c-0.2-1.1-0.4-2.2-0.7-3.2c-2.1-8.8-6.8-15.9-13.8-21.6c-6.9-5.6-14.8-9-23.6-10.4c-8.6-1.3-16.9-0.5-25,2.9
			c-4.6,1.9-8.7,4.8-12.5,8c-3,2.6-5.9,5.4-8.7,8.1c-0.1,0.1-0.2,0.3-0.4,0.6c-0.7-1.8-2-2.9-3.1-4.1c-4.7-5-10.1-8.9-16.4-11.4
			c-4.5-1.8-9.1-2.9-13.9-3.3c-3.7-0.3-7.5-0.4-11.2,0c-6.9,0.7-13.2,3-19,6.8c-9.2,6.2-15.2,14.7-17.8,25.5
			c-1.5,6.3-1.4,12.6,0,18.9c2.1,9.5,6.6,17.7,12.9,25.1c4.6,5.5,9.9,10.3,15.5,14.8c7.3,5.9,14.6,11.8,21.8,17.8
			c5.3,4.4,10.5,8.9,15.5,13.7c3.5,3.4,6.9,6.8,10.1,10.5c0.2,0.2,0.4,0.4,0.1,0.7c-1.9,2.3-3.8,4.8-5.5,7.3c-1-1.2-1.9-2.5-2.9-3.7
			c-6.4-8.1-13.6-15.5-21.2-22.4c-6.6-6.1-13.6-11.8-20.5-17.4c-7.5-6.1-15.1-12.1-22.4-18.4c-6.4-5.5-12.3-11.4-17.3-18.3
			c-5.7-7.9-9.7-16.6-11.4-26.3c-2.4-14,0.8-26.8,9.5-38c6.8-8.8,15.8-14.5,26.6-17.3c3.7-0.9,7.4-1.4,11.2-1.5
			c6.1-0.2,12.1,0.4,18,1.9c8.8,2.3,16.4,6.7,23,12.9c1.7,1.6,3.3,3.3,4.8,5.1c0.4,0.5,0.8,1,1,1.8c0.6-0.6,1.1-1.1,1.7-1.6
			c4.1-3.9,8.1-7.9,12.7-11.3c6.6-5,13.9-8.1,22.1-9.4c11.6-1.8,22.7-0.1,33.3,4.9c7.8,3.6,14.3,8.8,19.4,15.7
			c4.3,5.9,7,12.4,8.2,19.6c0.8,4.6,1,9.2,0.6,13.9C307.2,120.5,307,121.5,306.8,122.5C306.9,122.5,306.9,122.5,306.8,122.5z"/>
		<path d="M209.4,82.1c-0.3-1.3-1.2-2.2-2-3.2c-3.9-4.8-8.4-8.9-13.7-12.1c-4.6-2.8-9.6-4.6-14.8-5.6c-5.1-1-10.2-1.2-15.3-0.8
			c-6,0.5-11.7,2.3-17,5.2c-0.1,0.1-0.2,0.2-0.4,0.1c0.7-0.8,1.4-1.6,2.1-2.4c7.9-9,15.8-18.1,23.6-27.1c0.5-0.5,0.9-1,1.4-1.6
			c0.3-0.4,0.5-0.4,0.8,0c1.7,2,3.5,4,5.2,6c2.5,2.9,5,5.7,7.5,8.6c0.3,0.3,0.4,0.3,0.6,0c6.6-7.6,13.3-15.2,19.9-22.8
			c0.8-1,1.7-1.9,2.5-2.9c0.3-0.4,0.4-0.3,0.7,0c4.8,5.5,9.6,11.1,14.5,16.6c2.9,3.3,5.8,6.6,8.6,9.9c0.3,0.4,0.5,0.4,0.8,0
			c4.4-5.1,8.8-10.1,13.2-15.2c0.6-0.7,0.5-0.7,1.1,0c7.4,8.5,14.8,17,22.2,25.5c1.5,1.7,3,3.5,4.5,5.2c-0.2,0.2-0.3,0-0.4-0.1
			c-5.5-3.1-11.4-5.2-17.7-6c-12.7-1.6-24.3,1.2-34.4,9.3c-4.1,3.3-7.7,7-11.3,10.8C211,80.4,210.2,81.2,209.4,82.1z"/>
		<path d="M271.1,160.8c-3.8,0-7.5,0-11.2,0c-0.4,0-0.5-0.2-0.6-0.5c-1.8-3.3-3.5-6.6-5.3-9.8c-0.2-0.4-0.4-0.7-0.7-1.1
			c-0.9-1.5-2.2-2.1-3.9-2.2c-0.5,0-0.7,0.1-0.7,0.7c0,4.1,0,8.1,0,12.2c0,0.6-0.2,0.7-0.7,0.7c-3,0-6,0-9,0c-0.5,0-0.7-0.1-0.7-0.6
			c0-10.7,0-21.4,0-32.1c0-0.4,0-0.6,0.5-0.6c6.2,0,12.5,0,18.7,0.1c1.6,0,3.2,0.2,4.7,0.6c3.4,0.9,5.8,3.8,6,7.3
			c0.2,2.6-0.2,5-1.9,7.1c-1.3,1.6-2.9,2.6-4.9,3.2c-0.3,0.1-0.6,0.2-1,0.3c0.1,0.1,0.1,0.1,0.1,0.1c2.5,0.7,4,2.6,5.2,4.7
			c1.8,3.2,3.4,6.5,5,9.7C271,160.6,271.1,160.7,271.1,160.8z M248.7,137.5c0,1,0,2,0,3c0,0.3,0,0.5,0.4,0.5
			c1.9-0.1,3.8,0.2,5.6-0.2c0.9-0.2,1.9-0.3,2.6-1.1c0.8-1,0.9-2.2,0.5-3.4c-0.5-1.3-1.6-1.7-2.8-1.8c-2-0.2-3.9-0.1-5.9-0.1
			c-0.4,0-0.4,0.2-0.4,0.5C248.8,135.6,248.7,136.6,248.7,137.5z"/>
		<path d="M172.2,161.4c-2.6,0-4.8-0.2-7-0.7c-4.3-1-6.8-3.9-8.1-8c-0.2-0.8-0.3-1.6-0.5-2.3c-0.1-0.4,0-0.5,0.4-0.6
			c2.4-0.1,4.7-0.3,7.1-0.4c0.6,0,1.1-0.1,1.7-0.1c0.4,0,0.6,0,0.6,0.5c0.2,1.4,0.6,2.7,1.7,3.7c1.7,1.6,4.9,2,6.9,0.8
			c2.2-1.4,2.2-4.1,0-5.4c-0.9-0.5-1.9-0.8-2.9-1.1c-2.4-0.6-4.7-1.1-7-2c-2-0.8-3.9-1.8-5.3-3.4c-3.3-3.9-2.4-9.8,1.9-12.8
			c1.7-1.2,3.6-1.9,5.6-2.1c3.5-0.5,6.9-0.6,10.3,0.3c4.7,1.2,7.3,4,8,8.8c0.1,0.4-0.1,0.5-0.5,0.5c-2.9,0.2-5.7,0.3-8.6,0.5
			c-0.4,0-0.6-0.1-0.7-0.5c-0.8-3.1-3.7-4.6-6.7-3.5c-0.4,0.2-0.8,0.4-1.1,0.7c-1,1.1-0.8,2.5,0.5,3.3c1,0.5,2,0.7,3.1,1
			c2.9,0.7,5.8,1.3,8.6,2.5c2.6,1.1,4.7,2.6,5.8,5.3c2,4.7,0,10.5-4.6,13.1c-2,1.2-4.2,1.7-6.5,2
			C173.9,161.4,172.9,161.4,172.2,161.4z"/>
		<path d="M288.1,161.4c-2.6,0-4.9-0.2-7.1-0.8c-4.2-1.1-6.6-3.9-7.8-7.9c-0.2-0.8-0.4-1.6-0.5-2.4c-0.1-0.3-0.1-0.5,0.4-0.5
			c3-0.2,6-0.4,9-0.6c0.3,0,0.4,0.1,0.5,0.4c0.3,1.6,0.7,3.1,2.1,4.1c2,1.4,4.1,1.5,6.2,0.6c1.2-0.5,1.9-1.5,1.9-2.8
			c0-1.3-0.7-2.2-1.8-2.9c-1.2-0.7-2.5-1-3.8-1.3c-2.7-0.6-5.4-1.3-8-2.6c-2.4-1.3-4.3-3-5.1-5.8c-1-3.9,0.7-7.8,4.1-9.9
			c1.9-1.1,3.9-1.7,6.1-1.9c3.2-0.3,6.4-0.3,9.5,0.4c4.8,1.2,7.1,4.1,7.9,8.8c0.1,0.4-0.1,0.5-0.4,0.5c-2.9,0.2-5.8,0.3-8.7,0.5
			c-0.4,0-0.6-0.1-0.7-0.5c-0.8-3.2-3.7-4.7-6.8-3.5c-0.4,0.2-0.8,0.4-1.1,0.7c-1,1.1-0.8,2.5,0.5,3.3c1,0.6,2.1,0.8,3.1,1
			c2.9,0.7,5.8,1.3,8.5,2.5c2.3,1,4.3,2.3,5.5,4.5c2.4,4.5,0.8,10.5-3.6,13.5c-2.2,1.5-4.6,2.1-7.1,2.4
			C289.9,161.4,288.9,161.4,288.1,161.4z"/>
		<path d="M219.5,136.2c2.8,0,5.6,0.4,8,1.9c4,2.4,5.8,6.1,5.8,10.8c0,3.9-1.4,7.2-4.5,9.7c-1.9,1.5-4,2.3-6.3,2.6
			c-3,0.4-6.1,0.3-9-0.8c-4.7-1.7-8.2-6.2-7.8-12.2c0.3-5.1,2.8-8.8,7.6-10.8C215,136.5,217,136.2,219.5,136.2z M214.9,148.7
			c0,1,0.1,2,0.4,3.1c0.6,2,2.2,3.2,4.2,3.2c1.9,0,3.5-1.2,4-3.3c0.6-1.9,0.6-3.9,0-5.9c-0.5-2-2.2-3.4-4-3.4
			c-2.1,0-3.7,1.2-4.3,3.3C215,146.7,214.9,147.7,214.9,148.7z"/>
		<path d="M200.9,144.2c0,5.3,0,10.6,0,15.9c0,0.5-0.1,0.7-0.7,0.7c-2.7,0-5.4,0-8.1,0c-0.4,0-0.6-0.1-0.6-0.5c0-10.7,0-21.5,0-32.2
			c0-0.4,0.1-0.5,0.5-0.5c2.7,0,5.5,0,8.2,0c0.5,0,0.6,0.1,0.6,0.6C200.9,133.5,200.9,138.8,200.9,144.2z"/>
	</g>
</g>
</svg>
