<?xml version="1.0" encoding="utf-8"?>
<!-- Generator: Adobe Illustrator 26.0.2, SVG Export Plug-In . SVG Version: 6.00 Build 0)  -->
<svg version="1.1" id="Layer_1" xmlns="http://www.w3.org/2000/svg" xmlns:xlink="http://www.w3.org/1999/xlink" x="0px" y="0px"
	 viewBox="0 0 425.2 252.7" style="enable-background:new 0 0 425.2 252.7;" xml:space="preserve">
<path d="M252.2,49.7c-0.5,0-0.9-0.1-1.3-0.3l-1,2.1v8.9h5.4v-8.9l-1.1-2c-0.5,0.2-1.1,0.3-1.6,0.3L252.2,49.7z"/>
<path d="M254.5,47.8L253.2,28c0-0.6-0.4-1-1-1s-1,0.4-1,1l-0.7,19.7c0,0.2,0.2,0.5,0.6,0.7c0.3,0.2,0.6,0.3,1,0.3h0.7
	C253.9,48.7,254.5,48.1,254.5,47.8z"/>
<path d="M252.2,48.8h0.2c0.1,0,0.2,0,0.3,0h-0.7C252.1,48.8,252.2,48.8,252.2,48.8z"/>
<path d="M173.2,49.7c0.5,0,0.9-0.1,1.3-0.3l1,2v9h-5.4v-8.9l1.1-2c0.5,0.2,1.1,0.3,1.6,0.3L173.2,49.7z"/>
<path d="M170.9,47.8l1.3-19.8c0-0.6,0.4-1,1-1s1,0.4,1,1l0.7,19.7c0,0.2-0.2,0.5-0.6,0.7c-0.3,0.2-0.6,0.3-1,0.3h-0.7
	C171.5,48.7,170.9,48.1,170.9,47.8z"/>
<path d="M173.2,48.8h-0.3c-0.1,0-0.2,0-0.3,0h0.7H173.2z"/>
<rect y="62.6" width="168.5" height="130"/>
<rect x="256.7" y="62.6" width="168.5" height="130"/>
<path d="M179.8,127c0,0,0.5-4,4.5-4.1s4.5,4.1,4.5,4.1v13.4h12.4V127c0,0,0.5-4,4.5-4.1s4.5,4.1,4.5,4.1v13.4h4.7V127
	c0,0,0.5-4,4.5-4.1s4.5,4.1,4.5,4.1v13.4h12.1V127c0,0,0.5-4,4.5-4.1s4.5,4.1,4.5,4.1v13.4h10V107h-84.3v33.4h9.4V127z M240,112.3
	l8.4,5.2l0,0l-0.5,0.8l-7.9-4.9l-7.4,4.9l-0.5-0.8L240,112.3z M212,111.5l15.4,6l0,0l-0.3,0.9l-15.1-5.9l-14.1,5.8l-0.4-0.9
	L212,111.5z M184.1,112.3l8.4,5.2l0,0l-0.5,0.8l-7.9-4.9l-7.4,4.9l-0.5-0.8L184.1,112.3z"/>
<path d="M179.9,89.5h8.9v16.5h12.4V89.5h8.9v16.5h4.7V89.6h8.9v16.5h12.1V89.6h8.9v16.5h10V62.6h-84.2v43.5h9.4L179.9,89.5z
	 M240.2,79.3c3.5,0,6.7,1.9,8.4,5l-0.8,0.4c-2.2-4.1-7.4-5.7-11.5-3.5c-1.5,0.8-2.7,2-3.5,3.5l0,0l-0.8-0.4
	C233.6,81.3,236.8,79.4,240.2,79.3z M212,78.2l15.4,5.9l0,0l-0.3,0.9L212,79.2L197.9,85l-0.4-0.9L212,78.2z M176.8,84.8l-0.8-0.5
	c2.4-4.6,8.1-6.4,12.7-3.9c1.7,0.9,3,2.2,3.9,3.9l-0.8,0.4c-2.2-4.1-7.4-5.7-11.5-3.5C178.9,82.1,177.6,83.3,176.8,84.8L176.8,84.8z
	"/>
<path d="M170.5,192.5h31.4v-27.7c0,0,1.2-7.6,10.6-7.7s10.5,7.7,10.5,7.7v27.7h31.7V149h-84.2V192.5z M235.8,162.3
	c0.3-2.3,2.2-4,4.5-4c3.9-0.1,4.5,4,4.5,4v15.4h-8.9L235.8,162.3z M184.3,158.3c3.9-0.1,4.5,4,4.5,4v15.4h-8.9v-15.4
	C180.1,160,182,158.3,184.3,158.3L184.3,158.3z"/>
<rect x="170.5" y="141.3" width="84.3" height="6.8"/>
<rect x="170.5" y="106.1" width="9.4" height="0"/>
<rect x="244.7" y="106.1" width="10" height="0"/>
<rect x="223.8" y="106.1" width="12.1" height="0"/>
<rect x="210.1" y="106.1" width="4.7" height="0"/>
<rect x="188.8" y="106.1" width="12.4" height="0"/>
<polygon points="232.8,84.8 232.8,84.8 232.7,84.8 "/>
<polygon points="194.6,0 197.3,8.2 228.1,8.2 230.9,0 "/>
<path d="M228.1,9.3h-30.8c-14.6,6.6-23.3,21.8-21.6,37.7h22.2l5.1-14.3l-1.7-1.7v-2.8c0,0,3.3-3.8,11.8-3.9c7.4-0.1,11.2,4,11.2,4
	V31l-1.6,1.6l5,14.4h22.1C251.9,30.9,241.6,15,228.1,9.3z"/>
<path d="M250,48.9c-0.2-0.2-0.4-0.6-0.5-0.9h-22v12.4h21.3v-9.1L250,48.9z"/>
<path d="M175.4,48.9c0.2-0.2,0.4-0.6,0.5-0.9h22v12.4h-21.3v-9.1L175.4,48.9z"/>
<path d="M221.4,32.5l1.8-2v-1.8c0,0-3.4-3.4-10.5-3.4c-7.2,0.1-10.6,3.4-10.6,3.4v1.9l1.8,1.9l-5.2,14.8v13.1h27.8V47.3L221.4,32.5z
	 M220.2,30.7c-1.4-1.3-4.2-2.3-7.5-2.3s-6,1-7.4,2.3l-0.6-0.6c1.6-1.5,4.6-2.5,7.9-2.5s6.5,1,8.1,2.5L220.2,30.7z"/>
<path d="M12.5,239.7c5.3,0,8.5-1.8,8.5-7.3v-23.3h2.9v23.2c0,7.3-4,10-11.4,10c-7,0-11.1-2.7-11.1-10v-23.2h2.9v23.2
	C4.3,237.9,7.5,239.7,12.5,239.7z"/>
<path d="M32.1,242.1v-23.6h2.8v1.8c2.4-1.3,5-2,7.6-2.2c6.5,0,7.9,3,7.9,11.7v12.3h-2.8v-12.3c0-6.9-0.8-9.2-5.5-9.2
	c-2.5,0.1-5,0.8-7.3,2v19.5H32.1z"/>
<path d="M58.6,209.1h2.8v3.5h-2.8V209.1z M58.6,218.5h2.8v23.6h-2.8V218.5z"/>
<path d="M69.7,218.5l6.1,21.1h1.8l6.2-21.1h2.9l-7,23.6h-6.1l-6.9-23.6H69.7z"/>
<path d="M108.7,239.6l0.1,2.4c0,0-5.3,0.7-9,0.7c-7,0-9.2-4.3-9.2-12.2c0-9.1,4-12.3,9.7-12.3c6.1,0,9.3,3.2,9.3,11.1l-0.1,2.3h-16
	c0,5.6,1.6,8.5,6.6,8.5C103.5,240,108.7,239.6,108.7,239.6z M106.8,229.1c0-6.2-2-8.5-6.5-8.5s-6.8,2.4-6.8,8.5H106.8z"/>
<path d="M116.3,218.5h2.8v3.4c2.6-1.9,5.5-3.2,8.6-3.8v2.9c-3.1,0.7-6,1.9-8.6,3.6v17.6h-2.8V218.5z"/>
<path d="M148,221.4c-2.7-0.4-5.4-0.7-8.2-0.8c-3,0-5.6,0.8-5.6,4c0,2.4,1.2,3.2,6.1,4c6.2,1,8.5,2.1,8.5,6.6c0,5.5-3.4,7.3-9.1,7.3
	c-2.7-0.1-5.4-0.4-8.1-0.9l0.2-2.5c2.5,0.4,5.1,0.7,7.7,0.8c4.1,0,6.5-0.9,6.5-4.6c0-2.8-1.4-3.4-6.5-4.2c-5.7-0.9-8.2-1.9-8.2-6.5
	c0-5.1,4.2-6.6,8.3-6.6c2.8,0.1,5.6,0.3,8.4,0.8L148,221.4z"/>
<path d="M155.6,209.1h2.8v3.5h-2.8V209.1z M155.6,218.5h2.8v23.6h-2.8V218.5z"/>
<path d="M170.1,221.1v11.5c0,5.9,0.4,7.4,3.7,7.4c1.3,0,4.4-0.3,4.4-0.3l0.1,2.5c-1.6,0.2-3.2,0.4-4.8,0.5c-4.6,0-6.3-1.7-6.3-8.5
	v-13h-3.5v-2.6h3.5v-7.4h2.8v7.4h7.9v2.6L170.1,221.1z"/>
<path d="M183.8,218.5l6.3,20.9h1.7l6.3-20.9h2.9l-10.2,34.2H188l3.1-10.6h-3.2l-6.9-23.6L183.8,218.5z"/>
<path d="M235.7,230c0,8.4-1.9,12.6-9.8,12.6s-10-3.7-10-12.6c0-8.3,2.6-11.8,10-11.8C232.7,218.1,235.7,221.7,235.7,230z M232.8,230
	c0-6.8-2.1-9.3-6.9-9.3c-5.4,0-7.1,2.3-7.1,9.3s1,10.1,7.1,10.1S232.8,236.7,232.8,230z"/>
<path d="M245.5,242.1h-2.8v-21h-3.1v-2.6h3.1v-2.4c0-6.8,1.7-8.5,6.2-8.5c1.6,0,4.6,0.3,4.6,0.3v2.4c0,0-2.8-0.1-4.1-0.1
	c-2.8,0-3.8,1.2-3.8,6v2.4h7.2v2.6h-7.2L245.5,242.1z"/>
<path d="M269.4,209.2h5.3l10.3,28.6l10.3-28.6h5.2v32.9h-2.9v-29.6H297L286.6,241h-3.4L273,212.5h-0.7v29.6h-2.9L269.4,209.2z"/>
<path d="M325.1,238.2c0.1,1.4,1.5,1.9,3.1,2.1l-0.1,2.3c-2.3,0-4-0.5-5.3-1.9c-2.8,1.2-5.8,1.8-8.9,1.9c-4.1,0-6.5-2.4-6.5-7.1
	c0-4.3,2.2-6.4,6.9-6.9l8-0.8v-2.1c0-3.5-1.6-4.9-4.6-4.9c-3.4,0-8.9,0.7-8.9,0.7l-0.1-2.4c3.1-0.5,6.1-0.8,9.2-0.9
	c4.9,0,7.2,2.4,7.2,7.5V238.2z M314.7,230.8c-3.2,0.3-4.3,1.8-4.3,4.6c0,3,1.3,4.7,3.9,4.7c2.8-0.1,5.5-0.7,8.1-1.6V230L314.7,230.8
	z"/>
<path d="M333.9,218.5h2.8v3.4c2.6-1.9,5.5-3.2,8.6-3.8v2.9c-3.1,0.7-6,1.9-8.6,3.6v17.6h-2.8V218.5z"/>
<path d="M350.2,209.1h2.8v3.5h-2.8V209.1z M350.2,218.5h2.8v23.6h-2.8V218.5z"/>
<path d="M379.9,229.9c0,9.1-2.4,12.7-11,12.7c-3,0-7.6-0.5-7.6-0.5v-34h2.8v11.7c2.3-1,4.8-1.6,7.4-1.6
	C378,218.1,379.9,221.5,379.9,229.9z M377,229.9c0-6.5-1.1-9.2-5.7-9.2c-2.5,0.1-4.9,0.6-7.2,1.5v17.5c0,0,3.3,0.3,4.7,0.3
	C375.9,240,377,236.8,377,229.9L377,229.9z"/>
<path d="M404.8,230c0,8.4-1.9,12.6-9.8,12.6s-10-3.7-10-12.6c0-8.3,2.6-11.8,10-11.8C401.8,218.1,404.8,221.7,404.8,230z M401.8,230
	c0-6.8-2.1-9.3-6.9-9.3c-5.4,0-7.1,2.3-7.1,9.3s1,10.1,7.1,10.1S401.9,236.7,401.8,230L401.8,230z"/>
<path d="M411.6,218.5h2.8v3.4c2.6-1.9,5.5-3.2,8.6-3.8v2.9c-3.1,0.7-6,1.9-8.6,3.6v17.6h-2.8V218.5z"/>
</svg>
